P3
10 10
255
255 175 175 255 175 175 255 175 175 255 175 175 255 175 175 0 0 0 0 0 0 0 0 0 0 0 0 0 0 0
0 0 0 255 175 175 255 175 175 255 175 175 255 175 175 255 175 175 255 175 175 0 0 0 0 0 0 0 0 0
0 0 0 0 0 0 0 0 0 0 0 0 0 0 0 0 0 0 0 0 0 255 175 175 0 0 0 0 0 0
0 0 0 0 0 0 0 0 0 255 175 175 0 0 0 255 175 175 0 0 0 0 0 0 0 0 0 255 175 175
0 0 0 0 0 0 0 0 0 0 0 0 255 175 175 255 175 175 0 0 0 0 0 0 0 0 0 0 0 0
255 175 175 255 175 175 255 175 175 0 0 0 0 0 0 0 0 0 0 0 0 0 0 0 255 175 175 255 175 175
0 0 0 255 175 175 0 0 0 0 0 0 0 0 0 0 0 0 255 175 175 255 175 175 255 175 175 255 175 175
0 0 0 0 0 0 255 175 175 0 0 0 255 175 175 255 175 175 255 175 175 255 175 175 0 0 0 255 175 175
0 0 0 255 175 175 255 175 175 255 175 175 0 0 0 0 0 0 255 175 175 255 175 175 255 175 175 255 175 175
0 0 0 255 175 175 255 175 175 255 175 175 255 175 175 255 175 175 255 175 175 0 0 0 255 175 175 255 175 175
