P3
50 50
255
255 255 255 255 53 154 255 53 154 255 53 154 255 53 154 255 53 154 255 53 154 255 53 154 255 53 154 255 53 154 255 53 154 255 53 154 255 0 128 255 0 128 255 255 255 255 255 255 255 255 255 255 255 255 255 255 255 255 255 255 255 255 255 255 255 255 255 255 255 255 255 255 255 255 255 255 255 255 255 255 255 255 255 255 255 255 255 255 255 255 255 255 255 255 255 255 255 255 255 255 255 255 255 255 255 255 255 255 255 0 128 255 53 154 255 53 154 255 53 154 255 53 154 255 53 154 255 53 154 255 53 154 255 53 154 255 53 154 255 53 154 255 53 154 255 53 154 255 53 154
255 53 154 255 53 154 255 53 154 255 53 154 255 53 154 255 53 154 255 53 154 255 53 154 255 53 154 255 53 154 255 53 154 255 53 154 255 53 154 255 53 154 255 255 255 255 255 255 255 255 255 255 255 255 255 255 255 255 255 255 255 255 255 255 255 255 255 255 255 255 255 255 255 255 255 255 255 255 255 255 255 255 255 255 255 255 255 255 255 255 255 255 255 255 255 255 255 255 255 255 255 255 255 255 255 255 255 255 255 53 154 255 53 154 255 53 154 255 53 154 255 53 154 255 53 154 255 53 154 255 53 154 255 53 154 255 53 154 255 53 154 255 53 154 255 53 154 255 53 154
255 53 154 255 53 154 255 53 154 255 53 154 255 53 154 255 53 154 255 53 154 255 53 154 255 53 154 255 53 154 255 53 154 255 53 154 255 53 154 255 53 154 255 255 255 255 255 255 255 255 255 255 255 255 255 255 255 255 255 255 255 255 255 255 255 255 255 255 255 255 255 255 255 255 255 255 255 255 255 255 255 255 255 255 255 255 255 255 255 255 255 255 255 255 255 255 255 255 255 255 255 255 255 255 255 255 255 255 255 53 154 255 53 154 255 53 154 255 53 154 255 53 154 255 53 154 255 53 154 255 53 154 255 53 154 255 53 154 255 53 154 255 53 154 255 53 154 255 53 154
255 53 154 255 53 154 255 53 154 255 53 154 255 53 154 255 53 154 255 53 154 255 53 154 255 53 154 255 53 154 255 53 154 255 53 154 255 53 154 255 53 154 255 255 255 255 255 255 255 255 255 255 255 255 255 255 255 255 255 255 255 255 255 255 255 255 255 255 255 255 255 255 255 255 255 255 255 255 255 255 255 255 255 255 255 255 255 255 255 255 255 255 255 255 255 255 255 255 255 255 255 255 255 255 255 255 255 255 255 0 128 255 53 154 255 53 154 255 53 154 255 53 154 255 53 154 255 53 154 255 53 154 255 53 154 255 53 154 255 53 154 255 53 154 255 53 154 255 53 154
255 53 154 255 53 154 255 53 154 255 53 154 255 53 154 255 53 154 255 53 154 255 53 154 255 53 154 255 53 154 255 53 154 255 53 154 255 53 154 255 53 154 255 255 255 255 255 255 255 255 255 255 255 255 255 255 255 255 255 255 255 255 255 255 255 255 255 255 255 255 255 255 255 255 255 255 255 255 255 255 255 255 255 255 255 255 255 255 255 255 255 255 255 255 255 255 255 255 255 255 255 255 255 255 255 255 255 255 255 0 128 255 53 154 255 53 154 255 53 154 255 53 154 255 53 154 255 53 154 255 53 154 255 53 154 255 53 154 255 53 154 255 53 154 255 53 154 255 53 154
255 53 154 255 53 154 255 53 154 255 53 154 255 53 154 255 53 154 255 53 154 255 53 154 255 53 154 255 53 154 255 53 154 255 53 154 255 53 154 255 53 154 255 255 255 255 255 255 255 255 255 255 255 255 255 255 255 255 255 255 255 255 255 255 255 255 255 255 255 255 255 255 255 255 255 255 255 255 255 255 255 255 255 255 255 255 255 255 255 255 255 255 255 255 255 255 255 255 255 255 255 255 255 255 255 255 255 255 255 0 128 255 0 128 255 53 154 255 53 154 255 53 154 255 53 154 255 53 154 255 53 154 255 53 154 255 53 154 255 53 154 255 53 154 255 53 154 255 53 154
255 53 154 255 53 154 255 53 154 255 53 154 255 53 154 255 53 154 255 53 154 255 53 154 255 53 154 255 53 154 255 53 154 255 53 154 255 53 154 255 53 154 255 255 255 255 255 255 255 255 255 255 255 255 255 255 255 255 255 255 255 255 255 255 255 255 255 255 255 255 255 255 255 255 255 255 255 255 255 255 255 255 255 255 255 255 255 255 255 255 255 255 255 255 255 255 255 255 255 255 255 255 255 255 255 255 255 255 255 0 128 255 0 128 255 0 128 255 53 154 255 53 154 255 53 154 255 53 154 255 53 154 255 53 154 255 53 154 255 53 154 255 53 154 255 53 154 255 53 154
255 53 154 255 53 154 255 53 154 255 53 154 255 53 154 255 53 154 255 53 154 255 53 154 255 53 154 255 53 154 255 53 154 255 53 154 255 53 154 255 53 154 255 53 154 255 255 255 255 255 255 255 255 255 255 255 255 255 255 255 255 255 255 255 255 255 255 255 255 255 255 255 255 255 255 255 255 255 255 255 255 255 255 255 255 255 255 255 255 255 255 255 255 255 255 255 255 255 255 255 255 255 255 255 255 255 255 255 255 0 128 255 0 128 255 0 128 255 0 128 255 53 154 255 53 154 255 53 154 255 53 154 255 53 154 255 53 154 255 53 154 255 53 154 255 53 154 255 53 154
255 53 154 255 53 154 255 53 154 255 53 154 255 53 154 255 53 154 255 53 154 255 53 154 255 53 154 255 53 154 255 53 154 255 53 154 255 53 154 255 53 154 255 53 154 255 53 154 255 53 154 255 53 154 255 53 154 255 53 154 255 53 154 255 53 154 255 53 154 255 255 255 255 255 255 255 255 255 255 255 255 255 255 255 255 255 255 255 255 255 255 255 255 255 255 255 255 255 255 255 255 255 255 255 255 255 255 255 255 0 128 255 0 128 255 0 128 255 0 128 255 53 154 255 53 154 255 53 154 255 53 154 255 53 154 255 53 154 255 53 154 255 53 154 255 53 154 255 53 154
255 53 154 255 53 154 255 53 154 255 53 154 255 53 154 255 53 154 255 53 154 255 53 154 255 53 154 255 53 154 255 53 154 255 53 154 255 53 154 255 53 154 255 53 154 255 53 154 255 53 154 255 53 154 255 53 154 255 53 154 255 53 154 255 53 154 255 53 154 255 255 255 255 255 255 255 255 255 255 255 255 255 255 255 255 255 255 255 255 255 255 255 255 255 255 255 255 255 255 255 255 255 255 255 255 255 255 255 255 0 128 255 0 128 255 0 128 255 0 128 255 0 128 255 53 154 255 53 154 255 53 154 255 53 154 255 53 154 255 53 154 255 53 154 255 53 154 255 53 154
255 53 154 255 53 154 255 53 154 255 53 154 255 53 154 255 53 154 255 53 154 255 53 154 255 53 154 255 53 154 255 53 154 255 53 154 255 53 154 255 53 154 255 53 154 255 53 154 255 53 154 255 53 154 255 53 154 255 53 154 255 53 154 255 53 154 255 53 154 255 255 255 255 255 255 255 255 255 255 255 255 255 255 255 255 255 255 255 255 255 255 255 255 255 255 255 255 255 255 255 255 255 255 255 255 255 255 255 255 0 128 255 0 128 255 0 128 255 0 128 255 0 128 255 53 154 255 53 154 255 53 154 255 53 154 255 53 154 255 53 154 255 53 154 255 53 154 255 53 154
255 53 154 255 53 154 255 53 154 255 53 154 255 53 154 255 53 154 255 53 154 255 53 154 255 53 154 255 53 154 255 53 154 255 53 154 255 53 154 255 53 154 255 53 154 255 53 154 255 53 154 255 53 154 255 53 154 255 53 154 255 53 154 255 53 154 255 53 154 255 255 255 255 255 255 255 255 255 255 255 255 255 255 255 255 255 255 255 255 255 255 255 255 255 255 255 255 255 255 255 255 255 255 255 255 255 255 255 255 0 128 255 0 128 255 0 128 255 0 128 255 0 128 255 53 154 255 53 154 255 53 154 255 53 154 255 53 154 255 53 154 255 53 154 255 53 154 255 53 154
255 53 154 255 53 154 255 53 154 255 53 154 255 53 154 255 53 154 255 53 154 255 53 154 255 53 154 255 53 154 255 53 154 255 53 154 255 53 154 255 53 154 255 53 154 255 53 154 255 53 154 255 53 154 255 53 154 255 53 154 255 53 154 255 53 154 255 53 154 255 255 255 255 255 255 255 255 255 255 255 255 255 255 255 255 255 255 255 255 255 255 255 255 255 255 255 255 255 255 255 255 255 255 255 255 255 255 255 255 0 128 255 0 128 255 0 128 255 0 128 255 0 128 255 53 154 255 53 154 255 53 154 255 53 154 255 53 154 255 53 154 255 53 154 255 53 154 255 53 154
255 53 154 255 53 154 255 53 154 255 53 154 255 53 154 255 53 154 255 53 154 255 53 154 255 53 154 255 53 154 255 53 154 255 53 154 255 53 154 255 53 154 255 53 154 255 53 154 255 53 154 255 53 154 255 53 154 255 53 154 255 53 154 255 53 154 255 53 154 255 255 255 255 255 255 255 255 255 255 255 255 255 255 255 255 255 255 255 255 255 255 255 255 255 255 255 255 255 255 255 255 255 255 255 255 255 255 255 255 0 128 255 0 128 255 0 128 255 0 128 255 53 154 255 53 154 255 53 154 255 53 154 255 53 154 255 53 154 255 53 154 255 53 154 255 53 154 255 53 154
255 53 154 255 53 154 255 53 154 255 53 154 255 53 154 255 53 154 255 53 154 255 53 154 255 53 154 255 53 154 255 53 154 255 53 154 255 53 154 255 53 154 255 53 154 255 53 154 255 53 154 255 53 154 255 53 154 255 53 154 255 53 154 255 53 154 255 53 154 255 255 255 255 255 255 255 255 255 255 255 255 255 255 255 255 255 255 255 255 255 255 255 255 255 255 255 255 255 255 255 255 255 255 255 255 255 255 255 255 0 128 255 0 128 255 0 128 255 0 128 255 53 154 255 53 154 255 53 154 255 53 154 255 53 154 255 53 154 255 53 154 255 53 154 255 53 154 255 53 154
255 53 154 255 53 154 255 53 154 255 53 154 255 53 154 255 53 154 255 53 154 255 53 154 255 53 154 255 53 154 255 53 154 255 53 154 255 53 154 255 53 154 255 53 154 255 53 154 255 53 154 255 53 154 255 53 154 255 53 154 255 53 154 255 53 154 255 53 154 255 255 255 255 255 255 255 255 255 255 255 255 255 255 255 255 255 255 255 255 255 255 255 255 255 255 255 255 255 255 255 255 255 255 255 255 255 255 255 255 0 128 255 0 128 255 0 128 255 0 128 255 53 154 255 53 154 255 53 154 255 53 154 255 53 154 255 53 154 255 53 154 255 53 154 255 53 154 255 53 154
255 53 154 255 53 154 255 53 154 255 53 154 255 53 154 255 53 154 255 53 154 255 53 154 255 53 154 255 53 154 255 53 154 255 53 154 255 53 154 255 53 154 255 53 154 255 53 154 255 53 154 255 53 154 255 53 154 255 53 154 255 53 154 255 53 154 255 53 154 255 255 255 255 255 255 255 255 255 255 255 255 255 255 255 255 255 255 255 255 255 255 255 255 255 255 255 255 255 255 255 255 255 255 255 255 255 255 255 255 0 128 255 0 128 255 0 128 255 53 154 255 53 154 255 53 154 255 53 154 255 53 154 255 53 154 255 53 154 255 53 154 255 53 154 255 53 154 255 53 154
255 53 154 255 53 154 255 53 154 255 53 154 255 53 154 255 53 154 255 53 154 255 53 154 255 53 154 255 53 154 255 53 154 255 53 154 255 53 154 255 53 154 255 53 154 255 53 154 255 53 154 255 53 154 255 53 154 255 53 154 255 53 154 255 53 154 255 53 154 255 255 255 255 255 255 255 255 255 255 255 255 255 255 255 255 255 255 255 255 255 255 255 255 255 255 255 255 255 255 255 255 255 255 255 255 255 255 255 255 0 128 255 0 128 255 0 128 255 53 154 255 53 154 255 53 154 255 53 154 255 53 154 255 53 154 255 53 154 255 53 154 255 53 154 255 53 154 255 53 154
255 53 154 255 53 154 255 53 154 255 53 154 255 53 154 255 53 154 255 53 154 255 53 154 255 53 154 255 53 154 255 53 154 255 53 154 255 53 154 255 53 154 255 53 154 255 53 154 255 53 154 255 53 154 255 53 154 255 53 154 255 53 154 255 53 154 255 53 154 255 255 255 255 255 255 255 255 255 255 255 255 255 255 255 255 255 255 255 255 255 255 255 255 255 255 255 255 255 255 255 255 255 255 255 255 255 255 255 255 0 128 255 0 128 255 53 154 255 53 154 255 53 154 255 53 154 255 53 154 255 53 154 255 53 154 255 53 154 255 53 154 255 53 154 255 53 154 255 53 154
255 53 154 255 53 154 255 53 154 255 53 154 255 53 154 255 53 154 255 53 154 255 53 154 255 53 154 255 53 154 255 53 154 255 53 154 255 53 154 255 53 154 255 53 154 255 53 154 255 53 154 255 53 154 255 53 154 255 53 154 255 53 154 255 53 154 255 53 154 255 255 255 255 255 255 255 255 255 255 255 255 255 255 255 255 255 255 255 255 255 255 255 255 255 255 255 255 255 255 255 255 255 255 255 255 255 255 255 255 0 128 255 53 154 255 53 154 255 53 154 255 53 154 255 53 154 255 53 154 255 53 154 255 53 154 255 53 154 255 53 154 255 53 154 255 53 154 255 53 154
255 53 154 255 53 154 255 53 154 255 53 154 255 53 154 255 53 154 255 53 154 255 53 154 255 53 154 255 53 154 255 53 154 255 53 154 255 53 154 255 53 154 255 53 154 255 53 154 255 53 154 255 53 154 255 53 154 255 53 154 255 53 154 255 53 154 255 53 154 255 255 255 255 255 255 255 255 255 255 255 255 255 255 255 255 255 255 255 255 255 255 255 255 255 255 255 255 255 255 255 255 255 255 255 255 255 255 255 255 0 128 255 53 154 255 53 154 255 53 154 255 53 154 255 53 154 255 53 154 255 53 154 255 53 154 255 53 154 255 53 154 255 53 154 255 53 154 255 53 154
255 53 154 255 53 154 255 53 154 255 53 154 255 53 154 255 53 154 255 53 154 255 53 154 255 53 154 255 53 154 255 53 154 255 53 154 255 53 154 255 53 154 255 53 154 255 53 154 255 255 255 255 255 255 255 255 255 255 255 255 255 255 255 255 255 255 255 255 255 255 255 255 255 255 255 255 255 255 255 255 255 255 255 255 255 255 255 255 255 255 255 255 255 255 255 255 255 255 255 255 255 255 255 255 255 255 255 255 255 53 154 255 53 154 255 53 154 255 53 154 255 53 154 255 53 154 255 53 154 255 53 154 255 53 154 255 53 154 255 53 154 255 53 154 255 53 154 255 53 154
255 53 154 255 53 154 255 53 154 255 53 154 255 53 154 255 53 154 255 53 154 255 53 154 255 53 154 255 53 154 255 53 154 255 53 154 255 53 154 255 53 154 255 53 154 255 53 154 255 255 255 255 255 255 255 255 255 255 255 255 255 255 255 255 255 255 255 255 255 255 255 255 255 255 255 255 255 255 255 255 255 255 255 255 255 255 255 255 255 255 255 255 255 255 255 255 255 255 255 255 255 255 255 255 255 255 255 255 255 53 154 255 53 154 255 53 154 255 53 154 255 53 154 255 53 154 255 53 154 255 53 154 255 53 154 255 53 154 255 53 154 255 53 154 255 53 154 255 53 154
255 53 154 255 53 154 255 53 154 255 53 154 255 53 154 255 53 154 255 53 154 255 53 154 255 53 154 255 53 154 255 53 154 255 53 154 255 53 154 255 53 154 255 53 154 255 53 154 255 255 255 255 255 255 255 255 255 255 255 255 255 255 255 255 255 255 255 255 255 255 255 255 255 255 255 255 255 255 255 255 255 255 255 255 255 255 255 255 255 255 255 255 255 255 255 255 255 255 255 255 255 255 255 255 255 255 255 255 255 255 255 255 53 154 255 53 154 255 53 154 255 53 154 255 53 154 255 53 154 255 53 154 255 53 154 255 53 154 255 53 154 255 53 154 255 53 154 255 53 154
255 53 154 255 53 154 255 53 154 255 53 154 255 53 154 255 53 154 255 53 154 255 53 154 255 53 154 255 53 154 255 53 154 255 53 154 255 53 154 255 53 154 255 53 154 255 53 154 255 255 255 255 255 255 255 255 255 255 255 255 255 255 255 255 255 255 255 255 255 255 255 255 255 255 255 255 255 255 255 255 255 255 255 255 255 255 255 255 255 255 255 255 255 255 255 255 255 255 255 255 255 255 255 255 255 255 255 255 255 255 255 255 53 154 255 53 154 255 53 154 255 53 154 255 53 154 255 53 154 255 53 154 255 53 154 255 53 154 255 53 154 255 53 154 255 53 154 255 53 154
255 53 154 255 53 154 255 53 154 255 53 154 255 53 154 255 53 154 255 53 154 255 53 154 255 53 154 255 53 154 255 53 154 255 53 154 255 53 154 255 53 154 255 53 154 255 53 154 255 255 255 255 255 255 255 255 255 255 255 255 255 255 255 255 255 255 255 255 255 255 255 255 255 255 255 255 255 255 255 255 255 255 255 255 255 255 255 255 255 255 255 255 255 255 255 255 255 255 255 255 255 255 255 255 255 255 255 255 255 255 255 255 53 154 255 53 154 255 53 154 255 53 154 255 53 154 255 53 154 255 53 154 255 53 154 255 53 154 255 53 154 255 53 154 255 53 154 255 53 154
255 53 154 255 53 154 255 53 154 255 53 154 255 53 154 255 53 154 255 53 154 255 53 154 255 53 154 255 53 154 255 53 154 255 53 154 255 53 154 255 53 154 255 53 154 255 53 154 255 255 255 255 255 255 255 255 255 255 255 255 255 255 255 255 255 255 255 255 255 255 255 255 255 255 255 255 255 255 255 255 255 255 255 255 255 255 255 255 255 255 255 255 255 255 255 255 255 255 255 255 255 255 255 255 255 255 255 255 255 255 255 255 53 154 255 53 154 255 53 154 255 53 154 255 53 154 255 53 154 255 53 154 255 53 154 255 53 154 255 53 154 255 53 154 255 53 154 255 53 154
255 53 154 255 53 154 255 53 154 255 53 154 255 53 154 255 53 154 255 53 154 255 53 154 255 53 154 255 53 154 255 53 154 255 53 154 255 53 154 255 53 154 255 53 154 255 53 154 255 255 255 255 255 255 255 255 255 255 255 255 255 255 255 255 255 255 255 255 255 255 255 255 255 255 255 255 255 255 255 255 255 255 255 255 255 255 255 255 255 255 255 255 255 255 255 255 255 255 255 255 255 255 255 255 255 255 255 255 255 255 255 255 53 154 255 53 154 255 53 154 255 53 154 255 53 154 255 53 154 255 53 154 255 53 154 255 53 154 255 53 154 255 53 154 255 53 154 255 53 154
255 53 154 255 53 154 255 53 154 255 53 154 255 53 154 255 53 154 255 53 154 255 53 154 255 53 154 255 53 154 255 53 154 255 53 154 255 53 154 255 53 154 255 53 154 255 53 154 255 255 255 255 255 255 255 255 255 255 255 255 255 255 255 255 255 255 255 255 255 255 255 255 255 255 255 255 255 255 255 255 255 255 255 255 255 255 255 255 255 255 255 255 255 255 255 255 255 255 255 255 255 255 255 255 255 255 255 255 255 255 255 255 53 154 255 53 154 255 53 154 255 53 154 255 53 154 255 53 154 255 53 154 255 53 154 255 53 154 255 53 154 255 53 154 255 53 154 255 53 154
255 53 154 255 53 154 255 53 154 255 53 154 255 53 154 255 53 154 255 53 154 255 53 154 255 53 154 255 53 154 255 53 154 255 53 154 255 53 154 255 53 154 255 53 154 255 53 154 255 255 255 255 255 255 255 255 255 255 255 255 255 255 255 255 255 255 255 255 255 255 255 255 255 255 255 255 255 255 255 255 255 255 255 255 255 255 255 255 255 255 255 255 255 255 255 255 255 255 255 255 255 255 255 255 255 255 255 255 255 255 255 255 53 154 255 53 154 255 53 154 255 53 154 255 53 154 255 53 154 255 53 154 255 53 154 255 53 154 255 53 154 255 53 154 255 53 154 255 53 154
255 53 154 255 53 154 255 53 154 255 53 154 255 53 154 255 53 154 255 53 154 255 53 154 255 53 154 255 53 154 255 53 154 255 53 154 255 53 154 255 53 154 255 53 154 255 53 154 255 255 255 255 255 255 255 255 255 255 255 255 255 255 255 255 255 255 255 255 255 255 255 255 255 255 255 255 255 255 255 255 255 255 255 255 255 255 255 255 255 255 255 255 255 255 255 255 255 255 255 255 255 255 255 255 255 255 255 255 255 255 255 255 53 154 255 53 154 255 53 154 255 53 154 255 53 154 255 53 154 255 53 154 255 53 154 255 53 154 255 53 154 255 53 154 255 53 154 255 53 154
255 53 154 255 53 154 255 53 154 255 53 154 255 53 154 255 53 154 255 53 154 255 53 154 255 53 154 255 53 154 255 53 154 255 53 154 255 53 154 255 53 154 255 53 154 255 53 154 255 255 255 255 255 255 255 255 255 255 255 255 255 255 255 255 255 255 255 255 255 255 255 255 255 255 255 255 255 255 255 255 255 255 255 255 255 255 255 255 255 255 255 255 255 255 255 255 255 255 255 255 255 255 255 255 255 255 255 255 255 255 255 255 53 154 255 53 154 255 53 154 255 53 154 255 53 154 255 53 154 255 53 154 255 53 154 255 53 154 255 53 154 255 53 154 255 53 154 255 53 154
255 53 154 255 53 154 255 53 154 255 53 154 255 53 154 255 53 154 255 53 154 255 53 154 255 53 154 255 53 154 255 53 154 255 53 154 255 53 154 255 53 154 255 53 154 255 53 154 255 255 255 255 255 255 255 255 255 255 255 255 255 255 255 255 255 255 255 255 255 255 255 255 255 255 255 255 255 255 255 255 255 255 255 255 255 255 255 255 255 255 255 255 255 255 255 255 255 255 255 255 255 255 255 255 255 255 255 255 255 255 255 255 53 154 255 53 154 255 53 154 255 53 154 255 53 154 255 53 154 255 53 154 255 53 154 255 53 154 255 53 154 255 53 154 255 53 154 255 53 154
255 53 154 255 53 154 255 53 154 255 53 154 255 53 154 255 53 154 255 53 154 255 53 154 255 53 154 255 53 154 255 53 154 255 53 154 255 53 154 255 53 154 255 53 154 255 53 154 255 255 255 255 255 255 255 255 255 255 255 255 255 255 255 255 255 255 255 255 255 255 255 255 255 255 255 255 255 255 255 255 255 255 255 255 255 255 255 255 255 255 255 255 255 255 255 255 255 255 255 255 255 255 255 255 255 255 255 255 255 255 255 255 53 154 255 53 154 255 53 154 255 53 154 255 53 154 255 53 154 255 53 154 255 53 154 255 53 154 255 53 154 255 53 154 255 53 154 255 53 154
255 53 154 255 53 154 255 53 154 255 53 154 255 53 154 255 53 154 255 53 154 255 53 154 255 53 154 255 53 154 255 53 154 255 53 154 255 53 154 255 53 154 255 53 154 255 53 154 255 255 255 255 255 255 255 255 255 255 255 255 255 255 255 255 255 255 255 255 255 255 255 255 255 255 255 255 255 255 255 255 255 255 255 255 255 255 255 255 255 255 255 255 255 255 255 255 255 255 255 255 255 255 255 255 255 255 255 255 255 255 255 255 53 154 255 53 154 255 53 154 255 53 154 255 53 154 255 53 154 255 53 154 255 53 154 255 53 154 255 53 154 255 53 154 255 53 154 255 53 154
255 53 154 255 53 154 255 53 154 255 53 154 255 53 154 255 53 154 255 53 154 255 53 154 255 53 154 255 53 154 255 53 154 255 53 154 255 53 154 255 53 154 255 53 154 255 53 154 255 53 154 255 255 255 255 255 255 255 255 255 255 255 255 255 255 255 255 255 255 255 255 255 255 255 255 255 255 255 255 255 255 255 255 255 255 255 255 255 255 255 255 255 255 255 255 255 255 255 255 255 255 255 255 255 255 255 255 255 255 53 154 255 53 154 255 53 154 255 53 154 255 53 154 255 53 154 255 53 154 255 53 154 255 53 154 255 53 154 255 53 154 255 53 154 255 53 154 255 53 154
255 53 154 255 53 154 255 53 154 255 53 154 255 53 154 255 53 154 255 53 154 255 53 154 255 53 154 255 53 154 255 53 154 255 53 154 255 53 154 255 53 154 255 53 154 255 53 154 255 53 154 255 53 154 255 53 154 255 53 154 255 53 154 255 53 154 255 53 154 255 53 154 255 53 154 255 53 154 255 53 154 255 53 154 255 53 154 255 53 154 255 53 154 255 53 154 255 53 154 255 53 154 255 53 154 255 53 154 255 53 154 255 53 154 255 53 154 255 53 154 255 53 154 255 53 154 255 53 154 255 53 154 255 53 154 255 53 154 255 53 154 255 53 154 255 53 154 255 53 154
255 53 154 255 53 154 255 53 154 255 53 154 255 53 154 255 53 154 255 53 154 255 53 154 255 53 154 255 53 154 255 53 154 255 53 154 255 53 154 255 53 154 255 53 154 255 53 154 255 53 154 255 53 154 255 53 154 255 53 154 255 53 154 255 53 154 255 53 154 255 53 154 255 53 154 255 53 154 255 53 154 255 53 154 255 53 154 255 53 154 255 53 154 255 53 154 255 53 154 255 53 154 255 53 154 255 53 154 255 53 154 255 53 154 255 53 154 255 53 154 255 53 154 255 53 154 255 53 154 255 53 154 255 53 154 255 53 154 255 53 154 255 53 154 255 53 154 255 53 154
255 53 154 255 53 154 255 53 154 255 53 154 255 53 154 255 53 154 255 53 154 255 53 154 255 53 154 255 53 154 255 53 154 255 53 154 255 53 154 255 53 154 255 53 154 255 53 154 255 53 154 255 53 154 255 53 154 255 53 154 255 53 154 255 53 154 255 53 154 255 53 154 255 53 154 255 53 154 255 53 154 255 53 154 255 53 154 255 53 154 255 53 154 255 53 154 255 53 154 255 53 154 255 53 154 255 53 154 255 53 154 255 53 154 255 53 154 255 53 154 255 53 154 255 53 154 255 53 154 255 53 154 255 53 154 255 53 154 255 53 154 255 53 154 255 53 154 255 53 154
255 53 154 255 53 154 255 53 154 255 53 154 255 53 154 255 53 154 255 53 154 255 53 154 255 53 154 255 53 154 255 53 154 255 53 154 255 53 154 255 53 154 255 53 154 255 53 154 255 53 154 255 53 154 255 53 154 255 53 154 255 53 154 255 53 154 255 53 154 255 53 154 255 53 154 255 53 154 255 53 154 255 53 154 255 53 154 255 53 154 255 53 154 255 53 154 255 53 154 255 53 154 255 53 154 255 53 154 255 53 154 255 53 154 255 53 154 255 53 154 255 53 154 255 53 154 255 53 154 255 53 154 255 53 154 255 53 154 255 53 154 255 53 154 255 53 154 255 53 154
255 53 154 255 53 154 255 53 154 255 53 154 255 53 154 255 53 154 255 53 154 255 53 154 255 53 154 255 53 154 255 53 154 255 53 154 255 53 154 255 53 154 255 53 154 255 53 154 255 53 154 255 53 154 255 53 154 255 53 154 255 53 154 255 53 154 255 53 154 255 53 154 255 53 154 255 53 154 255 53 154 255 53 154 255 53 154 255 53 154 255 53 154 255 53 154 255 53 154 255 53 154 255 53 154 255 53 154 255 53 154 255 53 154 255 53 154 255 53 154 255 53 154 255 53 154 255 53 154 255 53 154 255 53 154 255 53 154 255 53 154 255 53 154 255 53 154 255 53 154
255 53 154 255 53 154 255 53 154 255 53 154 255 53 154 255 53 154 255 53 154 255 53 154 255 53 154 255 53 154 255 53 154 255 53 154 255 53 154 255 53 154 255 53 154 255 53 154 255 53 154 255 53 154 255 53 154 255 53 154 255 53 154 255 53 154 255 53 154 255 53 154 255 53 154 255 53 154 255 53 154 255 53 154 255 53 154 255 53 154 255 53 154 255 53 154 255 53 154 255 53 154 255 53 154 255 53 154 255 53 154 255 53 154 255 53 154 255 53 154 255 53 154 255 53 154 255 53 154 255 53 154 255 53 154 255 53 154 255 53 154 255 53 154 255 53 154 255 53 154
255 53 154 255 53 154 255 53 154 255 53 154 255 53 154 255 53 154 255 53 154 255 53 154 255 53 154 255 53 154 255 53 154 255 53 154 255 53 154 255 53 154 255 53 154 255 53 154 255 53 154 255 53 154 255 53 154 255 53 154 255 53 154 255 53 154 255 53 154 255 53 154 255 53 154 255 53 154 255 53 154 255 53 154 255 53 154 255 53 154 255 53 154 255 53 154 255 53 154 255 53 154 255 53 154 255 53 154 255 53 154 255 53 154 255 53 154 255 53 154 255 53 154 255 53 154 255 53 154 255 53 154 255 53 154 255 53 154 255 53 154 255 53 154 255 53 154 255 53 154
255 53 154 255 53 154 255 53 154 255 53 154 255 53 154 255 53 154 255 53 154 255 53 154 255 53 154 255 53 154 255 53 154 255 53 154 255 53 154 255 53 154 255 53 154 255 53 154 255 53 154 255 53 154 255 53 154 255 53 154 255 53 154 255 53 154 255 53 154 255 53 154 255 53 154 255 53 154 255 53 154 255 53 154 255 53 154 255 53 154 255 53 154 255 53 154 255 53 154 255 53 154 255 53 154 255 53 154 255 53 154 255 53 154 255 53 154 255 53 154 255 53 154 255 53 154 255 53 154 255 53 154 255 53 154 255 53 154 255 53 154 255 53 154 255 53 154 255 53 154
255 53 154 255 53 154 255 53 154 255 53 154 255 53 154 255 53 154 255 53 154 255 53 154 255 53 154 255 53 154 255 53 154 255 53 154 255 53 154 255 53 154 255 53 154 255 53 154 255 53 154 255 53 154 255 53 154 255 53 154 255 53 154 255 53 154 255 53 154 255 53 154 255 53 154 255 53 154 255 53 154 255 53 154 255 53 154 255 53 154 255 53 154 255 53 154 255 53 154 255 53 154 255 53 154 255 53 154 255 53 154 255 53 154 255 53 154 255 53 154 255 53 154 255 53 154 255 53 154 255 53 154 255 53 154 255 53 154 255 53 154 255 53 154 255 53 154 255 53 154
255 53 154 255 53 154 255 53 154 255 53 154 255 53 154 255 53 154 255 53 154 255 53 154 255 53 154 255 53 154 255 53 154 255 53 154 255 53 154 255 53 154 255 53 154 255 53 154 255 53 154 255 53 154 255 53 154 255 53 154 255 53 154 255 53 154 255 53 154 255 53 154 255 53 154 255 53 154 255 53 154 255 53 154 255 53 154 255 53 154 255 53 154 255 53 154 255 53 154 255 53 154 255 53 154 255 53 154 255 53 154 255 53 154 255 53 154 255 53 154 255 53 154 255 53 154 255 53 154 255 53 154 255 53 154 255 53 154 255 53 154 255 53 154 255 53 154 255 53 154
255 53 154 255 53 154 255 53 154 255 53 154 255 53 154 255 53 154 255 53 154 255 53 154 255 53 154 255 53 154 255 53 154 255 53 154 255 53 154 255 53 154 255 53 154 255 53 154 255 53 154 255 53 154 255 53 154 255 53 154 255 53 154 255 53 154 255 53 154 255 53 154 255 53 154 255 53 154 255 53 154 255 53 154 255 53 154 255 53 154 255 53 154 255 53 154 255 53 154 255 53 154 255 53 154 255 53 154 255 0 128 255 0 128 255 53 154 255 53 154 255 53 154 255 53 154 255 53 154 255 53 154 255 53 154 255 53 154 255 53 154 255 53 154 255 53 154 255 53 154
255 53 154 255 53 154 255 53 154 255 53 154 255 53 154 255 53 154 255 53 154 255 53 154 255 53 154 255 53 154 255 53 154 255 53 154 255 53 154 255 53 154 255 53 154 255 53 154 255 53 154 255 53 154 255 53 154 255 53 154 255 53 154 255 53 154 255 53 154 255 53 154 255 53 154 255 53 154 255 53 154 255 53 154 255 53 154 255 53 154 255 53 154 255 53 154 255 53 154 255 53 154 255 0 128 255 0 128 255 0 128 255 0 128 255 0 128 255 0 128 255 53 154 255 53 154 255 53 154 255 53 154 255 53 154 255 53 154 255 53 154 255 53 154 255 53 154 255 53 154
255 53 154 255 53 154 255 53 154 255 53 154 255 53 154 255 53 154 255 53 154 255 53 154 255 53 154 255 53 154 255 53 154 255 53 154 255 53 154 255 53 154 255 53 154 255 53 154 255 53 154 255 53 154 255 53 154 255 53 154 255 53 154 255 53 154 255 53 154 255 53 154 255 53 154 255 53 154 255 53 154 255 53 154 255 53 154 255 53 154 255 53 154 255 53 154 255 53 154 255 53 154 255 0 128 255 0 128 255 0 128 255 0 128 255 0 128 255 0 128 255 0 128 255 0 128 255 53 154 255 53 154 255 53 154 255 53 154 255 53 154 255 53 154 255 53 154 255 53 154
255 53 154 255 53 154 255 53 154 255 53 154 255 53 154 255 53 154 255 53 154 255 53 154 255 53 154 255 53 154 255 53 154 255 53 154 255 53 154 255 53 154 255 53 154 255 53 154 255 53 154 255 53 154 255 53 154 255 53 154 255 53 154 255 53 154 255 53 154 255 53 154 255 53 154 255 53 154 255 53 154 255 53 154 255 53 154 255 53 154 255 53 154 255 53 154 255 53 154 255 53 154 255 0 128 255 0 128 255 0 128 255 0 128 255 0 128 255 0 128 255 0 128 255 0 128 255 53 154 255 53 154 255 53 154 255 53 154 255 53 154 255 53 154 255 53 154 255 53 154
