P3
10 10
255
255 255 255 255 110 180 255 110 180 255 110 180 255 110 180 255 110 180 255 110 180 255 110 180 255 110 180 255 110 180
238 106 167 255 110 180 255 110 180 255 110 180 255 110 180 255 110 180 255 110 180 255 110 180 255 110 180 255 110 180
255 110 180 255 110 180 255 110 180 255 110 180 255 110 180 255 110 180 255 110 180 255 110 180 255 110 180 255 110 180
255 110 180 255 110 180 255 110 180 255 110 180 255 110 180 255 110 180 255 110 180 255 110 180 255 110 180 255 110 180
238 106 167 255 255 255 255 255 255 255 255 255 255 255 255 255 255 255 255 255 255 255 110 180 255 110 180 255 110 180
238 106 167 255 255 255 255 255 255 255 255 255 255 255 255 255 255 255 255 255 255 255 255 255 255 110 180 255 110 180
238 106 167 255 255 255 255 255 255 255 255 255 255 255 255 255 255 255 255 255 255 255 255 255 255 110 180 255 110 180
238 106 167 255 110 180 255 110 180 255 110 180 255 110 180 255 110 180 255 110 180 255 110 180 255 110 180 255 110 180
255 110 180 255 110 180 255 110 180 255 110 180 255 110 180 255 110 180 255 110 180 255 110 180 255 110 180 255 110 180
255 110 180 255 110 180 255 110 180 255 110 180 255 110 180 255 110 180 255 110 180 255 110 180 255 110 180 255 110 180
