P3
10 10
255
255 255 255 191 0 96 240 0 120 217 0 108 255 0 128 191 0 96 255 121 188 255 121 188 255 53 154 191 0 96
255 53 154 255 0 128 255 121 188 255 53 154 217 0 108 159 0 80 217 0 108 255 53 154 217 0 108 255 121 188
240 0 120 255 96 175 255 121 188 255 96 175 240 0 120 217 0 108 191 0 96 191 0 96 255 0 128 240 0 120
240 0 120 255 149 202 255 217 236 255 121 188 255 121 188 255 96 175 255 149 202 255 53 154 240 0 120 255 0 128
255 96 175 255 255 255 255 255 255 255 255 255 255 255 255 255 255 255 255 255 255 255 217 236 255 96 175 255 96 175
255 96 175 255 255 255 255 255 255 255 255 255 255 255 255 255 255 255 255 255 255 255 255 255 217 0 108 255 53 154
240 0 120 255 255 255 255 255 255 255 255 255 255 255 255 255 255 255 255 255 255 255 255 255 255 96 175 255 149 202
255 53 154 240 0 120 191 0 96 240 0 120 255 149 202 255 149 202 240 0 120 240 0 120 217 0 108 217 0 108
255 121 188 255 121 188 255 121 188 240 0 120 217 0 108 240 0 120 255 0 128 255 96 175 255 96 175 191 0 96
255 121 188 255 121 188 255 53 154 255 149 202 255 53 154 255 53 154 217 0 108 255 121 188 240 0 120 255 0 128
