P3
10 10
255
255 255 255 217 0 108 217 0 108 240 0 120 240 0 120 240 0 120 240 0 120 240 0 120 240 0 120 240 0 120
217 0 108 217 0 108 217 0 108 240 0 120 240 0 120 240 0 120 240 0 120 240 0 120 240 0 120 240 0 120
217 0 108 217 0 108 217 0 108 217 0 108 240 0 120 240 0 120 240 0 120 240 0 120 240 0 120 240 0 120
217 0 108 217 0 108 217 0 108 217 0 108 240 0 120 240 0 120 240 0 120 240 0 120 240 0 120 240 0 120
217 0 108 255 255 255 255 255 255 255 255 255 255 255 255 255 255 255 255 255 255 240 0 120 240 0 120 240 0 120
217 0 108 255 255 255 255 255 255 255 255 255 255 255 255 255 255 255 255 255 255 255 255 255 240 0 120 240 0 120
217 0 108 255 255 255 255 255 255 255 255 255 255 255 255 255 255 255 255 255 255 255 255 255 255 0 128 255 0 128
217 0 108 217 0 108 240 0 120 240 0 120 240 0 120 240 0 120 240 0 120 240 0 120 240 0 120 240 0 120
217 0 108 217 0 108 240 0 120 240 0 120 240 0 120 240 0 120 240 0 120 240 0 120 240 0 120 240 0 120
217 0 108 217 0 108 240 0 120 240 0 120 240 0 120 240 0 120 240 0 120 240 0 120 240 0 120 240 0 120
