P3
10 10
255
255 255 255 255 53 154 255 53 154 255 53 154 255 53 154 255 53 154 255 53 154 255 53 154 255 53 154 255 53 154
255 53 154 255 53 154 255 53 154 255 53 154 255 53 154 255 53 154 255 53 154 255 53 154 255 53 154 255 53 154
255 53 154 255 53 154 255 53 154 255 53 154 255 53 154 255 53 154 255 53 154 255 53 154 255 53 154 255 53 154
255 53 154 255 53 154 255 53 154 255 53 154 255 53 154 255 53 154 255 53 154 255 53 154 255 53 154 255 53 154
255 53 154 255 255 255 255 255 255 255 255 255 255 255 255 255 255 255 255 255 255 255 53 154 255 53 154 255 53 154
255 53 154 255 255 255 255 255 255 255 255 255 255 255 255 255 255 255 255 255 255 255 255 255 255 53 154 255 53 154
255 53 154 255 255 255 255 255 255 255 255 255 255 255 255 255 255 255 255 255 255 255 255 255 255 53 154 255 53 154
255 53 154 255 53 154 255 53 154 255 53 154 255 53 154 255 53 154 255 53 154 255 53 154 255 53 154 255 53 154
255 53 154 255 53 154 255 53 154 255 53 154 255 53 154 255 53 154 255 53 154 255 53 154 255 53 154 255 53 154
255 53 154 255 53 154 255 53 154 255 53 154 255 53 154 255 53 154 255 53 154 255 53 154 255 53 154 255 53 154
