P3
40 50
255
255 255 255 255 53 154 255 53 154 255 53 154 255 53 154 255 53 154 255 53 154 255 53 154 255 53 154 255 53 154 255 53 154 255 53 154 255 53 154 255 53 154 255 255 255 255 255 255 255 255 255 255 255 255 255 255 255 255 255 255 255 255 255 255 255 255 255 255 255 255 255 255 255 255 255 255 255 255 255 255 255 255 255 255 255 255 255 255 255 255 255 255 255 255 255 255 255 255 255 255 255 255 255 255 255 255 255 255 255 96 175 255 96 175 255 96 175 255 96 175
255 53 154 255 53 154 255 53 154 255 53 154 255 53 154 255 53 154 255 53 154 255 53 154 255 53 154 255 53 154 255 53 154 255 53 154 255 53 154 255 53 154 255 255 255 255 255 255 255 255 255 255 255 255 255 255 255 255 255 255 255 255 255 255 255 255 255 255 255 255 255 255 255 255 255 255 255 255 255 255 255 255 255 255 255 255 255 255 255 255 255 255 255 255 255 255 255 255 255 255 255 255 255 255 255 255 255 255 255 96 175 255 96 175 255 96 175 255 96 175
255 53 154 255 53 154 255 53 154 255 53 154 255 53 154 255 53 154 255 53 154 255 53 154 255 53 154 255 53 154 255 53 154 255 53 154 255 53 154 255 53 154 255 255 255 255 255 255 255 255 255 255 255 255 255 255 255 255 255 255 255 255 255 255 255 255 255 255 255 255 255 255 255 255 255 255 255 255 255 255 255 255 255 255 255 255 255 255 255 255 255 255 255 255 255 255 255 255 255 255 255 255 255 255 255 255 255 255 255 96 175 255 96 175 255 96 175 255 96 175
255 53 154 255 53 154 255 53 154 255 53 154 255 53 154 255 53 154 255 53 154 255 53 154 255 53 154 255 53 154 255 53 154 255 53 154 255 53 154 255 53 154 255 255 255 255 255 255 255 255 255 255 255 255 255 255 255 255 255 255 255 255 255 255 255 255 255 255 255 255 255 255 255 255 255 255 255 255 255 255 255 255 255 255 255 255 255 255 255 255 255 255 255 255 255 255 255 255 255 255 255 255 255 255 255 255 255 255 255 96 175 255 96 175 255 96 175 255 96 175
255 53 154 255 53 154 255 53 154 255 53 154 255 53 154 255 53 154 255 53 154 255 53 154 255 53 154 255 53 154 255 53 154 255 53 154 255 53 154 255 53 154 255 255 255 255 255 255 255 255 255 255 255 255 255 255 255 255 255 255 255 255 255 255 255 255 255 255 255 255 255 255 255 255 255 255 255 255 255 255 255 255 255 255 255 255 255 255 255 255 255 255 255 255 255 255 255 255 255 255 255 255 255 255 255 255 255 255 255 96 175 255 96 175 255 96 175 255 96 175
255 53 154 255 53 154 255 53 154 255 53 154 255 53 154 255 53 154 255 53 154 255 53 154 255 53 154 255 53 154 255 53 154 255 53 154 255 53 154 255 53 154 255 255 255 255 255 255 255 255 255 255 255 255 255 255 255 255 255 255 255 255 255 255 255 255 255 255 255 255 255 255 255 255 255 255 255 255 255 255 255 255 255 255 255 255 255 255 255 255 255 255 255 255 255 255 255 255 255 255 255 255 255 255 255 255 255 255 255 96 175 255 96 175 255 96 175 255 96 175
255 53 154 255 53 154 255 53 154 255 53 154 255 53 154 255 53 154 255 53 154 255 53 154 255 53 154 255 53 154 255 53 154 255 53 154 255 53 154 255 53 154 255 255 255 255 255 255 255 255 255 255 255 255 255 255 255 255 255 255 255 255 255 255 255 255 255 255 255 255 255 255 255 255 255 255 255 255 255 255 255 255 255 255 255 255 255 255 255 255 255 255 255 255 255 255 255 255 255 255 255 255 255 255 255 255 255 255 255 96 175 255 96 175 255 96 175 255 96 175
255 53 154 255 53 154 255 53 154 255 53 154 255 53 154 255 53 154 255 53 154 255 53 154 255 53 154 255 53 154 255 53 154 255 53 154 255 53 154 255 53 154 255 53 154 255 255 255 255 255 255 255 255 255 255 255 255 255 255 255 255 255 255 255 255 255 255 255 255 255 255 255 255 255 255 255 255 255 255 255 255 255 255 255 255 255 255 255 255 255 255 255 255 255 255 255 255 255 255 255 255 255 255 255 255 255 255 255 255 96 175 255 96 175 255 96 175 255 96 175
255 53 154 255 53 154 255 53 154 255 53 154 255 53 154 255 53 154 255 53 154 255 53 154 255 53 154 255 53 154 255 53 154 255 53 154 255 53 154 255 53 154 255 53 154 255 53 154 255 53 154 255 53 154 255 53 154 255 53 154 255 53 154 255 53 154 255 53 154 255 255 255 255 255 255 255 255 255 255 255 255 255 255 255 255 255 255 255 255 255 255 255 255 255 255 255 255 255 255 255 255 255 255 255 255 255 255 255 255 96 175 255 96 175 255 96 175 255 96 175
255 53 154 255 53 154 255 53 154 255 53 154 255 53 154 255 53 154 255 53 154 255 53 154 255 53 154 255 53 154 255 53 154 255 53 154 255 53 154 255 53 154 255 53 154 255 53 154 255 53 154 255 53 154 255 53 154 255 53 154 255 53 154 255 53 154 255 53 154 255 255 255 255 255 255 255 255 255 255 255 255 255 255 255 255 255 255 255 255 255 255 255 255 255 255 255 255 255 255 255 255 255 255 255 255 255 255 255 255 96 175 255 96 175 255 96 175 255 96 175
255 53 154 255 53 154 255 53 154 255 53 154 255 53 154 255 53 154 255 53 154 255 53 154 255 53 154 255 53 154 255 53 154 255 53 154 255 53 154 255 53 154 255 53 154 255 53 154 255 53 154 255 53 154 255 53 154 255 53 154 255 53 154 255 53 154 255 53 154 255 255 255 255 255 255 255 255 255 255 255 255 255 255 255 255 255 255 255 255 255 255 255 255 255 255 255 255 255 255 255 255 255 255 255 255 255 255 255 255 96 175 255 96 175 255 96 175 255 96 175
255 53 154 255 53 154 255 53 154 255 53 154 255 53 154 255 53 154 255 53 154 255 53 154 255 53 154 255 53 154 255 53 154 255 53 154 255 53 154 255 53 154 255 53 154 255 53 154 255 53 154 255 53 154 255 53 154 255 53 154 255 53 154 255 53 154 255 53 154 255 255 255 255 255 255 255 255 255 255 255 255 255 255 255 255 255 255 255 255 255 255 255 255 255 255 255 255 255 255 255 255 255 255 255 255 255 255 255 255 96 175 255 96 175 255 96 175 255 96 175
255 53 154 255 53 154 255 53 154 255 53 154 255 53 154 255 53 154 255 53 154 255 53 154 255 53 154 255 53 154 255 53 154 255 53 154 255 53 154 255 53 154 255 53 154 255 53 154 255 53 154 255 53 154 255 53 154 255 53 154 255 53 154 255 53 154 255 53 154 255 255 255 255 255 255 255 255 255 255 255 255 255 255 255 255 255 255 255 255 255 255 255 255 255 255 255 255 255 255 255 255 255 255 255 255 255 255 255 255 96 175 255 96 175 255 96 175 255 96 175
255 53 154 255 53 154 255 53 154 255 53 154 255 53 154 255 53 154 255 53 154 255 53 154 255 53 154 255 53 154 255 53 154 255 53 154 255 53 154 255 53 154 255 53 154 255 53 154 255 53 154 255 53 154 255 53 154 255 53 154 255 53 154 255 53 154 255 53 154 255 255 255 255 255 255 255 255 255 255 255 255 255 255 255 255 255 255 255 255 255 255 255 255 255 255 255 255 255 255 255 255 255 255 255 255 255 255 255 255 96 175 255 96 175 255 96 175 255 96 175
255 53 154 255 53 154 255 53 154 255 53 154 255 53 154 255 53 154 255 53 154 255 53 154 255 53 154 255 53 154 255 53 154 255 53 154 255 53 154 255 53 154 255 53 154 255 53 154 255 53 154 255 53 154 255 53 154 255 53 154 255 53 154 255 53 154 255 53 154 255 255 255 255 255 255 255 255 255 255 255 255 255 255 255 255 255 255 255 255 255 255 255 255 255 255 255 255 255 255 255 255 255 255 255 255 255 255 255 255 96 175 255 96 175 255 96 175 255 96 175
255 53 154 255 53 154 255 53 154 255 53 154 255 53 154 255 53 154 255 53 154 255 53 154 255 53 154 255 53 154 255 53 154 255 53 154 255 53 154 255 53 154 255 53 154 255 53 154 255 53 154 255 53 154 255 53 154 255 53 154 255 53 154 255 53 154 255 53 154 255 255 255 255 255 255 255 255 255 255 255 255 255 255 255 255 255 255 255 255 255 255 255 255 255 255 255 255 255 255 255 255 255 255 255 255 255 255 255 255 96 175 255 96 175 255 96 175 255 96 175
255 53 154 255 53 154 255 53 154 255 53 154 255 53 154 255 53 154 255 53 154 255 53 154 255 53 154 255 53 154 255 53 154 255 53 154 255 53 154 255 53 154 255 53 154 255 53 154 255 53 154 255 53 154 255 53 154 255 53 154 255 53 154 255 53 154 255 53 154 255 255 255 255 255 255 255 255 255 255 255 255 255 255 255 255 255 255 255 255 255 255 255 255 255 255 255 255 255 255 255 255 255 255 255 255 255 255 255 255 96 175 255 96 175 255 96 175 255 96 175
255 53 154 255 53 154 255 53 154 255 53 154 255 53 154 255 53 154 255 53 154 255 53 154 255 53 154 255 53 154 255 53 154 255 53 154 255 53 154 255 53 154 255 53 154 255 53 154 255 53 154 255 53 154 255 53 154 255 53 154 255 53 154 255 53 154 255 53 154 255 255 255 255 255 255 255 255 255 255 255 255 255 255 255 255 255 255 255 255 255 255 255 255 255 255 255 255 255 255 255 255 255 255 255 255 255 255 255 255 96 175 255 96 175 255 96 175 255 96 175
255 53 154 255 53 154 255 53 154 255 53 154 255 53 154 255 53 154 255 53 154 255 53 154 255 53 154 255 53 154 255 53 154 255 53 154 255 53 154 255 53 154 255 53 154 255 53 154 255 53 154 255 53 154 255 53 154 255 53 154 255 53 154 255 53 154 255 53 154 255 255 255 255 255 255 255 255 255 255 255 255 255 255 255 255 255 255 255 255 255 255 255 255 255 255 255 255 255 255 255 255 255 255 255 255 255 255 255 255 96 175 255 96 175 255 96 175 255 96 175
255 53 154 255 53 154 255 53 154 255 53 154 255 53 154 255 53 154 255 53 154 255 53 154 255 53 154 255 53 154 255 53 154 255 53 154 255 53 154 255 53 154 255 53 154 255 53 154 255 53 154 255 53 154 255 53 154 255 53 154 255 53 154 255 53 154 255 53 154 255 255 255 255 255 255 255 255 255 255 255 255 255 255 255 255 255 255 255 255 255 255 255 255 255 255 255 255 255 255 255 255 255 255 255 255 255 255 255 255 96 175 255 96 175 255 96 175 255 96 175
255 53 154 255 53 154 255 53 154 255 53 154 255 53 154 255 53 154 255 53 154 255 53 154 255 53 154 255 53 154 255 53 154 255 53 154 255 53 154 255 53 154 255 53 154 255 53 154 255 53 154 255 53 154 255 53 154 255 53 154 255 53 154 255 53 154 255 53 154 255 255 255 255 255 255 255 255 255 255 255 255 255 255 255 255 255 255 255 255 255 255 255 255 255 255 255 255 255 255 255 255 255 255 255 255 255 255 255 255 96 175 255 96 175 255 96 175 255 96 175
255 53 154 255 53 154 255 53 154 255 53 154 255 53 154 255 53 154 255 53 154 255 53 154 255 53 154 255 53 154 255 53 154 255 53 154 255 53 154 255 53 154 255 53 154 255 53 154 255 255 255 255 255 255 255 255 255 255 255 255 255 255 255 255 255 255 255 255 255 255 255 255 255 255 255 255 255 255 255 255 255 255 255 255 255 255 255 255 255 255 255 255 255 255 255 255 255 255 255 255 255 255 255 255 255 255 255 255 255 96 175 255 96 175 255 96 175 255 96 175
255 53 154 255 53 154 255 53 154 255 53 154 255 53 154 255 53 154 255 53 154 255 53 154 255 53 154 255 53 154 255 53 154 255 53 154 255 53 154 255 53 154 255 53 154 255 53 154 255 255 255 255 255 255 255 255 255 255 255 255 255 255 255 255 255 255 255 255 255 255 255 255 255 255 255 255 255 255 255 255 255 255 255 255 255 255 255 255 255 255 255 255 255 255 255 255 255 255 255 255 255 255 255 255 255 255 255 255 255 96 175 255 96 175 255 96 175 255 96 175
255 53 154 255 53 154 255 53 154 255 53 154 255 53 154 255 53 154 255 53 154 255 53 154 255 53 154 255 53 154 255 53 154 255 53 154 255 53 154 255 53 154 255 53 154 255 53 154 255 255 255 255 255 255 255 255 255 255 255 255 255 255 255 255 255 255 255 255 255 255 255 255 255 255 255 255 255 255 255 255 255 255 255 255 255 255 255 255 255 255 255 255 255 255 255 255 255 255 255 255 255 255 255 255 255 255 255 255 255 255 255 255 96 175 255 96 175 255 96 175
255 53 154 255 53 154 255 53 154 255 53 154 255 53 154 255 53 154 255 53 154 255 53 154 255 53 154 255 53 154 255 53 154 255 53 154 255 53 154 255 53 154 255 53 154 255 53 154 255 255 255 255 255 255 255 255 255 255 255 255 255 255 255 255 255 255 255 255 255 255 255 255 255 255 255 255 255 255 255 255 255 255 255 255 255 255 255 255 255 255 255 255 255 255 255 255 255 255 255 255 255 255 255 255 255 255 255 255 255 255 255 255 96 175 255 96 175 255 96 175
255 53 154 255 53 154 255 53 154 255 53 154 255 53 154 255 53 154 255 53 154 255 53 154 255 53 154 255 53 154 255 53 154 255 53 154 255 53 154 255 53 154 255 53 154 255 53 154 255 255 255 255 255 255 255 255 255 255 255 255 255 255 255 255 255 255 255 255 255 255 255 255 255 255 255 255 255 255 255 255 255 255 255 255 255 255 255 255 255 255 255 255 255 255 255 255 255 255 255 255 255 255 255 255 255 255 255 255 255 255 255 255 96 175 255 96 175 255 96 175
255 53 154 255 53 154 255 53 154 255 53 154 255 53 154 255 53 154 255 53 154 255 53 154 255 53 154 255 53 154 255 53 154 255 53 154 255 53 154 255 53 154 255 53 154 255 53 154 255 255 255 255 255 255 255 255 255 255 255 255 255 255 255 255 255 255 255 255 255 255 255 255 255 255 255 255 255 255 255 255 255 255 255 255 255 255 255 255 255 255 255 255 255 255 255 255 255 255 255 255 255 255 255 255 255 255 255 255 255 255 255 255 96 175 255 96 175 255 96 175
255 53 154 255 53 154 255 53 154 255 53 154 255 53 154 255 53 154 255 53 154 255 53 154 255 53 154 255 53 154 255 53 154 255 53 154 255 53 154 255 53 154 255 53 154 255 53 154 255 255 255 255 255 255 255 255 255 255 255 255 255 255 255 255 255 255 255 255 255 255 255 255 255 255 255 255 255 255 255 255 255 255 255 255 255 255 255 255 255 255 255 255 255 255 255 255 255 255 255 255 255 255 255 255 255 255 255 255 255 255 255 255 96 175 255 96 175 255 96 175
255 53 154 255 53 154 255 53 154 255 53 154 255 53 154 255 53 154 255 53 154 255 53 154 255 53 154 255 53 154 255 53 154 255 53 154 255 53 154 255 53 154 255 53 154 255 53 154 255 255 255 255 255 255 255 255 255 255 255 255 255 255 255 255 255 255 255 255 255 255 255 255 255 255 255 255 255 255 255 255 255 255 255 255 255 255 255 255 255 255 255 255 255 255 255 255 255 255 255 255 255 255 255 255 255 255 255 255 255 255 255 255 96 175 255 96 175 255 96 175
255 53 154 255 53 154 255 53 154 255 53 154 255 53 154 255 53 154 255 53 154 255 53 154 255 53 154 255 53 154 255 53 154 255 53 154 255 53 154 255 53 154 255 53 154 255 53 154 255 255 255 255 255 255 255 255 255 255 255 255 255 255 255 255 255 255 255 255 255 255 255 255 255 255 255 255 255 255 255 255 255 255 255 255 255 255 255 255 255 255 255 255 255 255 255 255 255 255 255 255 255 255 255 255 255 255 255 255 255 255 255 255 96 175 255 96 175 255 96 175
255 53 154 255 53 154 255 53 154 255 53 154 255 53 154 255 53 154 255 53 154 255 53 154 255 53 154 255 53 154 255 53 154 255 53 154 255 53 154 255 53 154 255 53 154 255 53 154 255 255 255 255 255 255 255 255 255 255 255 255 255 255 255 255 255 255 255 255 255 255 255 255 255 255 255 255 255 255 255 255 255 255 255 255 255 255 255 255 255 255 255 255 255 255 255 255 255 255 255 255 255 255 255 255 255 255 255 255 255 255 255 255 96 175 255 96 175 255 96 175
255 96 175 255 96 175 255 96 175 255 53 154 255 53 154 255 53 154 255 53 154 255 53 154 255 53 154 255 53 154 255 53 154 255 53 154 255 53 154 255 53 154 255 53 154 255 53 154 255 255 255 255 255 255 255 255 255 255 255 255 255 255 255 255 255 255 255 255 255 255 255 255 255 255 255 255 255 255 255 255 255 255 255 255 255 255 255 255 255 255 255 255 255 255 255 255 255 255 255 255 255 255 255 255 255 255 255 255 255 255 255 255 96 175 255 96 175 255 96 175
255 96 175 255 96 175 255 96 175 255 96 175 255 96 175 255 96 175 255 96 175 255 53 154 255 53 154 255 53 154 255 53 154 255 53 154 255 53 154 255 53 154 255 53 154 255 53 154 255 255 255 255 255 255 255 255 255 255 255 255 255 255 255 255 255 255 255 255 255 255 255 255 255 255 255 255 255 255 255 255 255 255 255 255 255 255 255 255 255 255 255 255 255 255 255 255 255 255 255 255 255 255 255 255 255 255 255 255 255 255 255 255 96 175 255 96 175 255 96 175
255 96 175 255 96 175 255 96 175 255 96 175 255 96 175 255 96 175 255 96 175 255 96 175 255 96 175 255 96 175 255 53 154 255 53 154 255 53 154 255 53 154 255 53 154 255 53 154 255 255 255 255 255 255 255 255 255 255 255 255 255 255 255 255 255 255 255 255 255 255 255 255 255 255 255 255 255 255 255 255 255 255 255 255 255 255 255 255 255 255 255 255 255 255 255 255 255 255 255 255 255 255 255 255 255 255 255 255 255 255 255 255 96 175 255 96 175 255 96 175
255 96 175 255 96 175 255 96 175 255 96 175 255 96 175 255 96 175 255 96 175 255 96 175 255 96 175 255 96 175 255 96 175 255 96 175 255 96 175 255 53 154 255 53 154 255 53 154 255 255 255 255 255 255 255 255 255 255 255 255 255 255 255 255 255 255 255 255 255 255 255 255 255 255 255 255 255 255 255 255 255 255 255 255 255 255 255 255 255 255 255 255 255 255 255 255 255 255 255 255 255 255 255 255 255 255 255 255 255 255 255 255 96 175 255 96 175 255 96 175
255 96 175 255 96 175 255 96 175 255 96 175 255 96 175 255 96 175 255 96 175 255 96 175 255 96 175 255 96 175 255 96 175 255 96 175 255 96 175 255 96 175 255 96 175 255 96 175 255 96 175 255 255 255 255 255 255 255 255 255 255 255 255 255 255 255 255 255 255 255 255 255 255 255 255 255 255 255 255 255 255 255 255 255 255 255 255 255 255 255 255 255 255 255 255 255 255 255 255 255 255 255 255 255 255 255 255 255 255 96 175 255 96 175 255 96 175 255 96 175
255 96 175 255 96 175 255 96 175 255 96 175 255 96 175 255 96 175 255 96 175 255 96 175 255 96 175 255 96 175 255 96 175 255 96 175 255 96 175 255 96 175 255 96 175 255 96 175 255 96 175 255 96 175 255 53 154 255 53 154 255 53 154 255 53 154 255 53 154 255 53 154 255 53 154 255 53 154 255 53 154 255 53 154 255 53 154 255 53 154 255 53 154 255 53 154 255 53 154 255 96 175 255 96 175 255 96 175 255 96 175 255 96 175 255 96 175 255 96 175
255 96 175 255 96 175 255 96 175 255 96 175 255 96 175 255 96 175 255 96 175 255 96 175 255 96 175 255 96 175 255 96 175 255 96 175 255 96 175 255 96 175 255 96 175 255 96 175 255 96 175 255 96 175 255 53 154 255 53 154 255 53 154 255 53 154 255 53 154 255 53 154 255 53 154 255 53 154 255 53 154 255 53 154 255 53 154 255 53 154 255 53 154 255 53 154 255 53 154 255 96 175 255 96 175 255 96 175 255 96 175 255 96 175 255 96 175 255 96 175
255 96 175 255 96 175 255 96 175 255 96 175 255 96 175 255 96 175 255 96 175 255 96 175 255 96 175 255 96 175 255 96 175 255 96 175 255 96 175 255 96 175 255 96 175 255 96 175 255 96 175 255 96 175 255 53 154 255 53 154 255 53 154 255 53 154 255 53 154 255 53 154 255 53 154 255 53 154 255 53 154 255 53 154 255 53 154 255 53 154 255 53 154 255 53 154 255 53 154 255 96 175 255 96 175 255 96 175 255 96 175 255 96 175 255 96 175 255 96 175
255 96 175 255 96 175 255 96 175 255 96 175 255 96 175 255 96 175 255 96 175 255 96 175 255 96 175 255 96 175 255 96 175 255 96 175 255 96 175 255 96 175 255 96 175 255 96 175 255 96 175 255 96 175 255 53 154 255 53 154 255 53 154 255 53 154 255 53 154 255 53 154 255 53 154 255 53 154 255 53 154 255 53 154 255 53 154 255 53 154 255 53 154 255 53 154 255 53 154 255 96 175 255 96 175 255 96 175 255 96 175 255 96 175 255 96 175 255 96 175
255 255 255 255 255 255 255 255 255 255 255 255 255 255 255 255 255 255 255 255 255 255 255 255 255 255 255 255 255 255 255 255 255 255 255 255 255 255 255 255 255 255 255 255 255 255 255 255 255 255 255 255 255 255 255 255 255 255 255 255 255 255 255 255 255 255 255 255 255 255 255 255 255 255 255 255 255 255 255 255 255 255 255 255 255 255 255 255 255 255 255 255 255 255 255 255 255 255 255 255 255 255 255 255 255 255 255 255 255 255 255 255 255 255 255 255 255 255 255 255
255 255 255 255 255 255 255 255 255 255 255 255 255 255 255 255 255 255 255 255 255 255 255 255 255 255 255 255 255 255 255 255 255 255 255 255 255 255 255 255 255 255 255 255 255 255 255 255 255 255 255 255 255 255 255 255 255 255 255 255 255 255 255 255 255 255 255 255 255 255 255 255 255 255 255 255 255 255 255 255 255 255 255 255 255 255 255 255 255 255 255 255 255 255 255 255 255 255 255 255 255 255 255 255 255 255 255 255 255 255 255 255 255 255 255 255 255 255 255 255
255 255 255 255 255 255 255 255 255 255 255 255 255 255 255 255 255 255 255 255 255 255 255 255 255 255 255 255 255 255 255 255 255 255 255 255 255 255 255 255 255 255 255 255 255 255 255 255 255 255 255 255 255 255 255 255 255 255 255 255 255 255 255 255 255 255 255 255 255 255 255 255 255 255 255 255 255 255 255 255 255 255 255 255 255 255 255 255 255 255 255 255 255 255 255 255 255 255 255 255 255 255 255 255 255 255 255 255 255 255 255 255 255 255 255 255 255 255 255 255
255 255 255 255 255 255 255 255 255 255 255 255 255 255 255 255 255 255 255 255 255 255 255 255 255 255 255 255 255 255 255 255 255 255 255 255 255 255 255 255 255 255 255 255 255 255 255 255 255 255 255 255 255 255 255 255 255 255 255 255 255 255 255 255 255 255 255 255 255 255 255 255 255 255 255 255 255 255 255 255 255 255 255 255 255 255 255 255 255 255 255 255 255 255 255 255 255 255 255 255 255 255 255 255 255 255 255 255 255 255 255 255 255 255 255 255 255 255 255 255
255 255 255 255 255 255 255 255 255 255 255 255 255 255 255 255 255 255 255 255 255 255 255 255 255 255 255 255 255 255 255 255 255 255 255 255 255 255 255 255 255 255 255 255 255 255 255 255 255 255 255 255 255 255 255 255 255 255 255 255 255 255 255 255 255 255 255 255 255 255 255 255 255 255 255 255 255 255 255 255 255 255 255 255 255 255 255 255 255 255 255 255 255 255 255 255 255 255 255 255 255 255 255 255 255 255 255 255 255 255 255 255 255 255 255 255 255 255 255 255
255 255 255 255 255 255 255 255 255 255 255 255 255 255 255 255 255 255 255 255 255 255 255 255 255 255 255 255 255 255 255 255 255 255 255 255 255 255 255 255 255 255 255 255 255 255 255 255 255 255 255 255 255 255 255 255 255 255 255 255 255 255 255 255 255 255 255 255 255 255 255 255 255 255 255 255 255 255 255 255 255 255 255 255 255 255 255 255 255 255 255 255 255 255 255 255 255 255 255 255 255 255 255 255 255 255 255 255 255 255 255 255 255 255 255 255 255 255 255 255
255 255 255 255 255 255 255 255 255 255 255 255 255 255 255 255 255 255 255 255 255 255 255 255 255 255 255 255 255 255 255 255 255 255 255 255 255 255 255 255 255 255 255 255 255 255 255 255 255 255 255 255 255 255 255 255 255 255 255 255 255 255 255 255 255 255 255 255 255 255 255 255 255 255 255 255 255 255 255 255 255 255 255 255 255 255 255 255 255 255 255 255 255 255 255 255 255 255 255 255 255 255 255 255 255 255 255 255 255 255 255 255 255 255 255 255 255 255 255 255
255 255 255 255 255 255 255 255 255 255 255 255 255 255 255 255 255 255 255 255 255 255 255 255 255 255 255 255 255 255 255 255 255 255 255 255 255 255 255 255 255 255 255 255 255 255 255 255 255 255 255 255 255 255 255 255 255 255 255 255 255 255 255 255 255 255 255 255 255 255 255 255 255 255 255 255 255 255 255 255 255 255 255 255 255 255 255 255 255 255 255 255 255 255 255 255 255 255 255 255 255 255 255 255 255 255 255 255 255 255 255 255 255 255 255 255 255 255 255 255
255 255 255 255 255 255 255 255 255 255 255 255 255 255 255 255 255 255 255 255 255 255 255 255 255 255 255 255 255 255 255 255 255 255 255 255 255 255 255 255 255 255 255 255 255 255 255 255 255 255 255 255 255 255 255 255 255 255 255 255 255 255 255 255 255 255 255 255 255 255 255 255 255 255 255 255 255 255 255 255 255 255 255 255 255 255 255 255 255 255 255 255 255 255 255 255 255 255 255 255 255 255 255 255 255 255 255 255 255 255 255 255 255 255 255 255 255 255 255 255
255 255 255 255 255 255 255 255 255 255 255 255 255 255 255 255 255 255 255 255 255 255 255 255 255 255 255 255 255 255 255 255 255 255 255 255 255 255 255 255 255 255 255 255 255 255 255 255 255 255 255 255 255 255 255 255 255 255 255 255 255 255 255 255 255 255 255 255 255 255 255 255 255 255 255 255 255 255 255 255 255 255 255 255 255 255 255 255 255 255 255 255 255 255 255 255 255 255 255 255 255 255 255 255 255 255 255 255 255 255 255 255 255 255 255 255 255 255 255 255
