P3
40 50
255
255 255 255 191 0 96 191 0 96 191 0 96 191 0 96 191 0 96 191 0 96 191 0 96 191 0 96 191 0 96 191 0 96 191 0 96 191 0 96 191 0 96 255 255 255 255 255 255 255 255 255 255 255 255 255 255 255 255 255 255 255 255 255 255 255 255 255 255 255 255 255 255 255 255 255 255 255 255 255 255 255 255 255 255 255 255 255 255 255 255 255 255 255 255 255 255 255 255 255 255 255 255 255 255 255 255 255 255 191 0 96 191 0 96 191 0 96 191 0 96
191 0 96 191 0 96 191 0 96 191 0 96 191 0 96 191 0 96 191 0 96 191 0 96 191 0 96 191 0 96 191 0 96 191 0 96 191 0 96 191 0 96 255 255 255 255 255 255 255 255 255 255 255 255 255 255 255 255 255 255 255 255 255 255 255 255 255 255 255 255 255 255 255 255 255 255 255 255 255 255 255 255 255 255 255 255 255 255 255 255 255 255 255 255 255 255 255 255 255 255 255 255 255 255 255 255 255 255 191 0 96 191 0 96 191 0 96 191 0 96
191 0 96 191 0 96 191 0 96 191 0 96 191 0 96 191 0 96 191 0 96 191 0 96 191 0 96 191 0 96 191 0 96 191 0 96 191 0 96 191 0 96 255 255 255 255 255 255 255 255 255 255 255 255 255 255 255 255 255 255 255 255 255 255 255 255 255 255 255 255 255 255 255 255 255 255 255 255 255 255 255 255 255 255 255 255 255 255 255 255 255 255 255 255 255 255 255 255 255 255 255 255 255 255 255 255 255 255 191 0 96 191 0 96 191 0 96 191 0 96
191 0 96 191 0 96 191 0 96 191 0 96 191 0 96 191 0 96 191 0 96 191 0 96 191 0 96 191 0 96 191 0 96 191 0 96 191 0 96 191 0 96 255 255 255 255 255 255 255 255 255 255 255 255 255 255 255 255 255 255 255 255 255 255 255 255 255 255 255 255 255 255 255 255 255 255 255 255 255 255 255 255 255 255 255 255 255 255 255 255 255 255 255 255 255 255 255 255 255 255 255 255 255 255 255 255 255 255 191 0 96 191 0 96 191 0 96 191 0 96
191 0 96 191 0 96 191 0 96 191 0 96 191 0 96 191 0 96 191 0 96 191 0 96 191 0 96 191 0 96 191 0 96 191 0 96 191 0 96 191 0 96 255 255 255 255 255 255 255 255 255 255 255 255 255 255 255 255 255 255 255 255 255 255 255 255 255 255 255 255 255 255 255 255 255 255 255 255 255 255 255 255 255 255 255 255 255 255 255 255 255 255 255 255 255 255 255 255 255 255 255 255 255 255 255 255 255 255 191 0 96 191 0 96 191 0 96 191 0 96
191 0 96 191 0 96 191 0 96 191 0 96 191 0 96 191 0 96 191 0 96 191 0 96 191 0 96 191 0 96 191 0 96 191 0 96 191 0 96 191 0 96 255 255 255 255 255 255 255 255 255 255 255 255 255 255 255 255 255 255 255 255 255 255 255 255 255 255 255 255 255 255 255 255 255 255 255 255 255 255 255 255 255 255 255 255 255 255 255 255 255 255 255 255 255 255 255 255 255 255 255 255 255 255 255 255 255 255 191 0 96 191 0 96 191 0 96 191 0 96
191 0 96 191 0 96 191 0 96 191 0 96 191 0 96 191 0 96 191 0 96 191 0 96 191 0 96 191 0 96 191 0 96 191 0 96 191 0 96 191 0 96 255 255 255 255 255 255 255 255 255 255 255 255 255 255 255 255 255 255 255 255 255 255 255 255 255 255 255 255 255 255 255 255 255 255 255 255 255 255 255 255 255 255 255 255 255 255 255 255 255 255 255 255 255 255 255 255 255 255 255 255 255 255 255 255 255 255 191 0 96 191 0 96 191 0 96 191 0 96
191 0 96 191 0 96 191 0 96 191 0 96 191 0 96 191 0 96 191 0 96 191 0 96 191 0 96 191 0 96 191 0 96 191 0 96 191 0 96 191 0 96 191 0 96 255 255 255 255 255 255 255 255 255 255 255 255 255 255 255 255 255 255 255 255 255 255 255 255 255 255 255 255 255 255 255 255 255 255 255 255 255 255 255 255 255 255 255 255 255 255 255 255 255 255 255 255 255 255 255 255 255 255 255 255 255 255 255 191 0 96 191 0 96 191 0 96 191 0 96
191 0 96 191 0 96 191 0 96 191 0 96 191 0 96 191 0 96 191 0 96 191 0 96 191 0 96 191 0 96 191 0 96 191 0 96 191 0 96 191 0 96 191 0 96 191 0 96 191 0 96 191 0 96 191 0 96 191 0 96 191 0 96 191 0 96 191 0 96 255 255 255 255 255 255 255 255 255 255 255 255 255 255 255 255 255 255 255 255 255 255 255 255 255 255 255 255 255 255 255 255 255 255 255 255 255 255 255 191 0 96 191 0 96 191 0 96 191 0 96
191 0 96 191 0 96 191 0 96 191 0 96 191 0 96 191 0 96 191 0 96 191 0 96 191 0 96 191 0 96 191 0 96 191 0 96 191 0 96 191 0 96 191 0 96 191 0 96 191 0 96 191 0 96 191 0 96 191 0 96 191 0 96 191 0 96 191 0 96 255 255 255 255 255 255 255 255 255 255 255 255 255 255 255 255 255 255 255 255 255 255 255 255 255 255 255 255 255 255 255 255 255 255 255 255 255 255 255 191 0 96 191 0 96 191 0 96 191 0 96
191 0 96 191 0 96 191 0 96 191 0 96 191 0 96 191 0 96 191 0 96 191 0 96 191 0 96 191 0 96 191 0 96 191 0 96 191 0 96 191 0 96 191 0 96 191 0 96 191 0 96 191 0 96 191 0 96 191 0 96 191 0 96 191 0 96 191 0 96 255 255 255 255 255 255 255 255 255 255 255 255 255 255 255 255 255 255 255 255 255 255 255 255 255 255 255 255 255 255 255 255 255 255 255 255 255 255 255 191 0 96 191 0 96 191 0 96 191 0 96
191 0 96 191 0 96 191 0 96 191 0 96 191 0 96 191 0 96 191 0 96 191 0 96 191 0 96 191 0 96 191 0 96 191 0 96 191 0 96 191 0 96 191 0 96 191 0 96 191 0 96 191 0 96 191 0 96 191 0 96 191 0 96 191 0 96 191 0 96 255 255 255 255 255 255 255 255 255 255 255 255 255 255 255 255 255 255 255 255 255 255 255 255 255 255 255 255 255 255 255 255 255 255 255 255 255 255 255 191 0 96 191 0 96 191 0 96 191 0 96
191 0 96 191 0 96 191 0 96 191 0 96 191 0 96 191 0 96 191 0 96 191 0 96 191 0 96 191 0 96 191 0 96 191 0 96 191 0 96 191 0 96 191 0 96 191 0 96 191 0 96 191 0 96 191 0 96 191 0 96 191 0 96 191 0 96 191 0 96 255 255 255 255 255 255 255 255 255 255 255 255 255 255 255 255 255 255 255 255 255 255 255 255 255 255 255 255 255 255 255 255 255 255 255 255 255 255 255 191 0 96 191 0 96 191 0 96 191 0 96
191 0 96 191 0 96 191 0 96 191 0 96 191 0 96 191 0 96 191 0 96 191 0 96 191 0 96 191 0 96 191 0 96 191 0 96 191 0 96 191 0 96 191 0 96 191 0 96 191 0 96 191 0 96 191 0 96 191 0 96 191 0 96 191 0 96 191 0 96 255 255 255 255 255 255 255 255 255 255 255 255 255 255 255 255 255 255 255 255 255 255 255 255 255 255 255 255 255 255 255 255 255 255 255 255 255 255 255 191 0 96 191 0 96 191 0 96 191 0 96
191 0 96 191 0 96 191 0 96 191 0 96 191 0 96 191 0 96 191 0 96 191 0 96 191 0 96 191 0 96 191 0 96 191 0 96 191 0 96 191 0 96 191 0 96 191 0 96 191 0 96 191 0 96 191 0 96 191 0 96 191 0 96 191 0 96 191 0 96 255 255 255 255 255 255 255 255 255 255 255 255 255 255 255 255 255 255 255 255 255 255 255 255 255 255 255 255 255 255 255 255 255 255 255 255 255 255 255 191 0 96 191 0 96 191 0 96 191 0 96
191 0 96 191 0 96 191 0 96 191 0 96 191 0 96 191 0 96 191 0 96 191 0 96 191 0 96 191 0 96 191 0 96 191 0 96 191 0 96 191 0 96 191 0 96 191 0 96 191 0 96 191 0 96 191 0 96 191 0 96 191 0 96 191 0 96 191 0 96 255 255 255 255 255 255 255 255 255 255 255 255 255 255 255 255 255 255 255 255 255 255 255 255 255 255 255 255 255 255 255 255 255 255 255 255 255 255 255 191 0 96 191 0 96 191 0 96 191 0 96
191 0 96 191 0 96 191 0 96 191 0 96 191 0 96 191 0 96 191 0 96 191 0 96 191 0 96 191 0 96 191 0 96 191 0 96 191 0 96 191 0 96 191 0 96 191 0 96 191 0 96 191 0 96 191 0 96 191 0 96 191 0 96 191 0 96 191 0 96 255 255 255 255 255 255 255 255 255 255 255 255 255 255 255 255 255 255 255 255 255 255 255 255 255 255 255 255 255 255 255 255 255 255 255 255 255 255 255 191 0 96 191 0 96 191 0 96 191 0 96
191 0 96 191 0 96 191 0 96 191 0 96 191 0 96 191 0 96 191 0 96 191 0 96 191 0 96 191 0 96 191 0 96 191 0 96 191 0 96 191 0 96 191 0 96 191 0 96 191 0 96 191 0 96 191 0 96 191 0 96 191 0 96 191 0 96 191 0 96 255 255 255 255 255 255 255 255 255 255 255 255 255 255 255 255 255 255 255 255 255 255 255 255 255 255 255 255 255 255 255 255 255 255 255 255 255 255 255 191 0 96 191 0 96 191 0 96 191 0 96
191 0 96 191 0 96 191 0 96 191 0 96 191 0 96 191 0 96 191 0 96 191 0 96 191 0 96 191 0 96 191 0 96 191 0 96 191 0 96 191 0 96 191 0 96 191 0 96 191 0 96 191 0 96 191 0 96 191 0 96 191 0 96 191 0 96 191 0 96 255 255 255 255 255 255 255 255 255 255 255 255 255 255 255 255 255 255 255 255 255 255 255 255 255 255 255 255 255 255 255 255 255 255 255 255 255 255 255 191 0 96 191 0 96 191 0 96 191 0 96
191 0 96 191 0 96 191 0 96 191 0 96 191 0 96 191 0 96 191 0 96 191 0 96 191 0 96 191 0 96 191 0 96 191 0 96 191 0 96 191 0 96 191 0 96 191 0 96 191 0 96 191 0 96 191 0 96 191 0 96 191 0 96 191 0 96 191 0 96 255 255 255 255 255 255 255 255 255 255 255 255 255 255 255 255 255 255 255 255 255 255 255 255 255 255 255 255 255 255 255 255 255 255 255 255 255 255 255 191 0 96 191 0 96 191 0 96 191 0 96
191 0 96 191 0 96 191 0 96 191 0 96 191 0 96 191 0 96 191 0 96 191 0 96 191 0 96 191 0 96 191 0 96 191 0 96 191 0 96 191 0 96 191 0 96 191 0 96 191 0 96 191 0 96 191 0 96 191 0 96 191 0 96 191 0 96 191 0 96 255 255 255 255 255 255 255 255 255 255 255 255 255 255 255 255 255 255 255 255 255 255 255 255 255 255 255 255 255 255 255 255 255 255 255 255 255 255 255 191 0 96 191 0 96 191 0 96 191 0 96
191 0 96 191 0 96 191 0 96 191 0 96 191 0 96 191 0 96 191 0 96 191 0 96 191 0 96 191 0 96 191 0 96 191 0 96 191 0 96 191 0 96 191 0 96 191 0 96 255 255 255 255 255 255 255 255 255 255 255 255 255 255 255 255 255 255 255 255 255 255 255 255 255 255 255 255 255 255 255 255 255 255 255 255 255 255 255 255 255 255 255 255 255 255 255 255 255 255 255 255 255 255 255 255 255 255 255 255 191 0 96 191 0 96 191 0 96 191 0 96
191 0 96 191 0 96 191 0 96 191 0 96 191 0 96 191 0 96 191 0 96 191 0 96 191 0 96 191 0 96 191 0 96 191 0 96 191 0 96 191 0 96 191 0 96 191 0 96 255 255 255 255 255 255 255 255 255 255 255 255 255 255 255 255 255 255 255 255 255 255 255 255 255 255 255 255 255 255 255 255 255 255 255 255 255 255 255 255 255 255 255 255 255 255 255 255 255 255 255 255 255 255 255 255 255 255 255 255 191 0 96 191 0 96 191 0 96 191 0 96
191 0 96 191 0 96 191 0 96 191 0 96 191 0 96 191 0 96 191 0 96 191 0 96 191 0 96 191 0 96 191 0 96 191 0 96 191 0 96 191 0 96 191 0 96 191 0 96 255 255 255 255 255 255 255 255 255 255 255 255 255 255 255 255 255 255 255 255 255 255 255 255 255 255 255 255 255 255 255 255 255 255 255 255 255 255 255 255 255 255 255 255 255 255 255 255 255 255 255 255 255 255 255 255 255 255 255 255 255 255 255 191 0 96 191 0 96 191 0 96
191 0 96 191 0 96 191 0 96 191 0 96 191 0 96 191 0 96 191 0 96 191 0 96 191 0 96 191 0 96 191 0 96 191 0 96 191 0 96 191 0 96 191 0 96 191 0 96 255 255 255 255 255 255 255 255 255 255 255 255 255 255 255 255 255 255 255 255 255 255 255 255 255 255 255 255 255 255 255 255 255 255 255 255 255 255 255 255 255 255 255 255 255 255 255 255 255 255 255 255 255 255 255 255 255 255 255 255 255 255 255 191 0 96 191 0 96 191 0 96
191 0 96 191 0 96 191 0 96 191 0 96 191 0 96 191 0 96 191 0 96 191 0 96 191 0 96 191 0 96 191 0 96 191 0 96 191 0 96 191 0 96 191 0 96 191 0 96 255 255 255 255 255 255 255 255 255 255 255 255 255 255 255 255 255 255 255 255 255 255 255 255 255 255 255 255 255 255 255 255 255 255 255 255 255 255 255 255 255 255 255 255 255 255 255 255 255 255 255 255 255 255 255 255 255 255 255 255 255 255 255 191 0 96 191 0 96 191 0 96
191 0 96 191 0 96 191 0 96 191 0 96 191 0 96 191 0 96 191 0 96 191 0 96 191 0 96 191 0 96 191 0 96 191 0 96 191 0 96 191 0 96 191 0 96 191 0 96 255 255 255 255 255 255 255 255 255 255 255 255 255 255 255 255 255 255 255 255 255 255 255 255 255 255 255 255 255 255 255 255 255 255 255 255 255 255 255 255 255 255 255 255 255 255 255 255 255 255 255 255 255 255 255 255 255 255 255 255 255 255 255 191 0 96 191 0 96 191 0 96
191 0 96 191 0 96 191 0 96 191 0 96 191 0 96 191 0 96 191 0 96 191 0 96 191 0 96 191 0 96 191 0 96 191 0 96 191 0 96 191 0 96 191 0 96 191 0 96 255 255 255 255 255 255 255 255 255 255 255 255 255 255 255 255 255 255 255 255 255 255 255 255 255 255 255 255 255 255 255 255 255 255 255 255 255 255 255 255 255 255 255 255 255 255 255 255 255 255 255 255 255 255 255 255 255 255 255 255 255 255 255 191 0 96 191 0 96 191 0 96
191 0 96 191 0 96 191 0 96 191 0 96 191 0 96 191 0 96 191 0 96 191 0 96 191 0 96 191 0 96 191 0 96 191 0 96 191 0 96 191 0 96 191 0 96 191 0 96 255 255 255 255 255 255 255 255 255 255 255 255 255 255 255 255 255 255 255 255 255 255 255 255 255 255 255 255 255 255 255 255 255 255 255 255 255 255 255 255 255 255 255 255 255 255 255 255 255 255 255 255 255 255 255 255 255 255 255 255 255 255 255 191 0 96 191 0 96 191 0 96
191 0 96 191 0 96 191 0 96 191 0 96 191 0 96 191 0 96 191 0 96 191 0 96 191 0 96 191 0 96 191 0 96 191 0 96 191 0 96 191 0 96 191 0 96 191 0 96 255 255 255 255 255 255 255 255 255 255 255 255 255 255 255 255 255 255 255 255 255 255 255 255 255 255 255 255 255 255 255 255 255 255 255 255 255 255 255 255 255 255 255 255 255 255 255 255 255 255 255 255 255 255 255 255 255 255 255 255 255 255 255 191 0 96 191 0 96 191 0 96
191 0 96 191 0 96 191 0 96 191 0 96 191 0 96 191 0 96 191 0 96 191 0 96 191 0 96 191 0 96 191 0 96 191 0 96 191 0 96 191 0 96 191 0 96 191 0 96 255 255 255 255 255 255 255 255 255 255 255 255 255 255 255 255 255 255 255 255 255 255 255 255 255 255 255 255 255 255 255 255 255 255 255 255 255 255 255 255 255 255 255 255 255 255 255 255 255 255 255 255 255 255 255 255 255 255 255 255 255 255 255 191 0 96 191 0 96 191 0 96
191 0 96 191 0 96 191 0 96 191 0 96 191 0 96 191 0 96 191 0 96 191 0 96 191 0 96 191 0 96 191 0 96 191 0 96 191 0 96 191 0 96 191 0 96 191 0 96 255 255 255 255 255 255 255 255 255 255 255 255 255 255 255 255 255 255 255 255 255 255 255 255 255 255 255 255 255 255 255 255 255 255 255 255 255 255 255 255 255 255 255 255 255 255 255 255 255 255 255 255 255 255 255 255 255 255 255 255 255 255 255 191 0 96 191 0 96 191 0 96
191 0 96 191 0 96 191 0 96 191 0 96 191 0 96 191 0 96 191 0 96 191 0 96 191 0 96 191 0 96 191 0 96 191 0 96 191 0 96 191 0 96 191 0 96 191 0 96 255 255 255 255 255 255 255 255 255 255 255 255 255 255 255 255 255 255 255 255 255 255 255 255 255 255 255 255 255 255 255 255 255 255 255 255 255 255 255 255 255 255 255 255 255 255 255 255 255 255 255 255 255 255 255 255 255 255 255 255 255 255 255 191 0 96 191 0 96 191 0 96
191 0 96 191 0 96 191 0 96 191 0 96 191 0 96 191 0 96 191 0 96 191 0 96 191 0 96 191 0 96 191 0 96 191 0 96 191 0 96 191 0 96 191 0 96 191 0 96 255 255 255 255 255 255 255 255 255 255 255 255 255 255 255 255 255 255 255 255 255 255 255 255 255 255 255 255 255 255 255 255 255 255 255 255 255 255 255 255 255 255 255 255 255 255 255 255 255 255 255 255 255 255 255 255 255 255 255 255 255 255 255 191 0 96 191 0 96 191 0 96
191 0 96 191 0 96 191 0 96 191 0 96 191 0 96 191 0 96 191 0 96 191 0 96 191 0 96 191 0 96 191 0 96 191 0 96 191 0 96 191 0 96 191 0 96 191 0 96 255 255 255 255 255 255 255 255 255 255 255 255 255 255 255 255 255 255 255 255 255 255 255 255 255 255 255 255 255 255 255 255 255 255 255 255 255 255 255 255 255 255 255 255 255 255 255 255 255 255 255 255 255 255 255 255 255 255 255 255 255 255 255 191 0 96 191 0 96 191 0 96
191 0 96 191 0 96 191 0 96 191 0 96 191 0 96 191 0 96 191 0 96 191 0 96 191 0 96 191 0 96 191 0 96 191 0 96 191 0 96 191 0 96 191 0 96 191 0 96 191 0 96 255 255 255 255 255 255 255 255 255 255 255 255 255 255 255 255 255 255 255 255 255 255 255 255 255 255 255 255 255 255 255 255 255 255 255 255 255 255 255 255 255 255 255 255 255 255 255 255 255 255 255 255 255 255 255 255 255 191 0 96 191 0 96 191 0 96 191 0 96
191 0 96 191 0 96 191 0 96 191 0 96 191 0 96 191 0 96 191 0 96 191 0 96 191 0 96 191 0 96 191 0 96 191 0 96 191 0 96 191 0 96 191 0 96 191 0 96 191 0 96 191 0 96 191 0 96 191 0 96 191 0 96 191 0 96 191 0 96 191 0 96 191 0 96 191 0 96 191 0 96 191 0 96 191 0 96 191 0 96 191 0 96 191 0 96 191 0 96 191 0 96 191 0 96 191 0 96 191 0 96 191 0 96 191 0 96 191 0 96
191 0 96 191 0 96 191 0 96 191 0 96 191 0 96 191 0 96 191 0 96 191 0 96 191 0 96 191 0 96 191 0 96 191 0 96 191 0 96 191 0 96 191 0 96 191 0 96 191 0 96 191 0 96 191 0 96 191 0 96 191 0 96 191 0 96 191 0 96 191 0 96 191 0 96 191 0 96 191 0 96 191 0 96 191 0 96 191 0 96 191 0 96 191 0 96 191 0 96 191 0 96 191 0 96 191 0 96 191 0 96 191 0 96 191 0 96 191 0 96
191 0 96 191 0 96 191 0 96 191 0 96 191 0 96 191 0 96 191 0 96 191 0 96 191 0 96 191 0 96 191 0 96 191 0 96 191 0 96 191 0 96 191 0 96 191 0 96 191 0 96 191 0 96 191 0 96 191 0 96 191 0 96 191 0 96 191 0 96 191 0 96 191 0 96 191 0 96 191 0 96 191 0 96 191 0 96 191 0 96 191 0 96 191 0 96 191 0 96 191 0 96 191 0 96 191 0 96 191 0 96 191 0 96 191 0 96 191 0 96
191 0 96 191 0 96 191 0 96 191 0 96 191 0 96 191 0 96 191 0 96 191 0 96 191 0 96 191 0 96 191 0 96 191 0 96 191 0 96 191 0 96 191 0 96 191 0 96 191 0 96 191 0 96 191 0 96 191 0 96 191 0 96 191 0 96 191 0 96 191 0 96 191 0 96 191 0 96 191 0 96 191 0 96 191 0 96 191 0 96 191 0 96 191 0 96 191 0 96 191 0 96 191 0 96 191 0 96 191 0 96 191 0 96 191 0 96 191 0 96
255 255 255 255 255 255 255 255 255 255 255 255 255 255 255 255 255 255 255 255 255 255 255 255 255 255 255 255 255 255 255 255 255 255 255 255 255 255 255 255 255 255 255 255 255 255 255 255 255 255 255 255 255 255 255 255 255 255 255 255 255 255 255 255 255 255 255 255 255 255 255 255 255 255 255 255 255 255 255 255 255 255 255 255 255 255 255 255 255 255 255 255 255 255 255 255 255 255 255 255 255 255 255 255 255 255 255 255 255 255 255 255 255 255 255 255 255 255 255 255
255 255 255 255 255 255 255 255 255 255 255 255 255 255 255 255 255 255 255 255 255 255 255 255 255 255 255 255 255 255 255 255 255 255 255 255 255 255 255 255 255 255 255 255 255 255 255 255 255 255 255 255 255 255 255 255 255 255 255 255 255 255 255 255 255 255 255 255 255 255 255 255 255 255 255 255 255 255 255 255 255 255 255 255 255 255 255 255 255 255 255 255 255 255 255 255 255 255 255 255 255 255 255 255 255 255 255 255 255 255 255 255 255 255 255 255 255 255 255 255
255 255 255 255 255 255 255 255 255 255 255 255 255 255 255 255 255 255 255 255 255 255 255 255 255 255 255 255 255 255 255 255 255 255 255 255 255 255 255 255 255 255 255 255 255 255 255 255 255 255 255 255 255 255 255 255 255 255 255 255 255 255 255 255 255 255 255 255 255 255 255 255 255 255 255 255 255 255 255 255 255 255 255 255 255 255 255 255 255 255 255 255 255 255 255 255 255 255 255 255 255 255 255 255 255 255 255 255 255 255 255 255 255 255 255 255 255 255 255 255
255 255 255 255 255 255 255 255 255 255 255 255 255 255 255 255 255 255 255 255 255 255 255 255 255 255 255 255 255 255 255 255 255 255 255 255 255 255 255 255 255 255 255 255 255 255 255 255 255 255 255 255 255 255 255 255 255 255 255 255 255 255 255 255 255 255 255 255 255 255 255 255 255 255 255 255 255 255 255 255 255 255 255 255 255 255 255 255 255 255 255 255 255 255 255 255 255 255 255 255 255 255 255 255 255 255 255 255 255 255 255 255 255 255 255 255 255 255 255 255
255 255 255 255 255 255 255 255 255 255 255 255 255 255 255 255 255 255 255 255 255 255 255 255 255 255 255 255 255 255 255 255 255 255 255 255 255 255 255 255 255 255 255 255 255 255 255 255 255 255 255 255 255 255 255 255 255 255 255 255 255 255 255 255 255 255 255 255 255 255 255 255 255 255 255 255 255 255 255 255 255 255 255 255 255 255 255 255 255 255 255 255 255 255 255 255 255 255 255 255 255 255 255 255 255 255 255 255 255 255 255 255 255 255 255 255 255 255 255 255
255 255 255 255 255 255 255 255 255 255 255 255 255 255 255 255 255 255 255 255 255 255 255 255 255 255 255 255 255 255 255 255 255 255 255 255 255 255 255 255 255 255 255 255 255 255 255 255 255 255 255 255 255 255 255 255 255 255 255 255 255 255 255 255 255 255 255 255 255 255 255 255 255 255 255 255 255 255 255 255 255 255 255 255 255 255 255 255 255 255 255 255 255 255 255 255 255 255 255 255 255 255 255 255 255 255 255 255 255 255 255 255 255 255 255 255 255 255 255 255
255 255 255 255 255 255 255 255 255 255 255 255 255 255 255 255 255 255 255 255 255 255 255 255 255 255 255 255 255 255 255 255 255 255 255 255 255 255 255 255 255 255 255 255 255 255 255 255 255 255 255 255 255 255 255 255 255 255 255 255 255 255 255 255 255 255 255 255 255 255 255 255 255 255 255 255 255 255 255 255 255 255 255 255 255 255 255 255 255 255 255 255 255 255 255 255 255 255 255 255 255 255 255 255 255 255 255 255 255 255 255 255 255 255 255 255 255 255 255 255
255 255 255 255 255 255 255 255 255 255 255 255 255 255 255 255 255 255 255 255 255 255 255 255 255 255 255 255 255 255 255 255 255 255 255 255 255 255 255 255 255 255 255 255 255 255 255 255 255 255 255 255 255 255 255 255 255 255 255 255 255 255 255 255 255 255 255 255 255 255 255 255 255 255 255 255 255 255 255 255 255 255 255 255 255 255 255 255 255 255 255 255 255 255 255 255 255 255 255 255 255 255 255 255 255 255 255 255 255 255 255 255 255 255 255 255 255 255 255 255
255 255 255 255 255 255 255 255 255 255 255 255 255 255 255 255 255 255 255 255 255 255 255 255 255 255 255 255 255 255 255 255 255 255 255 255 255 255 255 255 255 255 255 255 255 255 255 255 255 255 255 255 255 255 255 255 255 255 255 255 255 255 255 255 255 255 255 255 255 255 255 255 255 255 255 255 255 255 255 255 255 255 255 255 255 255 255 255 255 255 255 255 255 255 255 255 255 255 255 255 255 255 255 255 255 255 255 255 255 255 255 255 255 255 255 255 255 255 255 255
255 255 255 255 255 255 255 255 255 255 255 255 255 255 255 255 255 255 255 255 255 255 255 255 255 255 255 255 255 255 255 255 255 255 255 255 255 255 255 255 255 255 255 255 255 255 255 255 255 255 255 255 255 255 255 255 255 255 255 255 255 255 255 255 255 255 255 255 255 255 255 255 255 255 255 255 255 255 255 255 255 255 255 255 255 255 255 255 255 255 255 255 255 255 255 255 255 255 255 255 255 255 255 255 255 255 255 255 255 255 255 255 255 255 255 255 255 255 255 255
