P3
10 10
255
255 255 255 255 110 180 255 110 180 255 110 180 255 110 180 255 110 180 255 110 180 255 110 180 255 110 180 255 110 180
255 110 180 255 110 180 255 110 180 255 110 180 255 110 180 255 110 180 255 110 180 255 110 180 255 110 180 255 110 180
255 110 180 255 110 180 255 110 180 255 110 180 255 110 180 255 110 180 255 110 180 255 110 180 255 110 180 255 110 180
255 110 180 255 110 180 255 110 180 255 110 180 255 110 180 255 110 180 255 110 180 255 110 180 255 110 180 255 110 180
255 110 180 255 255 255 255 255 255 255 255 255 255 255 255 255 255 255 255 255 255 255 110 180 255 110 180 255 110 180
255 110 180 255 255 255 255 255 255 255 255 255 255 255 255 255 255 255 255 255 255 255 255 255 255 110 180 255 110 180
255 110 180 255 255 255 255 255 255 255 255 255 255 255 255 255 255 255 255 255 255 255 255 255 255 110 180 255 110 180
255 110 180 255 110 180 255 110 180 255 110 180 255 110 180 255 110 180 255 110 180 255 110 180 255 110 180 255 110 180
255 110 180 255 110 180 255 110 180 255 110 180 255 110 180 255 110 180 255 110 180 255 110 180 255 110 180 255 110 180
255 110 180 255 110 180 255 110 180 255 110 180 255 110 180 255 110 180 255 110 180 255 110 180 255 110 180 255 110 180
