P3
50 50
255
255 255 255 217 0 108 217 0 108 217 0 108 217 0 108 217 0 108 217 0 108 217 0 108 217 0 108 217 0 108 217 0 108 217 0 108 217 0 108 217 0 108 255 255 255 255 255 255 255 255 255 255 255 255 255 255 255 255 255 255 255 255 255 255 255 255 255 255 255 255 255 255 255 255 255 255 255 255 255 255 255 255 255 255 255 255 255 255 255 255 255 255 255 255 255 255 255 255 255 255 255 255 255 255 255 255 255 255 240 0 120 240 0 120 240 0 120 217 0 108 217 0 108 217 0 108 217 0 108 217 0 108 217 0 108 217 0 108 217 0 108 217 0 108 217 0 108 217 0 108
217 0 108 217 0 108 217 0 108 217 0 108 217 0 108 217 0 108 217 0 108 217 0 108 217 0 108 217 0 108 217 0 108 217 0 108 217 0 108 217 0 108 255 255 255 255 255 255 255 255 255 255 255 255 255 255 255 255 255 255 255 255 255 255 255 255 255 255 255 255 255 255 255 255 255 255 255 255 255 255 255 255 255 255 255 255 255 255 255 255 255 255 255 255 255 255 255 255 255 255 255 255 255 255 255 255 255 255 240 0 120 240 0 120 217 0 108 217 0 108 217 0 108 217 0 108 217 0 108 217 0 108 217 0 108 217 0 108 217 0 108 217 0 108 217 0 108 217 0 108
217 0 108 217 0 108 217 0 108 217 0 108 217 0 108 217 0 108 217 0 108 217 0 108 217 0 108 217 0 108 217 0 108 217 0 108 217 0 108 217 0 108 255 255 255 255 255 255 255 255 255 255 255 255 255 255 255 255 255 255 255 255 255 255 255 255 255 255 255 255 255 255 255 255 255 255 255 255 255 255 255 255 255 255 255 255 255 255 255 255 255 255 255 255 255 255 255 255 255 255 255 255 255 255 255 255 255 255 240 0 120 217 0 108 217 0 108 217 0 108 217 0 108 217 0 108 217 0 108 217 0 108 217 0 108 217 0 108 217 0 108 217 0 108 217 0 108 217 0 108
217 0 108 217 0 108 217 0 108 217 0 108 217 0 108 217 0 108 217 0 108 217 0 108 217 0 108 217 0 108 217 0 108 217 0 108 217 0 108 217 0 108 255 255 255 255 255 255 255 255 255 255 255 255 255 255 255 255 255 255 255 255 255 255 255 255 255 255 255 255 255 255 255 255 255 255 255 255 255 255 255 255 255 255 255 255 255 255 255 255 255 255 255 255 255 255 255 255 255 255 255 255 255 255 255 255 255 255 240 0 120 217 0 108 217 0 108 217 0 108 217 0 108 217 0 108 217 0 108 217 0 108 217 0 108 217 0 108 217 0 108 217 0 108 217 0 108 217 0 108
217 0 108 217 0 108 217 0 108 217 0 108 217 0 108 217 0 108 217 0 108 217 0 108 217 0 108 217 0 108 217 0 108 217 0 108 217 0 108 217 0 108 255 255 255 255 255 255 255 255 255 255 255 255 255 255 255 255 255 255 255 255 255 255 255 255 255 255 255 255 255 255 255 255 255 255 255 255 255 255 255 255 255 255 255 255 255 255 255 255 255 255 255 255 255 255 255 255 255 255 255 255 255 255 255 255 255 255 217 0 108 217 0 108 217 0 108 217 0 108 217 0 108 217 0 108 217 0 108 217 0 108 217 0 108 217 0 108 217 0 108 217 0 108 217 0 108 217 0 108
217 0 108 217 0 108 217 0 108 217 0 108 217 0 108 217 0 108 217 0 108 217 0 108 217 0 108 217 0 108 217 0 108 217 0 108 217 0 108 217 0 108 255 255 255 255 255 255 255 255 255 255 255 255 255 255 255 255 255 255 255 255 255 255 255 255 255 255 255 255 255 255 255 255 255 255 255 255 255 255 255 255 255 255 255 255 255 255 255 255 255 255 255 255 255 255 255 255 255 255 255 255 255 255 255 255 255 255 217 0 108 217 0 108 217 0 108 217 0 108 217 0 108 217 0 108 217 0 108 217 0 108 217 0 108 217 0 108 217 0 108 217 0 108 217 0 108 217 0 108
217 0 108 217 0 108 217 0 108 217 0 108 217 0 108 217 0 108 217 0 108 217 0 108 217 0 108 217 0 108 217 0 108 217 0 108 217 0 108 217 0 108 255 255 255 255 255 255 255 255 255 255 255 255 255 255 255 255 255 255 255 255 255 255 255 255 255 255 255 255 255 255 255 255 255 255 255 255 255 255 255 255 255 255 255 255 255 255 255 255 255 255 255 255 255 255 255 255 255 255 255 255 255 255 255 255 255 255 217 0 108 217 0 108 217 0 108 217 0 108 217 0 108 217 0 108 217 0 108 217 0 108 217 0 108 217 0 108 217 0 108 217 0 108 217 0 108 217 0 108
217 0 108 217 0 108 217 0 108 217 0 108 217 0 108 217 0 108 217 0 108 217 0 108 217 0 108 217 0 108 217 0 108 217 0 108 217 0 108 217 0 108 217 0 108 255 255 255 255 255 255 255 255 255 255 255 255 255 255 255 255 255 255 255 255 255 255 255 255 255 255 255 255 255 255 255 255 255 255 255 255 255 255 255 255 255 255 255 255 255 255 255 255 255 255 255 255 255 255 255 255 255 255 255 255 255 255 255 217 0 108 217 0 108 217 0 108 217 0 108 217 0 108 217 0 108 217 0 108 217 0 108 217 0 108 217 0 108 217 0 108 217 0 108 217 0 108 217 0 108
217 0 108 217 0 108 217 0 108 217 0 108 217 0 108 217 0 108 217 0 108 217 0 108 217 0 108 217 0 108 217 0 108 217 0 108 217 0 108 217 0 108 217 0 108 217 0 108 217 0 108 217 0 108 217 0 108 217 0 108 217 0 108 217 0 108 217 0 108 255 255 255 255 255 255 255 255 255 255 255 255 255 255 255 255 255 255 255 255 255 255 255 255 255 255 255 255 255 255 255 255 255 255 255 255 255 255 255 217 0 108 217 0 108 217 0 108 217 0 108 217 0 108 217 0 108 217 0 108 217 0 108 217 0 108 217 0 108 217 0 108 217 0 108 217 0 108 217 0 108
217 0 108 217 0 108 217 0 108 217 0 108 217 0 108 217 0 108 217 0 108 217 0 108 217 0 108 217 0 108 217 0 108 217 0 108 217 0 108 217 0 108 217 0 108 217 0 108 217 0 108 217 0 108 217 0 108 217 0 108 217 0 108 217 0 108 217 0 108 255 255 255 255 255 255 255 255 255 255 255 255 255 255 255 255 255 255 255 255 255 255 255 255 255 255 255 255 255 255 255 255 255 255 255 255 255 255 255 217 0 108 217 0 108 217 0 108 217 0 108 217 0 108 217 0 108 217 0 108 217 0 108 217 0 108 217 0 108 217 0 108 217 0 108 217 0 108 217 0 108
217 0 108 217 0 108 217 0 108 217 0 108 217 0 108 217 0 108 217 0 108 217 0 108 217 0 108 217 0 108 217 0 108 217 0 108 217 0 108 217 0 108 217 0 108 217 0 108 217 0 108 217 0 108 217 0 108 217 0 108 217 0 108 217 0 108 217 0 108 255 255 255 255 255 255 255 255 255 255 255 255 255 255 255 255 255 255 255 255 255 255 255 255 255 255 255 255 255 255 255 255 255 255 255 255 255 255 255 217 0 108 217 0 108 217 0 108 217 0 108 217 0 108 217 0 108 217 0 108 217 0 108 217 0 108 217 0 108 217 0 108 217 0 108 217 0 108 217 0 108
217 0 108 217 0 108 217 0 108 217 0 108 217 0 108 217 0 108 217 0 108 217 0 108 217 0 108 217 0 108 217 0 108 217 0 108 217 0 108 217 0 108 217 0 108 217 0 108 217 0 108 217 0 108 217 0 108 217 0 108 217 0 108 217 0 108 217 0 108 255 255 255 255 255 255 255 255 255 255 255 255 255 255 255 255 255 255 255 255 255 255 255 255 255 255 255 255 255 255 255 255 255 255 255 255 255 255 255 217 0 108 217 0 108 217 0 108 217 0 108 217 0 108 217 0 108 217 0 108 217 0 108 217 0 108 217 0 108 217 0 108 217 0 108 217 0 108 217 0 108
217 0 108 217 0 108 217 0 108 217 0 108 217 0 108 217 0 108 217 0 108 217 0 108 217 0 108 217 0 108 217 0 108 217 0 108 217 0 108 217 0 108 217 0 108 217 0 108 217 0 108 217 0 108 217 0 108 217 0 108 217 0 108 217 0 108 217 0 108 255 255 255 255 255 255 255 255 255 255 255 255 255 255 255 255 255 255 255 255 255 255 255 255 255 255 255 255 255 255 255 255 255 255 255 255 255 255 255 217 0 108 217 0 108 217 0 108 217 0 108 217 0 108 217 0 108 217 0 108 217 0 108 217 0 108 217 0 108 217 0 108 217 0 108 217 0 108 217 0 108
217 0 108 217 0 108 217 0 108 217 0 108 217 0 108 217 0 108 217 0 108 217 0 108 217 0 108 217 0 108 217 0 108 217 0 108 217 0 108 217 0 108 217 0 108 217 0 108 217 0 108 217 0 108 217 0 108 217 0 108 217 0 108 217 0 108 217 0 108 255 255 255 255 255 255 255 255 255 255 255 255 255 255 255 255 255 255 255 255 255 255 255 255 255 255 255 255 255 255 255 255 255 255 255 255 255 255 255 217 0 108 217 0 108 217 0 108 217 0 108 217 0 108 217 0 108 217 0 108 217 0 108 217 0 108 217 0 108 217 0 108 217 0 108 217 0 108 217 0 108
217 0 108 217 0 108 217 0 108 217 0 108 217 0 108 217 0 108 217 0 108 217 0 108 217 0 108 217 0 108 217 0 108 217 0 108 217 0 108 217 0 108 217 0 108 217 0 108 217 0 108 217 0 108 217 0 108 217 0 108 217 0 108 217 0 108 217 0 108 255 255 255 255 255 255 255 255 255 255 255 255 255 255 255 255 255 255 255 255 255 255 255 255 255 255 255 255 255 255 255 255 255 255 255 255 255 255 255 217 0 108 217 0 108 217 0 108 217 0 108 217 0 108 217 0 108 217 0 108 217 0 108 217 0 108 217 0 108 217 0 108 217 0 108 217 0 108 217 0 108
217 0 108 217 0 108 217 0 108 217 0 108 217 0 108 217 0 108 217 0 108 217 0 108 217 0 108 217 0 108 217 0 108 217 0 108 217 0 108 217 0 108 217 0 108 217 0 108 217 0 108 217 0 108 217 0 108 217 0 108 217 0 108 217 0 108 217 0 108 255 255 255 255 255 255 255 255 255 255 255 255 255 255 255 255 255 255 255 255 255 255 255 255 255 255 255 255 255 255 255 255 255 255 255 255 255 255 255 217 0 108 217 0 108 217 0 108 217 0 108 217 0 108 217 0 108 217 0 108 217 0 108 217 0 108 217 0 108 217 0 108 217 0 108 217 0 108 217 0 108
217 0 108 217 0 108 217 0 108 217 0 108 217 0 108 217 0 108 217 0 108 217 0 108 217 0 108 217 0 108 217 0 108 217 0 108 217 0 108 217 0 108 217 0 108 217 0 108 217 0 108 217 0 108 217 0 108 217 0 108 217 0 108 217 0 108 217 0 108 255 255 255 255 255 255 255 255 255 255 255 255 255 255 255 255 255 255 255 255 255 255 255 255 255 255 255 255 255 255 255 255 255 255 255 255 255 255 255 217 0 108 217 0 108 217 0 108 217 0 108 217 0 108 217 0 108 217 0 108 217 0 108 217 0 108 217 0 108 217 0 108 217 0 108 217 0 108 217 0 108
217 0 108 217 0 108 217 0 108 217 0 108 217 0 108 217 0 108 217 0 108 217 0 108 217 0 108 217 0 108 217 0 108 217 0 108 217 0 108 217 0 108 217 0 108 217 0 108 217 0 108 217 0 108 217 0 108 217 0 108 217 0 108 217 0 108 217 0 108 255 255 255 255 255 255 255 255 255 255 255 255 255 255 255 255 255 255 255 255 255 255 255 255 255 255 255 255 255 255 255 255 255 255 255 255 255 255 255 217 0 108 217 0 108 217 0 108 217 0 108 217 0 108 217 0 108 217 0 108 217 0 108 217 0 108 217 0 108 217 0 108 217 0 108 217 0 108 217 0 108
217 0 108 217 0 108 217 0 108 217 0 108 217 0 108 217 0 108 217 0 108 217 0 108 217 0 108 217 0 108 217 0 108 217 0 108 217 0 108 217 0 108 217 0 108 217 0 108 217 0 108 217 0 108 217 0 108 217 0 108 217 0 108 217 0 108 217 0 108 255 255 255 255 255 255 255 255 255 255 255 255 255 255 255 255 255 255 255 255 255 255 255 255 255 255 255 255 255 255 255 255 255 255 255 255 255 255 255 217 0 108 217 0 108 217 0 108 217 0 108 217 0 108 217 0 108 217 0 108 217 0 108 217 0 108 217 0 108 217 0 108 217 0 108 217 0 108 217 0 108
217 0 108 217 0 108 217 0 108 217 0 108 217 0 108 217 0 108 217 0 108 217 0 108 217 0 108 217 0 108 217 0 108 217 0 108 217 0 108 217 0 108 217 0 108 217 0 108 217 0 108 217 0 108 217 0 108 217 0 108 217 0 108 217 0 108 217 0 108 255 255 255 255 255 255 255 255 255 255 255 255 255 255 255 255 255 255 255 255 255 255 255 255 255 255 255 255 255 255 255 255 255 255 255 255 255 255 255 217 0 108 217 0 108 217 0 108 217 0 108 217 0 108 217 0 108 217 0 108 217 0 108 217 0 108 217 0 108 217 0 108 217 0 108 217 0 108 217 0 108
217 0 108 217 0 108 217 0 108 217 0 108 217 0 108 217 0 108 217 0 108 217 0 108 217 0 108 217 0 108 217 0 108 217 0 108 217 0 108 217 0 108 217 0 108 217 0 108 217 0 108 217 0 108 217 0 108 217 0 108 217 0 108 217 0 108 217 0 108 255 255 255 255 255 255 255 255 255 255 255 255 255 255 255 255 255 255 255 255 255 255 255 255 255 255 255 255 255 255 255 255 255 255 255 255 255 255 255 217 0 108 217 0 108 217 0 108 217 0 108 217 0 108 217 0 108 217 0 108 217 0 108 217 0 108 217 0 108 217 0 108 217 0 108 217 0 108 217 0 108
217 0 108 217 0 108 217 0 108 217 0 108 217 0 108 217 0 108 217 0 108 217 0 108 217 0 108 217 0 108 217 0 108 217 0 108 217 0 108 217 0 108 217 0 108 217 0 108 255 255 255 255 255 255 255 255 255 255 255 255 255 255 255 255 255 255 255 255 255 255 255 255 255 255 255 255 255 255 255 255 255 255 255 255 255 255 255 255 255 255 255 255 255 255 255 255 255 255 255 255 255 255 255 255 255 255 255 255 217 0 108 217 0 108 217 0 108 217 0 108 217 0 108 217 0 108 217 0 108 217 0 108 217 0 108 217 0 108 217 0 108 217 0 108 217 0 108 217 0 108
217 0 108 217 0 108 217 0 108 217 0 108 217 0 108 217 0 108 217 0 108 217 0 108 217 0 108 217 0 108 217 0 108 217 0 108 217 0 108 217 0 108 217 0 108 217 0 108 255 255 255 255 255 255 255 255 255 255 255 255 255 255 255 255 255 255 255 255 255 255 255 255 255 255 255 255 255 255 255 255 255 255 255 255 255 255 255 255 255 255 255 255 255 255 255 255 255 255 255 255 255 255 255 255 255 255 255 255 217 0 108 217 0 108 217 0 108 217 0 108 217 0 108 217 0 108 217 0 108 217 0 108 217 0 108 217 0 108 217 0 108 217 0 108 217 0 108 217 0 108
217 0 108 217 0 108 217 0 108 217 0 108 217 0 108 217 0 108 217 0 108 217 0 108 217 0 108 217 0 108 217 0 108 217 0 108 217 0 108 217 0 108 217 0 108 217 0 108 255 255 255 255 255 255 255 255 255 255 255 255 255 255 255 255 255 255 255 255 255 255 255 255 255 255 255 255 255 255 255 255 255 255 255 255 255 255 255 255 255 255 255 255 255 255 255 255 255 255 255 255 255 255 255 255 255 255 255 255 255 255 255 217 0 108 217 0 108 217 0 108 217 0 108 217 0 108 217 0 108 217 0 108 217 0 108 217 0 108 217 0 108 217 0 108 217 0 108 217 0 108
217 0 108 217 0 108 217 0 108 217 0 108 217 0 108 217 0 108 217 0 108 217 0 108 217 0 108 217 0 108 217 0 108 217 0 108 217 0 108 217 0 108 217 0 108 217 0 108 255 255 255 255 255 255 255 255 255 255 255 255 255 255 255 255 255 255 255 255 255 255 255 255 255 255 255 255 255 255 255 255 255 255 255 255 255 255 255 255 255 255 255 255 255 255 255 255 255 255 255 255 255 255 255 255 255 255 255 255 255 255 255 217 0 108 217 0 108 217 0 108 217 0 108 217 0 108 217 0 108 217 0 108 217 0 108 217 0 108 217 0 108 217 0 108 217 0 108 217 0 108
217 0 108 217 0 108 217 0 108 217 0 108 217 0 108 217 0 108 217 0 108 217 0 108 217 0 108 217 0 108 217 0 108 217 0 108 217 0 108 217 0 108 217 0 108 217 0 108 255 255 255 255 255 255 255 255 255 255 255 255 255 255 255 255 255 255 255 255 255 255 255 255 255 255 255 255 255 255 255 255 255 255 255 255 255 255 255 255 255 255 255 255 255 255 255 255 255 255 255 255 255 255 255 255 255 255 255 255 255 255 255 217 0 108 217 0 108 217 0 108 217 0 108 217 0 108 217 0 108 217 0 108 217 0 108 217 0 108 217 0 108 217 0 108 217 0 108 217 0 108
217 0 108 217 0 108 217 0 108 217 0 108 217 0 108 217 0 108 217 0 108 217 0 108 217 0 108 217 0 108 217 0 108 217 0 108 217 0 108 217 0 108 217 0 108 217 0 108 255 255 255 255 255 255 255 255 255 255 255 255 255 255 255 255 255 255 255 255 255 255 255 255 255 255 255 255 255 255 255 255 255 255 255 255 255 255 255 255 255 255 255 255 255 255 255 255 255 255 255 255 255 255 255 255 255 255 255 255 255 255 255 217 0 108 217 0 108 217 0 108 217 0 108 217 0 108 217 0 108 217 0 108 217 0 108 217 0 108 217 0 108 217 0 108 217 0 108 217 0 108
217 0 108 217 0 108 217 0 108 217 0 108 217 0 108 217 0 108 217 0 108 217 0 108 217 0 108 217 0 108 217 0 108 217 0 108 217 0 108 217 0 108 217 0 108 217 0 108 255 255 255 255 255 255 255 255 255 255 255 255 255 255 255 255 255 255 255 255 255 255 255 255 255 255 255 255 255 255 255 255 255 255 255 255 255 255 255 255 255 255 255 255 255 255 255 255 255 255 255 255 255 255 255 255 255 255 255 255 255 255 255 217 0 108 217 0 108 217 0 108 217 0 108 217 0 108 217 0 108 217 0 108 217 0 108 217 0 108 217 0 108 217 0 108 217 0 108 217 0 108
217 0 108 217 0 108 217 0 108 217 0 108 217 0 108 217 0 108 217 0 108 217 0 108 217 0 108 217 0 108 217 0 108 217 0 108 217 0 108 217 0 108 217 0 108 217 0 108 255 255 255 255 255 255 255 255 255 255 255 255 255 255 255 255 255 255 255 255 255 255 255 255 255 255 255 255 255 255 255 255 255 255 255 255 255 255 255 255 255 255 255 255 255 255 255 255 255 255 255 255 255 255 255 255 255 255 255 255 255 255 255 217 0 108 217 0 108 217 0 108 217 0 108 217 0 108 217 0 108 217 0 108 217 0 108 217 0 108 217 0 108 217 0 108 217 0 108 217 0 108
217 0 108 217 0 108 217 0 108 217 0 108 217 0 108 217 0 108 217 0 108 217 0 108 217 0 108 217 0 108 217 0 108 217 0 108 217 0 108 217 0 108 217 0 108 217 0 108 255 255 255 255 255 255 255 255 255 255 255 255 255 255 255 255 255 255 255 255 255 255 255 255 255 255 255 255 255 255 255 255 255 255 255 255 255 255 255 255 255 255 255 255 255 255 255 255 255 255 255 255 255 255 255 255 255 255 255 255 255 255 255 217 0 108 217 0 108 217 0 108 217 0 108 217 0 108 217 0 108 217 0 108 217 0 108 217 0 108 217 0 108 217 0 108 217 0 108 217 0 108
217 0 108 217 0 108 217 0 108 217 0 108 217 0 108 217 0 108 217 0 108 217 0 108 217 0 108 217 0 108 217 0 108 217 0 108 217 0 108 217 0 108 217 0 108 217 0 108 255 255 255 255 255 255 255 255 255 255 255 255 255 255 255 255 255 255 255 255 255 255 255 255 255 255 255 255 255 255 255 255 255 255 255 255 255 255 255 255 255 255 255 255 255 255 255 255 255 255 255 255 255 255 255 255 255 255 255 255 255 255 255 217 0 108 217 0 108 217 0 108 217 0 108 217 0 108 217 0 108 217 0 108 217 0 108 217 0 108 217 0 108 217 0 108 217 0 108 217 0 108
217 0 108 217 0 108 217 0 108 217 0 108 217 0 108 217 0 108 217 0 108 217 0 108 217 0 108 217 0 108 217 0 108 217 0 108 217 0 108 217 0 108 217 0 108 217 0 108 255 255 255 255 255 255 255 255 255 255 255 255 255 255 255 255 255 255 255 255 255 255 255 255 255 255 255 255 255 255 255 255 255 255 255 255 255 255 255 255 255 255 255 255 255 255 255 255 255 255 255 255 255 255 255 255 255 255 255 255 255 255 255 217 0 108 217 0 108 217 0 108 217 0 108 217 0 108 217 0 108 217 0 108 217 0 108 217 0 108 217 0 108 217 0 108 217 0 108 217 0 108
217 0 108 217 0 108 217 0 108 217 0 108 217 0 108 217 0 108 217 0 108 217 0 108 217 0 108 217 0 108 217 0 108 217 0 108 217 0 108 217 0 108 217 0 108 217 0 108 255 255 255 255 255 255 255 255 255 255 255 255 255 255 255 255 255 255 255 255 255 255 255 255 255 255 255 255 255 255 255 255 255 255 255 255 255 255 255 255 255 255 255 255 255 255 255 255 255 255 255 255 255 255 255 255 255 255 255 255 255 255 255 217 0 108 217 0 108 217 0 108 217 0 108 217 0 108 217 0 108 217 0 108 217 0 108 217 0 108 217 0 108 217 0 108 217 0 108 217 0 108
217 0 108 217 0 108 217 0 108 217 0 108 217 0 108 217 0 108 217 0 108 217 0 108 217 0 108 217 0 108 217 0 108 217 0 108 217 0 108 217 0 108 217 0 108 217 0 108 255 255 255 255 255 255 255 255 255 255 255 255 255 255 255 255 255 255 255 255 255 255 255 255 255 255 255 255 255 255 255 255 255 255 255 255 255 255 255 255 255 255 255 255 255 255 255 255 255 255 255 255 255 255 255 255 255 255 255 255 255 255 255 217 0 108 217 0 108 217 0 108 217 0 108 217 0 108 217 0 108 217 0 108 217 0 108 217 0 108 217 0 108 217 0 108 217 0 108 217 0 108
217 0 108 217 0 108 217 0 108 217 0 108 217 0 108 217 0 108 217 0 108 217 0 108 217 0 108 217 0 108 217 0 108 217 0 108 217 0 108 217 0 108 217 0 108 217 0 108 255 255 255 255 255 255 255 255 255 255 255 255 255 255 255 255 255 255 255 255 255 255 255 255 255 255 255 255 255 255 255 255 255 255 255 255 255 255 255 255 255 255 255 255 255 255 255 255 255 255 255 255 255 255 255 255 255 255 255 255 255 255 255 217 0 108 217 0 108 217 0 108 217 0 108 217 0 108 217 0 108 217 0 108 217 0 108 217 0 108 217 0 108 217 0 108 217 0 108 217 0 108
217 0 108 217 0 108 217 0 108 217 0 108 217 0 108 217 0 108 217 0 108 217 0 108 217 0 108 217 0 108 217 0 108 217 0 108 217 0 108 217 0 108 217 0 108 217 0 108 217 0 108 255 255 255 255 255 255 255 255 255 255 255 255 255 255 255 255 255 255 255 255 255 255 255 255 255 255 255 255 255 255 255 255 255 255 255 255 255 255 255 255 255 255 255 255 255 255 255 255 255 255 255 255 255 255 255 255 255 217 0 108 217 0 108 217 0 108 217 0 108 217 0 108 217 0 108 217 0 108 217 0 108 217 0 108 217 0 108 217 0 108 217 0 108 217 0 108 217 0 108
217 0 108 217 0 108 217 0 108 217 0 108 217 0 108 217 0 108 217 0 108 217 0 108 217 0 108 217 0 108 217 0 108 217 0 108 217 0 108 217 0 108 217 0 108 217 0 108 217 0 108 217 0 108 217 0 108 217 0 108 217 0 108 217 0 108 217 0 108 217 0 108 217 0 108 217 0 108 217 0 108 217 0 108 217 0 108 217 0 108 217 0 108 217 0 108 217 0 108 217 0 108 217 0 108 217 0 108 217 0 108 217 0 108 217 0 108 217 0 108 217 0 108 217 0 108 217 0 108 217 0 108 217 0 108 217 0 108 217 0 108 217 0 108 217 0 108 217 0 108
217 0 108 217 0 108 217 0 108 217 0 108 217 0 108 217 0 108 217 0 108 217 0 108 217 0 108 217 0 108 217 0 108 217 0 108 217 0 108 217 0 108 217 0 108 217 0 108 217 0 108 217 0 108 217 0 108 217 0 108 217 0 108 217 0 108 217 0 108 217 0 108 217 0 108 217 0 108 217 0 108 217 0 108 217 0 108 217 0 108 217 0 108 217 0 108 217 0 108 217 0 108 217 0 108 217 0 108 217 0 108 217 0 108 217 0 108 217 0 108 217 0 108 217 0 108 217 0 108 217 0 108 217 0 108 217 0 108 217 0 108 217 0 108 217 0 108 217 0 108
217 0 108 217 0 108 217 0 108 217 0 108 217 0 108 217 0 108 217 0 108 217 0 108 217 0 108 217 0 108 217 0 108 217 0 108 217 0 108 217 0 108 217 0 108 217 0 108 217 0 108 217 0 108 217 0 108 217 0 108 217 0 108 217 0 108 217 0 108 217 0 108 217 0 108 217 0 108 217 0 108 217 0 108 217 0 108 217 0 108 217 0 108 217 0 108 217 0 108 217 0 108 217 0 108 217 0 108 217 0 108 217 0 108 217 0 108 217 0 108 217 0 108 217 0 108 217 0 108 217 0 108 217 0 108 217 0 108 217 0 108 217 0 108 217 0 108 217 0 108
217 0 108 217 0 108 217 0 108 217 0 108 217 0 108 217 0 108 217 0 108 217 0 108 217 0 108 217 0 108 217 0 108 217 0 108 217 0 108 217 0 108 217 0 108 217 0 108 217 0 108 217 0 108 217 0 108 217 0 108 217 0 108 217 0 108 217 0 108 217 0 108 217 0 108 217 0 108 217 0 108 217 0 108 217 0 108 217 0 108 217 0 108 217 0 108 217 0 108 217 0 108 217 0 108 217 0 108 217 0 108 217 0 108 217 0 108 217 0 108 217 0 108 217 0 108 217 0 108 217 0 108 217 0 108 217 0 108 217 0 108 217 0 108 217 0 108 217 0 108
217 0 108 217 0 108 217 0 108 217 0 108 217 0 108 217 0 108 217 0 108 217 0 108 217 0 108 217 0 108 217 0 108 217 0 108 217 0 108 217 0 108 217 0 108 217 0 108 217 0 108 217 0 108 217 0 108 217 0 108 217 0 108 217 0 108 217 0 108 217 0 108 217 0 108 217 0 108 217 0 108 217 0 108 217 0 108 217 0 108 217 0 108 217 0 108 217 0 108 217 0 108 217 0 108 217 0 108 217 0 108 217 0 108 217 0 108 217 0 108 217 0 108 217 0 108 217 0 108 217 0 108 217 0 108 217 0 108 217 0 108 217 0 108 217 0 108 217 0 108
217 0 108 217 0 108 217 0 108 217 0 108 217 0 108 217 0 108 217 0 108 217 0 108 217 0 108 217 0 108 217 0 108 217 0 108 217 0 108 217 0 108 217 0 108 217 0 108 217 0 108 217 0 108 217 0 108 217 0 108 217 0 108 217 0 108 217 0 108 217 0 108 217 0 108 217 0 108 217 0 108 217 0 108 217 0 108 217 0 108 217 0 108 217 0 108 217 0 108 217 0 108 217 0 108 217 0 108 217 0 108 217 0 108 217 0 108 217 0 108 217 0 108 217 0 108 217 0 108 217 0 108 217 0 108 217 0 108 217 0 108 217 0 108 217 0 108 217 0 108
217 0 108 217 0 108 217 0 108 217 0 108 217 0 108 217 0 108 217 0 108 217 0 108 217 0 108 217 0 108 217 0 108 217 0 108 217 0 108 217 0 108 217 0 108 217 0 108 217 0 108 217 0 108 217 0 108 217 0 108 217 0 108 217 0 108 217 0 108 217 0 108 217 0 108 217 0 108 217 0 108 217 0 108 217 0 108 217 0 108 217 0 108 217 0 108 217 0 108 217 0 108 217 0 108 217 0 108 217 0 108 217 0 108 217 0 108 217 0 108 217 0 108 217 0 108 217 0 108 217 0 108 217 0 108 217 0 108 217 0 108 217 0 108 217 0 108 217 0 108
217 0 108 217 0 108 217 0 108 217 0 108 217 0 108 217 0 108 217 0 108 217 0 108 217 0 108 217 0 108 217 0 108 217 0 108 217 0 108 217 0 108 217 0 108 217 0 108 217 0 108 217 0 108 217 0 108 217 0 108 217 0 108 217 0 108 217 0 108 217 0 108 217 0 108 217 0 108 217 0 108 217 0 108 217 0 108 217 0 108 217 0 108 217 0 108 217 0 108 217 0 108 217 0 108 217 0 108 217 0 108 217 0 108 217 0 108 217 0 108 217 0 108 217 0 108 217 0 108 217 0 108 217 0 108 217 0 108 217 0 108 217 0 108 217 0 108 217 0 108
217 0 108 217 0 108 217 0 108 217 0 108 217 0 108 217 0 108 217 0 108 217 0 108 217 0 108 217 0 108 217 0 108 217 0 108 217 0 108 217 0 108 217 0 108 217 0 108 217 0 108 217 0 108 217 0 108 217 0 108 217 0 108 217 0 108 217 0 108 217 0 108 217 0 108 217 0 108 217 0 108 217 0 108 217 0 108 217 0 108 217 0 108 217 0 108 217 0 108 217 0 108 217 0 108 217 0 108 217 0 108 217 0 108 217 0 108 217 0 108 217 0 108 217 0 108 217 0 108 217 0 108 217 0 108 217 0 108 217 0 108 217 0 108 217 0 108 217 0 108
217 0 108 217 0 108 217 0 108 217 0 108 217 0 108 217 0 108 217 0 108 217 0 108 217 0 108 217 0 108 217 0 108 217 0 108 217 0 108 217 0 108 217 0 108 217 0 108 217 0 108 217 0 108 217 0 108 217 0 108 217 0 108 217 0 108 217 0 108 217 0 108 217 0 108 217 0 108 217 0 108 217 0 108 217 0 108 217 0 108 217 0 108 217 0 108 217 0 108 217 0 108 217 0 108 217 0 108 217 0 108 217 0 108 217 0 108 217 0 108 217 0 108 217 0 108 217 0 108 217 0 108 217 0 108 217 0 108 217 0 108 217 0 108 217 0 108 217 0 108
217 0 108 217 0 108 217 0 108 217 0 108 217 0 108 217 0 108 217 0 108 217 0 108 217 0 108 217 0 108 217 0 108 217 0 108 217 0 108 217 0 108 217 0 108 217 0 108 217 0 108 217 0 108 217 0 108 217 0 108 217 0 108 217 0 108 217 0 108 217 0 108 217 0 108 217 0 108 217 0 108 217 0 108 217 0 108 217 0 108 217 0 108 217 0 108 217 0 108 217 0 108 217 0 108 217 0 108 217 0 108 217 0 108 217 0 108 217 0 108 217 0 108 217 0 108 217 0 108 217 0 108 217 0 108 217 0 108 217 0 108 217 0 108 217 0 108 217 0 108
217 0 108 217 0 108 217 0 108 217 0 108 217 0 108 217 0 108 217 0 108 217 0 108 217 0 108 217 0 108 217 0 108 217 0 108 217 0 108 217 0 108 217 0 108 217 0 108 217 0 108 217 0 108 217 0 108 217 0 108 217 0 108 217 0 108 217 0 108 217 0 108 217 0 108 217 0 108 217 0 108 217 0 108 217 0 108 217 0 108 217 0 108 217 0 108 217 0 108 217 0 108 217 0 108 217 0 108 217 0 108 217 0 108 217 0 108 217 0 108 217 0 108 217 0 108 217 0 108 217 0 108 217 0 108 217 0 108 217 0 108 217 0 108 217 0 108 217 0 108
217 0 108 217 0 108 217 0 108 217 0 108 217 0 108 217 0 108 217 0 108 217 0 108 217 0 108 217 0 108 217 0 108 217 0 108 217 0 108 217 0 108 217 0 108 217 0 108 217 0 108 217 0 108 217 0 108 217 0 108 217 0 108 217 0 108 217 0 108 217 0 108 217 0 108 217 0 108 217 0 108 217 0 108 217 0 108 217 0 108 217 0 108 217 0 108 217 0 108 217 0 108 217 0 108 217 0 108 217 0 108 217 0 108 217 0 108 217 0 108 217 0 108 217 0 108 217 0 108 217 0 108 217 0 108 217 0 108 217 0 108 217 0 108 217 0 108 217 0 108
217 0 108 217 0 108 217 0 108 217 0 108 217 0 108 217 0 108 217 0 108 217 0 108 217 0 108 217 0 108 217 0 108 217 0 108 217 0 108 217 0 108 217 0 108 217 0 108 217 0 108 217 0 108 217 0 108 217 0 108 217 0 108 217 0 108 217 0 108 217 0 108 217 0 108 217 0 108 217 0 108 217 0 108 217 0 108 217 0 108 217 0 108 217 0 108 217 0 108 217 0 108 217 0 108 217 0 108 217 0 108 217 0 108 217 0 108 217 0 108 217 0 108 217 0 108 217 0 108 217 0 108 217 0 108 217 0 108 217 0 108 217 0 108 217 0 108 217 0 108
