P3
10 10
255
255 255 255 238 106 167 238 106 167 238 106 167 238 106 167 238 106 167 238 106 167 238 106 167 238 106 167 238 106 167
238 106 167 238 106 167 238 106 167 238 106 167 238 106 167 238 106 167 238 106 167 238 106 167 238 106 167 238 106 167
238 106 167 238 106 167 238 106 167 238 106 167 238 106 167 238 106 167 238 106 167 238 106 167 238 106 167 238 106 167
238 106 167 238 106 167 238 106 167 238 106 167 238 106 167 238 106 167 238 106 167 238 106 167 238 106 167 238 106 167
238 106 167 255 255 255 255 255 255 255 255 255 255 255 255 255 255 255 255 255 255 238 106 167 238 106 167 238 106 167
238 106 167 255 255 255 255 255 255 255 255 255 255 255 255 255 255 255 255 255 255 255 255 255 238 106 167 238 106 167
238 106 167 255 255 255 255 255 255 255 255 255 255 255 255 255 255 255 255 255 255 255 255 255 238 106 167 238 106 167
238 106 167 238 106 167 238 106 167 238 106 167 238 106 167 238 106 167 238 106 167 238 106 167 238 106 167 238 106 167
238 106 167 238 106 167 238 106 167 238 106 167 238 106 167 238 106 167 238 106 167 238 106 167 238 106 167 238 106 167
238 106 167 238 106 167 238 106 167 238 106 167 238 106 167 238 106 167 238 106 167 238 106 167 238 106 167 238 106 167
