P3
10 10
255
255 255 255 255 0 128 255 121 188 240 0 120 191 0 96 240 0 120 255 121 188 255 121 188 255 53 154 240 0 120
255 121 188 255 53 154 191 0 96 240 0 120 255 255 255 255 255 255 255 255 255 255 255 255 255 255 255 191 0 96
255 121 188 255 53 154 255 53 154 255 121 188 255 255 255 255 255 255 255 255 255 255 255 255 255 255 255 255 217 236
255 96 175 255 255 255 255 255 255 255 255 255 255 255 255 255 255 255 255 255 255 255 255 255 255 255 255 255 149 202
255 121 188 255 255 255 255 255 255 255 255 255 255 255 255 255 255 255 255 255 255 255 255 255 255 255 255 255 0 128
255 121 188 255 255 255 255 255 255 255 255 255 255 255 255 255 255 255 255 255 255 255 255 255 255 255 255 217 0 108
255 149 202 255 255 255 255 255 255 255 255 255 255 255 255 255 255 255 255 255 255 255 255 255 255 255 255 255 0 128
255 96 175 255 255 255 255 255 255 255 255 255 255 255 255 255 255 255 255 255 255 255 121 188 255 121 188 255 0 128
255 121 188 255 96 175 217 0 108 255 53 154 255 53 154 255 96 175 255 121 188 255 121 188 255 96 175 255 121 188
255 149 202 255 96 175 217 0 108 255 149 202 255 121 188 255 53 154 255 96 175 255 53 154 255 149 202 217 0 108
