P3
50 50
255
255 255 255 255 0 128 255 0 128 255 0 128 255 0 128 255 0 128 255 0 128 255 0 128 255 0 128 255 0 128 255 0 128 255 0 128 255 0 128 255 0 128 255 255 255 255 255 255 255 255 255 255 255 255 255 255 255 255 255 255 255 255 255 255 255 255 255 255 255 255 255 255 255 255 255 255 255 255 255 255 255 255 255 255 255 255 255 255 255 255 255 255 255 255 255 255 255 255 255 255 255 255 255 255 255 255 255 255 255 0 128 255 0 128 255 0 128 255 0 128 255 0 128 255 0 128 255 0 128 255 0 128 255 0 128 255 0 128 255 0 128 255 0 128 255 0 128 255 0 128
255 0 128 255 0 128 255 0 128 255 0 128 255 0 128 255 0 128 255 0 128 255 0 128 255 0 128 255 0 128 255 0 128 255 0 128 240 0 120 240 0 120 255 255 255 255 255 255 255 255 255 255 255 255 255 255 255 255 255 255 255 255 255 255 255 255 255 255 255 255 255 255 255 255 255 255 255 255 255 255 255 255 255 255 255 255 255 255 255 255 255 255 255 255 255 255 255 255 255 255 255 255 255 255 255 255 255 255 255 0 128 255 0 128 255 0 128 255 0 128 255 0 128 255 0 128 255 0 128 255 0 128 255 0 128 255 0 128 255 0 128 255 0 128 255 0 128 255 0 128
255 0 128 255 0 128 255 0 128 255 0 128 255 0 128 255 0 128 255 0 128 255 0 128 240 0 120 240 0 120 240 0 120 240 0 120 240 0 120 240 0 120 255 255 255 255 255 255 255 255 255 255 255 255 255 255 255 255 255 255 255 255 255 255 255 255 255 255 255 255 255 255 255 255 255 255 255 255 255 255 255 255 255 255 255 255 255 255 255 255 255 255 255 255 255 255 255 255 255 255 255 255 255 255 255 255 255 255 255 0 128 255 0 128 255 0 128 255 0 128 255 0 128 255 0 128 255 0 128 255 0 128 255 0 128 255 0 128 255 0 128 255 0 128 255 0 128 255 0 128
255 0 128 255 0 128 255 0 128 255 0 128 255 0 128 255 0 128 240 0 120 240 0 120 240 0 120 240 0 120 240 0 120 240 0 120 240 0 120 240 0 120 255 255 255 255 255 255 255 255 255 255 255 255 255 255 255 255 255 255 255 255 255 255 255 255 255 255 255 255 255 255 255 255 255 255 255 255 255 255 255 255 255 255 255 255 255 255 255 255 255 255 255 255 255 255 255 255 255 255 255 255 255 255 255 255 255 255 255 0 128 255 0 128 255 0 128 255 0 128 255 0 128 255 0 128 255 0 128 255 0 128 255 0 128 255 0 128 255 0 128 255 0 128 255 0 128 255 0 128
255 0 128 255 0 128 255 0 128 255 0 128 255 0 128 240 0 120 240 0 120 240 0 120 240 0 120 240 0 120 240 0 120 240 0 120 240 0 120 240 0 120 255 255 255 255 255 255 255 255 255 255 255 255 255 255 255 255 255 255 255 255 255 255 255 255 255 255 255 255 255 255 255 255 255 255 255 255 255 255 255 255 255 255 255 255 255 255 255 255 255 255 255 255 255 255 255 255 255 255 255 255 255 255 255 255 255 255 255 0 128 255 0 128 255 0 128 255 0 128 255 0 128 255 0 128 255 0 128 255 0 128 255 0 128 255 0 128 255 0 128 255 0 128 255 0 128 255 0 128
255 0 128 255 0 128 255 0 128 255 0 128 240 0 120 240 0 120 240 0 120 240 0 120 240 0 120 240 0 120 240 0 120 240 0 120 240 0 120 240 0 120 255 255 255 255 255 255 255 255 255 255 255 255 255 255 255 255 255 255 255 255 255 255 255 255 255 255 255 255 255 255 255 255 255 255 255 255 255 255 255 255 255 255 255 255 255 255 255 255 255 255 255 255 255 255 255 255 255 255 255 255 255 255 255 255 255 255 255 0 128 255 0 128 255 0 128 255 0 128 255 0 128 255 0 128 255 0 128 255 0 128 255 0 128 255 0 128 255 0 128 255 0 128 255 0 128 255 0 128
255 0 128 255 0 128 255 0 128 240 0 120 240 0 120 240 0 120 240 0 120 240 0 120 240 0 120 240 0 120 240 0 120 240 0 120 240 0 120 240 0 120 255 255 255 255 255 255 255 255 255 255 255 255 255 255 255 255 255 255 255 255 255 255 255 255 255 255 255 255 255 255 255 255 255 255 255 255 255 255 255 255 255 255 255 255 255 255 255 255 255 255 255 255 255 255 255 255 255 255 255 255 255 255 255 255 255 255 255 0 128 255 0 128 255 0 128 255 0 128 255 0 128 255 0 128 255 0 128 255 0 128 255 0 128 255 0 128 255 0 128 255 0 128 255 0 128 255 0 128
255 0 128 255 0 128 240 0 120 240 0 120 240 0 120 240 0 120 240 0 120 240 0 120 240 0 120 240 0 120 240 0 120 240 0 120 240 0 120 240 0 120 240 0 120 255 255 255 255 255 255 255 255 255 255 255 255 255 255 255 255 255 255 255 255 255 255 255 255 255 255 255 255 255 255 255 255 255 255 255 255 255 255 255 255 255 255 255 255 255 255 255 255 255 255 255 255 255 255 255 255 255 255 255 255 255 255 255 255 0 128 255 0 128 255 0 128 255 0 128 255 0 128 255 0 128 255 0 128 255 0 128 255 0 128 255 0 128 255 0 128 255 0 128 255 0 128 255 0 128
255 0 128 255 0 128 240 0 120 240 0 120 240 0 120 240 0 120 240 0 120 240 0 120 240 0 120 240 0 120 240 0 120 240 0 120 240 0 120 240 0 120 240 0 120 240 0 120 240 0 120 240 0 120 240 0 120 240 0 120 240 0 120 240 0 120 240 0 120 255 255 255 255 255 255 255 255 255 255 255 255 255 255 255 255 255 255 255 255 255 255 255 255 255 255 255 255 255 255 255 255 255 255 255 255 255 255 255 255 0 128 255 0 128 255 0 128 255 0 128 255 0 128 255 0 128 255 0 128 255 0 128 255 0 128 255 0 128 255 0 128 255 0 128 255 0 128 255 0 128
255 0 128 240 0 120 240 0 120 240 0 120 240 0 120 240 0 120 240 0 120 240 0 120 240 0 120 240 0 120 240 0 120 240 0 120 240 0 120 240 0 120 240 0 120 240 0 120 240 0 120 240 0 120 240 0 120 240 0 120 240 0 120 240 0 120 240 0 120 255 255 255 255 255 255 255 255 255 255 255 255 255 255 255 255 255 255 255 255 255 255 255 255 255 255 255 255 255 255 255 255 255 255 255 255 255 255 255 255 0 128 255 0 128 255 0 128 255 0 128 255 0 128 255 0 128 255 0 128 255 0 128 255 0 128 255 0 128 255 0 128 255 0 128 255 0 128 255 0 128
240 0 120 240 0 120 240 0 120 240 0 120 240 0 120 240 0 120 240 0 120 240 0 120 240 0 120 240 0 120 240 0 120 240 0 120 240 0 120 240 0 120 240 0 120 240 0 120 240 0 120 240 0 120 240 0 120 240 0 120 240 0 120 240 0 120 240 0 120 255 255 255 255 255 255 255 255 255 255 255 255 255 255 255 255 255 255 255 255 255 255 255 255 255 255 255 255 255 255 255 255 255 255 255 255 255 255 255 255 0 128 255 0 128 255 0 128 255 0 128 255 0 128 255 0 128 255 0 128 255 0 128 255 0 128 255 0 128 255 0 128 255 0 128 255 0 128 255 0 128
240 0 120 240 0 120 240 0 120 240 0 120 240 0 120 240 0 120 240 0 120 240 0 120 240 0 120 240 0 120 240 0 120 240 0 120 240 0 120 240 0 120 240 0 120 240 0 120 240 0 120 240 0 120 240 0 120 240 0 120 240 0 120 240 0 120 240 0 120 255 255 255 255 255 255 255 255 255 255 255 255 255 255 255 255 255 255 255 255 255 255 255 255 255 255 255 255 255 255 255 255 255 255 255 255 255 255 255 255 0 128 255 0 128 255 0 128 255 0 128 255 0 128 255 0 128 255 0 128 255 0 128 255 0 128 255 0 128 255 0 128 255 0 128 255 0 128 255 0 128
240 0 120 240 0 120 240 0 120 240 0 120 240 0 120 240 0 120 240 0 120 240 0 120 240 0 120 240 0 120 240 0 120 240 0 120 240 0 120 240 0 120 240 0 120 240 0 120 240 0 120 240 0 120 240 0 120 240 0 120 240 0 120 240 0 120 240 0 120 255 255 255 255 255 255 255 255 255 255 255 255 255 255 255 255 255 255 255 255 255 255 255 255 255 255 255 255 255 255 255 255 255 255 255 255 255 255 255 255 0 128 255 0 128 255 0 128 255 0 128 255 0 128 255 0 128 255 0 128 255 0 128 255 0 128 255 0 128 255 0 128 255 0 128 255 0 128 255 0 128
240 0 120 240 0 120 240 0 120 240 0 120 240 0 120 240 0 120 240 0 120 240 0 120 240 0 120 240 0 120 240 0 120 240 0 120 240 0 120 240 0 120 240 0 120 240 0 120 240 0 120 240 0 120 240 0 120 240 0 120 240 0 120 240 0 120 240 0 120 255 255 255 255 255 255 255 255 255 255 255 255 255 255 255 255 255 255 255 255 255 255 255 255 255 255 255 255 255 255 255 255 255 255 255 255 255 255 255 255 0 128 255 0 128 255 0 128 255 0 128 255 0 128 255 0 128 255 0 128 255 0 128 255 0 128 255 0 128 255 0 128 255 0 128 255 0 128 255 0 128
240 0 120 240 0 120 240 0 120 240 0 120 240 0 120 240 0 120 240 0 120 240 0 120 240 0 120 240 0 120 240 0 120 240 0 120 240 0 120 240 0 120 240 0 120 240 0 120 240 0 120 240 0 120 240 0 120 240 0 120 240 0 120 240 0 120 240 0 120 255 255 255 255 255 255 255 255 255 255 255 255 255 255 255 255 255 255 255 255 255 255 255 255 255 255 255 255 255 255 255 255 255 255 255 255 255 255 255 255 0 128 255 0 128 255 0 128 255 0 128 255 0 128 255 0 128 255 0 128 255 0 128 255 0 128 255 0 128 255 0 128 255 0 128 255 0 128 240 0 120
240 0 120 240 0 120 240 0 120 240 0 120 240 0 120 240 0 120 240 0 120 240 0 120 240 0 120 240 0 120 240 0 120 240 0 120 240 0 120 240 0 120 240 0 120 240 0 120 240 0 120 240 0 120 240 0 120 240 0 120 240 0 120 240 0 120 240 0 120 255 255 255 255 255 255 255 255 255 255 255 255 255 255 255 255 255 255 255 255 255 255 255 255 255 255 255 255 255 255 255 255 255 255 255 255 255 255 255 255 0 128 255 0 128 255 0 128 255 0 128 255 0 128 255 0 128 255 0 128 255 0 128 255 0 128 255 0 128 255 0 128 240 0 120 240 0 120 240 0 120
240 0 120 240 0 120 240 0 120 240 0 120 240 0 120 240 0 120 240 0 120 240 0 120 240 0 120 240 0 120 240 0 120 240 0 120 240 0 120 240 0 120 240 0 120 240 0 120 240 0 120 240 0 120 240 0 120 240 0 120 240 0 120 240 0 120 240 0 120 255 255 255 255 255 255 255 255 255 255 255 255 255 255 255 255 255 255 255 255 255 255 255 255 255 255 255 255 255 255 255 255 255 255 255 255 255 255 255 255 0 128 255 0 128 255 0 128 255 0 128 255 0 128 255 0 128 255 0 128 255 0 128 255 0 128 255 0 128 240 0 120 240 0 120 240 0 120 240 0 120
240 0 120 240 0 120 240 0 120 240 0 120 240 0 120 240 0 120 240 0 120 240 0 120 240 0 120 240 0 120 240 0 120 240 0 120 240 0 120 240 0 120 240 0 120 240 0 120 240 0 120 240 0 120 240 0 120 240 0 120 240 0 120 240 0 120 240 0 120 255 255 255 255 255 255 255 255 255 255 255 255 255 255 255 255 255 255 255 255 255 255 255 255 255 255 255 255 255 255 255 255 255 255 255 255 255 255 255 255 0 128 255 0 128 255 0 128 255 0 128 255 0 128 255 0 128 255 0 128 255 0 128 255 0 128 240 0 120 240 0 120 240 0 120 240 0 120 240 0 120
240 0 120 240 0 120 240 0 120 240 0 120 240 0 120 240 0 120 240 0 120 240 0 120 240 0 120 240 0 120 240 0 120 240 0 120 240 0 120 240 0 120 240 0 120 240 0 120 240 0 120 240 0 120 240 0 120 240 0 120 240 0 120 240 0 120 240 0 120 255 255 255 255 255 255 255 255 255 255 255 255 255 255 255 255 255 255 255 255 255 255 255 255 255 255 255 255 255 255 255 255 255 255 255 255 255 255 255 255 0 128 255 0 128 255 0 128 255 0 128 255 0 128 255 0 128 255 0 128 255 0 128 240 0 120 240 0 120 240 0 120 240 0 120 240 0 120 240 0 120
240 0 120 240 0 120 240 0 120 240 0 120 240 0 120 240 0 120 240 0 120 240 0 120 240 0 120 240 0 120 240 0 120 240 0 120 240 0 120 240 0 120 240 0 120 240 0 120 240 0 120 240 0 120 240 0 120 240 0 120 240 0 120 240 0 120 240 0 120 255 255 255 255 255 255 255 255 255 255 255 255 255 255 255 255 255 255 255 255 255 255 255 255 255 255 255 255 255 255 255 255 255 255 255 255 255 255 255 255 0 128 255 0 128 255 0 128 255 0 128 255 0 128 255 0 128 255 0 128 255 0 128 240 0 120 240 0 120 240 0 120 240 0 120 240 0 120 240 0 120
240 0 120 240 0 120 240 0 120 240 0 120 240 0 120 240 0 120 240 0 120 240 0 120 240 0 120 240 0 120 240 0 120 240 0 120 240 0 120 240 0 120 240 0 120 240 0 120 240 0 120 240 0 120 240 0 120 240 0 120 240 0 120 240 0 120 240 0 120 255 255 255 255 255 255 255 255 255 255 255 255 255 255 255 255 255 255 255 255 255 255 255 255 255 255 255 255 255 255 255 255 255 255 255 255 255 255 255 255 0 128 255 0 128 255 0 128 255 0 128 255 0 128 255 0 128 255 0 128 240 0 120 240 0 120 240 0 120 240 0 120 240 0 120 240 0 120 240 0 120
240 0 120 240 0 120 240 0 120 240 0 120 240 0 120 240 0 120 240 0 120 240 0 120 240 0 120 240 0 120 240 0 120 240 0 120 240 0 120 240 0 120 240 0 120 240 0 120 255 255 255 255 255 255 255 255 255 255 255 255 255 255 255 255 255 255 255 255 255 255 255 255 255 255 255 255 255 255 255 255 255 255 255 255 255 255 255 255 255 255 255 255 255 255 255 255 255 255 255 255 255 255 255 255 255 255 255 255 255 0 128 255 0 128 255 0 128 255 0 128 255 0 128 255 0 128 240 0 120 240 0 120 240 0 120 240 0 120 240 0 120 240 0 120 240 0 120 240 0 120
240 0 120 240 0 120 240 0 120 240 0 120 240 0 120 240 0 120 240 0 120 240 0 120 240 0 120 240 0 120 240 0 120 240 0 120 240 0 120 240 0 120 240 0 120 240 0 120 255 255 255 255 255 255 255 255 255 255 255 255 255 255 255 255 255 255 255 255 255 255 255 255 255 255 255 255 255 255 255 255 255 255 255 255 255 255 255 255 255 255 255 255 255 255 255 255 255 255 255 255 255 255 255 255 255 255 255 255 255 0 128 255 0 128 255 0 128 255 0 128 255 0 128 255 0 128 240 0 120 240 0 120 240 0 120 240 0 120 240 0 120 240 0 120 240 0 120 240 0 120
240 0 120 240 0 120 240 0 120 240 0 120 240 0 120 240 0 120 240 0 120 240 0 120 240 0 120 240 0 120 240 0 120 240 0 120 240 0 120 240 0 120 240 0 120 240 0 120 255 255 255 255 255 255 255 255 255 255 255 255 255 255 255 255 255 255 255 255 255 255 255 255 255 255 255 255 255 255 255 255 255 255 255 255 255 255 255 255 255 255 255 255 255 255 255 255 255 255 255 255 255 255 255 255 255 255 255 255 255 255 255 255 0 128 255 0 128 255 0 128 255 0 128 240 0 120 240 0 120 240 0 120 240 0 120 240 0 120 240 0 120 240 0 120 240 0 120 240 0 120
240 0 120 240 0 120 240 0 120 240 0 120 240 0 120 240 0 120 240 0 120 240 0 120 240 0 120 240 0 120 240 0 120 240 0 120 240 0 120 240 0 120 240 0 120 240 0 120 255 255 255 255 255 255 255 255 255 255 255 255 255 255 255 255 255 255 255 255 255 255 255 255 255 255 255 255 255 255 255 255 255 255 255 255 255 255 255 255 255 255 255 255 255 255 255 255 255 255 255 255 255 255 255 255 255 255 255 255 255 255 255 255 0 128 255 0 128 255 0 128 255 0 128 240 0 120 240 0 120 240 0 120 240 0 120 240 0 120 240 0 120 240 0 120 240 0 120 240 0 120
240 0 120 240 0 120 240 0 120 240 0 120 240 0 120 240 0 120 240 0 120 240 0 120 240 0 120 240 0 120 240 0 120 240 0 120 240 0 120 240 0 120 240 0 120 240 0 120 255 255 255 255 255 255 255 255 255 255 255 255 255 255 255 255 255 255 255 255 255 255 255 255 255 255 255 255 255 255 255 255 255 255 255 255 255 255 255 255 255 255 255 255 255 255 255 255 255 255 255 255 255 255 255 255 255 255 255 255 255 255 255 255 0 128 255 0 128 255 0 128 240 0 120 240 0 120 240 0 120 240 0 120 240 0 120 240 0 120 240 0 120 240 0 120 240 0 120 240 0 120
240 0 120 240 0 120 240 0 120 240 0 120 240 0 120 240 0 120 240 0 120 240 0 120 240 0 120 240 0 120 240 0 120 240 0 120 240 0 120 240 0 120 240 0 120 240 0 120 255 255 255 255 255 255 255 255 255 255 255 255 255 255 255 255 255 255 255 255 255 255 255 255 255 255 255 255 255 255 255 255 255 255 255 255 255 255 255 255 255 255 255 255 255 255 255 255 255 255 255 255 255 255 255 255 255 255 255 255 255 255 255 255 0 128 255 0 128 255 0 128 240 0 120 240 0 120 240 0 120 240 0 120 240 0 120 240 0 120 240 0 120 240 0 120 240 0 120 240 0 120
240 0 120 240 0 120 240 0 120 240 0 120 240 0 120 240 0 120 240 0 120 240 0 120 240 0 120 240 0 120 240 0 120 240 0 120 240 0 120 240 0 120 240 0 120 240 0 120 255 255 255 255 255 255 255 255 255 255 255 255 255 255 255 255 255 255 255 255 255 255 255 255 255 255 255 255 255 255 255 255 255 255 255 255 255 255 255 255 255 255 255 255 255 255 255 255 255 255 255 255 255 255 255 255 255 255 255 255 255 255 255 255 0 128 255 0 128 240 0 120 240 0 120 240 0 120 240 0 120 240 0 120 240 0 120 240 0 120 240 0 120 240 0 120 240 0 120 240 0 120
240 0 120 240 0 120 240 0 120 240 0 120 240 0 120 240 0 120 240 0 120 240 0 120 240 0 120 240 0 120 240 0 120 240 0 120 240 0 120 240 0 120 240 0 120 240 0 120 255 255 255 255 255 255 255 255 255 255 255 255 255 255 255 255 255 255 255 255 255 255 255 255 255 255 255 255 255 255 255 255 255 255 255 255 255 255 255 255 255 255 255 255 255 255 255 255 255 255 255 255 255 255 255 255 255 255 255 255 255 255 255 255 0 128 255 0 128 240 0 120 240 0 120 240 0 120 240 0 120 240 0 120 240 0 120 240 0 120 240 0 120 240 0 120 240 0 120 240 0 120
240 0 120 240 0 120 240 0 120 240 0 120 240 0 120 240 0 120 240 0 120 240 0 120 240 0 120 240 0 120 240 0 120 240 0 120 240 0 120 240 0 120 240 0 120 240 0 120 255 255 255 255 255 255 255 255 255 255 255 255 255 255 255 255 255 255 255 255 255 255 255 255 255 255 255 255 255 255 255 255 255 255 255 255 255 255 255 255 255 255 255 255 255 255 255 255 255 255 255 255 255 255 255 255 255 255 255 255 255 255 255 255 0 128 240 0 120 240 0 120 240 0 120 240 0 120 240 0 120 240 0 120 240 0 120 240 0 120 240 0 120 240 0 120 240 0 120 240 0 120
240 0 120 240 0 120 240 0 120 240 0 120 240 0 120 240 0 120 240 0 120 240 0 120 240 0 120 240 0 120 240 0 120 240 0 120 240 0 120 240 0 120 240 0 120 240 0 120 255 255 255 255 255 255 255 255 255 255 255 255 255 255 255 255 255 255 255 255 255 255 255 255 255 255 255 255 255 255 255 255 255 255 255 255 255 255 255 255 255 255 255 255 255 255 255 255 255 255 255 255 255 255 255 255 255 255 255 255 255 255 255 240 0 120 240 0 120 240 0 120 240 0 120 240 0 120 240 0 120 240 0 120 240 0 120 240 0 120 240 0 120 240 0 120 240 0 120 240 0 120
240 0 120 240 0 120 240 0 120 240 0 120 240 0 120 240 0 120 240 0 120 240 0 120 240 0 120 240 0 120 240 0 120 240 0 120 240 0 120 240 0 120 240 0 120 240 0 120 255 255 255 255 255 255 255 255 255 255 255 255 255 255 255 255 255 255 255 255 255 255 255 255 255 255 255 255 255 255 255 255 255 255 255 255 255 255 255 255 255 255 255 255 255 255 255 255 255 255 255 255 255 255 255 255 255 255 255 255 255 255 255 240 0 120 240 0 120 240 0 120 240 0 120 240 0 120 240 0 120 240 0 120 240 0 120 240 0 120 240 0 120 240 0 120 240 0 120 240 0 120
240 0 120 240 0 120 240 0 120 240 0 120 240 0 120 240 0 120 240 0 120 240 0 120 240 0 120 240 0 120 240 0 120 240 0 120 240 0 120 240 0 120 240 0 120 240 0 120 255 255 255 255 255 255 255 255 255 255 255 255 255 255 255 255 255 255 255 255 255 255 255 255 255 255 255 255 255 255 255 255 255 255 255 255 255 255 255 255 255 255 255 255 255 255 255 255 255 255 255 255 255 255 255 255 255 255 255 255 255 255 255 240 0 120 240 0 120 240 0 120 240 0 120 240 0 120 240 0 120 240 0 120 240 0 120 240 0 120 240 0 120 240 0 120 240 0 120 240 0 120
240 0 120 240 0 120 240 0 120 240 0 120 240 0 120 240 0 120 240 0 120 240 0 120 240 0 120 240 0 120 240 0 120 240 0 120 240 0 120 240 0 120 240 0 120 240 0 120 255 255 255 255 255 255 255 255 255 255 255 255 255 255 255 255 255 255 255 255 255 255 255 255 255 255 255 255 255 255 255 255 255 255 255 255 255 255 255 255 255 255 255 255 255 255 255 255 255 255 255 255 255 255 255 255 255 255 255 255 255 255 255 240 0 120 240 0 120 240 0 120 240 0 120 240 0 120 240 0 120 240 0 120 240 0 120 240 0 120 240 0 120 240 0 120 240 0 120 240 0 120
240 0 120 240 0 120 240 0 120 240 0 120 240 0 120 240 0 120 240 0 120 240 0 120 240 0 120 240 0 120 240 0 120 240 0 120 240 0 120 240 0 120 240 0 120 240 0 120 255 255 255 255 255 255 255 255 255 255 255 255 255 255 255 255 255 255 255 255 255 255 255 255 255 255 255 255 255 255 255 255 255 255 255 255 255 255 255 255 255 255 255 255 255 255 255 255 255 255 255 255 255 255 255 255 255 255 255 255 255 255 255 240 0 120 240 0 120 240 0 120 240 0 120 240 0 120 240 0 120 240 0 120 240 0 120 240 0 120 240 0 120 240 0 120 240 0 120 240 0 120
240 0 120 240 0 120 240 0 120 240 0 120 240 0 120 240 0 120 240 0 120 240 0 120 240 0 120 240 0 120 240 0 120 240 0 120 240 0 120 240 0 120 240 0 120 240 0 120 240 0 120 255 255 255 255 255 255 255 255 255 255 255 255 255 255 255 255 255 255 255 255 255 255 255 255 255 255 255 255 255 255 255 255 255 255 255 255 255 255 255 255 255 255 255 255 255 255 255 255 255 255 255 255 255 255 255 255 255 240 0 120 240 0 120 240 0 120 240 0 120 240 0 120 240 0 120 240 0 120 240 0 120 240 0 120 240 0 120 240 0 120 240 0 120 240 0 120 240 0 120
240 0 120 240 0 120 240 0 120 240 0 120 240 0 120 240 0 120 240 0 120 240 0 120 240 0 120 240 0 120 240 0 120 240 0 120 240 0 120 240 0 120 240 0 120 240 0 120 240 0 120 240 0 120 240 0 120 240 0 120 240 0 120 240 0 120 240 0 120 240 0 120 240 0 120 240 0 120 240 0 120 240 0 120 240 0 120 240 0 120 240 0 120 240 0 120 240 0 120 240 0 120 240 0 120 240 0 120 240 0 120 240 0 120 240 0 120 240 0 120 240 0 120 240 0 120 240 0 120 240 0 120 240 0 120 240 0 120 240 0 120 240 0 120 240 0 120 240 0 120
240 0 120 240 0 120 240 0 120 240 0 120 240 0 120 240 0 120 240 0 120 240 0 120 240 0 120 240 0 120 240 0 120 240 0 120 240 0 120 240 0 120 240 0 120 240 0 120 240 0 120 240 0 120 240 0 120 240 0 120 240 0 120 240 0 120 240 0 120 240 0 120 240 0 120 240 0 120 240 0 120 240 0 120 240 0 120 240 0 120 240 0 120 240 0 120 240 0 120 240 0 120 240 0 120 240 0 120 240 0 120 240 0 120 240 0 120 240 0 120 240 0 120 240 0 120 240 0 120 240 0 120 240 0 120 240 0 120 240 0 120 240 0 120 240 0 120 240 0 120
240 0 120 240 0 120 240 0 120 240 0 120 240 0 120 240 0 120 240 0 120 240 0 120 240 0 120 240 0 120 240 0 120 240 0 120 240 0 120 240 0 120 240 0 120 240 0 120 240 0 120 240 0 120 240 0 120 240 0 120 240 0 120 240 0 120 240 0 120 240 0 120 240 0 120 240 0 120 240 0 120 240 0 120 240 0 120 240 0 120 240 0 120 240 0 120 240 0 120 240 0 120 240 0 120 240 0 120 240 0 120 240 0 120 240 0 120 240 0 120 240 0 120 240 0 120 240 0 120 240 0 120 240 0 120 240 0 120 240 0 120 240 0 120 240 0 120 240 0 120
255 0 128 240 0 120 240 0 120 240 0 120 240 0 120 240 0 120 240 0 120 240 0 120 240 0 120 240 0 120 240 0 120 240 0 120 240 0 120 240 0 120 240 0 120 240 0 120 240 0 120 240 0 120 240 0 120 240 0 120 240 0 120 240 0 120 240 0 120 240 0 120 240 0 120 240 0 120 240 0 120 240 0 120 240 0 120 240 0 120 240 0 120 240 0 120 240 0 120 240 0 120 240 0 120 240 0 120 240 0 120 240 0 120 240 0 120 240 0 120 240 0 120 240 0 120 240 0 120 240 0 120 240 0 120 240 0 120 240 0 120 240 0 120 240 0 120 240 0 120
255 0 128 240 0 120 240 0 120 240 0 120 240 0 120 240 0 120 240 0 120 240 0 120 240 0 120 240 0 120 240 0 120 240 0 120 240 0 120 240 0 120 240 0 120 240 0 120 240 0 120 240 0 120 240 0 120 240 0 120 240 0 120 240 0 120 240 0 120 240 0 120 240 0 120 240 0 120 240 0 120 240 0 120 240 0 120 240 0 120 240 0 120 240 0 120 240 0 120 240 0 120 240 0 120 240 0 120 240 0 120 240 0 120 240 0 120 240 0 120 240 0 120 240 0 120 240 0 120 240 0 120 240 0 120 240 0 120 240 0 120 240 0 120 240 0 120 240 0 120
255 0 128 240 0 120 240 0 120 240 0 120 240 0 120 240 0 120 240 0 120 240 0 120 240 0 120 240 0 120 240 0 120 240 0 120 240 0 120 240 0 120 240 0 120 240 0 120 240 0 120 240 0 120 240 0 120 240 0 120 240 0 120 240 0 120 240 0 120 240 0 120 240 0 120 240 0 120 240 0 120 240 0 120 240 0 120 240 0 120 240 0 120 240 0 120 240 0 120 240 0 120 240 0 120 240 0 120 240 0 120 240 0 120 240 0 120 240 0 120 240 0 120 240 0 120 240 0 120 240 0 120 240 0 120 240 0 120 240 0 120 240 0 120 240 0 120 240 0 120
255 0 128 240 0 120 240 0 120 240 0 120 240 0 120 240 0 120 240 0 120 240 0 120 240 0 120 240 0 120 240 0 120 240 0 120 240 0 120 240 0 120 240 0 120 240 0 120 240 0 120 240 0 120 240 0 120 240 0 120 240 0 120 240 0 120 240 0 120 240 0 120 240 0 120 240 0 120 240 0 120 240 0 120 240 0 120 240 0 120 240 0 120 240 0 120 240 0 120 240 0 120 240 0 120 240 0 120 240 0 120 240 0 120 240 0 120 240 0 120 240 0 120 240 0 120 240 0 120 240 0 120 240 0 120 240 0 120 240 0 120 240 0 120 240 0 120 240 0 120
255 0 128 240 0 120 240 0 120 240 0 120 240 0 120 240 0 120 240 0 120 240 0 120 240 0 120 240 0 120 240 0 120 240 0 120 240 0 120 240 0 120 240 0 120 240 0 120 240 0 120 240 0 120 240 0 120 240 0 120 240 0 120 240 0 120 240 0 120 240 0 120 240 0 120 240 0 120 240 0 120 240 0 120 240 0 120 240 0 120 240 0 120 240 0 120 240 0 120 240 0 120 240 0 120 240 0 120 240 0 120 240 0 120 240 0 120 240 0 120 240 0 120 240 0 120 240 0 120 240 0 120 240 0 120 240 0 120 240 0 120 240 0 120 240 0 120 240 0 120
255 0 128 240 0 120 240 0 120 240 0 120 240 0 120 240 0 120 240 0 120 240 0 120 240 0 120 240 0 120 240 0 120 240 0 120 240 0 120 240 0 120 240 0 120 240 0 120 240 0 120 240 0 120 240 0 120 240 0 120 240 0 120 240 0 120 240 0 120 240 0 120 240 0 120 240 0 120 240 0 120 240 0 120 240 0 120 240 0 120 240 0 120 240 0 120 240 0 120 240 0 120 240 0 120 240 0 120 240 0 120 240 0 120 240 0 120 240 0 120 240 0 120 240 0 120 240 0 120 240 0 120 240 0 120 240 0 120 240 0 120 240 0 120 240 0 120 240 0 120
255 0 128 240 0 120 240 0 120 240 0 120 240 0 120 240 0 120 240 0 120 240 0 120 240 0 120 240 0 120 240 0 120 240 0 120 240 0 120 240 0 120 240 0 120 240 0 120 240 0 120 240 0 120 240 0 120 240 0 120 240 0 120 240 0 120 240 0 120 240 0 120 240 0 120 240 0 120 240 0 120 240 0 120 240 0 120 240 0 120 240 0 120 240 0 120 240 0 120 240 0 120 240 0 120 240 0 120 240 0 120 240 0 120 240 0 120 240 0 120 240 0 120 240 0 120 240 0 120 240 0 120 240 0 120 240 0 120 240 0 120 240 0 120 240 0 120 240 0 120
255 0 128 240 0 120 240 0 120 240 0 120 240 0 120 240 0 120 240 0 120 240 0 120 240 0 120 240 0 120 240 0 120 240 0 120 240 0 120 240 0 120 240 0 120 240 0 120 240 0 120 240 0 120 240 0 120 240 0 120 240 0 120 240 0 120 240 0 120 240 0 120 240 0 120 240 0 120 240 0 120 240 0 120 240 0 120 240 0 120 240 0 120 240 0 120 240 0 120 240 0 120 240 0 120 240 0 120 240 0 120 240 0 120 240 0 120 240 0 120 240 0 120 240 0 120 240 0 120 240 0 120 240 0 120 240 0 120 240 0 120 240 0 120 240 0 120 240 0 120
255 0 128 240 0 120 240 0 120 240 0 120 240 0 120 240 0 120 240 0 120 240 0 120 240 0 120 240 0 120 240 0 120 240 0 120 240 0 120 240 0 120 240 0 120 240 0 120 240 0 120 240 0 120 240 0 120 240 0 120 240 0 120 240 0 120 240 0 120 240 0 120 240 0 120 240 0 120 240 0 120 240 0 120 240 0 120 240 0 120 240 0 120 240 0 120 240 0 120 240 0 120 240 0 120 240 0 120 240 0 120 240 0 120 240 0 120 240 0 120 240 0 120 240 0 120 240 0 120 240 0 120 240 0 120 240 0 120 240 0 120 240 0 120 240 0 120 240 0 120
255 0 128 255 0 128 240 0 120 240 0 120 240 0 120 240 0 120 240 0 120 240 0 120 240 0 120 240 0 120 240 0 120 240 0 120 240 0 120 240 0 120 240 0 120 240 0 120 240 0 120 240 0 120 240 0 120 240 0 120 240 0 120 240 0 120 240 0 120 240 0 120 240 0 120 240 0 120 240 0 120 240 0 120 240 0 120 240 0 120 240 0 120 240 0 120 240 0 120 240 0 120 240 0 120 240 0 120 240 0 120 240 0 120 240 0 120 240 0 120 240 0 120 240 0 120 240 0 120 240 0 120 240 0 120 240 0 120 240 0 120 240 0 120 240 0 120 240 0 120
255 0 128 255 0 128 240 0 120 240 0 120 240 0 120 240 0 120 240 0 120 240 0 120 240 0 120 240 0 120 240 0 120 240 0 120 240 0 120 240 0 120 240 0 120 240 0 120 240 0 120 240 0 120 240 0 120 240 0 120 240 0 120 240 0 120 240 0 120 240 0 120 240 0 120 240 0 120 240 0 120 240 0 120 240 0 120 240 0 120 240 0 120 240 0 120 240 0 120 240 0 120 240 0 120 240 0 120 240 0 120 240 0 120 240 0 120 240 0 120 240 0 120 240 0 120 240 0 120 240 0 120 240 0 120 240 0 120 240 0 120 240 0 120 240 0 120 240 0 120
