P3
40 50
255
255 255 255 255 96 175 255 96 175 255 96 175 255 96 175 255 96 175 255 96 175 255 96 175 255 96 175 255 96 175 255 96 175 255 96 175 255 96 175 255 96 175 255 255 255 255 255 255 255 255 255 255 255 255 255 255 255 255 255 255 255 255 255 255 255 255 255 255 255 255 255 255 255 255 255 255 255 255 255 255 255 255 255 255 255 255 255 255 255 255 255 255 255 255 255 255 255 255 255 255 255 255 255 255 255 255 255 255 255 96 175 255 96 175 255 96 175 255 96 175
255 96 175 255 96 175 255 96 175 255 96 175 255 96 175 255 96 175 255 96 175 255 96 175 255 96 175 255 96 175 255 96 175 255 96 175 255 96 175 255 96 175 255 255 255 255 255 255 255 255 255 255 255 255 255 255 255 255 255 255 255 255 255 255 255 255 255 255 255 255 255 255 255 255 255 255 255 255 255 255 255 255 255 255 255 255 255 255 255 255 255 255 255 255 255 255 255 255 255 255 255 255 255 255 255 255 255 255 255 96 175 255 96 175 255 96 175 255 96 175
255 96 175 255 96 175 255 96 175 255 96 175 255 96 175 255 96 175 255 96 175 255 96 175 255 96 175 255 96 175 255 96 175 255 96 175 255 96 175 255 96 175 255 255 255 255 255 255 255 255 255 255 255 255 255 255 255 255 255 255 255 255 255 255 255 255 255 255 255 255 255 255 255 255 255 255 255 255 255 255 255 255 255 255 255 255 255 255 255 255 255 255 255 255 255 255 255 255 255 255 255 255 255 255 255 255 255 255 255 96 175 255 96 175 255 96 175 255 96 175
255 96 175 255 96 175 255 96 175 255 96 175 255 96 175 255 96 175 255 96 175 255 96 175 255 96 175 255 96 175 255 96 175 255 96 175 255 96 175 255 96 175 255 255 255 255 255 255 255 255 255 255 255 255 255 255 255 255 255 255 255 255 255 255 255 255 255 255 255 255 255 255 255 255 255 255 255 255 255 255 255 255 255 255 255 255 255 255 255 255 255 255 255 255 255 255 255 255 255 255 255 255 255 255 255 255 255 255 255 96 175 255 96 175 255 96 175 255 96 175
255 96 175 255 96 175 255 96 175 255 96 175 255 96 175 255 96 175 255 96 175 255 96 175 255 96 175 255 96 175 255 96 175 255 96 175 255 96 175 255 96 175 255 255 255 255 255 255 255 255 255 255 255 255 255 255 255 255 255 255 255 255 255 255 255 255 255 255 255 255 255 255 255 255 255 255 255 255 255 255 255 255 255 255 255 255 255 255 255 255 255 255 255 255 255 255 255 255 255 255 255 255 255 255 255 255 255 255 255 96 175 255 96 175 255 96 175 255 96 175
255 96 175 255 96 175 255 96 175 255 96 175 255 96 175 255 96 175 255 96 175 255 96 175 255 96 175 255 96 175 255 96 175 255 96 175 255 96 175 255 96 175 255 255 255 255 255 255 255 255 255 255 255 255 255 255 255 255 255 255 255 255 255 255 255 255 255 255 255 255 255 255 255 255 255 255 255 255 255 255 255 255 255 255 255 255 255 255 255 255 255 255 255 255 255 255 255 255 255 255 255 255 255 255 255 255 255 255 255 96 175 255 96 175 255 96 175 255 96 175
255 96 175 255 96 175 255 96 175 255 96 175 255 96 175 255 96 175 255 96 175 255 96 175 255 96 175 255 96 175 255 96 175 255 96 175 255 96 175 255 96 175 255 255 255 255 255 255 255 255 255 255 255 255 255 255 255 255 255 255 255 255 255 255 255 255 255 255 255 255 255 255 255 255 255 255 255 255 255 255 255 255 255 255 255 255 255 255 255 255 255 255 255 255 255 255 255 255 255 255 255 255 255 255 255 255 255 255 255 96 175 255 96 175 255 96 175 255 96 175
255 96 175 255 96 175 255 96 175 255 96 175 255 96 175 255 96 175 255 96 175 255 96 175 255 96 175 255 96 175 255 96 175 255 96 175 255 96 175 255 96 175 255 96 175 255 255 255 255 255 255 255 255 255 255 255 255 255 255 255 255 255 255 255 255 255 255 255 255 255 255 255 255 255 255 255 255 255 255 255 255 255 255 255 255 255 255 255 255 255 255 255 255 255 255 255 255 255 255 255 255 255 255 255 255 255 255 255 255 96 175 255 96 175 255 96 175 255 96 175
255 96 175 255 96 175 255 96 175 255 96 175 255 96 175 255 96 175 255 96 175 255 96 175 255 96 175 255 96 175 255 96 175 255 96 175 255 96 175 255 96 175 255 96 175 255 96 175 255 96 175 255 96 175 255 96 175 255 96 175 255 96 175 255 96 175 255 96 175 255 255 255 255 255 255 255 255 255 255 255 255 255 255 255 255 255 255 255 255 255 255 255 255 255 255 255 255 255 255 255 255 255 255 255 255 255 255 255 255 96 175 255 96 175 255 96 175 255 96 175
255 96 175 255 96 175 255 96 175 255 96 175 255 96 175 255 96 175 255 96 175 255 96 175 255 96 175 255 96 175 255 96 175 255 96 175 255 96 175 255 96 175 255 96 175 255 96 175 255 96 175 255 96 175 255 96 175 255 96 175 255 96 175 255 96 175 255 96 175 255 255 255 255 255 255 255 255 255 255 255 255 255 255 255 255 255 255 255 255 255 255 255 255 255 255 255 255 255 255 255 255 255 255 255 255 255 255 255 255 96 175 255 96 175 255 96 175 255 96 175
255 96 175 255 96 175 255 96 175 255 96 175 255 96 175 255 96 175 255 96 175 255 96 175 255 96 175 255 96 175 255 96 175 255 96 175 255 96 175 255 96 175 255 96 175 255 96 175 255 96 175 255 96 175 255 96 175 255 96 175 255 96 175 255 96 175 255 96 175 255 255 255 255 255 255 255 255 255 255 255 255 255 255 255 255 255 255 255 255 255 255 255 255 255 255 255 255 255 255 255 255 255 255 255 255 255 255 255 255 96 175 255 96 175 255 96 175 255 96 175
255 96 175 255 96 175 255 96 175 255 96 175 255 96 175 255 96 175 255 96 175 255 96 175 255 96 175 255 96 175 255 96 175 255 96 175 255 96 175 255 96 175 255 96 175 255 96 175 255 96 175 255 96 175 255 96 175 255 96 175 255 96 175 255 96 175 255 96 175 255 255 255 255 255 255 255 255 255 255 255 255 255 255 255 255 255 255 255 255 255 255 255 255 255 255 255 255 255 255 255 255 255 255 255 255 255 255 255 255 96 175 255 96 175 255 96 175 255 96 175
255 96 175 255 96 175 255 96 175 255 96 175 255 96 175 255 96 175 255 96 175 255 96 175 255 96 175 255 96 175 255 96 175 255 96 175 255 96 175 255 96 175 255 96 175 255 96 175 255 96 175 255 96 175 255 96 175 255 96 175 255 96 175 255 96 175 255 96 175 255 255 255 255 255 255 255 255 255 255 255 255 255 255 255 255 255 255 255 255 255 255 255 255 255 255 255 255 255 255 255 255 255 255 255 255 255 255 255 255 96 175 255 96 175 255 96 175 255 96 175
255 96 175 255 96 175 255 96 175 255 96 175 255 96 175 255 96 175 255 96 175 255 96 175 255 96 175 255 96 175 255 96 175 255 96 175 255 96 175 255 96 175 255 96 175 255 96 175 255 96 175 255 96 175 255 96 175 255 96 175 255 96 175 255 96 175 255 96 175 255 255 255 255 255 255 255 255 255 255 255 255 255 255 255 255 255 255 255 255 255 255 255 255 255 255 255 255 255 255 255 255 255 255 255 255 255 255 255 255 96 175 255 96 175 255 96 175 255 96 175
255 96 175 255 96 175 255 96 175 255 96 175 255 96 175 255 96 175 255 96 175 255 96 175 255 96 175 255 96 175 255 96 175 255 96 175 255 96 175 255 96 175 255 96 175 255 96 175 255 96 175 255 96 175 255 96 175 255 96 175 255 96 175 255 96 175 255 96 175 255 255 255 255 255 255 255 255 255 255 255 255 255 255 255 255 255 255 255 255 255 255 255 255 255 255 255 255 255 255 255 255 255 255 255 255 255 255 255 255 96 175 255 96 175 255 96 175 255 96 175
255 96 175 255 96 175 255 96 175 255 96 175 255 96 175 255 96 175 255 96 175 255 96 175 255 96 175 255 96 175 255 96 175 255 96 175 255 96 175 255 96 175 255 96 175 255 96 175 255 96 175 255 96 175 255 96 175 255 96 175 255 96 175 255 96 175 255 96 175 255 255 255 255 255 255 255 255 255 255 255 255 255 255 255 255 255 255 255 255 255 255 255 255 255 255 255 255 255 255 255 255 255 255 255 255 255 255 255 255 96 175 255 96 175 255 96 175 255 96 175
255 96 175 255 96 175 255 96 175 255 96 175 255 96 175 255 96 175 255 96 175 255 96 175 255 96 175 255 96 175 255 96 175 255 96 175 255 96 175 255 96 175 255 96 175 255 96 175 255 96 175 255 96 175 255 96 175 255 96 175 255 96 175 255 96 175 255 96 175 255 255 255 255 255 255 255 255 255 255 255 255 255 255 255 255 255 255 255 255 255 255 255 255 255 255 255 255 255 255 255 255 255 255 255 255 255 255 255 255 96 175 255 96 175 255 96 175 255 96 175
255 96 175 255 96 175 255 96 175 255 96 175 255 96 175 255 96 175 255 96 175 255 96 175 255 96 175 255 96 175 255 96 175 255 96 175 255 96 175 255 96 175 255 96 175 255 96 175 255 96 175 255 96 175 255 96 175 255 96 175 255 96 175 255 96 175 255 96 175 255 255 255 255 255 255 255 255 255 255 255 255 255 255 255 255 255 255 255 255 255 255 255 255 255 255 255 255 255 255 255 255 255 255 255 255 255 255 255 255 96 175 255 96 175 255 96 175 255 96 175
255 96 175 255 96 175 255 96 175 255 96 175 255 96 175 255 96 175 255 96 175 255 96 175 255 96 175 255 96 175 255 96 175 255 96 175 255 96 175 255 96 175 255 96 175 255 96 175 255 96 175 255 96 175 255 96 175 255 96 175 255 96 175 255 96 175 255 96 175 255 255 255 255 255 255 255 255 255 255 255 255 255 255 255 255 255 255 255 255 255 255 255 255 255 255 255 255 255 255 255 255 255 255 255 255 255 255 255 255 96 175 255 96 175 255 96 175 255 96 175
255 96 175 255 96 175 255 96 175 255 96 175 255 96 175 255 96 175 255 96 175 255 96 175 255 96 175 255 96 175 255 96 175 255 96 175 255 96 175 255 96 175 255 96 175 255 96 175 255 96 175 255 96 175 255 96 175 255 96 175 255 96 175 255 96 175 255 96 175 255 255 255 255 255 255 255 255 255 255 255 255 255 255 255 255 255 255 255 255 255 255 255 255 255 255 255 255 255 255 255 255 255 255 255 255 255 255 255 255 96 175 255 96 175 255 96 175 255 96 175
255 96 175 255 96 175 255 96 175 255 96 175 255 96 175 255 96 175 255 96 175 255 96 175 255 96 175 255 96 175 255 96 175 255 96 175 255 96 175 255 96 175 255 96 175 255 96 175 255 96 175 255 96 175 255 96 175 255 96 175 255 96 175 255 96 175 255 96 175 255 255 255 255 255 255 255 255 255 255 255 255 255 255 255 255 255 255 255 255 255 255 255 255 255 255 255 255 255 255 255 255 255 255 255 255 255 255 255 255 96 175 255 96 175 255 96 175 255 96 175
255 96 175 255 96 175 255 96 175 255 96 175 255 96 175 255 96 175 255 96 175 255 96 175 255 96 175 255 96 175 255 96 175 255 96 175 255 96 175 255 96 175 255 96 175 255 96 175 255 255 255 255 255 255 255 255 255 255 255 255 255 255 255 255 255 255 255 255 255 255 255 255 255 255 255 255 255 255 255 255 255 255 255 255 255 255 255 255 255 255 255 255 255 255 255 255 255 255 255 255 255 255 255 255 255 255 255 255 255 96 175 255 96 175 255 96 175 255 96 175
255 96 175 255 96 175 255 96 175 255 96 175 255 96 175 255 96 175 255 96 175 255 96 175 255 96 175 255 96 175 255 96 175 255 96 175 255 96 175 255 96 175 255 96 175 255 96 175 255 255 255 255 255 255 255 255 255 255 255 255 255 255 255 255 255 255 255 255 255 255 255 255 255 255 255 255 255 255 255 255 255 255 255 255 255 255 255 255 255 255 255 255 255 255 255 255 255 255 255 255 255 255 255 255 255 255 255 255 255 96 175 255 96 175 255 96 175 255 96 175
255 96 175 255 96 175 255 96 175 255 96 175 255 96 175 255 96 175 255 96 175 255 96 175 255 96 175 255 96 175 255 96 175 255 96 175 255 96 175 255 96 175 255 96 175 255 96 175 255 255 255 255 255 255 255 255 255 255 255 255 255 255 255 255 255 255 255 255 255 255 255 255 255 255 255 255 255 255 255 255 255 255 255 255 255 255 255 255 255 255 255 255 255 255 255 255 255 255 255 255 255 255 255 255 255 255 255 255 255 255 255 255 96 175 255 96 175 255 96 175
255 96 175 255 96 175 255 96 175 255 96 175 255 96 175 255 96 175 255 96 175 255 96 175 255 96 175 255 96 175 255 96 175 255 96 175 255 96 175 255 96 175 255 96 175 255 96 175 255 255 255 255 255 255 255 255 255 255 255 255 255 255 255 255 255 255 255 255 255 255 255 255 255 255 255 255 255 255 255 255 255 255 255 255 255 255 255 255 255 255 255 255 255 255 255 255 255 255 255 255 255 255 255 255 255 255 255 255 255 255 255 255 96 175 255 96 175 255 96 175
255 96 175 255 96 175 255 96 175 255 96 175 255 96 175 255 96 175 255 96 175 255 96 175 255 96 175 255 96 175 255 96 175 255 96 175 255 96 175 255 96 175 255 96 175 255 96 175 255 255 255 255 255 255 255 255 255 255 255 255 255 255 255 255 255 255 255 255 255 255 255 255 255 255 255 255 255 255 255 255 255 255 255 255 255 255 255 255 255 255 255 255 255 255 255 255 255 255 255 255 255 255 255 255 255 255 255 255 255 255 255 255 96 175 255 96 175 255 96 175
255 96 175 255 96 175 255 96 175 255 96 175 255 96 175 255 96 175 255 96 175 255 96 175 255 96 175 255 96 175 255 96 175 255 96 175 255 96 175 255 96 175 255 96 175 255 96 175 255 255 255 255 255 255 255 255 255 255 255 255 255 255 255 255 255 255 255 255 255 255 255 255 255 255 255 255 255 255 255 255 255 255 255 255 255 255 255 255 255 255 255 255 255 255 255 255 255 255 255 255 255 255 255 255 255 255 255 255 255 255 255 255 96 175 255 96 175 255 96 175
255 96 175 255 96 175 255 96 175 255 96 175 255 96 175 255 96 175 255 96 175 255 96 175 255 96 175 255 96 175 255 96 175 255 96 175 255 96 175 255 96 175 255 96 175 255 96 175 255 255 255 255 255 255 255 255 255 255 255 255 255 255 255 255 255 255 255 255 255 255 255 255 255 255 255 255 255 255 255 255 255 255 255 255 255 255 255 255 255 255 255 255 255 255 255 255 255 255 255 255 255 255 255 255 255 255 255 255 255 255 255 255 96 175 255 96 175 255 96 175
255 96 175 255 96 175 255 96 175 255 96 175 255 96 175 255 96 175 255 96 175 255 96 175 255 96 175 255 96 175 255 96 175 255 96 175 255 96 175 255 96 175 255 96 175 255 96 175 255 255 255 255 255 255 255 255 255 255 255 255 255 255 255 255 255 255 255 255 255 255 255 255 255 255 255 255 255 255 255 255 255 255 255 255 255 255 255 255 255 255 255 255 255 255 255 255 255 255 255 255 255 255 255 255 255 255 255 255 255 255 255 255 96 175 255 96 175 255 96 175
255 96 175 255 96 175 255 96 175 255 96 175 255 96 175 255 96 175 255 96 175 255 96 175 255 96 175 255 96 175 255 96 175 255 96 175 255 96 175 255 96 175 255 96 175 255 96 175 255 255 255 255 255 255 255 255 255 255 255 255 255 255 255 255 255 255 255 255 255 255 255 255 255 255 255 255 255 255 255 255 255 255 255 255 255 255 255 255 255 255 255 255 255 255 255 255 255 255 255 255 255 255 255 255 255 255 255 255 255 255 255 255 96 175 255 96 175 255 96 175
255 96 175 255 96 175 255 96 175 255 96 175 255 96 175 255 96 175 255 96 175 255 96 175 255 96 175 255 96 175 255 96 175 255 96 175 255 96 175 255 96 175 255 96 175 255 96 175 255 255 255 255 255 255 255 255 255 255 255 255 255 255 255 255 255 255 255 255 255 255 255 255 255 255 255 255 255 255 255 255 255 255 255 255 255 255 255 255 255 255 255 255 255 255 255 255 255 255 255 255 255 255 255 255 255 255 255 255 255 255 255 255 96 175 255 96 175 255 96 175
255 96 175 255 96 175 255 96 175 255 96 175 255 96 175 255 96 175 255 96 175 255 96 175 255 96 175 255 96 175 255 96 175 255 96 175 255 96 175 255 96 175 255 96 175 255 96 175 255 255 255 255 255 255 255 255 255 255 255 255 255 255 255 255 255 255 255 255 255 255 255 255 255 255 255 255 255 255 255 255 255 255 255 255 255 255 255 255 255 255 255 255 255 255 255 255 255 255 255 255 255 255 255 255 255 255 255 255 255 255 255 255 96 175 255 96 175 255 96 175
255 96 175 255 96 175 255 96 175 255 96 175 255 96 175 255 96 175 255 96 175 255 96 175 255 96 175 255 96 175 255 96 175 255 96 175 255 96 175 255 96 175 255 96 175 255 96 175 255 255 255 255 255 255 255 255 255 255 255 255 255 255 255 255 255 255 255 255 255 255 255 255 255 255 255 255 255 255 255 255 255 255 255 255 255 255 255 255 255 255 255 255 255 255 255 255 255 255 255 255 255 255 255 255 255 255 255 255 255 255 255 255 96 175 255 96 175 255 96 175
255 96 175 255 96 175 255 96 175 255 96 175 255 96 175 255 96 175 255 96 175 255 96 175 255 96 175 255 96 175 255 96 175 255 96 175 255 96 175 255 96 175 255 96 175 255 96 175 255 255 255 255 255 255 255 255 255 255 255 255 255 255 255 255 255 255 255 255 255 255 255 255 255 255 255 255 255 255 255 255 255 255 255 255 255 255 255 255 255 255 255 255 255 255 255 255 255 255 255 255 255 255 255 255 255 255 255 255 255 255 255 255 96 175 255 96 175 255 96 175
255 96 175 255 96 175 255 96 175 255 96 175 255 96 175 255 96 175 255 96 175 255 96 175 255 96 175 255 96 175 255 96 175 255 96 175 255 96 175 255 96 175 255 96 175 255 96 175 255 255 255 255 255 255 255 255 255 255 255 255 255 255 255 255 255 255 255 255 255 255 255 255 255 255 255 255 255 255 255 255 255 255 255 255 255 255 255 255 255 255 255 255 255 255 255 255 255 255 255 255 255 255 255 255 255 255 255 255 255 255 255 255 96 175 255 96 175 255 96 175
255 96 175 255 96 175 255 96 175 255 96 175 255 96 175 255 96 175 255 96 175 255 96 175 255 96 175 255 96 175 255 96 175 255 96 175 255 96 175 255 96 175 255 96 175 255 96 175 255 96 175 255 255 255 255 255 255 255 255 255 255 255 255 255 255 255 255 255 255 255 255 255 255 255 255 255 255 255 255 255 255 255 255 255 255 255 255 255 255 255 255 255 255 255 255 255 255 255 255 255 255 255 255 255 255 255 255 255 255 96 175 255 96 175 255 96 175 255 96 175
255 96 175 255 96 175 255 96 175 255 96 175 255 96 175 255 96 175 255 96 175 255 96 175 255 96 175 255 96 175 255 96 175 255 96 175 255 96 175 255 96 175 255 96 175 255 96 175 255 96 175 255 96 175 255 96 175 255 96 175 255 96 175 255 96 175 255 96 175 255 96 175 255 96 175 255 96 175 255 96 175 255 96 175 255 96 175 255 96 175 255 96 175 255 96 175 255 96 175 255 96 175 255 96 175 255 96 175 255 96 175 255 96 175 255 96 175 255 96 175
255 96 175 255 96 175 255 96 175 255 96 175 255 96 175 255 96 175 255 96 175 255 96 175 255 96 175 255 96 175 255 96 175 255 96 175 255 96 175 255 96 175 255 96 175 255 96 175 255 96 175 255 96 175 255 96 175 255 96 175 255 96 175 255 96 175 255 96 175 255 96 175 255 96 175 255 96 175 255 96 175 255 96 175 255 96 175 255 96 175 255 96 175 255 96 175 255 96 175 255 96 175 255 96 175 255 96 175 255 96 175 255 96 175 255 96 175 255 96 175
255 96 175 255 96 175 255 96 175 255 96 175 255 96 175 255 96 175 255 96 175 255 96 175 255 96 175 255 96 175 255 96 175 255 96 175 255 96 175 255 96 175 255 96 175 255 96 175 255 96 175 255 96 175 255 96 175 255 96 175 255 96 175 255 96 175 255 96 175 255 96 175 255 96 175 255 96 175 255 96 175 255 96 175 255 96 175 255 96 175 255 96 175 255 96 175 255 96 175 255 96 175 255 96 175 255 96 175 255 96 175 255 96 175 255 96 175 255 96 175
255 96 175 255 96 175 255 96 175 255 96 175 255 96 175 255 96 175 255 96 175 255 96 175 255 96 175 255 96 175 255 96 175 255 96 175 255 96 175 255 96 175 255 96 175 255 96 175 255 96 175 255 96 175 255 96 175 255 96 175 255 96 175 255 96 175 255 96 175 255 96 175 255 96 175 255 96 175 255 96 175 255 96 175 255 96 175 255 96 175 255 96 175 255 96 175 255 96 175 255 96 175 255 96 175 255 96 175 255 96 175 255 96 175 255 96 175 255 96 175
255 255 255 255 255 255 255 255 255 255 255 255 255 255 255 255 255 255 255 255 255 255 255 255 255 255 255 255 255 255 255 255 255 255 255 255 255 255 255 255 255 255 255 255 255 255 255 255 255 255 255 255 255 255 255 255 255 255 255 255 255 255 255 255 255 255 255 255 255 255 255 255 255 255 255 255 255 255 255 255 255 255 255 255 255 255 255 255 255 255 255 255 255 255 255 255 255 255 255 255 255 255 255 255 255 255 255 255 255 255 255 255 255 255 255 255 255 255 255 255
255 255 255 255 255 255 255 255 255 255 255 255 255 255 255 255 255 255 255 255 255 255 255 255 255 255 255 255 255 255 255 255 255 255 255 255 255 255 255 255 255 255 255 255 255 255 255 255 255 255 255 255 255 255 255 255 255 255 255 255 255 255 255 255 255 255 255 255 255 255 255 255 255 255 255 255 255 255 255 255 255 255 255 255 255 255 255 255 255 255 255 255 255 255 255 255 255 255 255 255 255 255 255 255 255 255 255 255 255 255 255 255 255 255 255 255 255 255 255 255
255 255 255 255 255 255 255 255 255 255 255 255 255 255 255 255 255 255 255 255 255 255 255 255 255 255 255 255 255 255 255 255 255 255 255 255 255 255 255 255 255 255 255 255 255 255 255 255 255 255 255 255 255 255 255 255 255 255 255 255 255 255 255 255 255 255 255 255 255 255 255 255 255 255 255 255 255 255 255 255 255 255 255 255 255 255 255 255 255 255 255 255 255 255 255 255 255 255 255 255 255 255 255 255 255 255 255 255 255 255 255 255 255 255 255 255 255 255 255 255
255 255 255 255 255 255 255 255 255 255 255 255 255 255 255 255 255 255 255 255 255 255 255 255 255 255 255 255 255 255 255 255 255 255 255 255 255 255 255 255 255 255 255 255 255 255 255 255 255 255 255 255 255 255 255 255 255 255 255 255 255 255 255 255 255 255 255 255 255 255 255 255 255 255 255 255 255 255 255 255 255 255 255 255 255 255 255 255 255 255 255 255 255 255 255 255 255 255 255 255 255 255 255 255 255 255 255 255 255 255 255 255 255 255 255 255 255 255 255 255
255 255 255 255 255 255 255 255 255 255 255 255 255 255 255 255 255 255 255 255 255 255 255 255 255 255 255 255 255 255 255 255 255 255 255 255 255 255 255 255 255 255 255 255 255 255 255 255 255 255 255 255 255 255 255 255 255 255 255 255 255 255 255 255 255 255 255 255 255 255 255 255 255 255 255 255 255 255 255 255 255 255 255 255 255 255 255 255 255 255 255 255 255 255 255 255 255 255 255 255 255 255 255 255 255 255 255 255 255 255 255 255 255 255 255 255 255 255 255 255
255 255 255 255 255 255 255 255 255 255 255 255 255 255 255 255 255 255 255 255 255 255 255 255 255 255 255 255 255 255 255 255 255 255 255 255 255 255 255 255 255 255 255 255 255 255 255 255 255 255 255 255 255 255 255 255 255 255 255 255 255 255 255 255 255 255 255 255 255 255 255 255 255 255 255 255 255 255 255 255 255 255 255 255 255 255 255 255 255 255 255 255 255 255 255 255 255 255 255 255 255 255 255 255 255 255 255 255 255 255 255 255 255 255 255 255 255 255 255 255
255 255 255 255 255 255 255 255 255 255 255 255 255 255 255 255 255 255 255 255 255 255 255 255 255 255 255 255 255 255 255 255 255 255 255 255 255 255 255 255 255 255 255 255 255 255 255 255 255 255 255 255 255 255 255 255 255 255 255 255 255 255 255 255 255 255 255 255 255 255 255 255 255 255 255 255 255 255 255 255 255 255 255 255 255 255 255 255 255 255 255 255 255 255 255 255 255 255 255 255 255 255 255 255 255 255 255 255 255 255 255 255 255 255 255 255 255 255 255 255
255 255 255 255 255 255 255 255 255 255 255 255 255 255 255 255 255 255 255 255 255 255 255 255 255 255 255 255 255 255 255 255 255 255 255 255 255 255 255 255 255 255 255 255 255 255 255 255 255 255 255 255 255 255 255 255 255 255 255 255 255 255 255 255 255 255 255 255 255 255 255 255 255 255 255 255 255 255 255 255 255 255 255 255 255 255 255 255 255 255 255 255 255 255 255 255 255 255 255 255 255 255 255 255 255 255 255 255 255 255 255 255 255 255 255 255 255 255 255 255
255 255 255 255 255 255 255 255 255 255 255 255 255 255 255 255 255 255 255 255 255 255 255 255 255 255 255 255 255 255 255 255 255 255 255 255 255 255 255 255 255 255 255 255 255 255 255 255 255 255 255 255 255 255 255 255 255 255 255 255 255 255 255 255 255 255 255 255 255 255 255 255 255 255 255 255 255 255 255 255 255 255 255 255 255 255 255 255 255 255 255 255 255 255 255 255 255 255 255 255 255 255 255 255 255 255 255 255 255 255 255 255 255 255 255 255 255 255 255 255
255 255 255 255 255 255 255 255 255 255 255 255 255 255 255 255 255 255 255 255 255 255 255 255 255 255 255 255 255 255 255 255 255 255 255 255 255 255 255 255 255 255 255 255 255 255 255 255 255 255 255 255 255 255 255 255 255 255 255 255 255 255 255 255 255 255 255 255 255 255 255 255 255 255 255 255 255 255 255 255 255 255 255 255 255 255 255 255 255 255 255 255 255 255 255 255 255 255 255 255 255 255 255 255 255 255 255 255 255 255 255 255 255 255 255 255 255 255 255 255
