P3
10 10
255
255 255 255 238 106 167 255 110 180 255 110 180 238 18 137 255 110 180 238 106 167 238 18 137 255 174 185 255 110 180
238 18 137 255 110 180 255 174 185 255 174 185 255 110 180 255 110 180 255 174 185 238 18 137 255 174 185 255 110 180
238 106 167 255 174 185 255 174 185 255 174 185 238 106 167 238 106 167 255 110 180 238 106 167 255 174 185 255 174 185
255 110 180 255 174 185 255 174 185 255 110 180 255 174 185 255 174 185 255 110 180 238 106 167 238 106 167 255 174 185
255 174 185 255 255 255 255 255 255 255 255 255 255 255 255 255 255 255 255 255 255 255 174 185 255 174 185 238 106 167
255 174 185 255 255 255 255 255 255 255 255 255 255 255 255 255 255 255 255 255 255 255 255 255 255 174 185 238 106 167
255 174 185 255 255 255 255 255 255 255 255 255 255 255 255 255 255 255 255 255 255 255 255 255 238 18 137 238 18 137
238 106 167 238 106 167 255 174 185 255 110 180 238 106 167 255 174 185 238 106 167 238 106 167 238 106 167 238 18 137
255 174 185 255 174 185 238 106 167 255 174 185 255 110 180 255 174 185 255 174 185 238 18 137 238 106 167 255 110 180
255 110 180 255 174 185 238 106 167 238 106 167 238 106 167 238 18 137 255 174 185 238 106 167 255 174 185 255 174 185
