P3
10 10
255
255 255 255 238 106 167 238 18 137 238 18 137 238 18 137 238 18 137 238 18 137 238 18 137 238 18 137 238 18 137
238 106 167 238 18 137 238 18 137 238 18 137 238 18 137 238 18 137 238 18 137 238 18 137 238 18 137 238 18 137
238 18 137 238 18 137 238 18 137 238 18 137 238 18 137 238 18 137 238 18 137 238 18 137 238 18 137 238 18 137
238 18 137 238 18 137 238 18 137 238 18 137 238 18 137 238 18 137 238 18 137 238 18 137 238 18 137 238 18 137
238 106 167 255 255 255 255 255 255 255 255 255 255 255 255 255 255 255 255 255 255 238 18 137 238 18 137 238 18 137
238 106 167 255 255 255 255 255 255 255 255 255 255 255 255 255 255 255 255 255 255 255 255 255 238 18 137 238 18 137
238 106 167 255 255 255 255 255 255 255 255 255 255 255 255 255 255 255 255 255 255 255 255 255 238 18 137 238 18 137
238 18 137 238 18 137 238 18 137 238 18 137 238 18 137 238 18 137 238 18 137 238 18 137 238 18 137 238 18 137
238 18 137 238 18 137 238 18 137 238 18 137 238 18 137 238 18 137 238 18 137 238 18 137 238 18 137 238 18 137
238 18 137 238 18 137 238 18 137 238 18 137 238 18 137 238 18 137 238 18 137 238 18 137 238 18 137 238 18 137
