P3
10 10
255
255 255 255 255 96 175 217 0 108 255 0 128 255 53 154 191 0 96 255 53 154 240 0 120 217 0 108 255 53 154
255 96 175 240 0 120 255 121 188 255 149 202 240 0 120 191 0 96 240 0 120 255 121 188 240 0 120 191 0 96
255 0 128 217 0 108 255 121 188 255 53 154 255 96 175 255 121 188 255 121 188 255 149 202 255 96 175 255 0 128
191 0 96 191 0 96 255 53 154 217 0 108 255 0 128 255 53 154 255 149 202 255 149 202 255 121 188 255 53 154
240 0 120 255 255 255 255 255 255 255 255 255 255 255 255 255 255 255 255 255 255 255 149 202 255 96 175 255 53 154
191 0 96 255 255 255 255 255 255 255 255 255 255 255 255 255 255 255 255 255 255 255 255 255 217 0 108 217 0 108
159 0 80 255 255 255 255 255 255 255 255 255 255 255 255 255 255 255 255 255 255 255 255 255 255 96 175 255 149 202
255 53 154 240 0 120 255 53 154 240 0 120 255 53 154 255 121 188 255 149 202 217 0 108 255 53 154 255 53 154
255 53 154 255 53 154 255 53 154 255 96 175 217 0 108 255 121 188 255 53 154 191 0 96 255 53 154 255 0 128
255 0 128 240 0 120 191 0 96 191 0 96 255 0 128 255 0 128 255 96 175 191 0 96 255 53 154 240 0 120
