P3
10 10
255
255 255 255 240 0 120 240 0 120 240 0 120 240 0 120 240 0 120 240 0 120 240 0 120 240 0 120 240 0 120
240 0 120 240 0 120 240 0 120 240 0 120 240 0 120 240 0 120 240 0 120 240 0 120 240 0 120 240 0 120
240 0 120 240 0 120 240 0 120 240 0 120 240 0 120 240 0 120 240 0 120 240 0 120 240 0 120 217 0 108
240 0 120 240 0 120 240 0 120 240 0 120 240 0 120 240 0 120 240 0 120 240 0 120 217 0 108 217 0 108
240 0 120 255 255 255 255 255 255 255 255 255 255 255 255 255 255 255 255 255 255 240 0 120 240 0 120 240 0 120
240 0 120 255 255 255 255 255 255 255 255 255 255 255 255 255 255 255 255 255 255 255 255 255 240 0 120 240 0 120
240 0 120 255 255 255 255 255 255 255 255 255 255 255 255 255 255 255 255 255 255 255 255 255 240 0 120 240 0 120
240 0 120 240 0 120 240 0 120 240 0 120 240 0 120 240 0 120 240 0 120 240 0 120 240 0 120 240 0 120
240 0 120 240 0 120 240 0 120 240 0 120 240 0 120 240 0 120 240 0 120 240 0 120 240 0 120 240 0 120
240 0 120 240 0 120 240 0 120 240 0 120 240 0 120 240 0 120 240 0 120 240 0 120 240 0 120 240 0 120
