P3
50 50
255
255 255 255 217 0 108 217 0 108 217 0 108 217 0 108 217 0 108 217 0 108 217 0 108 217 0 108 217 0 108 217 0 108 217 0 108 217 0 108 217 0 108 255 255 255 255 255 255 255 255 255 255 255 255 255 255 255 255 255 255 255 255 255 255 255 255 255 255 255 255 255 255 255 255 255 255 255 255 255 255 255 255 255 255 255 255 255 255 255 255 255 255 255 255 255 255 255 255 255 255 255 255 255 255 255 255 255 255 217 0 108 217 0 108 217 0 108 217 0 108 217 0 108 217 0 108 217 0 108 217 0 108 217 0 108 217 0 108 217 0 108 217 0 108 217 0 108 217 0 108
217 0 108 217 0 108 217 0 108 217 0 108 217 0 108 217 0 108 217 0 108 217 0 108 217 0 108 217 0 108 217 0 108 217 0 108 217 0 108 217 0 108 255 255 255 255 255 255 255 255 255 255 255 255 255 255 255 255 255 255 255 255 255 255 255 255 255 255 255 255 255 255 255 255 255 255 255 255 255 255 255 255 255 255 255 255 255 255 255 255 255 255 255 255 255 255 255 255 255 255 255 255 255 255 255 255 255 255 217 0 108 217 0 108 217 0 108 217 0 108 217 0 108 217 0 108 217 0 108 217 0 108 217 0 108 217 0 108 217 0 108 217 0 108 217 0 108 217 0 108
217 0 108 217 0 108 217 0 108 217 0 108 217 0 108 217 0 108 217 0 108 217 0 108 217 0 108 217 0 108 217 0 108 217 0 108 217 0 108 217 0 108 255 255 255 255 255 255 255 255 255 255 255 255 255 255 255 255 255 255 255 255 255 255 255 255 255 255 255 255 255 255 255 255 255 255 255 255 255 255 255 255 255 255 255 255 255 255 255 255 255 255 255 255 255 255 255 255 255 255 255 255 255 255 255 255 255 255 217 0 108 217 0 108 217 0 108 217 0 108 217 0 108 217 0 108 217 0 108 217 0 108 217 0 108 217 0 108 217 0 108 217 0 108 217 0 108 217 0 108
217 0 108 217 0 108 217 0 108 217 0 108 217 0 108 217 0 108 217 0 108 217 0 108 217 0 108 217 0 108 217 0 108 217 0 108 217 0 108 217 0 108 255 255 255 255 255 255 255 255 255 255 255 255 255 255 255 255 255 255 255 255 255 255 255 255 255 255 255 255 255 255 255 255 255 255 255 255 255 255 255 255 255 255 255 255 255 255 255 255 255 255 255 255 255 255 255 255 255 255 255 255 255 255 255 255 255 255 217 0 108 217 0 108 217 0 108 217 0 108 217 0 108 217 0 108 217 0 108 217 0 108 217 0 108 217 0 108 217 0 108 217 0 108 217 0 108 217 0 108
217 0 108 217 0 108 217 0 108 217 0 108 217 0 108 217 0 108 217 0 108 217 0 108 217 0 108 217 0 108 217 0 108 217 0 108 217 0 108 217 0 108 255 255 255 255 255 255 255 255 255 255 255 255 255 255 255 255 255 255 255 255 255 255 255 255 255 255 255 255 255 255 255 255 255 255 255 255 255 255 255 255 255 255 255 255 255 255 255 255 255 255 255 255 255 255 255 255 255 255 255 255 255 255 255 255 255 255 217 0 108 217 0 108 217 0 108 217 0 108 217 0 108 217 0 108 217 0 108 217 0 108 217 0 108 217 0 108 217 0 108 217 0 108 217 0 108 217 0 108
217 0 108 217 0 108 217 0 108 217 0 108 217 0 108 217 0 108 217 0 108 217 0 108 217 0 108 217 0 108 217 0 108 217 0 108 217 0 108 217 0 108 255 255 255 255 255 255 255 255 255 255 255 255 255 255 255 255 255 255 255 255 255 255 255 255 255 255 255 255 255 255 255 255 255 255 255 255 255 255 255 255 255 255 255 255 255 255 255 255 255 255 255 255 255 255 255 255 255 255 255 255 255 255 255 255 255 255 217 0 108 217 0 108 217 0 108 217 0 108 217 0 108 217 0 108 217 0 108 217 0 108 217 0 108 217 0 108 217 0 108 217 0 108 217 0 108 217 0 108
217 0 108 217 0 108 217 0 108 217 0 108 217 0 108 217 0 108 217 0 108 217 0 108 217 0 108 217 0 108 217 0 108 217 0 108 217 0 108 217 0 108 255 255 255 255 255 255 255 255 255 255 255 255 255 255 255 255 255 255 255 255 255 255 255 255 255 255 255 255 255 255 255 255 255 255 255 255 255 255 255 255 255 255 255 255 255 255 255 255 255 255 255 255 255 255 255 255 255 255 255 255 255 255 255 255 255 255 217 0 108 217 0 108 217 0 108 217 0 108 217 0 108 217 0 108 217 0 108 217 0 108 217 0 108 217 0 108 217 0 108 217 0 108 217 0 108 217 0 108
217 0 108 217 0 108 217 0 108 217 0 108 217 0 108 217 0 108 217 0 108 217 0 108 217 0 108 217 0 108 217 0 108 217 0 108 217 0 108 217 0 108 217 0 108 255 255 255 255 255 255 255 255 255 255 255 255 255 255 255 255 255 255 255 255 255 255 255 255 255 255 255 255 255 255 255 255 255 255 255 255 255 255 255 255 255 255 255 255 255 255 255 255 255 255 255 255 255 255 255 255 255 255 255 255 255 255 255 217 0 108 217 0 108 217 0 108 217 0 108 217 0 108 217 0 108 217 0 108 217 0 108 217 0 108 217 0 108 217 0 108 217 0 108 217 0 108 217 0 108
217 0 108 217 0 108 217 0 108 217 0 108 217 0 108 217 0 108 217 0 108 217 0 108 217 0 108 217 0 108 217 0 108 217 0 108 217 0 108 217 0 108 217 0 108 217 0 108 217 0 108 217 0 108 217 0 108 217 0 108 217 0 108 217 0 108 217 0 108 255 255 255 255 255 255 255 255 255 255 255 255 255 255 255 255 255 255 255 255 255 255 255 255 255 255 255 255 255 255 255 255 255 255 255 255 255 255 255 217 0 108 217 0 108 217 0 108 217 0 108 217 0 108 217 0 108 217 0 108 217 0 108 217 0 108 217 0 108 217 0 108 217 0 108 217 0 108 217 0 108
217 0 108 217 0 108 217 0 108 217 0 108 217 0 108 217 0 108 217 0 108 217 0 108 217 0 108 217 0 108 217 0 108 217 0 108 217 0 108 217 0 108 217 0 108 217 0 108 217 0 108 217 0 108 217 0 108 217 0 108 217 0 108 217 0 108 217 0 108 255 255 255 255 255 255 255 255 255 255 255 255 255 255 255 255 255 255 255 255 255 255 255 255 255 255 255 255 255 255 255 255 255 255 255 255 255 255 255 217 0 108 217 0 108 217 0 108 217 0 108 217 0 108 217 0 108 217 0 108 217 0 108 217 0 108 217 0 108 217 0 108 217 0 108 217 0 108 217 0 108
217 0 108 217 0 108 217 0 108 217 0 108 217 0 108 217 0 108 217 0 108 217 0 108 217 0 108 217 0 108 217 0 108 217 0 108 217 0 108 217 0 108 217 0 108 217 0 108 217 0 108 217 0 108 217 0 108 217 0 108 217 0 108 217 0 108 217 0 108 255 255 255 255 255 255 255 255 255 255 255 255 255 255 255 255 255 255 255 255 255 255 255 255 255 255 255 255 255 255 255 255 255 255 255 255 255 255 255 217 0 108 217 0 108 217 0 108 217 0 108 217 0 108 217 0 108 217 0 108 217 0 108 217 0 108 217 0 108 191 0 96 191 0 96 191 0 96 191 0 96
217 0 108 217 0 108 217 0 108 217 0 108 217 0 108 217 0 108 217 0 108 217 0 108 217 0 108 217 0 108 217 0 108 217 0 108 217 0 108 217 0 108 217 0 108 217 0 108 217 0 108 217 0 108 217 0 108 217 0 108 217 0 108 217 0 108 217 0 108 255 255 255 255 255 255 255 255 255 255 255 255 255 255 255 255 255 255 255 255 255 255 255 255 255 255 255 255 255 255 255 255 255 255 255 255 255 255 255 217 0 108 217 0 108 217 0 108 217 0 108 217 0 108 217 0 108 217 0 108 217 0 108 217 0 108 191 0 96 191 0 96 191 0 96 191 0 96 191 0 96
217 0 108 217 0 108 217 0 108 217 0 108 217 0 108 217 0 108 217 0 108 217 0 108 217 0 108 217 0 108 217 0 108 217 0 108 217 0 108 217 0 108 217 0 108 217 0 108 217 0 108 217 0 108 217 0 108 217 0 108 217 0 108 217 0 108 217 0 108 255 255 255 255 255 255 255 255 255 255 255 255 255 255 255 255 255 255 255 255 255 255 255 255 255 255 255 255 255 255 255 255 255 255 255 255 255 255 255 217 0 108 217 0 108 217 0 108 217 0 108 217 0 108 217 0 108 217 0 108 217 0 108 191 0 96 191 0 96 191 0 96 191 0 96 191 0 96 191 0 96
217 0 108 217 0 108 217 0 108 217 0 108 217 0 108 217 0 108 217 0 108 217 0 108 217 0 108 217 0 108 217 0 108 217 0 108 217 0 108 217 0 108 217 0 108 217 0 108 217 0 108 217 0 108 217 0 108 217 0 108 217 0 108 217 0 108 217 0 108 255 255 255 255 255 255 255 255 255 255 255 255 255 255 255 255 255 255 255 255 255 255 255 255 255 255 255 255 255 255 255 255 255 255 255 255 255 255 255 217 0 108 217 0 108 217 0 108 217 0 108 217 0 108 217 0 108 217 0 108 191 0 96 191 0 96 191 0 96 191 0 96 191 0 96 191 0 96 191 0 96
217 0 108 217 0 108 217 0 108 217 0 108 217 0 108 217 0 108 217 0 108 217 0 108 217 0 108 217 0 108 217 0 108 217 0 108 217 0 108 217 0 108 217 0 108 217 0 108 217 0 108 217 0 108 217 0 108 217 0 108 217 0 108 217 0 108 217 0 108 255 255 255 255 255 255 255 255 255 255 255 255 255 255 255 255 255 255 255 255 255 255 255 255 255 255 255 255 255 255 255 255 255 255 255 255 255 255 255 217 0 108 217 0 108 217 0 108 217 0 108 217 0 108 217 0 108 191 0 96 191 0 96 191 0 96 191 0 96 191 0 96 191 0 96 191 0 96 191 0 96
217 0 108 217 0 108 217 0 108 217 0 108 217 0 108 217 0 108 217 0 108 217 0 108 217 0 108 217 0 108 217 0 108 217 0 108 217 0 108 217 0 108 217 0 108 217 0 108 217 0 108 217 0 108 217 0 108 217 0 108 217 0 108 217 0 108 217 0 108 255 255 255 255 255 255 255 255 255 255 255 255 255 255 255 255 255 255 255 255 255 255 255 255 255 255 255 255 255 255 255 255 255 255 255 255 255 255 255 217 0 108 217 0 108 217 0 108 217 0 108 217 0 108 191 0 96 191 0 96 191 0 96 191 0 96 191 0 96 191 0 96 191 0 96 191 0 96 191 0 96
217 0 108 217 0 108 217 0 108 217 0 108 217 0 108 217 0 108 217 0 108 217 0 108 217 0 108 217 0 108 217 0 108 217 0 108 217 0 108 217 0 108 217 0 108 217 0 108 217 0 108 217 0 108 217 0 108 217 0 108 217 0 108 217 0 108 217 0 108 255 255 255 255 255 255 255 255 255 255 255 255 255 255 255 255 255 255 255 255 255 255 255 255 255 255 255 255 255 255 255 255 255 255 255 255 255 255 255 217 0 108 217 0 108 217 0 108 217 0 108 217 0 108 191 0 96 191 0 96 191 0 96 191 0 96 191 0 96 191 0 96 191 0 96 191 0 96 191 0 96
217 0 108 217 0 108 217 0 108 217 0 108 217 0 108 217 0 108 217 0 108 217 0 108 217 0 108 217 0 108 217 0 108 217 0 108 217 0 108 217 0 108 217 0 108 217 0 108 217 0 108 217 0 108 217 0 108 217 0 108 217 0 108 217 0 108 217 0 108 255 255 255 255 255 255 255 255 255 255 255 255 255 255 255 255 255 255 255 255 255 255 255 255 255 255 255 255 255 255 255 255 255 255 255 255 255 255 255 217 0 108 217 0 108 217 0 108 217 0 108 191 0 96 191 0 96 191 0 96 191 0 96 191 0 96 191 0 96 191 0 96 191 0 96 191 0 96 191 0 96
217 0 108 217 0 108 217 0 108 217 0 108 217 0 108 217 0 108 217 0 108 217 0 108 217 0 108 217 0 108 217 0 108 217 0 108 217 0 108 217 0 108 217 0 108 217 0 108 217 0 108 217 0 108 217 0 108 217 0 108 217 0 108 217 0 108 217 0 108 255 255 255 255 255 255 255 255 255 255 255 255 255 255 255 255 255 255 255 255 255 255 255 255 255 255 255 255 255 255 255 255 255 255 255 255 255 255 255 217 0 108 217 0 108 217 0 108 217 0 108 191 0 96 191 0 96 191 0 96 191 0 96 191 0 96 191 0 96 191 0 96 191 0 96 191 0 96 191 0 96
217 0 108 217 0 108 217 0 108 217 0 108 217 0 108 217 0 108 217 0 108 217 0 108 217 0 108 217 0 108 217 0 108 217 0 108 217 0 108 217 0 108 217 0 108 217 0 108 217 0 108 217 0 108 217 0 108 217 0 108 217 0 108 217 0 108 217 0 108 255 255 255 255 255 255 255 255 255 255 255 255 255 255 255 255 255 255 255 255 255 255 255 255 255 255 255 255 255 255 255 255 255 255 255 255 255 255 255 217 0 108 217 0 108 217 0 108 191 0 96 191 0 96 191 0 96 191 0 96 191 0 96 191 0 96 191 0 96 191 0 96 191 0 96 191 0 96 191 0 96
217 0 108 217 0 108 217 0 108 217 0 108 217 0 108 217 0 108 217 0 108 217 0 108 217 0 108 217 0 108 217 0 108 217 0 108 217 0 108 217 0 108 217 0 108 217 0 108 217 0 108 217 0 108 217 0 108 217 0 108 217 0 108 217 0 108 217 0 108 255 255 255 255 255 255 255 255 255 255 255 255 255 255 255 255 255 255 255 255 255 255 255 255 255 255 255 255 255 255 255 255 255 255 255 255 255 255 255 217 0 108 217 0 108 217 0 108 191 0 96 191 0 96 191 0 96 191 0 96 191 0 96 191 0 96 191 0 96 191 0 96 191 0 96 191 0 96 191 0 96
217 0 108 217 0 108 217 0 108 217 0 108 217 0 108 217 0 108 217 0 108 217 0 108 217 0 108 217 0 108 217 0 108 217 0 108 217 0 108 217 0 108 217 0 108 217 0 108 255 255 255 255 255 255 255 255 255 255 255 255 255 255 255 255 255 255 255 255 255 255 255 255 255 255 255 255 255 255 255 255 255 255 255 255 255 255 255 255 255 255 255 255 255 255 255 255 255 255 255 255 255 255 255 255 255 255 255 255 217 0 108 217 0 108 217 0 108 191 0 96 191 0 96 191 0 96 191 0 96 191 0 96 191 0 96 191 0 96 191 0 96 191 0 96 191 0 96 191 0 96
217 0 108 217 0 108 217 0 108 217 0 108 217 0 108 217 0 108 217 0 108 217 0 108 217 0 108 217 0 108 217 0 108 217 0 108 217 0 108 217 0 108 217 0 108 217 0 108 255 255 255 255 255 255 255 255 255 255 255 255 255 255 255 255 255 255 255 255 255 255 255 255 255 255 255 255 255 255 255 255 255 255 255 255 255 255 255 255 255 255 255 255 255 255 255 255 255 255 255 255 255 255 255 255 255 255 255 255 217 0 108 217 0 108 217 0 108 191 0 96 191 0 96 191 0 96 191 0 96 191 0 96 191 0 96 191 0 96 191 0 96 191 0 96 191 0 96 191 0 96
217 0 108 217 0 108 217 0 108 217 0 108 217 0 108 217 0 108 217 0 108 217 0 108 217 0 108 217 0 108 217 0 108 217 0 108 217 0 108 217 0 108 217 0 108 217 0 108 255 255 255 255 255 255 255 255 255 255 255 255 255 255 255 255 255 255 255 255 255 255 255 255 255 255 255 255 255 255 255 255 255 255 255 255 255 255 255 255 255 255 255 255 255 255 255 255 255 255 255 255 255 255 255 255 255 255 255 255 255 255 255 217 0 108 191 0 96 191 0 96 191 0 96 191 0 96 191 0 96 191 0 96 191 0 96 191 0 96 191 0 96 191 0 96 191 0 96 191 0 96
217 0 108 217 0 108 217 0 108 217 0 108 217 0 108 217 0 108 217 0 108 217 0 108 217 0 108 217 0 108 217 0 108 217 0 108 217 0 108 217 0 108 217 0 108 217 0 108 255 255 255 255 255 255 255 255 255 255 255 255 255 255 255 255 255 255 255 255 255 255 255 255 255 255 255 255 255 255 255 255 255 255 255 255 255 255 255 255 255 255 255 255 255 255 255 255 255 255 255 255 255 255 255 255 255 255 255 255 255 255 255 217 0 108 191 0 96 191 0 96 191 0 96 191 0 96 191 0 96 191 0 96 191 0 96 191 0 96 191 0 96 191 0 96 191 0 96 191 0 96
217 0 108 217 0 108 217 0 108 217 0 108 217 0 108 217 0 108 217 0 108 217 0 108 217 0 108 217 0 108 217 0 108 217 0 108 217 0 108 217 0 108 217 0 108 217 0 108 255 255 255 255 255 255 255 255 255 255 255 255 255 255 255 255 255 255 255 255 255 255 255 255 255 255 255 255 255 255 255 255 255 255 255 255 255 255 255 255 255 255 255 255 255 255 255 255 255 255 255 255 255 255 255 255 255 255 255 255 255 255 255 217 0 108 191 0 96 191 0 96 191 0 96 191 0 96 191 0 96 191 0 96 191 0 96 191 0 96 191 0 96 191 0 96 191 0 96 191 0 96
217 0 108 217 0 108 217 0 108 217 0 108 217 0 108 217 0 108 217 0 108 217 0 108 217 0 108 217 0 108 217 0 108 217 0 108 217 0 108 217 0 108 217 0 108 217 0 108 255 255 255 255 255 255 255 255 255 255 255 255 255 255 255 255 255 255 255 255 255 255 255 255 255 255 255 255 255 255 255 255 255 255 255 255 255 255 255 255 255 255 255 255 255 255 255 255 255 255 255 255 255 255 255 255 255 255 255 255 255 255 255 217 0 108 191 0 96 191 0 96 191 0 96 191 0 96 191 0 96 191 0 96 191 0 96 191 0 96 191 0 96 191 0 96 191 0 96 191 0 96
217 0 108 217 0 108 217 0 108 217 0 108 217 0 108 217 0 108 217 0 108 217 0 108 217 0 108 217 0 108 217 0 108 217 0 108 217 0 108 217 0 108 217 0 108 217 0 108 255 255 255 255 255 255 255 255 255 255 255 255 255 255 255 255 255 255 255 255 255 255 255 255 255 255 255 255 255 255 255 255 255 255 255 255 255 255 255 255 255 255 255 255 255 255 255 255 255 255 255 255 255 255 255 255 255 255 255 255 255 255 255 191 0 96 191 0 96 191 0 96 191 0 96 191 0 96 191 0 96 191 0 96 191 0 96 191 0 96 191 0 96 191 0 96 191 0 96 191 0 96
217 0 108 217 0 108 217 0 108 217 0 108 217 0 108 217 0 108 217 0 108 217 0 108 217 0 108 217 0 108 217 0 108 217 0 108 217 0 108 217 0 108 217 0 108 217 0 108 255 255 255 255 255 255 255 255 255 255 255 255 255 255 255 255 255 255 255 255 255 255 255 255 255 255 255 255 255 255 255 255 255 255 255 255 255 255 255 255 255 255 255 255 255 255 255 255 255 255 255 255 255 255 255 255 255 255 255 255 255 255 255 191 0 96 191 0 96 191 0 96 191 0 96 191 0 96 191 0 96 191 0 96 191 0 96 191 0 96 191 0 96 191 0 96 191 0 96 191 0 96
217 0 108 217 0 108 217 0 108 217 0 108 217 0 108 217 0 108 217 0 108 217 0 108 217 0 108 217 0 108 217 0 108 217 0 108 217 0 108 217 0 108 217 0 108 217 0 108 255 255 255 255 255 255 255 255 255 255 255 255 255 255 255 255 255 255 255 255 255 255 255 255 255 255 255 255 255 255 255 255 255 255 255 255 255 255 255 255 255 255 255 255 255 255 255 255 255 255 255 255 255 255 255 255 255 255 255 255 255 255 255 191 0 96 191 0 96 191 0 96 191 0 96 191 0 96 191 0 96 191 0 96 191 0 96 191 0 96 191 0 96 191 0 96 191 0 96 191 0 96
217 0 108 217 0 108 217 0 108 217 0 108 217 0 108 217 0 108 217 0 108 217 0 108 217 0 108 217 0 108 191 0 96 191 0 96 191 0 96 217 0 108 217 0 108 217 0 108 255 255 255 255 255 255 255 255 255 255 255 255 255 255 255 255 255 255 255 255 255 255 255 255 255 255 255 255 255 255 255 255 255 255 255 255 255 255 255 255 255 255 255 255 255 255 255 255 255 255 255 255 255 255 255 255 255 255 255 255 255 255 255 191 0 96 191 0 96 191 0 96 191 0 96 191 0 96 191 0 96 191 0 96 191 0 96 191 0 96 191 0 96 191 0 96 191 0 96 191 0 96
217 0 108 217 0 108 217 0 108 217 0 108 217 0 108 217 0 108 191 0 96 191 0 96 191 0 96 191 0 96 191 0 96 191 0 96 191 0 96 191 0 96 191 0 96 191 0 96 255 255 255 255 255 255 255 255 255 255 255 255 255 255 255 255 255 255 255 255 255 255 255 255 255 255 255 255 255 255 255 255 255 255 255 255 255 255 255 255 255 255 255 255 255 255 255 255 255 255 255 255 255 255 255 255 255 255 255 255 255 255 255 191 0 96 191 0 96 191 0 96 191 0 96 191 0 96 191 0 96 191 0 96 191 0 96 191 0 96 191 0 96 191 0 96 191 0 96 191 0 96
217 0 108 217 0 108 217 0 108 217 0 108 191 0 96 191 0 96 191 0 96 191 0 96 191 0 96 191 0 96 191 0 96 191 0 96 191 0 96 191 0 96 191 0 96 191 0 96 255 255 255 255 255 255 255 255 255 255 255 255 255 255 255 255 255 255 255 255 255 255 255 255 255 255 255 255 255 255 255 255 255 255 255 255 255 255 255 255 255 255 255 255 255 255 255 255 255 255 255 255 255 255 255 255 255 255 255 255 255 255 255 191 0 96 191 0 96 191 0 96 191 0 96 191 0 96 191 0 96 191 0 96 191 0 96 191 0 96 191 0 96 191 0 96 191 0 96 191 0 96
217 0 108 217 0 108 217 0 108 191 0 96 191 0 96 191 0 96 191 0 96 191 0 96 191 0 96 191 0 96 191 0 96 191 0 96 191 0 96 191 0 96 191 0 96 191 0 96 255 255 255 255 255 255 255 255 255 255 255 255 255 255 255 255 255 255 255 255 255 255 255 255 255 255 255 255 255 255 255 255 255 255 255 255 255 255 255 255 255 255 255 255 255 255 255 255 255 255 255 255 255 255 255 255 255 255 255 255 255 255 255 191 0 96 191 0 96 191 0 96 191 0 96 191 0 96 191 0 96 191 0 96 191 0 96 191 0 96 191 0 96 191 0 96 191 0 96 191 0 96
217 0 108 217 0 108 217 0 108 191 0 96 191 0 96 191 0 96 191 0 96 191 0 96 191 0 96 191 0 96 191 0 96 191 0 96 191 0 96 191 0 96 191 0 96 191 0 96 255 255 255 255 255 255 255 255 255 255 255 255 255 255 255 255 255 255 255 255 255 255 255 255 255 255 255 255 255 255 255 255 255 255 255 255 255 255 255 255 255 255 255 255 255 255 255 255 255 255 255 255 255 255 255 255 255 255 255 255 255 255 255 191 0 96 191 0 96 191 0 96 191 0 96 191 0 96 191 0 96 191 0 96 191 0 96 191 0 96 191 0 96 191 0 96 191 0 96 191 0 96
217 0 108 217 0 108 191 0 96 191 0 96 191 0 96 191 0 96 191 0 96 191 0 96 191 0 96 191 0 96 191 0 96 191 0 96 191 0 96 191 0 96 191 0 96 191 0 96 191 0 96 255 255 255 255 255 255 255 255 255 255 255 255 255 255 255 255 255 255 255 255 255 255 255 255 255 255 255 255 255 255 255 255 255 255 255 255 255 255 255 255 255 255 255 255 255 255 255 255 255 255 255 255 255 255 255 255 255 217 0 108 191 0 96 191 0 96 191 0 96 191 0 96 191 0 96 191 0 96 191 0 96 191 0 96 191 0 96 191 0 96 191 0 96 191 0 96 191 0 96
217 0 108 217 0 108 191 0 96 191 0 96 191 0 96 191 0 96 191 0 96 191 0 96 191 0 96 191 0 96 191 0 96 191 0 96 191 0 96 191 0 96 191 0 96 191 0 96 191 0 96 191 0 96 191 0 96 191 0 96 191 0 96 191 0 96 191 0 96 217 0 108 217 0 108 217 0 108 217 0 108 217 0 108 217 0 108 217 0 108 217 0 108 217 0 108 217 0 108 217 0 108 217 0 108 217 0 108 217 0 108 191 0 96 191 0 96 191 0 96 191 0 96 191 0 96 191 0 96 191 0 96 191 0 96 191 0 96 191 0 96 191 0 96 191 0 96 191 0 96
217 0 108 191 0 96 191 0 96 191 0 96 191 0 96 191 0 96 191 0 96 191 0 96 191 0 96 191 0 96 191 0 96 191 0 96 191 0 96 191 0 96 191 0 96 191 0 96 191 0 96 191 0 96 191 0 96 191 0 96 191 0 96 191 0 96 191 0 96 191 0 96 191 0 96 217 0 108 217 0 108 217 0 108 217 0 108 217 0 108 217 0 108 217 0 108 217 0 108 217 0 108 217 0 108 217 0 108 217 0 108 191 0 96 191 0 96 191 0 96 191 0 96 191 0 96 191 0 96 191 0 96 191 0 96 191 0 96 191 0 96 191 0 96 191 0 96 191 0 96
217 0 108 191 0 96 191 0 96 191 0 96 191 0 96 191 0 96 191 0 96 191 0 96 191 0 96 191 0 96 191 0 96 191 0 96 191 0 96 191 0 96 191 0 96 191 0 96 191 0 96 191 0 96 191 0 96 191 0 96 191 0 96 191 0 96 191 0 96 191 0 96 191 0 96 191 0 96 191 0 96 217 0 108 217 0 108 217 0 108 217 0 108 217 0 108 217 0 108 217 0 108 217 0 108 217 0 108 217 0 108 191 0 96 191 0 96 191 0 96 191 0 96 191 0 96 191 0 96 191 0 96 191 0 96 191 0 96 191 0 96 191 0 96 191 0 96 191 0 96
191 0 96 191 0 96 191 0 96 191 0 96 191 0 96 191 0 96 191 0 96 191 0 96 191 0 96 191 0 96 191 0 96 191 0 96 191 0 96 191 0 96 191 0 96 191 0 96 191 0 96 191 0 96 191 0 96 191 0 96 191 0 96 191 0 96 191 0 96 191 0 96 191 0 96 191 0 96 191 0 96 191 0 96 217 0 108 217 0 108 217 0 108 217 0 108 217 0 108 217 0 108 217 0 108 217 0 108 217 0 108 191 0 96 191 0 96 191 0 96 191 0 96 191 0 96 191 0 96 191 0 96 191 0 96 191 0 96 191 0 96 191 0 96 191 0 96 191 0 96
191 0 96 191 0 96 191 0 96 191 0 96 191 0 96 191 0 96 191 0 96 191 0 96 191 0 96 191 0 96 191 0 96 191 0 96 191 0 96 191 0 96 191 0 96 191 0 96 191 0 96 191 0 96 191 0 96 191 0 96 191 0 96 191 0 96 191 0 96 191 0 96 191 0 96 191 0 96 191 0 96 191 0 96 191 0 96 191 0 96 217 0 108 217 0 108 217 0 108 217 0 108 217 0 108 217 0 108 217 0 108 191 0 96 191 0 96 191 0 96 191 0 96 191 0 96 191 0 96 191 0 96 191 0 96 191 0 96 191 0 96 191 0 96 191 0 96 191 0 96
191 0 96 191 0 96 191 0 96 191 0 96 191 0 96 191 0 96 191 0 96 191 0 96 191 0 96 191 0 96 191 0 96 191 0 96 191 0 96 191 0 96 191 0 96 191 0 96 191 0 96 191 0 96 191 0 96 191 0 96 191 0 96 191 0 96 191 0 96 191 0 96 191 0 96 191 0 96 191 0 96 191 0 96 191 0 96 191 0 96 217 0 108 217 0 108 217 0 108 217 0 108 217 0 108 217 0 108 217 0 108 217 0 108 217 0 108 191 0 96 191 0 96 191 0 96 191 0 96 191 0 96 191 0 96 191 0 96 191 0 96 191 0 96 191 0 96 191 0 96
191 0 96 191 0 96 191 0 96 191 0 96 191 0 96 191 0 96 191 0 96 191 0 96 191 0 96 191 0 96 191 0 96 191 0 96 191 0 96 191 0 96 191 0 96 191 0 96 191 0 96 191 0 96 191 0 96 191 0 96 191 0 96 191 0 96 191 0 96 191 0 96 191 0 96 191 0 96 191 0 96 191 0 96 191 0 96 191 0 96 191 0 96 217 0 108 217 0 108 217 0 108 217 0 108 217 0 108 217 0 108 217 0 108 217 0 108 217 0 108 217 0 108 217 0 108 191 0 96 191 0 96 191 0 96 191 0 96 191 0 96 191 0 96 191 0 96 191 0 96
191 0 96 191 0 96 191 0 96 191 0 96 191 0 96 191 0 96 191 0 96 191 0 96 191 0 96 191 0 96 191 0 96 191 0 96 191 0 96 191 0 96 191 0 96 191 0 96 191 0 96 191 0 96 191 0 96 191 0 96 191 0 96 191 0 96 191 0 96 191 0 96 191 0 96 191 0 96 191 0 96 191 0 96 191 0 96 191 0 96 191 0 96 217 0 108 217 0 108 217 0 108 217 0 108 217 0 108 217 0 108 217 0 108 217 0 108 217 0 108 217 0 108 217 0 108 217 0 108 217 0 108 217 0 108 217 0 108 217 0 108 217 0 108 217 0 108 217 0 108
191 0 96 191 0 96 191 0 96 191 0 96 191 0 96 191 0 96 191 0 96 191 0 96 191 0 96 191 0 96 191 0 96 191 0 96 191 0 96 191 0 96 191 0 96 191 0 96 191 0 96 191 0 96 191 0 96 191 0 96 191 0 96 191 0 96 191 0 96 191 0 96 191 0 96 191 0 96 191 0 96 191 0 96 191 0 96 191 0 96 191 0 96 217 0 108 217 0 108 217 0 108 217 0 108 217 0 108 217 0 108 217 0 108 217 0 108 217 0 108 217 0 108 217 0 108 217 0 108 217 0 108 217 0 108 217 0 108 217 0 108 217 0 108 217 0 108 217 0 108
191 0 96 191 0 96 191 0 96 191 0 96 191 0 96 191 0 96 191 0 96 191 0 96 191 0 96 191 0 96 191 0 96 191 0 96 191 0 96 191 0 96 191 0 96 191 0 96 191 0 96 191 0 96 191 0 96 191 0 96 191 0 96 191 0 96 191 0 96 191 0 96 191 0 96 191 0 96 191 0 96 191 0 96 191 0 96 191 0 96 191 0 96 217 0 108 217 0 108 217 0 108 217 0 108 217 0 108 217 0 108 217 0 108 217 0 108 217 0 108 217 0 108 217 0 108 217 0 108 217 0 108 217 0 108 217 0 108 217 0 108 217 0 108 217 0 108 217 0 108
191 0 96 191 0 96 191 0 96 191 0 96 191 0 96 191 0 96 191 0 96 191 0 96 191 0 96 191 0 96 191 0 96 191 0 96 191 0 96 191 0 96 191 0 96 191 0 96 191 0 96 191 0 96 191 0 96 191 0 96 191 0 96 191 0 96 191 0 96 191 0 96 191 0 96 191 0 96 191 0 96 191 0 96 191 0 96 191 0 96 191 0 96 217 0 108 217 0 108 217 0 108 217 0 108 217 0 108 217 0 108 217 0 108 217 0 108 217 0 108 217 0 108 217 0 108 217 0 108 217 0 108 217 0 108 217 0 108 217 0 108 217 0 108 217 0 108 217 0 108
191 0 96 191 0 96 191 0 96 191 0 96 191 0 96 191 0 96 191 0 96 191 0 96 191 0 96 191 0 96 191 0 96 191 0 96 191 0 96 191 0 96 191 0 96 191 0 96 191 0 96 191 0 96 191 0 96 191 0 96 191 0 96 191 0 96 191 0 96 191 0 96 191 0 96 191 0 96 191 0 96 191 0 96 191 0 96 191 0 96 191 0 96 217 0 108 217 0 108 217 0 108 217 0 108 217 0 108 217 0 108 217 0 108 217 0 108 217 0 108 217 0 108 217 0 108 217 0 108 217 0 108 217 0 108 217 0 108 217 0 108 217 0 108 217 0 108 217 0 108
191 0 96 191 0 96 191 0 96 191 0 96 191 0 96 191 0 96 191 0 96 191 0 96 191 0 96 191 0 96 191 0 96 191 0 96 191 0 96 191 0 96 191 0 96 191 0 96 191 0 96 191 0 96 191 0 96 191 0 96 191 0 96 191 0 96 191 0 96 191 0 96 191 0 96 191 0 96 191 0 96 191 0 96 191 0 96 191 0 96 191 0 96 217 0 108 217 0 108 217 0 108 217 0 108 217 0 108 217 0 108 217 0 108 217 0 108 217 0 108 217 0 108 217 0 108 217 0 108 217 0 108 217 0 108 217 0 108 217 0 108 217 0 108 217 0 108 217 0 108
191 0 96 191 0 96 191 0 96 191 0 96 191 0 96 191 0 96 191 0 96 191 0 96 191 0 96 191 0 96 191 0 96 191 0 96 191 0 96 191 0 96 191 0 96 191 0 96 191 0 96 191 0 96 191 0 96 191 0 96 191 0 96 191 0 96 191 0 96 191 0 96 191 0 96 191 0 96 191 0 96 191 0 96 191 0 96 191 0 96 191 0 96 217 0 108 217 0 108 217 0 108 217 0 108 217 0 108 217 0 108 217 0 108 217 0 108 217 0 108 217 0 108 217 0 108 217 0 108 217 0 108 217 0 108 217 0 108 217 0 108 217 0 108 217 0 108 217 0 108
