P3
3 3
255
255 175 175 0 0 0 255 175 175
0 0 0 0 0 0 255 175 175
255 175 175 0 0 0 0 0 0
