P3
40 50
255
255 255 255 132 193 255 132 193 255 132 193 255 132 193 255 132 193 255 132 193 255 132 193 255 132 193 255 132 193 255 132 193 255 132 193 255 132 193 255 132 193 255 255 255 255 255 255 255 255 255 255 255 255 255 255 255 255 255 255 255 255 255 255 255 255 255 255 255 255 255 255 255 255 255 255 255 255 255 255 255 255 255 255 255 255 255 255 255 255 255 255 255 255 255 255 255 255 255 255 255 255 255 255 255 255 255 255 255 132 193 255 132 193 255 132 193 255 132 193 255
132 193 255 132 193 255 132 193 255 132 193 255 132 193 255 132 193 255 132 193 255 132 193 255 132 193 255 132 193 255 132 193 255 132 193 255 132 193 255 132 193 255 255 255 255 255 255 255 255 255 255 255 255 255 255 255 255 255 255 255 255 255 255 255 255 255 255 255 255 255 255 255 255 255 255 255 255 255 255 255 255 255 255 255 255 255 255 255 255 255 255 255 255 255 255 255 255 255 255 255 255 255 255 255 255 255 255 255 132 193 255 132 193 255 132 193 255 132 193 255
132 193 255 132 193 255 132 193 255 132 193 255 132 193 255 132 193 255 132 193 255 132 193 255 132 193 255 132 193 255 132 193 255 132 193 255 132 193 255 132 193 255 255 255 255 255 255 255 255 255 255 255 255 255 255 255 255 255 255 255 255 255 255 255 255 255 255 255 255 255 255 255 255 255 255 255 255 255 255 255 255 255 255 255 255 255 255 255 255 255 255 255 255 255 255 255 255 255 255 255 255 255 255 255 255 255 255 255 132 193 255 132 193 255 132 193 255 132 193 255
132 193 255 132 193 255 132 193 255 132 193 255 132 193 255 132 193 255 132 193 255 132 193 255 132 193 255 132 193 255 132 193 255 132 193 255 132 193 255 132 193 255 255 255 255 255 255 255 255 255 255 255 255 255 255 255 255 255 255 255 255 255 255 255 255 255 255 255 255 255 255 255 255 255 255 255 255 255 255 255 255 255 255 255 255 255 255 255 255 255 255 255 255 255 255 255 255 255 255 255 255 255 255 255 255 255 255 255 132 193 255 132 193 255 132 193 255 132 193 255
132 193 255 132 193 255 132 193 255 132 193 255 132 193 255 132 193 255 132 193 255 132 193 255 132 193 255 132 193 255 132 193 255 132 193 255 132 193 255 132 193 255 255 255 255 255 255 255 255 255 255 255 255 255 255 255 255 255 255 255 255 255 255 255 255 255 255 255 255 255 255 255 255 255 255 255 255 255 255 255 255 255 255 255 255 255 255 255 255 255 255 255 255 255 255 255 255 255 255 255 255 255 255 255 255 255 255 255 132 193 255 132 193 255 132 193 255 132 193 255
132 193 255 132 193 255 132 193 255 132 193 255 132 193 255 132 193 255 132 193 255 132 193 255 132 193 255 132 193 255 132 193 255 132 193 255 132 193 255 132 193 255 255 255 255 255 255 255 255 255 255 255 255 255 255 255 255 255 255 255 255 255 255 255 255 255 255 255 255 255 255 255 255 255 255 255 255 255 255 255 255 255 255 255 255 255 255 255 255 255 255 255 255 255 255 255 255 255 255 255 255 255 255 255 255 255 255 255 132 193 255 132 193 255 132 193 255 132 193 255
132 193 255 132 193 255 132 193 255 132 193 255 132 193 255 132 193 255 132 193 255 132 193 255 132 193 255 132 193 255 132 193 255 132 193 255 132 193 255 132 193 255 255 255 255 255 255 255 255 255 255 255 255 255 255 255 255 255 255 255 255 255 255 255 255 255 255 255 255 255 255 255 255 255 255 255 255 255 255 255 255 255 255 255 255 255 255 255 255 255 255 255 255 255 255 255 255 255 255 255 255 255 255 255 255 255 255 255 132 193 255 132 193 255 132 193 255 132 193 255
132 193 255 132 193 255 132 193 255 132 193 255 132 193 255 132 193 255 132 193 255 132 193 255 132 193 255 132 193 255 132 193 255 132 193 255 132 193 255 132 193 255 132 193 255 255 255 255 255 255 255 255 255 255 255 255 255 255 255 255 255 255 255 255 255 255 255 255 255 255 255 255 255 255 255 255 255 255 255 255 255 255 255 255 255 255 255 255 255 255 255 255 255 255 255 255 255 255 255 255 255 255 255 255 255 255 255 255 132 193 255 132 193 255 132 193 255 132 193 255
132 193 255 132 193 255 132 193 255 132 193 255 132 193 255 132 193 255 132 193 255 132 193 255 132 193 255 132 193 255 132 193 255 132 193 255 132 193 255 132 193 255 132 193 255 132 193 255 132 193 255 132 193 255 132 193 255 132 193 255 132 193 255 132 193 255 132 193 255 255 255 255 255 255 255 255 255 255 255 255 255 255 255 255 255 255 255 255 255 255 255 255 255 255 255 255 255 255 255 255 255 255 255 255 255 255 255 255 132 193 255 132 193 255 132 193 255 132 193 255
132 193 255 132 193 255 132 193 255 132 193 255 132 193 255 132 193 255 132 193 255 132 193 255 132 193 255 132 193 255 132 193 255 132 193 255 132 193 255 132 193 255 132 193 255 132 193 255 132 193 255 132 193 255 132 193 255 132 193 255 132 193 255 132 193 255 132 193 255 255 255 255 255 255 255 255 255 255 255 255 255 255 255 255 255 255 255 255 255 255 255 255 255 255 255 255 255 255 255 255 255 255 255 255 255 255 255 255 132 193 255 132 193 255 132 193 255 132 193 255
132 193 255 132 193 255 132 193 255 132 193 255 132 193 255 132 193 255 132 193 255 132 193 255 132 193 255 132 193 255 132 193 255 132 193 255 132 193 255 132 193 255 132 193 255 132 193 255 132 193 255 132 193 255 132 193 255 132 193 255 132 193 255 132 193 255 132 193 255 255 255 255 255 255 255 255 255 255 255 255 255 255 255 255 255 255 255 255 255 255 255 255 255 255 255 255 255 255 255 255 255 255 255 255 255 255 255 255 132 193 255 132 193 255 132 193 255 132 193 255
132 193 255 132 193 255 132 193 255 132 193 255 132 193 255 132 193 255 132 193 255 132 193 255 132 193 255 132 193 255 132 193 255 132 193 255 132 193 255 132 193 255 132 193 255 132 193 255 132 193 255 132 193 255 132 193 255 132 193 255 132 193 255 132 193 255 132 193 255 255 255 255 255 255 255 255 255 255 255 255 255 255 255 255 255 255 255 255 255 255 255 255 255 255 255 255 255 255 255 255 255 255 255 255 255 255 255 255 132 193 255 132 193 255 132 193 255 132 193 255
132 193 255 132 193 255 132 193 255 132 193 255 132 193 255 132 193 255 132 193 255 132 193 255 132 193 255 132 193 255 132 193 255 132 193 255 132 193 255 132 193 255 132 193 255 132 193 255 132 193 255 132 193 255 132 193 255 132 193 255 132 193 255 132 193 255 132 193 255 255 255 255 255 255 255 255 255 255 255 255 255 255 255 255 255 255 255 255 255 255 255 255 255 255 255 255 255 255 255 255 255 255 255 255 255 255 255 255 132 193 255 132 193 255 132 193 255 132 193 255
132 193 255 132 193 255 132 193 255 132 193 255 132 193 255 132 193 255 132 193 255 132 193 255 132 193 255 132 193 255 132 193 255 132 193 255 132 193 255 132 193 255 132 193 255 132 193 255 132 193 255 132 193 255 132 193 255 132 193 255 132 193 255 132 193 255 132 193 255 255 255 255 255 255 255 255 255 255 255 255 255 255 255 255 255 255 255 255 255 255 255 255 255 255 255 255 255 255 255 255 255 255 255 255 255 255 255 255 132 193 255 132 193 255 132 193 255 132 193 255
132 193 255 132 193 255 132 193 255 132 193 255 132 193 255 132 193 255 132 193 255 132 193 255 132 193 255 132 193 255 132 193 255 132 193 255 132 193 255 132 193 255 132 193 255 132 193 255 132 193 255 132 193 255 132 193 255 132 193 255 132 193 255 132 193 255 132 193 255 255 255 255 255 255 255 255 255 255 255 255 255 255 255 255 255 255 255 255 255 255 255 255 255 255 255 255 255 255 255 255 255 255 255 255 255 255 255 255 132 193 255 132 193 255 132 193 255 132 193 255
132 193 255 132 193 255 132 193 255 132 193 255 132 193 255 132 193 255 132 193 255 132 193 255 132 193 255 132 193 255 132 193 255 132 193 255 132 193 255 132 193 255 132 193 255 132 193 255 132 193 255 132 193 255 132 193 255 132 193 255 132 193 255 132 193 255 132 193 255 255 255 255 255 255 255 255 255 255 255 255 255 255 255 255 255 255 255 255 255 255 255 255 255 255 255 255 255 255 255 255 255 255 255 255 255 255 255 255 132 193 255 132 193 255 132 193 255 132 193 255
132 193 255 132 193 255 132 193 255 132 193 255 132 193 255 132 193 255 132 193 255 132 193 255 132 193 255 132 193 255 132 193 255 132 193 255 132 193 255 132 193 255 132 193 255 132 193 255 132 193 255 132 193 255 132 193 255 132 193 255 132 193 255 132 193 255 132 193 255 255 255 255 255 255 255 255 255 255 255 255 255 255 255 255 255 255 255 255 255 255 255 255 255 255 255 255 255 255 255 255 255 255 255 255 255 255 255 255 132 193 255 132 193 255 132 193 255 132 193 255
132 193 255 132 193 255 132 193 255 132 193 255 132 193 255 132 193 255 132 193 255 132 193 255 132 193 255 132 193 255 132 193 255 132 193 255 132 193 255 132 193 255 132 193 255 132 193 255 132 193 255 132 193 255 132 193 255 132 193 255 132 193 255 132 193 255 132 193 255 255 255 255 255 255 255 255 255 255 255 255 255 255 255 255 255 255 255 255 255 255 255 255 255 255 255 255 255 255 255 255 255 255 255 255 255 255 255 255 132 193 255 132 193 255 132 193 255 132 193 255
132 193 255 132 193 255 132 193 255 132 193 255 132 193 255 132 193 255 132 193 255 132 193 255 132 193 255 132 193 255 132 193 255 132 193 255 132 193 255 132 193 255 132 193 255 132 193 255 132 193 255 132 193 255 132 193 255 132 193 255 132 193 255 132 193 255 132 193 255 255 255 255 255 255 255 255 255 255 255 255 255 255 255 255 255 255 255 255 255 255 255 255 255 255 255 255 255 255 255 255 255 255 255 255 255 255 255 255 132 193 255 132 193 255 132 193 255 132 193 255
132 193 255 132 193 255 132 193 255 132 193 255 132 193 255 132 193 255 132 193 255 132 193 255 132 193 255 132 193 255 132 193 255 132 193 255 132 193 255 132 193 255 132 193 255 132 193 255 132 193 255 132 193 255 132 193 255 132 193 255 132 193 255 132 193 255 132 193 255 255 255 255 255 255 255 255 255 255 255 255 255 255 255 255 255 255 255 255 255 255 255 255 255 255 255 255 255 255 255 255 255 255 255 255 255 255 255 255 132 193 255 132 193 255 132 193 255 132 193 255
132 193 255 132 193 255 132 193 255 132 193 255 132 193 255 132 193 255 132 193 255 132 193 255 132 193 255 132 193 255 132 193 255 132 193 255 132 193 255 132 193 255 132 193 255 132 193 255 132 193 255 132 193 255 132 193 255 132 193 255 132 193 255 132 193 255 132 193 255 255 255 255 255 255 255 255 255 255 255 255 255 255 255 255 255 255 255 255 255 255 255 255 255 255 255 255 255 255 255 255 255 255 255 255 255 255 255 255 132 193 255 132 193 255 132 193 255 132 193 255
132 193 255 132 193 255 132 193 255 132 193 255 132 193 255 132 193 255 132 193 255 132 193 255 132 193 255 132 193 255 132 193 255 132 193 255 132 193 255 132 193 255 132 193 255 132 193 255 255 255 255 255 255 255 255 255 255 255 255 255 255 255 255 255 255 255 255 255 255 255 255 255 255 255 255 255 255 255 255 255 255 255 255 255 255 255 255 255 255 255 255 255 255 255 255 255 255 255 255 255 255 255 255 255 255 255 255 255 132 193 255 132 193 255 132 193 255 132 193 255
132 193 255 132 193 255 132 193 255 132 193 255 132 193 255 132 193 255 132 193 255 132 193 255 132 193 255 132 193 255 132 193 255 132 193 255 132 193 255 132 193 255 132 193 255 132 193 255 255 255 255 255 255 255 255 255 255 255 255 255 255 255 255 255 255 255 255 255 255 255 255 255 255 255 255 255 255 255 255 255 255 255 255 255 255 255 255 255 255 255 255 255 255 255 255 255 255 255 255 255 255 255 255 255 255 255 255 255 132 193 255 132 193 255 132 193 255 132 193 255
132 193 255 132 193 255 132 193 255 132 193 255 132 193 255 132 193 255 132 193 255 132 193 255 132 193 255 132 193 255 132 193 255 132 193 255 132 193 255 132 193 255 132 193 255 132 193 255 255 255 255 255 255 255 255 255 255 255 255 255 255 255 255 255 255 255 255 255 255 255 255 255 255 255 255 255 255 255 255 255 255 255 255 255 255 255 255 255 255 255 255 255 255 255 255 255 255 255 255 255 255 255 255 255 255 255 255 255 255 255 255 132 193 255 132 193 255 132 193 255
132 193 255 132 193 255 132 193 255 132 193 255 132 193 255 132 193 255 132 193 255 132 193 255 132 193 255 132 193 255 132 193 255 132 193 255 132 193 255 132 193 255 132 193 255 132 193 255 255 255 255 255 255 255 255 255 255 255 255 255 255 255 255 255 255 255 255 255 255 255 255 255 255 255 255 255 255 255 255 255 255 255 255 255 255 255 255 255 255 255 255 255 255 255 255 255 255 255 255 255 255 255 255 255 255 255 255 255 255 255 255 132 193 255 132 193 255 132 193 255
132 193 255 132 193 255 132 193 255 132 193 255 132 193 255 132 193 255 132 193 255 132 193 255 132 193 255 132 193 255 132 193 255 132 193 255 132 193 255 132 193 255 132 193 255 132 193 255 255 255 255 255 255 255 255 255 255 255 255 255 255 255 255 255 255 255 255 255 255 255 255 255 255 255 255 255 255 255 255 255 255 255 255 255 255 255 255 255 255 255 255 255 255 255 255 255 255 255 255 255 255 255 255 255 255 255 255 255 255 255 255 132 193 255 132 193 255 132 193 255
132 193 255 132 193 255 132 193 255 132 193 255 132 193 255 132 193 255 132 193 255 132 193 255 132 193 255 132 193 255 132 193 255 132 193 255 132 193 255 132 193 255 132 193 255 132 193 255 255 255 255 255 255 255 255 255 255 255 255 255 255 255 255 255 255 255 255 255 255 255 255 255 255 255 255 255 255 255 255 255 255 255 255 255 255 255 255 255 255 255 255 255 255 255 255 255 255 255 255 255 255 255 255 255 255 255 255 255 255 255 255 132 193 255 132 193 255 132 193 255
132 193 255 132 193 255 132 193 255 132 193 255 132 193 255 132 193 255 132 193 255 132 193 255 132 193 255 132 193 255 132 193 255 132 193 255 132 193 255 132 193 255 132 193 255 132 193 255 255 255 255 255 255 255 255 255 255 255 255 255 255 255 255 255 255 255 255 255 255 255 255 255 255 255 255 255 255 255 255 255 255 255 255 255 255 255 255 255 255 255 255 255 255 255 255 255 255 255 255 255 255 255 255 255 255 255 255 255 255 255 255 132 193 255 132 193 255 132 193 255
132 193 255 132 193 255 132 193 255 132 193 255 132 193 255 132 193 255 132 193 255 132 193 255 132 193 255 132 193 255 132 193 255 132 193 255 132 193 255 132 193 255 132 193 255 132 193 255 255 255 255 255 255 255 255 255 255 255 255 255 255 255 255 255 255 255 255 255 255 255 255 255 255 255 255 255 255 255 255 255 255 255 255 255 255 255 255 255 255 255 255 255 255 255 255 255 255 255 255 255 255 255 255 255 255 255 255 255 255 255 255 132 193 255 132 193 255 132 193 255
132 193 255 132 193 255 132 193 255 132 193 255 132 193 255 132 193 255 132 193 255 132 193 255 132 193 255 132 193 255 132 193 255 132 193 255 132 193 255 132 193 255 132 193 255 132 193 255 255 255 255 255 255 255 255 255 255 255 255 255 255 255 255 255 255 255 255 255 255 255 255 255 255 255 255 255 255 255 255 255 255 255 255 255 255 255 255 255 255 255 255 255 255 255 255 255 255 255 255 255 255 255 255 255 255 255 255 255 255 255 255 132 193 255 132 193 255 132 193 255
132 193 255 132 193 255 132 193 255 132 193 255 132 193 255 132 193 255 132 193 255 132 193 255 132 193 255 132 193 255 132 193 255 132 193 255 132 193 255 132 193 255 132 193 255 132 193 255 255 255 255 255 255 255 255 255 255 255 255 255 255 255 255 255 255 255 255 255 255 255 255 255 255 255 255 255 255 255 255 255 255 255 255 255 255 255 255 255 255 255 255 255 255 255 255 255 255 255 255 255 255 255 255 255 255 255 255 255 255 255 255 132 193 255 132 193 255 132 193 255
132 193 255 132 193 255 132 193 255 132 193 255 132 193 255 132 193 255 132 193 255 132 193 255 132 193 255 132 193 255 132 193 255 132 193 255 132 193 255 132 193 255 132 193 255 132 193 255 255 255 255 255 255 255 255 255 255 255 255 255 255 255 255 255 255 255 255 255 255 255 255 255 255 255 255 255 255 255 255 255 255 255 255 255 255 255 255 255 255 255 255 255 255 255 255 255 255 255 255 255 255 255 255 255 255 255 255 255 255 255 255 132 193 255 132 193 255 132 193 255
132 193 255 132 193 255 132 193 255 132 193 255 132 193 255 132 193 255 132 193 255 132 193 255 132 193 255 132 193 255 132 193 255 132 193 255 132 193 255 132 193 255 132 193 255 132 193 255 255 255 255 255 255 255 255 255 255 255 255 255 255 255 255 255 255 255 255 255 255 255 255 255 255 255 255 255 255 255 255 255 255 255 255 255 255 255 255 255 255 255 255 255 255 255 255 255 255 255 255 255 255 255 255 255 255 255 255 255 255 255 255 132 193 255 132 193 255 132 193 255
132 193 255 132 193 255 132 193 255 132 193 255 132 193 255 132 193 255 132 193 255 132 193 255 132 193 255 132 193 255 132 193 255 132 193 255 132 193 255 132 193 255 132 193 255 132 193 255 255 255 255 255 255 255 255 255 255 255 255 255 255 255 255 255 255 255 255 255 255 255 255 255 255 255 255 255 255 255 255 255 255 255 255 255 255 255 255 255 255 255 255 255 255 255 255 255 255 255 255 255 255 255 255 255 255 255 255 255 255 255 255 132 193 255 132 193 255 132 193 255
132 193 255 132 193 255 132 193 255 132 193 255 132 193 255 132 193 255 132 193 255 132 193 255 132 193 255 132 193 255 132 193 255 132 193 255 132 193 255 132 193 255 132 193 255 132 193 255 255 255 255 255 255 255 255 255 255 255 255 255 255 255 255 255 255 255 255 255 255 255 255 255 255 255 255 255 255 255 255 255 255 255 255 255 255 255 255 255 255 255 255 255 255 255 255 255 255 255 255 255 255 255 255 255 255 255 255 255 255 255 255 132 193 255 132 193 255 132 193 255
132 193 255 132 193 255 132 193 255 132 193 255 132 193 255 132 193 255 132 193 255 132 193 255 132 193 255 132 193 255 132 193 255 132 193 255 132 193 255 132 193 255 132 193 255 132 193 255 132 193 255 255 255 255 255 255 255 255 255 255 255 255 255 255 255 255 255 255 255 255 255 255 255 255 255 255 255 255 255 255 255 255 255 255 255 255 255 255 255 255 255 255 255 255 255 255 255 255 255 255 255 255 255 255 255 255 255 255 132 193 255 132 193 255 132 193 255 132 193 255
132 193 255 132 193 255 132 193 255 132 193 255 132 193 255 132 193 255 132 193 255 132 193 255 132 193 255 132 193 255 132 193 255 132 193 255 132 193 255 132 193 255 132 193 255 132 193 255 132 193 255 132 193 255 132 193 255 132 193 255 132 193 255 132 193 255 132 193 255 132 193 255 132 193 255 132 193 255 132 193 255 132 193 255 132 193 255 132 193 255 132 193 255 132 193 255 132 193 255 132 193 255 132 193 255 132 193 255 132 193 255 132 193 255 132 193 255 132 193 255
132 193 255 132 193 255 132 193 255 132 193 255 132 193 255 132 193 255 132 193 255 132 193 255 132 193 255 132 193 255 132 193 255 132 193 255 132 193 255 132 193 255 132 193 255 132 193 255 132 193 255 132 193 255 132 193 255 132 193 255 132 193 255 132 193 255 132 193 255 132 193 255 132 193 255 132 193 255 132 193 255 132 193 255 132 193 255 132 193 255 132 193 255 132 193 255 132 193 255 132 193 255 132 193 255 132 193 255 132 193 255 132 193 255 132 193 255 132 193 255
132 193 255 132 193 255 132 193 255 132 193 255 132 193 255 132 193 255 132 193 255 132 193 255 132 193 255 132 193 255 132 193 255 132 193 255 132 193 255 132 193 255 132 193 255 132 193 255 132 193 255 132 193 255 132 193 255 132 193 255 132 193 255 132 193 255 132 193 255 132 193 255 132 193 255 132 193 255 132 193 255 132 193 255 132 193 255 132 193 255 132 193 255 132 193 255 132 193 255 132 193 255 132 193 255 132 193 255 132 193 255 132 193 255 132 193 255 132 193 255
132 193 255 132 193 255 132 193 255 132 193 255 132 193 255 132 193 255 132 193 255 132 193 255 132 193 255 132 193 255 132 193 255 132 193 255 132 193 255 132 193 255 132 193 255 132 193 255 132 193 255 132 193 255 132 193 255 132 193 255 132 193 255 132 193 255 132 193 255 132 193 255 132 193 255 132 193 255 132 193 255 132 193 255 132 193 255 132 193 255 132 193 255 132 193 255 132 193 255 132 193 255 132 193 255 132 193 255 132 193 255 132 193 255 132 193 255 132 193 255
255 255 255 255 255 255 255 255 255 255 255 255 255 255 255 255 255 255 255 255 255 255 255 255 255 255 255 255 255 255 255 255 255 255 255 255 255 255 255 255 255 255 255 255 255 255 255 255 255 255 255 255 255 255 255 255 255 255 255 255 255 255 255 255 255 255 255 255 255 255 255 255 255 255 255 255 255 255 255 255 255 255 255 255 255 255 255 255 255 255 255 255 255 255 255 255 255 255 255 255 255 255 255 255 255 255 255 255 255 255 255 255 255 255 255 255 255 255 255 255
255 255 255 255 255 255 255 255 255 255 255 255 255 255 255 255 255 255 255 255 255 255 255 255 255 255 255 255 255 255 255 255 255 255 255 255 255 255 255 255 255 255 255 255 255 255 255 255 255 255 255 255 255 255 255 255 255 255 255 255 255 255 255 255 255 255 255 255 255 255 255 255 255 255 255 255 255 255 255 255 255 255 255 255 255 255 255 255 255 255 255 255 255 255 255 255 255 255 255 255 255 255 255 255 255 255 255 255 255 255 255 255 255 255 255 255 255 255 255 255
255 255 255 255 255 255 255 255 255 255 255 255 255 255 255 255 255 255 255 255 255 255 255 255 255 255 255 255 255 255 255 255 255 255 255 255 255 255 255 255 255 255 255 255 255 255 255 255 255 255 255 255 255 255 255 255 255 255 255 255 255 255 255 255 255 255 255 255 255 255 255 255 255 255 255 255 255 255 255 255 255 255 255 255 255 255 255 255 255 255 255 255 255 255 255 255 255 255 255 255 255 255 255 255 255 255 255 255 255 255 255 255 255 255 255 255 255 255 255 255
255 255 255 255 255 255 255 255 255 255 255 255 255 255 255 255 255 255 255 255 255 255 255 255 255 255 255 255 255 255 255 255 255 255 255 255 255 255 255 255 255 255 255 255 255 255 255 255 255 255 255 255 255 255 255 255 255 255 255 255 255 255 255 255 255 255 255 255 255 255 255 255 255 255 255 255 255 255 255 255 255 255 255 255 255 255 255 255 255 255 255 255 255 255 255 255 255 255 255 255 255 255 255 255 255 255 255 255 255 255 255 255 255 255 255 255 255 255 255 255
255 255 255 255 255 255 255 255 255 255 255 255 255 255 255 255 255 255 255 255 255 255 255 255 255 255 255 255 255 255 255 255 255 255 255 255 255 255 255 255 255 255 255 255 255 255 255 255 255 255 255 255 255 255 255 255 255 255 255 255 255 255 255 255 255 255 255 255 255 255 255 255 255 255 255 255 255 255 255 255 255 255 255 255 255 255 255 255 255 255 255 255 255 255 255 255 255 255 255 255 255 255 255 255 255 255 255 255 255 255 255 255 255 255 255 255 255 255 255 255
255 255 255 255 255 255 255 255 255 255 255 255 255 255 255 255 255 255 255 255 255 255 255 255 255 255 255 255 255 255 255 255 255 255 255 255 255 255 255 255 255 255 255 255 255 255 255 255 255 255 255 255 255 255 255 255 255 255 255 255 255 255 255 255 255 255 255 255 255 255 255 255 255 255 255 255 255 255 255 255 255 255 255 255 255 255 255 255 255 255 255 255 255 255 255 255 255 255 255 255 255 255 255 255 255 255 255 255 255 255 255 255 255 255 255 255 255 255 255 255
255 255 255 255 255 255 255 255 255 255 255 255 255 255 255 255 255 255 255 255 255 255 255 255 255 255 255 255 255 255 255 255 255 255 255 255 255 255 255 255 255 255 255 255 255 255 255 255 255 255 255 255 255 255 255 255 255 255 255 255 255 255 255 255 255 255 255 255 255 255 255 255 255 255 255 255 255 255 255 255 255 255 255 255 255 255 255 255 255 255 255 255 255 255 255 255 255 255 255 255 255 255 255 255 255 255 255 255 255 255 255 255 255 255 255 255 255 255 255 255
255 255 255 255 255 255 255 255 255 255 255 255 255 255 255 255 255 255 255 255 255 255 255 255 255 255 255 255 255 255 255 255 255 255 255 255 255 255 255 255 255 255 255 255 255 255 255 255 255 255 255 255 255 255 255 255 255 255 255 255 255 255 255 255 255 255 255 255 255 255 255 255 255 255 255 255 255 255 255 255 255 255 255 255 255 255 255 255 255 255 255 255 255 255 255 255 255 255 255 255 255 255 255 255 255 255 255 255 255 255 255 255 255 255 255 255 255 255 255 255
255 255 255 255 255 255 255 255 255 255 255 255 255 255 255 255 255 255 255 255 255 255 255 255 255 255 255 255 255 255 255 255 255 255 255 255 255 255 255 255 255 255 255 255 255 255 255 255 255 255 255 255 255 255 255 255 255 255 255 255 255 255 255 255 255 255 255 255 255 255 255 255 255 255 255 255 255 255 255 255 255 255 255 255 255 255 255 255 255 255 255 255 255 255 255 255 255 255 255 255 255 255 255 255 255 255 255 255 255 255 255 255 255 255 255 255 255 255 255 255
255 255 255 255 255 255 255 255 255 255 255 255 255 255 255 255 255 255 255 255 255 255 255 255 255 255 255 255 255 255 255 255 255 255 255 255 255 255 255 255 255 255 255 255 255 255 255 255 255 255 255 255 255 255 255 255 255 255 255 255 255 255 255 255 255 255 255 255 255 255 255 255 255 255 255 255 255 255 255 255 255 255 255 255 255 255 255 255 255 255 255 255 255 255 255 255 255 255 255 255 255 255 255 255 255 255 255 255 255 255 255 255 255 255 255 255 255 255 255 255
