P3
50 50
255
255 255 255 151 203 255 151 203 255 151 203 255 151 203 255 151 203 255 151 203 255 151 203 255 151 203 255 151 203 255 151 203 255 151 203 255 151 203 255 151 203 255 255 255 255 255 255 255 255 255 255 255 255 255 255 255 255 255 255 255 255 255 255 255 255 255 255 255 255 255 255 255 255 255 255 255 255 255 255 255 255 255 255 255 255 255 255 255 255 255 255 255 255 255 255 255 255 255 255 255 255 255 255 255 255 255 255 255 151 203 255 151 203 255 151 203 255 151 203 255 151 203 255 151 203 255 151 203 255 151 203 255 132 193 255 132 193 255 132 193 255 132 193 255 132 193 255 132 193 255
151 203 255 151 203 255 151 203 255 151 203 255 151 203 255 151 203 255 151 203 255 151 203 255 151 203 255 151 203 255 151 203 255 151 203 255 151 203 255 151 203 255 255 255 255 255 255 255 255 255 255 255 255 255 255 255 255 255 255 255 255 255 255 255 255 255 255 255 255 255 255 255 255 255 255 255 255 255 255 255 255 255 255 255 255 255 255 255 255 255 255 255 255 255 255 255 255 255 255 255 255 255 255 255 255 255 255 255 151 203 255 151 203 255 151 203 255 151 203 255 151 203 255 151 203 255 132 193 255 132 193 255 132 193 255 132 193 255 132 193 255 132 193 255 132 193 255 132 193 255
151 203 255 151 203 255 151 203 255 151 203 255 151 203 255 151 203 255 151 203 255 151 203 255 151 203 255 151 203 255 151 203 255 151 203 255 151 203 255 151 203 255 255 255 255 255 255 255 255 255 255 255 255 255 255 255 255 255 255 255 255 255 255 255 255 255 255 255 255 255 255 255 255 255 255 255 255 255 255 255 255 255 255 255 255 255 255 255 255 255 255 255 255 255 255 255 255 255 255 255 255 255 255 255 255 255 255 255 151 203 255 151 203 255 151 203 255 151 203 255 151 203 255 132 193 255 132 193 255 132 193 255 132 193 255 132 193 255 132 193 255 132 193 255 132 193 255 132 193 255
151 203 255 151 203 255 151 203 255 151 203 255 151 203 255 151 203 255 151 203 255 151 203 255 151 203 255 151 203 255 151 203 255 151 203 255 151 203 255 151 203 255 255 255 255 255 255 255 255 255 255 255 255 255 255 255 255 255 255 255 255 255 255 255 255 255 255 255 255 255 255 255 255 255 255 255 255 255 255 255 255 255 255 255 255 255 255 255 255 255 255 255 255 255 255 255 255 255 255 255 255 255 255 255 255 255 255 255 151 203 255 151 203 255 151 203 255 132 193 255 132 193 255 132 193 255 132 193 255 132 193 255 132 193 255 132 193 255 132 193 255 132 193 255 132 193 255 132 193 255
151 203 255 151 203 255 151 203 255 151 203 255 151 203 255 151 203 255 151 203 255 151 203 255 151 203 255 151 203 255 151 203 255 151 203 255 151 203 255 151 203 255 255 255 255 255 255 255 255 255 255 255 255 255 255 255 255 255 255 255 255 255 255 255 255 255 255 255 255 255 255 255 255 255 255 255 255 255 255 255 255 255 255 255 255 255 255 255 255 255 255 255 255 255 255 255 255 255 255 255 255 255 255 255 255 255 255 255 151 203 255 151 203 255 132 193 255 132 193 255 132 193 255 132 193 255 132 193 255 132 193 255 132 193 255 132 193 255 132 193 255 132 193 255 132 193 255 132 193 255
151 203 255 151 203 255 151 203 255 151 203 255 151 203 255 151 203 255 151 203 255 151 203 255 151 203 255 151 203 255 151 203 255 151 203 255 151 203 255 151 203 255 255 255 255 255 255 255 255 255 255 255 255 255 255 255 255 255 255 255 255 255 255 255 255 255 255 255 255 255 255 255 255 255 255 255 255 255 255 255 255 255 255 255 255 255 255 255 255 255 255 255 255 255 255 255 255 255 255 255 255 255 255 255 255 255 255 255 151 203 255 132 193 255 132 193 255 132 193 255 132 193 255 132 193 255 132 193 255 132 193 255 132 193 255 132 193 255 132 193 255 132 193 255 132 193 255 132 193 255
151 203 255 151 203 255 151 203 255 151 203 255 151 203 255 151 203 255 151 203 255 151 203 255 151 203 255 151 203 255 151 203 255 151 203 255 151 203 255 151 203 255 255 255 255 255 255 255 255 255 255 255 255 255 255 255 255 255 255 255 255 255 255 255 255 255 255 255 255 255 255 255 255 255 255 255 255 255 255 255 255 255 255 255 255 255 255 255 255 255 255 255 255 255 255 255 255 255 255 255 255 255 255 255 255 255 255 255 132 193 255 132 193 255 132 193 255 132 193 255 132 193 255 132 193 255 132 193 255 132 193 255 132 193 255 132 193 255 132 193 255 132 193 255 132 193 255 132 193 255
151 203 255 151 203 255 151 203 255 151 203 255 151 203 255 151 203 255 151 203 255 151 203 255 151 203 255 151 203 255 151 203 255 151 203 255 151 203 255 151 203 255 151 203 255 255 255 255 255 255 255 255 255 255 255 255 255 255 255 255 255 255 255 255 255 255 255 255 255 255 255 255 255 255 255 255 255 255 255 255 255 255 255 255 255 255 255 255 255 255 255 255 255 255 255 255 255 255 255 255 255 255 255 255 255 255 255 255 132 193 255 132 193 255 132 193 255 132 193 255 132 193 255 132 193 255 132 193 255 132 193 255 132 193 255 132 193 255 132 193 255 132 193 255 132 193 255 132 193 255
151 203 255 151 203 255 151 203 255 151 203 255 151 203 255 151 203 255 151 203 255 151 203 255 151 203 255 151 203 255 151 203 255 151 203 255 151 203 255 151 203 255 151 203 255 151 203 255 151 203 255 151 203 255 151 203 255 151 203 255 151 203 255 151 203 255 151 203 255 255 255 255 255 255 255 255 255 255 255 255 255 255 255 255 255 255 255 255 255 255 255 255 255 255 255 255 255 255 255 255 255 255 255 255 255 255 255 255 132 193 255 132 193 255 132 193 255 132 193 255 132 193 255 132 193 255 132 193 255 132 193 255 132 193 255 132 193 255 132 193 255 132 193 255 132 193 255 132 193 255
151 203 255 151 203 255 151 203 255 151 203 255 151 203 255 151 203 255 151 203 255 151 203 255 151 203 255 151 203 255 151 203 255 151 203 255 151 203 255 151 203 255 151 203 255 151 203 255 151 203 255 151 203 255 151 203 255 151 203 255 151 203 255 151 203 255 151 203 255 255 255 255 255 255 255 255 255 255 255 255 255 255 255 255 255 255 255 255 255 255 255 255 255 255 255 255 255 255 255 255 255 255 255 255 255 255 255 255 132 193 255 132 193 255 132 193 255 132 193 255 132 193 255 132 193 255 132 193 255 132 193 255 132 193 255 132 193 255 132 193 255 132 193 255 132 193 255 132 193 255
151 203 255 151 203 255 151 203 255 151 203 255 151 203 255 151 203 255 151 203 255 151 203 255 151 203 255 151 203 255 151 203 255 151 203 255 151 203 255 151 203 255 151 203 255 151 203 255 151 203 255 151 203 255 151 203 255 151 203 255 151 203 255 151 203 255 151 203 255 255 255 255 255 255 255 255 255 255 255 255 255 255 255 255 255 255 255 255 255 255 255 255 255 255 255 255 255 255 255 255 255 255 255 255 255 255 255 255 132 193 255 132 193 255 132 193 255 132 193 255 132 193 255 132 193 255 132 193 255 132 193 255 132 193 255 132 193 255 132 193 255 132 193 255 132 193 255 132 193 255
151 203 255 151 203 255 151 203 255 151 203 255 151 203 255 151 203 255 151 203 255 151 203 255 151 203 255 151 203 255 151 203 255 151 203 255 151 203 255 151 203 255 151 203 255 151 203 255 151 203 255 151 203 255 151 203 255 151 203 255 151 203 255 151 203 255 151 203 255 255 255 255 255 255 255 255 255 255 255 255 255 255 255 255 255 255 255 255 255 255 255 255 255 255 255 255 255 255 255 255 255 255 255 255 255 255 255 255 132 193 255 132 193 255 132 193 255 132 193 255 132 193 255 132 193 255 132 193 255 132 193 255 132 193 255 132 193 255 132 193 255 132 193 255 132 193 255 132 193 255
151 203 255 151 203 255 151 203 255 151 203 255 151 203 255 151 203 255 151 203 255 151 203 255 151 203 255 151 203 255 151 203 255 151 203 255 151 203 255 151 203 255 151 203 255 151 203 255 151 203 255 151 203 255 151 203 255 151 203 255 151 203 255 151 203 255 151 203 255 255 255 255 255 255 255 255 255 255 255 255 255 255 255 255 255 255 255 255 255 255 255 255 255 255 255 255 255 255 255 255 255 255 255 255 255 255 255 255 132 193 255 132 193 255 132 193 255 132 193 255 132 193 255 132 193 255 132 193 255 132 193 255 132 193 255 132 193 255 132 193 255 132 193 255 132 193 255 132 193 255
151 203 255 151 203 255 151 203 255 151 203 255 151 203 255 151 203 255 151 203 255 151 203 255 151 203 255 151 203 255 151 203 255 151 203 255 151 203 255 151 203 255 151 203 255 151 203 255 151 203 255 151 203 255 151 203 255 151 203 255 151 203 255 151 203 255 151 203 255 255 255 255 255 255 255 255 255 255 255 255 255 255 255 255 255 255 255 255 255 255 255 255 255 255 255 255 255 255 255 255 255 255 255 255 255 255 255 255 132 193 255 132 193 255 132 193 255 132 193 255 132 193 255 132 193 255 132 193 255 132 193 255 132 193 255 132 193 255 132 193 255 132 193 255 132 193 255 132 193 255
151 203 255 151 203 255 151 203 255 151 203 255 151 203 255 151 203 255 151 203 255 151 203 255 151 203 255 151 203 255 151 203 255 151 203 255 151 203 255 151 203 255 151 203 255 151 203 255 151 203 255 151 203 255 151 203 255 151 203 255 151 203 255 151 203 255 151 203 255 255 255 255 255 255 255 255 255 255 255 255 255 255 255 255 255 255 255 255 255 255 255 255 255 255 255 255 255 255 255 255 255 255 255 255 255 255 255 255 132 193 255 132 193 255 132 193 255 132 193 255 132 193 255 132 193 255 132 193 255 132 193 255 132 193 255 132 193 255 132 193 255 132 193 255 132 193 255 132 193 255
151 203 255 151 203 255 151 203 255 151 203 255 151 203 255 151 203 255 151 203 255 151 203 255 151 203 255 151 203 255 151 203 255 151 203 255 151 203 255 151 203 255 151 203 255 151 203 255 151 203 255 151 203 255 151 203 255 151 203 255 151 203 255 151 203 255 151 203 255 255 255 255 255 255 255 255 255 255 255 255 255 255 255 255 255 255 255 255 255 255 255 255 255 255 255 255 255 255 255 255 255 255 255 255 255 255 255 255 132 193 255 132 193 255 132 193 255 132 193 255 132 193 255 132 193 255 132 193 255 132 193 255 132 193 255 132 193 255 132 193 255 132 193 255 132 193 255 132 193 255
151 203 255 151 203 255 151 203 255 151 203 255 151 203 255 151 203 255 151 203 255 151 203 255 151 203 255 151 203 255 151 203 255 151 203 255 151 203 255 151 203 255 151 203 255 151 203 255 151 203 255 151 203 255 151 203 255 151 203 255 151 203 255 151 203 255 151 203 255 255 255 255 255 255 255 255 255 255 255 255 255 255 255 255 255 255 255 255 255 255 255 255 255 255 255 255 255 255 255 255 255 255 255 255 255 255 255 255 132 193 255 132 193 255 132 193 255 132 193 255 132 193 255 132 193 255 132 193 255 132 193 255 132 193 255 132 193 255 132 193 255 132 193 255 132 193 255 132 193 255
151 203 255 151 203 255 151 203 255 151 203 255 151 203 255 151 203 255 151 203 255 151 203 255 151 203 255 151 203 255 151 203 255 151 203 255 151 203 255 151 203 255 151 203 255 151 203 255 151 203 255 151 203 255 151 203 255 151 203 255 151 203 255 151 203 255 151 203 255 255 255 255 255 255 255 255 255 255 255 255 255 255 255 255 255 255 255 255 255 255 255 255 255 255 255 255 255 255 255 255 255 255 255 255 255 255 255 255 132 193 255 132 193 255 132 193 255 132 193 255 132 193 255 132 193 255 132 193 255 132 193 255 132 193 255 132 193 255 132 193 255 132 193 255 132 193 255 132 193 255
151 203 255 151 203 255 151 203 255 151 203 255 151 203 255 151 203 255 151 203 255 151 203 255 151 203 255 151 203 255 151 203 255 151 203 255 151 203 255 151 203 255 151 203 255 151 203 255 151 203 255 151 203 255 151 203 255 151 203 255 151 203 255 151 203 255 151 203 255 255 255 255 255 255 255 255 255 255 255 255 255 255 255 255 255 255 255 255 255 255 255 255 255 255 255 255 255 255 255 255 255 255 255 255 255 255 255 255 132 193 255 132 193 255 132 193 255 132 193 255 132 193 255 132 193 255 132 193 255 132 193 255 132 193 255 132 193 255 132 193 255 132 193 255 132 193 255 132 193 255
151 203 255 151 203 255 151 203 255 151 203 255 151 203 255 151 203 255 151 203 255 151 203 255 151 203 255 151 203 255 151 203 255 151 203 255 151 203 255 151 203 255 151 203 255 151 203 255 151 203 255 151 203 255 151 203 255 151 203 255 151 203 255 151 203 255 151 203 255 255 255 255 255 255 255 255 255 255 255 255 255 255 255 255 255 255 255 255 255 255 255 255 255 255 255 255 255 255 255 255 255 255 255 255 255 255 255 255 132 193 255 132 193 255 132 193 255 132 193 255 132 193 255 132 193 255 132 193 255 132 193 255 132 193 255 132 193 255 132 193 255 132 193 255 132 193 255 132 193 255
151 203 255 151 203 255 151 203 255 151 203 255 151 203 255 151 203 255 151 203 255 151 203 255 151 203 255 151 203 255 151 203 255 151 203 255 151 203 255 151 203 255 151 203 255 151 203 255 151 203 255 151 203 255 151 203 255 151 203 255 151 203 255 151 203 255 151 203 255 255 255 255 255 255 255 255 255 255 255 255 255 255 255 255 255 255 255 255 255 255 255 255 255 255 255 255 255 255 255 255 255 255 255 255 255 255 255 255 132 193 255 132 193 255 132 193 255 132 193 255 132 193 255 132 193 255 132 193 255 132 193 255 132 193 255 132 193 255 132 193 255 132 193 255 132 193 255 132 193 255
151 203 255 151 203 255 151 203 255 151 203 255 151 203 255 151 203 255 151 203 255 151 203 255 151 203 255 151 203 255 151 203 255 151 203 255 151 203 255 151 203 255 151 203 255 151 203 255 255 255 255 255 255 255 255 255 255 255 255 255 255 255 255 255 255 255 255 255 255 255 255 255 255 255 255 255 255 255 255 255 255 255 255 255 255 255 255 255 255 255 255 255 255 255 255 255 255 255 255 255 255 255 255 255 255 255 255 255 132 193 255 132 193 255 132 193 255 132 193 255 132 193 255 132 193 255 132 193 255 132 193 255 132 193 255 132 193 255 132 193 255 132 193 255 132 193 255 132 193 255
151 203 255 151 203 255 151 203 255 151 203 255 151 203 255 151 203 255 151 203 255 151 203 255 151 203 255 151 203 255 151 203 255 151 203 255 151 203 255 151 203 255 151 203 255 151 203 255 255 255 255 255 255 255 255 255 255 255 255 255 255 255 255 255 255 255 255 255 255 255 255 255 255 255 255 255 255 255 255 255 255 255 255 255 255 255 255 255 255 255 255 255 255 255 255 255 255 255 255 255 255 255 255 255 255 255 255 255 132 193 255 132 193 255 132 193 255 132 193 255 132 193 255 132 193 255 132 193 255 132 193 255 132 193 255 132 193 255 132 193 255 132 193 255 132 193 255 132 193 255
151 203 255 151 203 255 151 203 255 151 203 255 151 203 255 151 203 255 151 203 255 151 203 255 151 203 255 151 203 255 151 203 255 151 203 255 151 203 255 151 203 255 151 203 255 151 203 255 255 255 255 255 255 255 255 255 255 255 255 255 255 255 255 255 255 255 255 255 255 255 255 255 255 255 255 255 255 255 255 255 255 255 255 255 255 255 255 255 255 255 255 255 255 255 255 255 255 255 255 255 255 255 255 255 255 255 255 255 255 255 255 132 193 255 132 193 255 132 193 255 132 193 255 132 193 255 132 193 255 132 193 255 132 193 255 132 193 255 132 193 255 132 193 255 132 193 255 132 193 255
151 203 255 151 203 255 151 203 255 151 203 255 151 203 255 151 203 255 151 203 255 151 203 255 151 203 255 151 203 255 151 203 255 151 203 255 151 203 255 151 203 255 151 203 255 151 203 255 255 255 255 255 255 255 255 255 255 255 255 255 255 255 255 255 255 255 255 255 255 255 255 255 255 255 255 255 255 255 255 255 255 255 255 255 255 255 255 255 255 255 255 255 255 255 255 255 255 255 255 255 255 255 255 255 255 255 255 255 255 255 255 132 193 255 132 193 255 132 193 255 132 193 255 132 193 255 132 193 255 132 193 255 132 193 255 132 193 255 132 193 255 132 193 255 132 193 255 132 193 255
151 203 255 151 203 255 151 203 255 151 203 255 151 203 255 151 203 255 151 203 255 151 203 255 151 203 255 151 203 255 151 203 255 151 203 255 151 203 255 151 203 255 151 203 255 151 203 255 255 255 255 255 255 255 255 255 255 255 255 255 255 255 255 255 255 255 255 255 255 255 255 255 255 255 255 255 255 255 255 255 255 255 255 255 255 255 255 255 255 255 255 255 255 255 255 255 255 255 255 255 255 255 255 255 255 255 255 255 255 255 255 132 193 255 132 193 255 132 193 255 132 193 255 132 193 255 132 193 255 132 193 255 132 193 255 132 193 255 132 193 255 132 193 255 132 193 255 132 193 255
151 203 255 151 203 255 151 203 255 151 203 255 151 203 255 151 203 255 151 203 255 151 203 255 151 203 255 151 203 255 151 203 255 151 203 255 151 203 255 151 203 255 151 203 255 151 203 255 255 255 255 255 255 255 255 255 255 255 255 255 255 255 255 255 255 255 255 255 255 255 255 255 255 255 255 255 255 255 255 255 255 255 255 255 255 255 255 255 255 255 255 255 255 255 255 255 255 255 255 255 255 255 255 255 255 255 255 255 255 255 255 132 193 255 132 193 255 132 193 255 132 193 255 132 193 255 132 193 255 132 193 255 132 193 255 132 193 255 132 193 255 132 193 255 132 193 255 132 193 255
151 203 255 151 203 255 151 203 255 151 203 255 151 203 255 151 203 255 151 203 255 151 203 255 151 203 255 151 203 255 151 203 255 151 203 255 151 203 255 151 203 255 151 203 255 151 203 255 255 255 255 255 255 255 255 255 255 255 255 255 255 255 255 255 255 255 255 255 255 255 255 255 255 255 255 255 255 255 255 255 255 255 255 255 255 255 255 255 255 255 255 255 255 255 255 255 255 255 255 255 255 255 255 255 255 255 255 255 255 255 255 132 193 255 132 193 255 132 193 255 132 193 255 132 193 255 132 193 255 132 193 255 132 193 255 132 193 255 132 193 255 132 193 255 132 193 255 132 193 255
151 203 255 151 203 255 151 203 255 151 203 255 151 203 255 151 203 255 151 203 255 151 203 255 151 203 255 151 203 255 151 203 255 151 203 255 151 203 255 151 203 255 151 203 255 151 203 255 255 255 255 255 255 255 255 255 255 255 255 255 255 255 255 255 255 255 255 255 255 255 255 255 255 255 255 255 255 255 255 255 255 255 255 255 255 255 255 255 255 255 255 255 255 255 255 255 255 255 255 255 255 255 255 255 255 255 255 255 255 255 255 132 193 255 132 193 255 132 193 255 132 193 255 132 193 255 132 193 255 132 193 255 132 193 255 132 193 255 132 193 255 132 193 255 132 193 255 132 193 255
151 203 255 151 203 255 151 203 255 151 203 255 151 203 255 151 203 255 151 203 255 151 203 255 151 203 255 151 203 255 151 203 255 151 203 255 151 203 255 151 203 255 151 203 255 151 203 255 255 255 255 255 255 255 255 255 255 255 255 255 255 255 255 255 255 255 255 255 255 255 255 255 255 255 255 255 255 255 255 255 255 255 255 255 255 255 255 255 255 255 255 255 255 255 255 255 255 255 255 255 255 255 255 255 255 255 255 255 255 255 255 132 193 255 132 193 255 132 193 255 132 193 255 132 193 255 132 193 255 132 193 255 132 193 255 132 193 255 132 193 255 132 193 255 132 193 255 132 193 255
151 203 255 151 203 255 151 203 255 151 203 255 151 203 255 151 203 255 151 203 255 151 203 255 151 203 255 151 203 255 151 203 255 151 203 255 151 203 255 151 203 255 151 203 255 151 203 255 255 255 255 255 255 255 255 255 255 255 255 255 255 255 255 255 255 255 255 255 255 255 255 255 255 255 255 255 255 255 255 255 255 255 255 255 255 255 255 255 255 255 255 255 255 255 255 255 255 255 255 255 255 255 255 255 255 255 255 255 255 255 255 132 193 255 132 193 255 132 193 255 132 193 255 132 193 255 132 193 255 132 193 255 132 193 255 132 193 255 132 193 255 132 193 255 132 193 255 132 193 255
151 203 255 151 203 255 151 203 255 151 203 255 151 203 255 151 203 255 151 203 255 151 203 255 151 203 255 151 203 255 151 203 255 151 203 255 151 203 255 151 203 255 151 203 255 151 203 255 255 255 255 255 255 255 255 255 255 255 255 255 255 255 255 255 255 255 255 255 255 255 255 255 255 255 255 255 255 255 255 255 255 255 255 255 255 255 255 255 255 255 255 255 255 255 255 255 255 255 255 255 255 255 255 255 255 255 255 255 255 255 255 132 193 255 132 193 255 132 193 255 132 193 255 132 193 255 132 193 255 132 193 255 132 193 255 132 193 255 132 193 255 132 193 255 132 193 255 132 193 255
151 203 255 151 203 255 151 203 255 151 203 255 151 203 255 151 203 255 151 203 255 151 203 255 151 203 255 151 203 255 151 203 255 151 203 255 151 203 255 151 203 255 151 203 255 151 203 255 255 255 255 255 255 255 255 255 255 255 255 255 255 255 255 255 255 255 255 255 255 255 255 255 255 255 255 255 255 255 255 255 255 255 255 255 255 255 255 255 255 255 255 255 255 255 255 255 255 255 255 255 255 255 255 255 255 255 255 255 255 255 255 132 193 255 132 193 255 132 193 255 132 193 255 132 193 255 132 193 255 132 193 255 132 193 255 132 193 255 132 193 255 132 193 255 132 193 255 132 193 255
151 203 255 151 203 255 151 203 255 151 203 255 151 203 255 151 203 255 151 203 255 151 203 255 151 203 255 151 203 255 151 203 255 151 203 255 151 203 255 151 203 255 151 203 255 151 203 255 255 255 255 255 255 255 255 255 255 255 255 255 255 255 255 255 255 255 255 255 255 255 255 255 255 255 255 255 255 255 255 255 255 255 255 255 255 255 255 255 255 255 255 255 255 255 255 255 255 255 255 255 255 255 255 255 255 255 255 255 255 255 255 132 193 255 132 193 255 132 193 255 132 193 255 132 193 255 132 193 255 132 193 255 132 193 255 132 193 255 132 193 255 132 193 255 132 193 255 132 193 255
151 203 255 151 203 255 151 203 255 151 203 255 151 203 255 151 203 255 151 203 255 151 203 255 151 203 255 151 203 255 151 203 255 151 203 255 151 203 255 151 203 255 151 203 255 151 203 255 255 255 255 255 255 255 255 255 255 255 255 255 255 255 255 255 255 255 255 255 255 255 255 255 255 255 255 255 255 255 255 255 255 255 255 255 255 255 255 255 255 255 255 255 255 255 255 255 255 255 255 255 255 255 255 255 255 255 255 255 255 255 255 132 193 255 132 193 255 132 193 255 132 193 255 132 193 255 132 193 255 132 193 255 132 193 255 132 193 255 132 193 255 132 193 255 132 193 255 132 193 255
132 193 255 132 193 255 132 193 255 132 193 255 151 203 255 151 203 255 151 203 255 151 203 255 151 203 255 151 203 255 151 203 255 151 203 255 151 203 255 151 203 255 151 203 255 151 203 255 151 203 255 255 255 255 255 255 255 255 255 255 255 255 255 255 255 255 255 255 255 255 255 255 255 255 255 255 255 255 255 255 255 255 255 255 255 255 255 255 255 255 255 255 255 255 255 255 255 255 255 255 255 255 255 255 255 255 255 255 132 193 255 132 193 255 132 193 255 132 193 255 132 193 255 132 193 255 132 193 255 132 193 255 132 193 255 132 193 255 132 193 255 132 193 255 132 193 255 132 193 255
132 193 255 132 193 255 132 193 255 132 193 255 132 193 255 132 193 255 151 203 255 151 203 255 151 203 255 151 203 255 151 203 255 151 203 255 151 203 255 151 203 255 151 203 255 151 203 255 151 203 255 151 203 255 151 203 255 151 203 255 151 203 255 151 203 255 151 203 255 151 203 255 151 203 255 151 203 255 151 203 255 151 203 255 151 203 255 151 203 255 151 203 255 151 203 255 151 203 255 151 203 255 151 203 255 151 203 255 151 203 255 151 203 255 151 203 255 151 203 255 151 203 255 151 203 255 151 203 255 151 203 255 151 203 255 151 203 255 151 203 255 151 203 255 151 203 255 151 203 255
132 193 255 132 193 255 132 193 255 132 193 255 132 193 255 132 193 255 132 193 255 132 193 255 132 193 255 151 203 255 151 203 255 151 203 255 151 203 255 151 203 255 151 203 255 151 203 255 151 203 255 151 203 255 151 203 255 151 203 255 151 203 255 151 203 255 151 203 255 151 203 255 151 203 255 151 203 255 151 203 255 151 203 255 151 203 255 151 203 255 151 203 255 151 203 255 151 203 255 151 203 255 151 203 255 151 203 255 151 203 255 151 203 255 151 203 255 151 203 255 151 203 255 151 203 255 151 203 255 151 203 255 151 203 255 151 203 255 151 203 255 151 203 255 151 203 255 151 203 255
132 193 255 132 193 255 132 193 255 132 193 255 132 193 255 132 193 255 132 193 255 132 193 255 132 193 255 132 193 255 132 193 255 151 203 255 151 203 255 151 203 255 151 203 255 151 203 255 151 203 255 151 203 255 151 203 255 151 203 255 151 203 255 151 203 255 151 203 255 151 203 255 151 203 255 151 203 255 151 203 255 151 203 255 151 203 255 151 203 255 151 203 255 151 203 255 151 203 255 151 203 255 151 203 255 151 203 255 151 203 255 151 203 255 151 203 255 151 203 255 151 203 255 151 203 255 151 203 255 151 203 255 151 203 255 151 203 255 151 203 255 151 203 255 151 203 255 151 203 255
132 193 255 132 193 255 132 193 255 132 193 255 132 193 255 132 193 255 132 193 255 132 193 255 132 193 255 132 193 255 132 193 255 132 193 255 132 193 255 151 203 255 151 203 255 151 203 255 151 203 255 151 203 255 151 203 255 151 203 255 151 203 255 151 203 255 151 203 255 151 203 255 151 203 255 151 203 255 151 203 255 151 203 255 151 203 255 151 203 255 151 203 255 151 203 255 151 203 255 151 203 255 151 203 255 151 203 255 151 203 255 151 203 255 151 203 255 151 203 255 151 203 255 151 203 255 151 203 255 151 203 255 151 203 255 151 203 255 151 203 255 151 203 255 151 203 255 151 203 255
132 193 255 132 193 255 132 193 255 132 193 255 132 193 255 132 193 255 132 193 255 132 193 255 132 193 255 132 193 255 132 193 255 132 193 255 132 193 255 132 193 255 132 193 255 151 203 255 151 203 255 151 203 255 151 203 255 151 203 255 151 203 255 151 203 255 151 203 255 151 203 255 151 203 255 151 203 255 151 203 255 151 203 255 151 203 255 151 203 255 151 203 255 151 203 255 151 203 255 151 203 255 151 203 255 151 203 255 151 203 255 151 203 255 151 203 255 151 203 255 151 203 255 151 203 255 151 203 255 151 203 255 151 203 255 151 203 255 151 203 255 151 203 255 151 203 255 151 203 255
132 193 255 132 193 255 132 193 255 132 193 255 132 193 255 132 193 255 132 193 255 132 193 255 132 193 255 132 193 255 132 193 255 132 193 255 132 193 255 132 193 255 132 193 255 132 193 255 151 203 255 151 203 255 151 203 255 151 203 255 151 203 255 151 203 255 151 203 255 151 203 255 151 203 255 151 203 255 151 203 255 151 203 255 151 203 255 151 203 255 151 203 255 151 203 255 151 203 255 151 203 255 151 203 255 151 203 255 151 203 255 151 203 255 151 203 255 151 203 255 151 203 255 151 203 255 151 203 255 151 203 255 151 203 255 151 203 255 151 203 255 151 203 255 151 203 255 151 203 255
132 193 255 132 193 255 132 193 255 132 193 255 132 193 255 132 193 255 132 193 255 132 193 255 132 193 255 132 193 255 132 193 255 132 193 255 132 193 255 132 193 255 132 193 255 132 193 255 132 193 255 151 203 255 151 203 255 151 203 255 151 203 255 151 203 255 151 203 255 151 203 255 151 203 255 151 203 255 151 203 255 151 203 255 151 203 255 151 203 255 151 203 255 151 203 255 151 203 255 151 203 255 151 203 255 151 203 255 151 203 255 151 203 255 151 203 255 151 203 255 151 203 255 151 203 255 151 203 255 151 203 255 151 203 255 151 203 255 151 203 255 151 203 255 151 203 255 151 203 255
132 193 255 132 193 255 132 193 255 132 193 255 132 193 255 132 193 255 132 193 255 132 193 255 132 193 255 132 193 255 132 193 255 132 193 255 132 193 255 132 193 255 132 193 255 132 193 255 132 193 255 151 203 255 151 203 255 151 203 255 151 203 255 151 203 255 151 203 255 151 203 255 151 203 255 151 203 255 151 203 255 151 203 255 151 203 255 151 203 255 151 203 255 151 203 255 151 203 255 151 203 255 151 203 255 151 203 255 151 203 255 151 203 255 151 203 255 151 203 255 151 203 255 151 203 255 151 203 255 151 203 255 151 203 255 151 203 255 151 203 255 151 203 255 151 203 255 151 203 255
132 193 255 132 193 255 132 193 255 132 193 255 132 193 255 132 193 255 132 193 255 132 193 255 132 193 255 132 193 255 132 193 255 132 193 255 132 193 255 132 193 255 132 193 255 132 193 255 132 193 255 151 203 255 151 203 255 151 203 255 151 203 255 151 203 255 151 203 255 151 203 255 151 203 255 151 203 255 151 203 255 151 203 255 151 203 255 151 203 255 151 203 255 151 203 255 151 203 255 151 203 255 151 203 255 151 203 255 151 203 255 151 203 255 151 203 255 151 203 255 151 203 255 151 203 255 151 203 255 151 203 255 151 203 255 151 203 255 151 203 255 151 203 255 151 203 255 151 203 255
132 193 255 132 193 255 132 193 255 132 193 255 132 193 255 132 193 255 132 193 255 132 193 255 132 193 255 132 193 255 132 193 255 132 193 255 132 193 255 132 193 255 132 193 255 132 193 255 132 193 255 132 193 255 151 203 255 151 203 255 151 203 255 151 203 255 151 203 255 151 203 255 151 203 255 151 203 255 151 203 255 151 203 255 151 203 255 151 203 255 151 203 255 151 203 255 151 203 255 151 203 255 151 203 255 151 203 255 151 203 255 151 203 255 151 203 255 151 203 255 151 203 255 151 203 255 151 203 255 151 203 255 151 203 255 151 203 255 151 203 255 151 203 255 151 203 255 151 203 255
132 193 255 132 193 255 132 193 255 132 193 255 132 193 255 132 193 255 132 193 255 132 193 255 132 193 255 132 193 255 132 193 255 132 193 255 132 193 255 132 193 255 132 193 255 132 193 255 132 193 255 132 193 255 151 203 255 151 203 255 151 203 255 151 203 255 151 203 255 151 203 255 151 203 255 151 203 255 151 203 255 151 203 255 151 203 255 151 203 255 151 203 255 151 203 255 151 203 255 151 203 255 151 203 255 151 203 255 151 203 255 151 203 255 151 203 255 151 203 255 151 203 255 151 203 255 151 203 255 151 203 255 151 203 255 151 203 255 151 203 255 151 203 255 151 203 255 151 203 255
132 193 255 132 193 255 132 193 255 132 193 255 132 193 255 132 193 255 132 193 255 132 193 255 132 193 255 132 193 255 132 193 255 132 193 255 132 193 255 132 193 255 132 193 255 132 193 255 132 193 255 132 193 255 151 203 255 151 203 255 151 203 255 151 203 255 151 203 255 151 203 255 151 203 255 151 203 255 151 203 255 151 203 255 151 203 255 151 203 255 151 203 255 151 203 255 151 203 255 151 203 255 151 203 255 151 203 255 151 203 255 151 203 255 151 203 255 151 203 255 151 203 255 151 203 255 151 203 255 151 203 255 151 203 255 151 203 255 151 203 255 151 203 255 151 203 255 151 203 255
132 193 255 132 193 255 132 193 255 132 193 255 132 193 255 132 193 255 132 193 255 132 193 255 132 193 255 132 193 255 132 193 255 132 193 255 132 193 255 132 193 255 132 193 255 132 193 255 132 193 255 132 193 255 151 203 255 151 203 255 151 203 255 151 203 255 151 203 255 151 203 255 151 203 255 151 203 255 151 203 255 151 203 255 151 203 255 151 203 255 151 203 255 151 203 255 151 203 255 151 203 255 151 203 255 151 203 255 151 203 255 151 203 255 151 203 255 151 203 255 151 203 255 151 203 255 151 203 255 151 203 255 151 203 255 151 203 255 151 203 255 151 203 255 151 203 255 151 203 255
132 193 255 132 193 255 132 193 255 132 193 255 132 193 255 132 193 255 132 193 255 132 193 255 132 193 255 132 193 255 132 193 255 132 193 255 132 193 255 132 193 255 132 193 255 132 193 255 132 193 255 132 193 255 151 203 255 151 203 255 151 203 255 151 203 255 151 203 255 151 203 255 151 203 255 151 203 255 151 203 255 151 203 255 151 203 255 151 203 255 151 203 255 151 203 255 151 203 255 151 203 255 151 203 255 151 203 255 151 203 255 151 203 255 151 203 255 151 203 255 151 203 255 151 203 255 151 203 255 151 203 255 151 203 255 151 203 255 151 203 255 151 203 255 151 203 255 151 203 255
