P3
10 10
255
255 255 255 132 193 255 132 193 255 132 193 255 132 193 255 132 193 255 132 193 255 132 193 255 132 193 255 132 193 255
132 193 255 132 193 255 132 193 255 132 193 255 132 193 255 132 193 255 132 193 255 132 193 255 132 193 255 132 193 255
132 193 255 132 193 255 132 193 255 132 193 255 132 193 255 132 193 255 132 193 255 132 193 255 132 193 255 132 193 255
132 193 255 132 193 255 132 193 255 132 193 255 132 193 255 132 193 255 132 193 255 132 193 255 132 193 255 132 193 255
132 193 255 255 255 255 255 255 255 255 255 255 255 255 255 255 255 255 255 255 255 132 193 255 132 193 255 132 193 255
132 193 255 255 255 255 255 255 255 255 255 255 255 255 255 255 255 255 255 255 255 255 255 255 132 193 255 132 193 255
132 193 255 255 255 255 255 255 255 255 255 255 255 255 255 255 255 255 255 255 255 255 255 255 132 193 255 132 193 255
132 193 255 132 193 255 132 193 255 132 193 255 132 193 255 132 193 255 132 193 255 132 193 255 132 193 255 132 193 255
132 193 255 132 193 255 132 193 255 132 193 255 132 193 255 132 193 255 132 193 255 132 193 255 132 193 255 132 193 255
132 193 255 132 193 255 132 193 255 132 193 255 132 193 255 132 193 255 132 193 255 132 193 255 132 193 255 132 193 255
