P3
10 10
255
255 255 255 135 206 250 135 206 250 135 206 250 135 206 250 135 206 250 135 206 250 135 206 250 135 206 250 135 206 250
135 206 250 135 206 250 135 206 250 135 206 250 135 206 250 135 206 250 135 206 250 135 206 250 135 206 250 135 206 250
135 206 250 135 206 250 135 206 250 135 206 250 135 206 250 135 206 250 135 206 250 135 206 250 135 206 250 135 206 250
135 206 250 135 206 250 135 206 250 135 206 250 135 206 250 135 206 250 135 206 250 135 206 250 135 206 250 135 206 250
135 206 250 255 255 255 255 255 255 255 255 255 255 255 255 255 255 255 255 255 255 135 206 250 135 206 250 135 206 250
135 206 250 255 255 255 255 255 255 255 255 255 255 255 255 255 255 255 255 255 255 255 255 255 135 206 250 135 206 250
135 206 250 255 255 255 255 255 255 255 255 255 255 255 255 255 255 255 255 255 255 255 255 255 135 206 250 135 206 250
135 206 250 135 206 250 135 206 250 135 206 250 135 206 250 135 206 250 135 206 250 135 206 250 135 206 250 135 206 250
135 206 250 135 206 250 135 206 250 135 206 250 135 206 250 135 206 250 135 206 250 135 206 250 135 206 250 135 206 250
135 206 250 135 206 250 135 206 250 135 206 250 135 206 250 135 206 250 135 206 250 135 206 250 135 206 250 135 206 250
