P3
10 10
255
255 255 255 102 179 255 102 179 255 102 179 255 102 179 255 102 179 255 102 179 255 102 179 255 102 179 255 102 179 255
102 179 255 102 179 255 102 179 255 102 179 255 255 255 255 255 255 255 255 255 255 255 255 255 255 255 255 102 179 255
102 179 255 102 179 255 102 179 255 102 179 255 255 255 255 255 255 255 255 255 255 255 255 255 255 255 255 102 179 255
102 179 255 255 255 255 255 255 255 255 255 255 255 255 255 255 255 255 255 255 255 255 255 255 255 255 255 102 179 255
102 179 255 255 255 255 255 255 255 255 255 255 255 255 255 255 255 255 255 255 255 255 255 255 255 255 255 102 179 255
102 179 255 255 255 255 255 255 255 255 255 255 255 255 255 255 255 255 255 255 255 255 255 255 255 255 255 102 179 255
102 179 255 255 255 255 255 255 255 255 255 255 255 255 255 255 255 255 255 255 255 255 255 255 255 255 255 102 179 255
102 179 255 255 255 255 255 255 255 255 255 255 255 255 255 255 255 255 255 255 255 102 179 255 102 179 255 102 179 255
102 179 255 102 179 255 102 179 255 102 179 255 102 179 255 102 179 255 102 179 255 102 179 255 102 179 255 102 179 255
102 179 255 102 179 255 102 179 255 102 179 255 102 179 255 102 179 255 102 179 255 102 179 255 102 179 255 102 179 255
