P3
40 50
255
255 255 255 102 179 255 102 179 255 102 179 255 102 179 255 102 179 255 102 179 255 102 179 255 102 179 255 102 179 255 102 179 255 102 179 255 102 179 255 102 179 255 255 255 255 255 255 255 255 255 255 255 255 255 255 255 255 255 255 255 255 255 255 255 255 255 255 255 255 255 255 255 255 255 255 255 255 255 255 255 255 255 255 255 255 255 255 255 255 255 255 255 255 255 255 255 255 255 255 255 255 255 255 255 255 255 255 255 70 163 255 70 163 255 70 163 255 70 163 255
102 179 255 102 179 255 102 179 255 102 179 255 102 179 255 102 179 255 102 179 255 102 179 255 102 179 255 102 179 255 102 179 255 102 179 255 102 179 255 102 179 255 255 255 255 255 255 255 255 255 255 255 255 255 255 255 255 255 255 255 255 255 255 255 255 255 255 255 255 255 255 255 255 255 255 255 255 255 255 255 255 255 255 255 255 255 255 255 255 255 255 255 255 255 255 255 255 255 255 255 255 255 255 255 255 255 255 255 70 163 255 70 163 255 70 163 255 70 163 255
102 179 255 102 179 255 102 179 255 102 179 255 102 179 255 102 179 255 102 179 255 102 179 255 102 179 255 102 179 255 102 179 255 102 179 255 102 179 255 102 179 255 255 255 255 255 255 255 255 255 255 255 255 255 255 255 255 255 255 255 255 255 255 255 255 255 255 255 255 255 255 255 255 255 255 255 255 255 255 255 255 255 255 255 255 255 255 255 255 255 255 255 255 255 255 255 255 255 255 255 255 255 255 255 255 255 255 255 70 163 255 70 163 255 70 163 255 70 163 255
102 179 255 102 179 255 102 179 255 102 179 255 102 179 255 102 179 255 102 179 255 102 179 255 102 179 255 102 179 255 102 179 255 102 179 255 102 179 255 102 179 255 255 255 255 255 255 255 255 255 255 255 255 255 255 255 255 255 255 255 255 255 255 255 255 255 255 255 255 255 255 255 255 255 255 255 255 255 255 255 255 255 255 255 255 255 255 255 255 255 255 255 255 255 255 255 255 255 255 255 255 255 255 255 255 255 255 255 70 163 255 70 163 255 70 163 255 70 163 255
102 179 255 102 179 255 102 179 255 102 179 255 102 179 255 102 179 255 102 179 255 102 179 255 102 179 255 102 179 255 102 179 255 102 179 255 102 179 255 102 179 255 255 255 255 255 255 255 255 255 255 255 255 255 255 255 255 255 255 255 255 255 255 255 255 255 255 255 255 255 255 255 255 255 255 255 255 255 255 255 255 255 255 255 255 255 255 255 255 255 255 255 255 255 255 255 255 255 255 255 255 255 255 255 255 255 255 255 70 163 255 70 163 255 70 163 255 70 163 255
102 179 255 102 179 255 102 179 255 102 179 255 102 179 255 102 179 255 102 179 255 102 179 255 102 179 255 102 179 255 102 179 255 102 179 255 102 179 255 102 179 255 255 255 255 255 255 255 255 255 255 255 255 255 255 255 255 255 255 255 255 255 255 255 255 255 255 255 255 255 255 255 255 255 255 255 255 255 255 255 255 255 255 255 255 255 255 255 255 255 255 255 255 255 255 255 255 255 255 255 255 255 255 255 255 255 255 255 70 163 255 70 163 255 70 163 255 70 163 255
102 179 255 102 179 255 102 179 255 102 179 255 102 179 255 102 179 255 102 179 255 102 179 255 102 179 255 102 179 255 102 179 255 102 179 255 102 179 255 102 179 255 255 255 255 255 255 255 255 255 255 255 255 255 255 255 255 255 255 255 255 255 255 255 255 255 255 255 255 255 255 255 255 255 255 255 255 255 255 255 255 255 255 255 255 255 255 255 255 255 255 255 255 255 255 255 255 255 255 255 255 255 255 255 255 255 255 255 70 163 255 70 163 255 70 163 255 70 163 255
102 179 255 102 179 255 102 179 255 102 179 255 102 179 255 102 179 255 102 179 255 102 179 255 102 179 255 102 179 255 102 179 255 102 179 255 102 179 255 102 179 255 102 179 255 255 255 255 255 255 255 255 255 255 255 255 255 255 255 255 255 255 255 255 255 255 255 255 255 255 255 255 255 255 255 255 255 255 255 255 255 255 255 255 255 255 255 255 255 255 255 255 255 255 255 255 255 255 255 255 255 255 255 255 255 255 255 255 70 163 255 70 163 255 70 163 255 70 163 255
102 179 255 102 179 255 102 179 255 102 179 255 102 179 255 102 179 255 102 179 255 102 179 255 102 179 255 102 179 255 102 179 255 102 179 255 102 179 255 102 179 255 102 179 255 102 179 255 102 179 255 102 179 255 102 179 255 102 179 255 102 179 255 102 179 255 102 179 255 255 255 255 255 255 255 255 255 255 255 255 255 255 255 255 255 255 255 255 255 255 255 255 255 255 255 255 255 255 255 255 255 255 255 255 255 255 255 255 70 163 255 70 163 255 70 163 255 70 163 255
102 179 255 102 179 255 102 179 255 102 179 255 102 179 255 102 179 255 102 179 255 102 179 255 102 179 255 102 179 255 102 179 255 102 179 255 102 179 255 102 179 255 102 179 255 102 179 255 102 179 255 102 179 255 102 179 255 102 179 255 102 179 255 102 179 255 102 179 255 255 255 255 255 255 255 255 255 255 255 255 255 255 255 255 255 255 255 255 255 255 255 255 255 255 255 255 255 255 255 255 255 255 255 255 255 255 255 255 70 163 255 70 163 255 70 163 255 70 163 255
102 179 255 102 179 255 102 179 255 102 179 255 102 179 255 102 179 255 102 179 255 102 179 255 102 179 255 102 179 255 102 179 255 102 179 255 102 179 255 102 179 255 102 179 255 102 179 255 102 179 255 102 179 255 102 179 255 102 179 255 102 179 255 102 179 255 102 179 255 255 255 255 255 255 255 255 255 255 255 255 255 255 255 255 255 255 255 255 255 255 255 255 255 255 255 255 255 255 255 255 255 255 255 255 255 255 255 255 70 163 255 70 163 255 70 163 255 70 163 255
102 179 255 102 179 255 102 179 255 102 179 255 102 179 255 102 179 255 102 179 255 102 179 255 102 179 255 102 179 255 102 179 255 102 179 255 102 179 255 102 179 255 102 179 255 102 179 255 102 179 255 102 179 255 102 179 255 102 179 255 102 179 255 102 179 255 102 179 255 255 255 255 255 255 255 255 255 255 255 255 255 255 255 255 255 255 255 255 255 255 255 255 255 255 255 255 255 255 255 255 255 255 255 255 255 255 255 255 70 163 255 70 163 255 70 163 255 70 163 255
102 179 255 102 179 255 102 179 255 102 179 255 102 179 255 102 179 255 102 179 255 102 179 255 102 179 255 102 179 255 102 179 255 102 179 255 102 179 255 102 179 255 102 179 255 102 179 255 102 179 255 102 179 255 102 179 255 102 179 255 102 179 255 102 179 255 102 179 255 255 255 255 255 255 255 255 255 255 255 255 255 255 255 255 255 255 255 255 255 255 255 255 255 255 255 255 255 255 255 255 255 255 255 255 255 255 255 255 70 163 255 70 163 255 70 163 255 70 163 255
102 179 255 102 179 255 102 179 255 102 179 255 102 179 255 102 179 255 102 179 255 102 179 255 102 179 255 102 179 255 102 179 255 102 179 255 102 179 255 102 179 255 102 179 255 102 179 255 102 179 255 102 179 255 102 179 255 102 179 255 102 179 255 102 179 255 102 179 255 255 255 255 255 255 255 255 255 255 255 255 255 255 255 255 255 255 255 255 255 255 255 255 255 255 255 255 255 255 255 255 255 255 255 255 255 255 255 255 70 163 255 70 163 255 70 163 255 70 163 255
102 179 255 102 179 255 102 179 255 102 179 255 102 179 255 102 179 255 102 179 255 102 179 255 102 179 255 102 179 255 102 179 255 102 179 255 102 179 255 102 179 255 102 179 255 102 179 255 102 179 255 102 179 255 102 179 255 102 179 255 102 179 255 102 179 255 102 179 255 255 255 255 255 255 255 255 255 255 255 255 255 255 255 255 255 255 255 255 255 255 255 255 255 255 255 255 255 255 255 255 255 255 255 255 255 255 255 255 70 163 255 70 163 255 70 163 255 70 163 255
102 179 255 102 179 255 102 179 255 102 179 255 102 179 255 102 179 255 102 179 255 102 179 255 102 179 255 102 179 255 102 179 255 102 179 255 102 179 255 102 179 255 102 179 255 102 179 255 102 179 255 102 179 255 102 179 255 102 179 255 102 179 255 102 179 255 102 179 255 255 255 255 255 255 255 255 255 255 255 255 255 255 255 255 255 255 255 255 255 255 255 255 255 255 255 255 255 255 255 255 255 255 255 255 255 255 255 255 70 163 255 70 163 255 70 163 255 70 163 255
102 179 255 102 179 255 102 179 255 102 179 255 102 179 255 102 179 255 102 179 255 102 179 255 102 179 255 102 179 255 102 179 255 102 179 255 102 179 255 102 179 255 102 179 255 102 179 255 102 179 255 102 179 255 102 179 255 102 179 255 102 179 255 102 179 255 102 179 255 255 255 255 255 255 255 255 255 255 255 255 255 255 255 255 255 255 255 255 255 255 255 255 255 255 255 255 255 255 255 255 255 255 255 255 255 255 255 255 70 163 255 70 163 255 70 163 255 70 163 255
102 179 255 102 179 255 102 179 255 102 179 255 102 179 255 102 179 255 102 179 255 102 179 255 102 179 255 102 179 255 102 179 255 102 179 255 102 179 255 102 179 255 102 179 255 102 179 255 102 179 255 102 179 255 102 179 255 102 179 255 102 179 255 102 179 255 102 179 255 255 255 255 255 255 255 255 255 255 255 255 255 255 255 255 255 255 255 255 255 255 255 255 255 255 255 255 255 255 255 255 255 255 255 255 255 255 255 255 70 163 255 70 163 255 70 163 255 70 163 255
102 179 255 102 179 255 102 179 255 102 179 255 102 179 255 102 179 255 102 179 255 102 179 255 102 179 255 102 179 255 102 179 255 102 179 255 102 179 255 102 179 255 102 179 255 102 179 255 102 179 255 102 179 255 102 179 255 102 179 255 102 179 255 102 179 255 102 179 255 255 255 255 255 255 255 255 255 255 255 255 255 255 255 255 255 255 255 255 255 255 255 255 255 255 255 255 255 255 255 255 255 255 255 255 255 255 255 255 70 163 255 70 163 255 70 163 255 70 163 255
102 179 255 102 179 255 102 179 255 102 179 255 102 179 255 102 179 255 102 179 255 102 179 255 102 179 255 102 179 255 102 179 255 102 179 255 102 179 255 102 179 255 102 179 255 102 179 255 102 179 255 102 179 255 102 179 255 102 179 255 102 179 255 102 179 255 102 179 255 255 255 255 255 255 255 255 255 255 255 255 255 255 255 255 255 255 255 255 255 255 255 255 255 255 255 255 255 255 255 255 255 255 255 255 255 255 255 255 70 163 255 70 163 255 70 163 255 70 163 255
102 179 255 102 179 255 102 179 255 102 179 255 102 179 255 102 179 255 102 179 255 102 179 255 102 179 255 102 179 255 102 179 255 102 179 255 102 179 255 102 179 255 102 179 255 102 179 255 102 179 255 102 179 255 102 179 255 102 179 255 102 179 255 102 179 255 102 179 255 255 255 255 255 255 255 255 255 255 255 255 255 255 255 255 255 255 255 255 255 255 255 255 255 255 255 255 255 255 255 255 255 255 255 255 255 255 255 255 70 163 255 70 163 255 70 163 255 70 163 255
102 179 255 102 179 255 102 179 255 102 179 255 102 179 255 102 179 255 102 179 255 102 179 255 102 179 255 102 179 255 102 179 255 102 179 255 102 179 255 102 179 255 102 179 255 102 179 255 255 255 255 255 255 255 255 255 255 255 255 255 255 255 255 255 255 255 255 255 255 255 255 255 255 255 255 255 255 255 255 255 255 255 255 255 255 255 255 255 255 255 255 255 255 255 255 255 255 255 255 255 255 255 255 255 255 255 255 255 70 163 255 70 163 255 70 163 255 70 163 255
102 179 255 102 179 255 102 179 255 102 179 255 102 179 255 102 179 255 102 179 255 102 179 255 102 179 255 102 179 255 102 179 255 102 179 255 102 179 255 102 179 255 102 179 255 102 179 255 255 255 255 255 255 255 255 255 255 255 255 255 255 255 255 255 255 255 255 255 255 255 255 255 255 255 255 255 255 255 255 255 255 255 255 255 255 255 255 255 255 255 255 255 255 255 255 255 255 255 255 255 255 255 255 255 255 255 255 255 70 163 255 70 163 255 70 163 255 70 163 255
102 179 255 102 179 255 102 179 255 102 179 255 102 179 255 102 179 255 102 179 255 102 179 255 102 179 255 102 179 255 102 179 255 102 179 255 102 179 255 102 179 255 102 179 255 102 179 255 255 255 255 255 255 255 255 255 255 255 255 255 255 255 255 255 255 255 255 255 255 255 255 255 255 255 255 255 255 255 255 255 255 255 255 255 255 255 255 255 255 255 255 255 255 255 255 255 255 255 255 255 255 255 255 255 255 255 255 255 255 255 255 70 163 255 70 163 255 70 163 255
102 179 255 102 179 255 102 179 255 102 179 255 102 179 255 102 179 255 102 179 255 102 179 255 102 179 255 102 179 255 102 179 255 102 179 255 102 179 255 102 179 255 102 179 255 102 179 255 255 255 255 255 255 255 255 255 255 255 255 255 255 255 255 255 255 255 255 255 255 255 255 255 255 255 255 255 255 255 255 255 255 255 255 255 255 255 255 255 255 255 255 255 255 255 255 255 255 255 255 255 255 255 255 255 255 255 255 255 255 255 255 70 163 255 70 163 255 70 163 255
102 179 255 102 179 255 102 179 255 102 179 255 102 179 255 102 179 255 102 179 255 102 179 255 102 179 255 102 179 255 102 179 255 102 179 255 102 179 255 102 179 255 102 179 255 102 179 255 255 255 255 255 255 255 255 255 255 255 255 255 255 255 255 255 255 255 255 255 255 255 255 255 255 255 255 255 255 255 255 255 255 255 255 255 255 255 255 255 255 255 255 255 255 255 255 255 255 255 255 255 255 255 255 255 255 255 255 255 255 255 255 102 179 255 102 179 255 102 179 255
102 179 255 102 179 255 102 179 255 102 179 255 102 179 255 102 179 255 102 179 255 102 179 255 102 179 255 102 179 255 102 179 255 102 179 255 102 179 255 102 179 255 102 179 255 102 179 255 255 255 255 255 255 255 255 255 255 255 255 255 255 255 255 255 255 255 255 255 255 255 255 255 255 255 255 255 255 255 255 255 255 255 255 255 255 255 255 255 255 255 255 255 255 255 255 255 255 255 255 255 255 255 255 255 255 255 255 255 255 255 255 102 179 255 102 179 255 102 179 255
102 179 255 102 179 255 102 179 255 102 179 255 102 179 255 102 179 255 102 179 255 102 179 255 102 179 255 102 179 255 102 179 255 102 179 255 102 179 255 102 179 255 102 179 255 102 179 255 255 255 255 255 255 255 255 255 255 255 255 255 255 255 255 255 255 255 255 255 255 255 255 255 255 255 255 255 255 255 255 255 255 255 255 255 255 255 255 255 255 255 255 255 255 255 255 255 255 255 255 255 255 255 255 255 255 255 255 255 255 255 255 102 179 255 102 179 255 102 179 255
102 179 255 102 179 255 102 179 255 102 179 255 102 179 255 102 179 255 102 179 255 102 179 255 102 179 255 102 179 255 102 179 255 102 179 255 102 179 255 102 179 255 102 179 255 102 179 255 255 255 255 255 255 255 255 255 255 255 255 255 255 255 255 255 255 255 255 255 255 255 255 255 255 255 255 255 255 255 255 255 255 255 255 255 255 255 255 255 255 255 255 255 255 255 255 255 255 255 255 255 255 255 255 255 255 255 255 255 255 255 255 102 179 255 102 179 255 102 179 255
102 179 255 102 179 255 102 179 255 102 179 255 102 179 255 102 179 255 102 179 255 102 179 255 102 179 255 102 179 255 102 179 255 102 179 255 102 179 255 102 179 255 102 179 255 102 179 255 255 255 255 255 255 255 255 255 255 255 255 255 255 255 255 255 255 255 255 255 255 255 255 255 255 255 255 255 255 255 255 255 255 255 255 255 255 255 255 255 255 255 255 255 255 255 255 255 255 255 255 255 255 255 255 255 255 255 255 255 255 255 255 102 179 255 102 179 255 102 179 255
102 179 255 102 179 255 102 179 255 102 179 255 102 179 255 102 179 255 102 179 255 102 179 255 102 179 255 102 179 255 102 179 255 102 179 255 102 179 255 102 179 255 102 179 255 102 179 255 255 255 255 255 255 255 255 255 255 255 255 255 255 255 255 255 255 255 255 255 255 255 255 255 255 255 255 255 255 255 255 255 255 255 255 255 255 255 255 255 255 255 255 255 255 255 255 255 255 255 255 255 255 255 255 255 255 255 255 255 255 255 255 102 179 255 102 179 255 102 179 255
102 179 255 102 179 255 102 179 255 102 179 255 102 179 255 102 179 255 102 179 255 102 179 255 102 179 255 102 179 255 102 179 255 102 179 255 102 179 255 102 179 255 102 179 255 102 179 255 255 255 255 255 255 255 255 255 255 255 255 255 255 255 255 255 255 255 255 255 255 255 255 255 255 255 255 255 255 255 255 255 255 255 255 255 255 255 255 255 255 255 255 255 255 255 255 255 255 255 255 255 255 255 255 255 255 255 255 255 255 255 255 102 179 255 102 179 255 102 179 255
102 179 255 102 179 255 102 179 255 102 179 255 102 179 255 102 179 255 102 179 255 102 179 255 102 179 255 102 179 255 102 179 255 102 179 255 102 179 255 102 179 255 102 179 255 102 179 255 255 255 255 255 255 255 255 255 255 255 255 255 255 255 255 255 255 255 255 255 255 255 255 255 255 255 255 255 255 255 255 255 255 255 255 255 255 255 255 255 255 255 255 255 255 255 255 255 255 255 255 255 255 255 255 255 255 255 255 255 255 255 255 102 179 255 102 179 255 102 179 255
102 179 255 102 179 255 102 179 255 102 179 255 102 179 255 102 179 255 102 179 255 102 179 255 102 179 255 102 179 255 102 179 255 102 179 255 102 179 255 102 179 255 102 179 255 102 179 255 255 255 255 255 255 255 255 255 255 255 255 255 255 255 255 255 255 255 255 255 255 255 255 255 255 255 255 255 255 255 255 255 255 255 255 255 255 255 255 255 255 255 255 255 255 255 255 255 255 255 255 255 255 255 255 255 255 255 255 255 255 255 255 102 179 255 102 179 255 102 179 255
102 179 255 102 179 255 102 179 255 102 179 255 102 179 255 102 179 255 102 179 255 102 179 255 102 179 255 102 179 255 102 179 255 102 179 255 102 179 255 102 179 255 102 179 255 102 179 255 255 255 255 255 255 255 255 255 255 255 255 255 255 255 255 255 255 255 255 255 255 255 255 255 255 255 255 255 255 255 255 255 255 255 255 255 255 255 255 255 255 255 255 255 255 255 255 255 255 255 255 255 255 255 255 255 255 255 255 255 255 255 255 102 179 255 102 179 255 102 179 255
102 179 255 102 179 255 102 179 255 102 179 255 102 179 255 102 179 255 102 179 255 102 179 255 102 179 255 102 179 255 102 179 255 102 179 255 102 179 255 102 179 255 102 179 255 102 179 255 102 179 255 255 255 255 255 255 255 255 255 255 255 255 255 255 255 255 255 255 255 255 255 255 255 255 255 255 255 255 255 255 255 255 255 255 255 255 255 255 255 255 255 255 255 255 255 255 255 255 255 255 255 255 255 255 255 255 255 255 102 179 255 102 179 255 102 179 255 102 179 255
102 179 255 102 179 255 102 179 255 102 179 255 102 179 255 102 179 255 102 179 255 102 179 255 102 179 255 102 179 255 102 179 255 102 179 255 102 179 255 102 179 255 102 179 255 102 179 255 102 179 255 102 179 255 102 179 255 102 179 255 102 179 255 102 179 255 102 179 255 102 179 255 102 179 255 102 179 255 102 179 255 102 179 255 102 179 255 102 179 255 102 179 255 102 179 255 102 179 255 102 179 255 102 179 255 102 179 255 102 179 255 102 179 255 102 179 255 102 179 255
102 179 255 102 179 255 102 179 255 102 179 255 102 179 255 102 179 255 102 179 255 102 179 255 102 179 255 102 179 255 102 179 255 102 179 255 102 179 255 102 179 255 102 179 255 102 179 255 102 179 255 102 179 255 102 179 255 102 179 255 102 179 255 102 179 255 102 179 255 102 179 255 102 179 255 102 179 255 102 179 255 102 179 255 102 179 255 102 179 255 102 179 255 102 179 255 102 179 255 102 179 255 102 179 255 102 179 255 102 179 255 102 179 255 102 179 255 102 179 255
102 179 255 102 179 255 102 179 255 102 179 255 102 179 255 102 179 255 102 179 255 102 179 255 102 179 255 102 179 255 102 179 255 102 179 255 102 179 255 102 179 255 102 179 255 102 179 255 102 179 255 102 179 255 102 179 255 102 179 255 102 179 255 102 179 255 102 179 255 102 179 255 102 179 255 102 179 255 102 179 255 102 179 255 102 179 255 102 179 255 102 179 255 102 179 255 102 179 255 102 179 255 102 179 255 102 179 255 102 179 255 102 179 255 102 179 255 102 179 255
102 179 255 102 179 255 102 179 255 102 179 255 102 179 255 102 179 255 102 179 255 102 179 255 102 179 255 102 179 255 102 179 255 102 179 255 102 179 255 102 179 255 102 179 255 102 179 255 102 179 255 102 179 255 102 179 255 102 179 255 102 179 255 102 179 255 102 179 255 102 179 255 102 179 255 102 179 255 102 179 255 102 179 255 102 179 255 102 179 255 102 179 255 102 179 255 102 179 255 102 179 255 102 179 255 102 179 255 102 179 255 102 179 255 102 179 255 102 179 255
255 255 255 255 255 255 255 255 255 255 255 255 255 255 255 255 255 255 255 255 255 255 255 255 255 255 255 255 255 255 255 255 255 255 255 255 255 255 255 255 255 255 255 255 255 255 255 255 255 255 255 255 255 255 255 255 255 255 255 255 255 255 255 255 255 255 255 255 255 255 255 255 255 255 255 255 255 255 255 255 255 255 255 255 255 255 255 255 255 255 255 255 255 255 255 255 255 255 255 255 255 255 255 255 255 255 255 255 255 255 255 255 255 255 255 255 255 255 255 255
255 255 255 255 255 255 255 255 255 255 255 255 255 255 255 255 255 255 255 255 255 255 255 255 255 255 255 255 255 255 255 255 255 255 255 255 255 255 255 255 255 255 255 255 255 255 255 255 255 255 255 255 255 255 255 255 255 255 255 255 255 255 255 255 255 255 255 255 255 255 255 255 255 255 255 255 255 255 255 255 255 255 255 255 255 255 255 255 255 255 255 255 255 255 255 255 255 255 255 255 255 255 255 255 255 255 255 255 255 255 255 255 255 255 255 255 255 255 255 255
255 255 255 255 255 255 255 255 255 255 255 255 255 255 255 255 255 255 255 255 255 255 255 255 255 255 255 255 255 255 255 255 255 255 255 255 255 255 255 255 255 255 255 255 255 255 255 255 255 255 255 255 255 255 255 255 255 255 255 255 255 255 255 255 255 255 255 255 255 255 255 255 255 255 255 255 255 255 255 255 255 255 255 255 255 255 255 255 255 255 255 255 255 255 255 255 255 255 255 255 255 255 255 255 255 255 255 255 255 255 255 255 255 255 255 255 255 255 255 255
255 255 255 255 255 255 255 255 255 255 255 255 255 255 255 255 255 255 255 255 255 255 255 255 255 255 255 255 255 255 255 255 255 255 255 255 255 255 255 255 255 255 255 255 255 255 255 255 255 255 255 255 255 255 255 255 255 255 255 255 255 255 255 255 255 255 255 255 255 255 255 255 255 255 255 255 255 255 255 255 255 255 255 255 255 255 255 255 255 255 255 255 255 255 255 255 255 255 255 255 255 255 255 255 255 255 255 255 255 255 255 255 255 255 255 255 255 255 255 255
255 255 255 255 255 255 255 255 255 255 255 255 255 255 255 255 255 255 255 255 255 255 255 255 255 255 255 255 255 255 255 255 255 255 255 255 255 255 255 255 255 255 255 255 255 255 255 255 255 255 255 255 255 255 255 255 255 255 255 255 255 255 255 255 255 255 255 255 255 255 255 255 255 255 255 255 255 255 255 255 255 255 255 255 255 255 255 255 255 255 255 255 255 255 255 255 255 255 255 255 255 255 255 255 255 255 255 255 255 255 255 255 255 255 255 255 255 255 255 255
255 255 255 255 255 255 255 255 255 255 255 255 255 255 255 255 255 255 255 255 255 255 255 255 255 255 255 255 255 255 255 255 255 255 255 255 255 255 255 255 255 255 255 255 255 255 255 255 255 255 255 255 255 255 255 255 255 255 255 255 255 255 255 255 255 255 255 255 255 255 255 255 255 255 255 255 255 255 255 255 255 255 255 255 255 255 255 255 255 255 255 255 255 255 255 255 255 255 255 255 255 255 255 255 255 255 255 255 255 255 255 255 255 255 255 255 255 255 255 255
255 255 255 255 255 255 255 255 255 255 255 255 255 255 255 255 255 255 255 255 255 255 255 255 255 255 255 255 255 255 255 255 255 255 255 255 255 255 255 255 255 255 255 255 255 255 255 255 255 255 255 255 255 255 255 255 255 255 255 255 255 255 255 255 255 255 255 255 255 255 255 255 255 255 255 255 255 255 255 255 255 255 255 255 255 255 255 255 255 255 255 255 255 255 255 255 255 255 255 255 255 255 255 255 255 255 255 255 255 255 255 255 255 255 255 255 255 255 255 255
255 255 255 255 255 255 255 255 255 255 255 255 255 255 255 255 255 255 255 255 255 255 255 255 255 255 255 255 255 255 255 255 255 255 255 255 255 255 255 255 255 255 255 255 255 255 255 255 255 255 255 255 255 255 255 255 255 255 255 255 255 255 255 255 255 255 255 255 255 255 255 255 255 255 255 255 255 255 255 255 255 255 255 255 255 255 255 255 255 255 255 255 255 255 255 255 255 255 255 255 255 255 255 255 255 255 255 255 255 255 255 255 255 255 255 255 255 255 255 255
255 255 255 255 255 255 255 255 255 255 255 255 255 255 255 255 255 255 255 255 255 255 255 255 255 255 255 255 255 255 255 255 255 255 255 255 255 255 255 255 255 255 255 255 255 255 255 255 255 255 255 255 255 255 255 255 255 255 255 255 255 255 255 255 255 255 255 255 255 255 255 255 255 255 255 255 255 255 255 255 255 255 255 255 255 255 255 255 255 255 255 255 255 255 255 255 255 255 255 255 255 255 255 255 255 255 255 255 255 255 255 255 255 255 255 255 255 255 255 255
255 255 255 255 255 255 255 255 255 255 255 255 255 255 255 255 255 255 255 255 255 255 255 255 255 255 255 255 255 255 255 255 255 255 255 255 255 255 255 255 255 255 255 255 255 255 255 255 255 255 255 255 255 255 255 255 255 255 255 255 255 255 255 255 255 255 255 255 255 255 255 255 255 255 255 255 255 255 255 255 255 255 255 255 255 255 255 255 255 255 255 255 255 255 255 255 255 255 255 255 255 255 255 255 255 255 255 255 255 255 255 255 255 255 255 255 255 255 255 255
