P3
40 50
255
255 255 255 132 193 255 102 179 255 0 128 255 102 179 255 70 163 255 132 193 255 40 148 255 0 128 255 151 203 255 132 193 255 40 148 255 151 203 255 151 203 255 255 255 255 255 255 255 255 255 255 255 255 255 255 255 255 255 255 255 255 255 255 255 255 255 255 255 255 255 255 255 255 255 255 255 255 255 255 255 255 255 255 255 255 255 255 255 255 255 255 255 255 255 255 255 255 255 255 255 255 255 255 255 255 255 255 255 102 179 255 132 193 255 151 203 255 132 193 255
151 203 255 40 148 255 132 193 255 151 203 255 151 203 255 132 193 255 102 179 255 40 148 255 102 179 255 151 203 255 102 179 255 151 203 255 132 193 255 70 163 255 255 255 255 255 255 255 255 255 255 255 255 255 255 255 255 255 255 255 255 255 255 255 255 255 255 255 255 255 255 255 255 255 255 255 255 255 255 255 255 255 255 255 255 255 255 255 255 255 255 255 255 255 255 255 255 255 255 255 255 255 255 255 255 255 255 255 40 148 255 132 193 255 40 148 255 151 203 255
40 148 255 70 163 255 40 148 255 0 128 255 151 203 255 151 203 255 70 163 255 132 193 255 151 203 255 132 193 255 40 148 255 70 163 255 151 203 255 151 203 255 255 255 255 255 255 255 255 255 255 255 255 255 255 255 255 255 255 255 255 255 255 255 255 255 255 255 255 255 255 255 255 255 255 255 255 255 255 255 255 255 255 255 255 255 255 255 255 255 255 255 255 255 255 255 255 255 255 255 255 255 255 255 255 255 255 255 70 163 255 0 128 255 40 148 255 102 179 255
0 128 255 70 163 255 40 148 255 0 128 255 132 193 255 151 203 255 132 193 255 40 148 255 132 193 255 132 193 255 151 203 255 132 193 255 102 179 255 132 193 255 255 255 255 255 255 255 255 255 255 255 255 255 255 255 255 255 255 255 255 255 255 255 255 255 255 255 255 255 255 255 255 255 255 255 255 255 255 255 255 255 255 255 255 255 255 255 255 255 255 255 255 255 255 255 255 255 255 255 255 255 255 255 255 255 255 255 151 203 255 40 148 255 70 163 255 70 163 255
132 193 255 70 163 255 151 203 255 102 179 255 151 203 255 151 203 255 151 203 255 151 203 255 132 193 255 102 179 255 70 163 255 102 179 255 151 203 255 0 128 255 255 255 255 255 255 255 255 255 255 255 255 255 255 255 255 255 255 255 255 255 255 255 255 255 255 255 255 255 255 255 255 255 255 255 255 255 255 255 255 255 255 255 255 255 255 255 255 255 255 255 255 255 255 255 255 255 255 255 255 255 255 255 255 255 255 255 40 148 255 40 148 255 40 148 255 132 193 255
151 203 255 102 179 255 132 193 255 102 179 255 102 179 255 132 193 255 40 148 255 151 203 255 102 179 255 70 163 255 40 148 255 102 179 255 40 148 255 0 128 255 255 255 255 255 255 255 255 255 255 255 255 255 255 255 255 255 255 255 255 255 255 255 255 255 255 255 255 255 255 255 255 255 255 255 255 255 255 255 255 255 255 255 255 255 255 255 255 255 255 255 255 255 255 255 255 255 255 255 255 255 255 255 255 255 255 255 132 193 255 132 193 255 151 203 255 102 179 255
0 128 255 132 193 255 40 148 255 70 163 255 102 179 255 132 193 255 151 203 255 196 225 255 151 203 255 151 203 255 40 148 255 151 203 255 40 148 255 151 203 255 255 255 255 255 255 255 255 255 255 255 255 255 255 255 255 255 255 255 255 255 255 255 255 255 255 255 255 255 255 255 255 255 255 255 255 255 255 255 255 255 255 255 255 255 255 255 255 255 255 255 255 255 255 255 255 255 255 255 255 255 255 255 255 255 255 255 70 163 255 151 203 255 102 179 255 151 203 255
132 193 255 132 193 255 132 193 255 151 203 255 70 163 255 70 163 255 132 193 255 151 203 255 151 203 255 102 179 255 0 128 255 132 193 255 151 203 255 70 163 255 70 163 255 255 255 255 255 255 255 255 255 255 255 255 255 255 255 255 255 255 255 255 255 255 255 255 255 255 255 255 255 255 255 255 255 255 255 255 255 255 255 255 255 255 255 255 255 255 255 255 255 255 255 255 255 255 255 255 255 255 255 255 255 255 255 255 102 179 255 132 193 255 151 203 255 151 203 255
132 193 255 132 193 255 102 179 255 132 193 255 0 128 255 70 163 255 132 193 255 102 179 255 151 203 255 151 203 255 151 203 255 151 203 255 102 179 255 40 148 255 132 193 255 102 179 255 102 179 255 0 128 255 70 163 255 132 193 255 40 148 255 151 203 255 40 148 255 255 255 255 255 255 255 255 255 255 255 255 255 255 255 255 255 255 255 255 255 255 255 255 255 255 255 255 255 255 255 255 255 255 255 255 255 255 255 255 132 193 255 151 203 255 70 163 255 132 193 255
151 203 255 132 193 255 40 148 255 151 203 255 132 193 255 151 203 255 132 193 255 70 163 255 132 193 255 70 163 255 132 193 255 70 163 255 151 203 255 132 193 255 102 179 255 132 193 255 70 163 255 0 128 255 132 193 255 151 203 255 70 163 255 70 163 255 70 163 255 255 255 255 255 255 255 255 255 255 255 255 255 255 255 255 255 255 255 255 255 255 255 255 255 255 255 255 255 255 255 255 255 255 255 255 255 255 255 255 151 203 255 151 203 255 70 163 255 102 179 255
0 128 255 132 193 255 132 193 255 70 163 255 70 163 255 151 203 255 132 193 255 151 203 255 132 193 255 132 193 255 70 163 255 151 203 255 70 163 255 102 179 255 70 163 255 132 193 255 151 203 255 70 163 255 132 193 255 132 193 255 151 203 255 151 203 255 132 193 255 255 255 255 255 255 255 255 255 255 255 255 255 255 255 255 255 255 255 255 255 255 255 255 255 255 255 255 255 255 255 255 255 255 255 255 255 255 255 255 70 163 255 0 128 255 40 148 255 40 148 255
132 193 255 132 193 255 40 148 255 40 148 255 151 203 255 132 193 255 151 203 255 70 163 255 132 193 255 70 163 255 70 163 255 102 179 255 102 179 255 132 193 255 70 163 255 40 148 255 102 179 255 40 148 255 151 203 255 151 203 255 40 148 255 40 148 255 151 203 255 255 255 255 255 255 255 255 255 255 255 255 255 255 255 255 255 255 255 255 255 255 255 255 255 255 255 255 255 255 255 255 255 255 255 255 255 255 255 255 132 193 255 40 148 255 102 179 255 0 128 255
0 128 255 132 193 255 102 179 255 0 128 255 40 148 255 102 179 255 132 193 255 70 163 255 102 179 255 132 193 255 151 203 255 132 193 255 132 193 255 102 179 255 151 203 255 102 179 255 102 179 255 0 128 255 132 193 255 132 193 255 132 193 255 132 193 255 70 163 255 255 255 255 255 255 255 255 255 255 255 255 255 255 255 255 255 255 255 255 255 255 255 255 255 255 255 255 255 255 255 255 255 255 255 255 255 255 255 255 70 163 255 0 128 255 0 128 255 0 128 255
132 193 255 132 193 255 151 203 255 151 203 255 151 203 255 70 163 255 132 193 255 70 163 255 102 179 255 151 203 255 102 179 255 0 128 255 40 148 255 132 193 255 132 193 255 40 148 255 151 203 255 40 148 255 0 128 255 70 163 255 132 193 255 132 193 255 0 128 255 255 255 255 255 255 255 255 255 255 255 255 255 255 255 255 255 255 255 255 255 255 255 255 255 255 255 255 255 255 255 255 255 255 255 255 255 255 255 255 70 163 255 40 148 255 132 193 255 102 179 255
0 128 255 70 163 255 102 179 255 132 193 255 151 203 255 40 148 255 151 203 255 70 163 255 132 193 255 0 128 255 102 179 255 40 148 255 40 148 255 132 193 255 40 148 255 0 128 255 151 203 255 151 203 255 0 128 255 70 163 255 132 193 255 40 148 255 0 114 227 255 255 255 255 255 255 255 255 255 255 255 255 255 255 255 255 255 255 255 255 255 255 255 255 255 255 255 255 255 255 255 255 255 255 255 255 255 255 255 132 193 255 132 193 255 132 193 255 151 203 255
102 179 255 132 193 255 132 193 255 132 193 255 151 203 255 102 179 255 40 148 255 151 203 255 40 148 255 70 163 255 70 163 255 132 193 255 132 193 255 102 179 255 132 193 255 40 148 255 151 203 255 132 193 255 132 193 255 102 179 255 102 179 255 70 163 255 70 163 255 255 255 255 255 255 255 255 255 255 255 255 255 255 255 255 255 255 255 255 255 255 255 255 255 255 255 255 255 255 255 255 255 255 255 255 255 255 255 255 70 163 255 102 179 255 132 193 255 132 193 255
0 128 255 70 163 255 102 179 255 151 203 255 102 179 255 70 163 255 40 148 255 151 203 255 132 193 255 70 163 255 70 163 255 0 128 255 132 193 255 151 203 255 70 163 255 40 148 255 132 193 255 151 203 255 70 163 255 0 128 255 70 163 255 132 193 255 132 193 255 255 255 255 255 255 255 255 255 255 255 255 255 255 255 255 255 255 255 255 255 255 255 255 255 255 255 255 255 255 255 255 255 255 255 255 255 255 255 255 132 193 255 102 179 255 132 193 255 132 193 255
40 148 255 132 193 255 40 148 255 132 193 255 132 193 255 132 193 255 70 163 255 132 193 255 102 179 255 70 163 255 40 148 255 40 148 255 132 193 255 151 203 255 132 193 255 132 193 255 132 193 255 151 203 255 70 163 255 0 128 255 102 179 255 102 179 255 70 163 255 255 255 255 255 255 255 255 255 255 255 255 255 255 255 255 255 255 255 255 255 255 255 255 255 255 255 255 255 255 255 255 255 255 255 255 255 255 255 255 132 193 255 70 163 255 132 193 255 151 203 255
132 193 255 70 163 255 70 163 255 151 203 255 132 193 255 40 148 255 151 203 255 151 203 255 0 128 255 132 193 255 70 163 255 40 148 255 151 203 255 102 179 255 102 179 255 132 193 255 40 148 255 40 148 255 132 193 255 151 203 255 102 179 255 151 203 255 70 163 255 255 255 255 255 255 255 255 255 255 255 255 255 255 255 255 255 255 255 255 255 255 255 255 255 255 255 255 255 255 255 255 255 255 255 255 255 255 255 255 70 163 255 102 179 255 70 163 255 132 193 255
151 203 255 151 203 255 132 193 255 151 203 255 132 193 255 132 193 255 151 203 255 102 179 255 40 148 255 151 203 255 151 203 255 132 193 255 132 193 255 102 179 255 151 203 255 132 193 255 151 203 255 132 193 255 102 179 255 132 193 255 151 203 255 70 163 255 0 114 227 255 255 255 255 255 255 255 255 255 255 255 255 255 255 255 255 255 255 255 255 255 255 255 255 255 255 255 255 255 255 255 255 255 255 255 255 255 255 255 102 179 255 0 128 255 40 148 255 132 193 255
102 179 255 132 193 255 40 148 255 40 148 255 151 203 255 132 193 255 132 193 255 151 203 255 70 163 255 132 193 255 151 203 255 0 128 255 132 193 255 132 193 255 151 203 255 40 148 255 132 193 255 40 148 255 102 179 255 132 193 255 132 193 255 151 203 255 0 128 255 255 255 255 255 255 255 255 255 255 255 255 255 255 255 255 255 255 255 255 255 255 255 255 255 255 255 255 255 255 255 255 255 255 255 255 255 255 255 255 0 128 255 0 128 255 70 163 255 132 193 255
40 148 255 102 179 255 70 163 255 151 203 255 151 203 255 196 225 255 151 203 255 132 193 255 132 193 255 102 179 255 132 193 255 102 179 255 151 203 255 151 203 255 132 193 255 102 179 255 255 255 255 255 255 255 255 255 255 255 255 255 255 255 255 255 255 255 255 255 255 255 255 255 255 255 255 255 255 255 255 255 255 255 255 255 255 255 255 255 255 255 255 255 255 255 255 255 255 255 255 255 255 255 255 255 255 255 255 255 70 163 255 70 163 255 70 163 255 132 193 255
132 193 255 132 193 255 151 203 255 70 163 255 132 193 255 151 203 255 151 203 255 102 179 255 40 148 255 132 193 255 70 163 255 70 163 255 70 163 255 151 203 255 151 203 255 196 225 255 255 255 255 255 255 255 255 255 255 255 255 255 255 255 255 255 255 255 255 255 255 255 255 255 255 255 255 255 255 255 255 255 255 255 255 255 255 255 255 255 255 255 255 255 255 255 255 255 255 255 255 255 255 255 255 255 255 255 255 255 40 148 255 151 203 255 132 193 255 151 203 255
132 193 255 0 128 255 40 148 255 102 179 255 151 203 255 151 203 255 151 203 255 132 193 255 132 193 255 132 193 255 151 203 255 40 148 255 132 193 255 132 193 255 132 193 255 132 193 255 255 255 255 255 255 255 255 255 255 255 255 255 255 255 255 255 255 255 255 255 255 255 255 255 255 255 255 255 255 255 255 255 255 255 255 255 255 255 255 255 255 255 255 255 255 255 255 255 255 255 255 255 255 255 255 255 255 255 255 255 255 255 255 132 193 255 102 179 255 151 203 255
151 203 255 40 148 255 40 148 255 70 163 255 70 163 255 102 179 255 70 163 255 132 193 255 151 203 255 132 193 255 132 193 255 132 193 255 102 179 255 132 193 255 151 203 255 151 203 255 255 255 255 255 255 255 255 255 255 255 255 255 255 255 255 255 255 255 255 255 255 255 255 255 255 255 255 255 255 255 255 255 255 255 255 255 255 255 255 255 255 255 255 255 255 255 255 255 255 255 255 255 255 255 255 255 255 255 255 255 255 255 255 0 128 255 102 179 255 151 203 255
151 203 255 132 193 255 151 203 255 151 203 255 0 128 255 70 163 255 70 163 255 102 179 255 151 203 255 40 148 255 102 179 255 132 193 255 40 148 255 0 128 255 151 203 255 151 203 255 255 255 255 255 255 255 255 255 255 255 255 255 255 255 255 255 255 255 255 255 255 255 255 255 255 255 255 255 255 255 255 255 255 255 255 255 255 255 255 255 255 255 255 255 255 255 255 255 255 255 255 255 255 255 255 255 255 255 255 255 255 255 255 0 128 255 151 203 255 196 225 255
132 193 255 70 163 255 102 179 255 132 193 255 70 163 255 0 128 255 151 203 255 132 193 255 132 193 255 132 193 255 151 203 255 151 203 255 70 163 255 102 179 255 132 193 255 151 203 255 255 255 255 255 255 255 255 255 255 255 255 255 255 255 255 255 255 255 255 255 255 255 255 255 255 255 255 255 255 255 255 255 255 255 255 255 255 255 255 255 255 255 255 255 255 255 255 255 255 255 255 255 255 255 255 255 255 255 255 255 255 255 255 132 193 255 132 193 255 132 193 255
151 203 255 151 203 255 132 193 255 151 203 255 151 203 255 0 128 255 151 203 255 102 179 255 151 203 255 70 163 255 102 179 255 132 193 255 70 163 255 151 203 255 151 203 255 102 179 255 255 255 255 255 255 255 255 255 255 255 255 255 255 255 255 255 255 255 255 255 255 255 255 255 255 255 255 255 255 255 255 255 255 255 255 255 255 255 255 255 255 255 255 255 255 255 255 255 255 255 255 255 255 255 255 255 255 255 255 255 255 255 255 102 179 255 132 193 255 40 148 255
70 163 255 0 128 255 40 148 255 132 193 255 132 193 255 40 148 255 151 203 255 132 193 255 151 203 255 102 179 255 70 163 255 70 163 255 102 179 255 102 179 255 132 193 255 132 193 255 255 255 255 255 255 255 255 255 255 255 255 255 255 255 255 255 255 255 255 255 255 255 255 255 255 255 255 255 255 255 255 255 255 255 255 255 255 255 255 255 255 255 255 255 255 255 255 255 255 255 255 255 255 255 255 255 255 255 255 255 255 255 255 132 193 255 132 193 255 70 163 255
132 193 255 132 193 255 132 193 255 70 163 255 40 148 255 70 163 255 132 193 255 132 193 255 132 193 255 151 203 255 151 203 255 132 193 255 70 163 255 40 148 255 151 203 255 102 179 255 255 255 255 255 255 255 255 255 255 255 255 255 255 255 255 255 255 255 255 255 255 255 255 255 255 255 255 255 255 255 255 255 255 255 255 255 255 255 255 255 255 255 255 255 255 255 255 255 255 255 255 255 255 255 255 255 255 255 255 255 255 255 255 151 203 255 151 203 255 132 193 255
40 148 255 132 193 255 151 203 255 40 148 255 40 148 255 40 148 255 40 148 255 102 179 255 102 179 255 40 148 255 102 179 255 132 193 255 70 163 255 70 163 255 70 163 255 0 128 255 255 255 255 255 255 255 255 255 255 255 255 255 255 255 255 255 255 255 255 255 255 255 255 255 255 255 255 255 255 255 255 255 255 255 255 255 255 255 255 255 255 255 255 255 255 255 255 255 255 255 255 255 255 255 255 255 255 255 255 255 255 255 255 40 148 255 151 203 255 151 203 255
70 163 255 102 179 255 151 203 255 40 148 255 40 148 255 132 193 255 40 148 255 132 193 255 40 148 255 70 163 255 40 148 255 40 148 255 132 193 255 40 148 255 151 203 255 151 203 255 255 255 255 255 255 255 255 255 255 255 255 255 255 255 255 255 255 255 255 255 255 255 255 255 255 255 255 255 255 255 255 255 255 255 255 255 255 255 255 255 255 255 255 255 255 255 255 255 255 255 255 255 255 255 255 255 255 255 255 255 255 255 255 70 163 255 132 193 255 102 179 255
70 163 255 102 179 255 40 148 255 132 193 255 102 179 255 132 193 255 132 193 255 151 203 255 102 179 255 0 128 255 0 128 255 151 203 255 132 193 255 132 193 255 151 203 255 40 148 255 255 255 255 255 255 255 255 255 255 255 255 255 255 255 255 255 255 255 255 255 255 255 255 255 255 255 255 255 255 255 255 255 255 255 255 255 255 255 255 255 255 255 255 255 255 255 255 255 255 255 255 255 255 255 255 255 255 255 255 255 255 255 255 70 163 255 151 203 255 151 203 255
132 193 255 132 193 255 70 163 255 151 203 255 70 163 255 40 148 255 0 114 227 0 128 255 102 179 255 40 148 255 0 128 255 151 203 255 151 203 255 70 163 255 102 179 255 132 193 255 255 255 255 255 255 255 255 255 255 255 255 255 255 255 255 255 255 255 255 255 255 255 255 255 255 255 255 255 255 255 255 255 255 255 255 255 255 255 255 255 255 255 255 255 255 255 255 255 255 255 255 255 255 255 255 255 255 255 255 255 255 255 255 40 148 255 132 193 255 40 148 255
70 163 255 151 203 255 151 203 255 132 193 255 102 179 255 102 179 255 0 128 255 102 179 255 151 203 255 132 193 255 70 163 255 102 179 255 132 193 255 40 148 255 132 193 255 102 179 255 255 255 255 255 255 255 255 255 255 255 255 255 255 255 255 255 255 255 255 255 255 255 255 255 255 255 255 255 255 255 255 255 255 255 255 255 255 255 255 255 255 255 255 255 255 255 255 255 255 255 255 255 255 255 255 255 255 255 255 255 255 255 255 102 179 255 102 179 255 132 193 255
70 163 255 70 163 255 132 193 255 132 193 255 132 193 255 132 193 255 151 203 255 70 163 255 132 193 255 70 163 255 132 193 255 132 193 255 151 203 255 102 179 255 151 203 255 102 179 255 70 163 255 255 255 255 255 255 255 255 255 255 255 255 255 255 255 255 255 255 255 255 255 255 255 255 255 255 255 255 255 255 255 255 255 255 255 255 255 255 255 255 255 255 255 255 255 255 255 255 255 255 255 255 255 255 255 255 255 255 132 193 255 102 179 255 132 193 255 132 193 255
0 128 255 70 163 255 151 203 255 40 148 255 40 148 255 151 203 255 70 163 255 102 179 255 40 148 255 102 179 255 70 163 255 40 148 255 102 179 255 132 193 255 70 163 255 102 179 255 132 193 255 102 179 255 151 203 255 40 148 255 151 203 255 132 193 255 70 163 255 151 203 255 151 203 255 196 225 255 151 203 255 132 193 255 132 193 255 151 203 255 132 193 255 132 193 255 40 148 255 132 193 255 151 203 255 151 203 255 151 203 255 132 193 255 0 128 255 40 148 255
151 203 255 132 193 255 132 193 255 151 203 255 132 193 255 102 179 255 0 128 255 0 128 255 0 128 255 70 163 255 151 203 255 70 163 255 132 193 255 40 148 255 40 148 255 132 193 255 151 203 255 132 193 255 151 203 255 132 193 255 132 193 255 40 148 255 70 163 255 132 193 255 132 193 255 151 203 255 70 163 255 132 193 255 70 163 255 132 193 255 40 148 255 132 193 255 40 148 255 40 148 255 151 203 255 151 203 255 70 163 255 151 203 255 151 203 255 151 203 255
102 179 255 151 203 255 102 179 255 70 163 255 132 193 255 151 203 255 151 203 255 132 193 255 70 163 255 132 193 255 40 148 255 70 163 255 151 203 255 70 163 255 70 163 255 151 203 255 151 203 255 151 203 255 102 179 255 132 193 255 151 203 255 0 128 255 151 203 255 151 203 255 132 193 255 40 148 255 70 163 255 102 179 255 40 148 255 132 193 255 132 193 255 151 203 255 132 193 255 70 163 255 0 128 255 102 179 255 132 193 255 132 193 255 0 128 255 151 203 255
151 203 255 151 203 255 132 193 255 0 128 255 0 128 255 70 163 255 132 193 255 132 193 255 132 193 255 151 203 255 132 193 255 132 193 255 102 179 255 40 148 255 0 128 255 132 193 255 70 163 255 70 163 255 151 203 255 0 128 255 0 128 255 0 128 255 102 179 255 70 163 255 70 163 255 151 203 255 132 193 255 132 193 255 132 193 255 151 203 255 132 193 255 132 193 255 151 203 255 151 203 255 0 128 255 132 193 255 70 163 255 0 128 255 40 148 255 132 193 255
255 255 255 255 255 255 255 255 255 255 255 255 255 255 255 255 255 255 255 255 255 255 255 255 255 255 255 255 255 255 255 255 255 255 255 255 255 255 255 255 255 255 255 255 255 255 255 255 255 255 255 255 255 255 255 255 255 255 255 255 255 255 255 255 255 255 255 255 255 255 255 255 255 255 255 255 255 255 255 255 255 255 255 255 255 255 255 255 255 255 255 255 255 255 255 255 255 255 255 255 255 255 255 255 255 255 255 255 255 255 255 255 255 255 255 255 255 255 255 255
255 255 255 255 255 255 255 255 255 255 255 255 255 255 255 255 255 255 255 255 255 255 255 255 255 255 255 255 255 255 255 255 255 255 255 255 255 255 255 255 255 255 255 255 255 255 255 255 255 255 255 255 255 255 255 255 255 255 255 255 255 255 255 255 255 255 255 255 255 255 255 255 255 255 255 255 255 255 255 255 255 255 255 255 255 255 255 255 255 255 255 255 255 255 255 255 255 255 255 255 255 255 255 255 255 255 255 255 255 255 255 255 255 255 255 255 255 255 255 255
255 255 255 255 255 255 255 255 255 255 255 255 255 255 255 255 255 255 255 255 255 255 255 255 255 255 255 255 255 255 255 255 255 255 255 255 255 255 255 255 255 255 255 255 255 255 255 255 255 255 255 255 255 255 255 255 255 255 255 255 255 255 255 255 255 255 255 255 255 255 255 255 255 255 255 255 255 255 255 255 255 255 255 255 255 255 255 255 255 255 255 255 255 255 255 255 255 255 255 255 255 255 255 255 255 255 255 255 255 255 255 255 255 255 255 255 255 255 255 255
255 255 255 255 255 255 255 255 255 255 255 255 255 255 255 255 255 255 255 255 255 255 255 255 255 255 255 255 255 255 255 255 255 255 255 255 255 255 255 255 255 255 255 255 255 255 255 255 255 255 255 255 255 255 255 255 255 255 255 255 255 255 255 255 255 255 255 255 255 255 255 255 255 255 255 255 255 255 255 255 255 255 255 255 255 255 255 255 255 255 255 255 255 255 255 255 255 255 255 255 255 255 255 255 255 255 255 255 255 255 255 255 255 255 255 255 255 255 255 255
255 255 255 255 255 255 255 255 255 255 255 255 255 255 255 255 255 255 255 255 255 255 255 255 255 255 255 255 255 255 255 255 255 255 255 255 255 255 255 255 255 255 255 255 255 255 255 255 255 255 255 255 255 255 255 255 255 255 255 255 255 255 255 255 255 255 255 255 255 255 255 255 255 255 255 255 255 255 255 255 255 255 255 255 255 255 255 255 255 255 255 255 255 255 255 255 255 255 255 255 255 255 255 255 255 255 255 255 255 255 255 255 255 255 255 255 255 255 255 255
255 255 255 255 255 255 255 255 255 255 255 255 255 255 255 255 255 255 255 255 255 255 255 255 255 255 255 255 255 255 255 255 255 255 255 255 255 255 255 255 255 255 255 255 255 255 255 255 255 255 255 255 255 255 255 255 255 255 255 255 255 255 255 255 255 255 255 255 255 255 255 255 255 255 255 255 255 255 255 255 255 255 255 255 255 255 255 255 255 255 255 255 255 255 255 255 255 255 255 255 255 255 255 255 255 255 255 255 255 255 255 255 255 255 255 255 255 255 255 255
255 255 255 255 255 255 255 255 255 255 255 255 255 255 255 255 255 255 255 255 255 255 255 255 255 255 255 255 255 255 255 255 255 255 255 255 255 255 255 255 255 255 255 255 255 255 255 255 255 255 255 255 255 255 255 255 255 255 255 255 255 255 255 255 255 255 255 255 255 255 255 255 255 255 255 255 255 255 255 255 255 255 255 255 255 255 255 255 255 255 255 255 255 255 255 255 255 255 255 255 255 255 255 255 255 255 255 255 255 255 255 255 255 255 255 255 255 255 255 255
255 255 255 255 255 255 255 255 255 255 255 255 255 255 255 255 255 255 255 255 255 255 255 255 255 255 255 255 255 255 255 255 255 255 255 255 255 255 255 255 255 255 255 255 255 255 255 255 255 255 255 255 255 255 255 255 255 255 255 255 255 255 255 255 255 255 255 255 255 255 255 255 255 255 255 255 255 255 255 255 255 255 255 255 255 255 255 255 255 255 255 255 255 255 255 255 255 255 255 255 255 255 255 255 255 255 255 255 255 255 255 255 255 255 255 255 255 255 255 255
255 255 255 255 255 255 255 255 255 255 255 255 255 255 255 255 255 255 255 255 255 255 255 255 255 255 255 255 255 255 255 255 255 255 255 255 255 255 255 255 255 255 255 255 255 255 255 255 255 255 255 255 255 255 255 255 255 255 255 255 255 255 255 255 255 255 255 255 255 255 255 255 255 255 255 255 255 255 255 255 255 255 255 255 255 255 255 255 255 255 255 255 255 255 255 255 255 255 255 255 255 255 255 255 255 255 255 255 255 255 255 255 255 255 255 255 255 255 255 255
255 255 255 255 255 255 255 255 255 255 255 255 255 255 255 255 255 255 255 255 255 255 255 255 255 255 255 255 255 255 255 255 255 255 255 255 255 255 255 255 255 255 255 255 255 255 255 255 255 255 255 255 255 255 255 255 255 255 255 255 255 255 255 255 255 255 255 255 255 255 255 255 255 255 255 255 255 255 255 255 255 255 255 255 255 255 255 255 255 255 255 255 255 255 255 255 255 255 255 255 255 255 255 255 255 255 255 255 255 255 255 255 255 255 255 255 255 255 255 255
