P3
40 50
255
255 255 255 132 193 255 132 193 255 132 193 255 132 193 255 132 193 255 132 193 255 132 193 255 132 193 255 132 193 255 132 193 255 132 193 255 132 193 255 132 193 255 255 255 255 255 255 255 255 255 255 255 255 255 255 255 255 255 255 255 255 255 255 255 255 255 255 255 255 255 255 255 255 255 255 255 255 255 255 255 255 255 255 255 255 255 255 255 255 255 255 255 255 255 255 255 255 255 255 255 255 255 255 255 255 255 255 255 132 193 255 132 193 255 132 193 255 132 193 255
132 193 255 132 193 255 132 193 255 132 193 255 132 193 255 132 193 255 132 193 255 132 193 255 132 193 255 132 193 255 132 193 255 132 193 255 132 193 255 132 193 255 255 255 255 255 255 255 255 255 255 255 255 255 255 255 255 255 255 255 255 255 255 255 255 255 255 255 255 255 255 255 255 255 255 255 255 255 255 255 255 255 255 255 255 255 255 255 255 255 255 255 255 255 255 255 255 255 255 255 255 255 255 255 255 255 255 255 132 193 255 132 193 255 132 193 255 132 193 255
132 193 255 132 193 255 132 193 255 132 193 255 132 193 255 132 193 255 132 193 255 132 193 255 132 193 255 132 193 255 132 193 255 132 193 255 132 193 255 132 193 255 255 255 255 255 255 255 255 255 255 255 255 255 255 255 255 255 255 255 255 255 255 255 255 255 255 255 255 255 255 255 255 255 255 255 255 255 255 255 255 255 255 255 255 255 255 255 255 255 255 255 255 255 255 255 255 255 255 255 255 255 255 255 255 255 255 255 132 193 255 132 193 255 132 193 255 132 193 255
132 193 255 132 193 255 132 193 255 132 193 255 132 193 255 132 193 255 132 193 255 132 193 255 132 193 255 132 193 255 132 193 255 132 193 255 132 193 255 132 193 255 255 255 255 255 255 255 255 255 255 255 255 255 255 255 255 255 255 255 255 255 255 255 255 255 255 255 255 255 255 255 255 255 255 255 255 255 255 255 255 255 255 255 255 255 255 255 255 255 255 255 255 255 255 255 255 255 255 255 255 255 255 255 255 255 255 255 132 193 255 132 193 255 132 193 255 132 193 255
132 193 255 132 193 255 132 193 255 132 193 255 132 193 255 132 193 255 132 193 255 132 193 255 132 193 255 132 193 255 132 193 255 132 193 255 132 193 255 132 193 255 255 255 255 255 255 255 255 255 255 255 255 255 255 255 255 255 255 255 255 255 255 255 255 255 255 255 255 255 255 255 255 255 255 255 255 255 255 255 255 255 255 255 255 255 255 255 255 255 255 255 255 255 255 255 255 255 255 255 255 255 255 255 255 255 255 255 132 193 255 132 193 255 132 193 255 132 193 255
132 193 255 132 193 255 132 193 255 132 193 255 132 193 255 132 193 255 132 193 255 132 193 255 132 193 255 132 193 255 132 193 255 132 193 255 132 193 255 132 193 255 255 255 255 255 255 255 255 255 255 255 255 255 255 255 255 255 255 255 255 255 255 255 255 255 255 255 255 255 255 255 255 255 255 255 255 255 255 255 255 255 255 255 255 255 255 255 255 255 255 255 255 255 255 255 255 255 255 255 255 255 255 255 255 255 255 255 132 193 255 132 193 255 132 193 255 132 193 255
132 193 255 132 193 255 132 193 255 132 193 255 132 193 255 132 193 255 132 193 255 132 193 255 132 193 255 132 193 255 132 193 255 132 193 255 132 193 255 132 193 255 255 255 255 255 255 255 255 255 255 255 255 255 255 255 255 255 255 255 255 255 255 255 255 255 255 255 255 255 255 255 255 255 255 255 255 255 255 255 255 255 255 255 255 255 255 255 255 255 255 255 255 255 255 255 255 255 255 255 255 255 255 255 255 255 255 255 132 193 255 132 193 255 132 193 255 132 193 255
132 193 255 132 193 255 132 193 255 132 193 255 132 193 255 132 193 255 132 193 255 132 193 255 132 193 255 132 193 255 132 193 255 132 193 255 132 193 255 132 193 255 132 193 255 255 255 255 255 255 255 255 255 255 255 255 255 255 255 255 255 255 255 255 255 255 255 255 255 255 255 255 255 255 255 255 255 255 255 255 255 255 255 255 255 255 255 255 255 255 255 255 255 255 255 255 255 255 255 255 255 255 255 255 255 255 255 255 132 193 255 132 193 255 132 193 255 132 193 255
132 193 255 132 193 255 132 193 255 132 193 255 132 193 255 132 193 255 132 193 255 132 193 255 132 193 255 132 193 255 132 193 255 132 193 255 132 193 255 132 193 255 132 193 255 132 193 255 132 193 255 132 193 255 132 193 255 132 193 255 132 193 255 132 193 255 132 193 255 255 255 255 255 255 255 255 255 255 255 255 255 255 255 255 255 255 255 255 255 255 255 255 255 255 255 255 255 255 255 255 255 255 255 255 255 255 255 255 132 193 255 132 193 255 132 193 255 132 193 255
132 193 255 132 193 255 132 193 255 132 193 255 132 193 255 132 193 255 132 193 255 132 193 255 132 193 255 132 193 255 132 193 255 132 193 255 132 193 255 132 193 255 132 193 255 132 193 255 132 193 255 132 193 255 132 193 255 132 193 255 132 193 255 132 193 255 132 193 255 255 255 255 255 255 255 255 255 255 255 255 255 255 255 255 255 255 255 255 255 255 255 255 255 255 255 255 255 255 255 255 255 255 255 255 255 255 255 255 132 193 255 132 193 255 132 193 255 132 193 255
132 193 255 132 193 255 132 193 255 132 193 255 132 193 255 132 193 255 132 193 255 132 193 255 132 193 255 132 193 255 132 193 255 132 193 255 132 193 255 132 193 255 132 193 255 132 193 255 132 193 255 132 193 255 132 193 255 132 193 255 132 193 255 132 193 255 132 193 255 255 255 255 255 255 255 255 255 255 255 255 255 255 255 255 255 255 255 255 255 255 255 255 255 255 255 255 255 255 255 255 255 255 255 255 255 255 255 255 132 193 255 132 193 255 132 193 255 132 193 255
132 193 255 132 193 255 132 193 255 132 193 255 132 193 255 132 193 255 132 193 255 132 193 255 132 193 255 132 193 255 132 193 255 132 193 255 132 193 255 132 193 255 132 193 255 132 193 255 132 193 255 132 193 255 132 193 255 132 193 255 132 193 255 132 193 255 132 193 255 255 255 255 255 255 255 255 255 255 255 255 255 255 255 255 255 255 255 255 255 255 255 255 255 255 255 255 255 255 255 255 255 255 255 255 255 255 255 255 132 193 255 132 193 255 132 193 255 132 193 255
132 193 255 132 193 255 132 193 255 132 193 255 132 193 255 132 193 255 132 193 255 132 193 255 132 193 255 132 193 255 132 193 255 132 193 255 132 193 255 132 193 255 132 193 255 132 193 255 132 193 255 132 193 255 132 193 255 132 193 255 132 193 255 132 193 255 132 193 255 255 255 255 255 255 255 255 255 255 255 255 255 255 255 255 255 255 255 255 255 255 255 255 255 255 255 255 255 255 255 255 255 255 255 255 255 255 255 255 132 193 255 132 193 255 132 193 255 132 193 255
132 193 255 132 193 255 132 193 255 132 193 255 132 193 255 132 193 255 132 193 255 132 193 255 132 193 255 132 193 255 132 193 255 132 193 255 132 193 255 132 193 255 132 193 255 132 193 255 132 193 255 132 193 255 132 193 255 132 193 255 132 193 255 132 193 255 132 193 255 255 255 255 255 255 255 255 255 255 255 255 255 255 255 255 255 255 255 255 255 255 255 255 255 255 255 255 255 255 255 255 255 255 255 255 255 255 255 255 132 193 255 132 193 255 132 193 255 132 193 255
132 193 255 132 193 255 132 193 255 132 193 255 132 193 255 132 193 255 132 193 255 132 193 255 132 193 255 132 193 255 132 193 255 132 193 255 132 193 255 132 193 255 132 193 255 132 193 255 132 193 255 132 193 255 132 193 255 132 193 255 132 193 255 132 193 255 132 193 255 255 255 255 255 255 255 255 255 255 255 255 255 255 255 255 255 255 255 255 255 255 255 255 255 255 255 255 255 255 255 255 255 255 255 255 255 255 255 255 132 193 255 132 193 255 132 193 255 132 193 255
132 193 255 132 193 255 132 193 255 132 193 255 132 193 255 132 193 255 132 193 255 132 193 255 132 193 255 132 193 255 132 193 255 132 193 255 132 193 255 132 193 255 132 193 255 132 193 255 132 193 255 132 193 255 132 193 255 132 193 255 132 193 255 132 193 255 132 193 255 255 255 255 255 255 255 255 255 255 255 255 255 255 255 255 255 255 255 255 255 255 255 255 255 255 255 255 255 255 255 255 255 255 255 255 255 255 255 255 132 193 255 132 193 255 132 193 255 132 193 255
132 193 255 132 193 255 132 193 255 132 193 255 132 193 255 132 193 255 132 193 255 132 193 255 132 193 255 132 193 255 132 193 255 132 193 255 132 193 255 132 193 255 132 193 255 132 193 255 132 193 255 132 193 255 132 193 255 132 193 255 132 193 255 132 193 255 132 193 255 255 255 255 255 255 255 255 255 255 255 255 255 255 255 255 255 255 255 255 255 255 255 255 255 255 255 255 255 255 255 255 255 255 255 255 255 255 255 255 132 193 255 132 193 255 132 193 255 132 193 255
132 193 255 132 193 255 132 193 255 132 193 255 132 193 255 132 193 255 132 193 255 132 193 255 132 193 255 132 193 255 132 193 255 132 193 255 132 193 255 132 193 255 132 193 255 132 193 255 132 193 255 132 193 255 132 193 255 132 193 255 132 193 255 132 193 255 132 193 255 255 255 255 255 255 255 255 255 255 255 255 255 255 255 255 255 255 255 255 255 255 255 255 255 255 255 255 255 255 255 255 255 255 255 255 255 255 255 255 132 193 255 132 193 255 132 193 255 132 193 255
132 193 255 132 193 255 132 193 255 132 193 255 132 193 255 132 193 255 132 193 255 132 193 255 132 193 255 132 193 255 132 193 255 132 193 255 132 193 255 132 193 255 132 193 255 132 193 255 132 193 255 132 193 255 132 193 255 132 193 255 132 193 255 132 193 255 132 193 255 255 255 255 255 255 255 255 255 255 255 255 255 255 255 255 255 255 255 255 255 255 255 255 255 255 255 255 255 255 255 255 255 255 255 255 255 255 255 255 132 193 255 132 193 255 132 193 255 132 193 255
132 193 255 132 193 255 132 193 255 132 193 255 132 193 255 132 193 255 132 193 255 132 193 255 132 193 255 132 193 255 132 193 255 132 193 255 132 193 255 132 193 255 132 193 255 132 193 255 132 193 255 132 193 255 132 193 255 132 193 255 132 193 255 132 193 255 132 193 255 255 255 255 255 255 255 255 255 255 255 255 255 255 255 255 255 255 255 255 255 255 255 255 255 255 255 255 255 255 255 255 255 255 255 255 255 255 255 255 132 193 255 132 193 255 132 193 255 132 193 255
132 193 255 132 193 255 132 193 255 132 193 255 132 193 255 132 193 255 132 193 255 132 193 255 132 193 255 132 193 255 132 193 255 132 193 255 132 193 255 132 193 255 132 193 255 132 193 255 132 193 255 132 193 255 132 193 255 132 193 255 132 193 255 132 193 255 132 193 255 255 255 255 255 255 255 255 255 255 255 255 255 255 255 255 255 255 255 255 255 255 255 255 255 255 255 255 255 255 255 255 255 255 255 255 255 255 255 255 132 193 255 132 193 255 132 193 255 132 193 255
132 193 255 132 193 255 132 193 255 132 193 255 132 193 255 132 193 255 132 193 255 132 193 255 132 193 255 132 193 255 132 193 255 132 193 255 132 193 255 132 193 255 132 193 255 132 193 255 255 255 255 255 255 255 255 255 255 255 255 255 255 255 255 255 255 255 255 255 255 255 255 255 255 255 255 255 255 255 255 255 255 255 255 255 255 255 255 255 255 255 255 255 255 255 255 255 255 255 255 255 255 255 255 255 255 255 255 255 132 193 255 132 193 255 132 193 255 132 193 255
132 193 255 132 193 255 132 193 255 132 193 255 132 193 255 132 193 255 132 193 255 132 193 255 132 193 255 132 193 255 132 193 255 132 193 255 132 193 255 132 193 255 132 193 255 132 193 255 255 255 255 255 255 255 255 255 255 255 255 255 255 255 255 255 255 255 255 255 255 255 255 255 255 255 255 255 255 255 255 255 255 255 255 255 255 255 255 255 255 255 255 255 255 255 255 255 255 255 255 255 255 255 255 255 255 255 255 255 132 193 255 132 193 255 132 193 255 132 193 255
132 193 255 132 193 255 132 193 255 132 193 255 132 193 255 132 193 255 132 193 255 132 193 255 132 193 255 132 193 255 132 193 255 132 193 255 132 193 255 132 193 255 132 193 255 132 193 255 255 255 255 255 255 255 255 255 255 255 255 255 255 255 255 255 255 255 255 255 255 255 255 255 255 255 255 255 255 255 255 255 255 255 255 255 255 255 255 255 255 255 255 255 255 255 255 255 255 255 255 255 255 255 255 255 255 255 255 255 255 255 255 132 193 255 132 193 255 132 193 255
132 193 255 132 193 255 132 193 255 132 193 255 132 193 255 132 193 255 132 193 255 132 193 255 132 193 255 132 193 255 132 193 255 132 193 255 132 193 255 132 193 255 132 193 255 132 193 255 255 255 255 255 255 255 255 255 255 255 255 255 255 255 255 255 255 255 255 255 255 255 255 255 255 255 255 255 255 255 255 255 255 255 255 255 255 255 255 255 255 255 255 255 255 255 255 255 255 255 255 255 255 255 255 255 255 255 255 255 255 255 255 132 193 255 132 193 255 132 193 255
132 193 255 132 193 255 132 193 255 132 193 255 132 193 255 132 193 255 132 193 255 132 193 255 132 193 255 132 193 255 132 193 255 132 193 255 132 193 255 132 193 255 132 193 255 132 193 255 255 255 255 255 255 255 255 255 255 255 255 255 255 255 255 255 255 255 255 255 255 255 255 255 255 255 255 255 255 255 255 255 255 255 255 255 255 255 255 255 255 255 255 255 255 255 255 255 255 255 255 255 255 255 255 255 255 255 255 255 255 255 255 132 193 255 132 193 255 132 193 255
132 193 255 132 193 255 132 193 255 132 193 255 132 193 255 132 193 255 132 193 255 132 193 255 132 193 255 132 193 255 132 193 255 132 193 255 132 193 255 132 193 255 132 193 255 132 193 255 255 255 255 255 255 255 255 255 255 255 255 255 255 255 255 255 255 255 255 255 255 255 255 255 255 255 255 255 255 255 255 255 255 255 255 255 255 255 255 255 255 255 255 255 255 255 255 255 255 255 255 255 255 255 255 255 255 255 255 255 255 255 255 132 193 255 132 193 255 132 193 255
132 193 255 132 193 255 132 193 255 132 193 255 132 193 255 132 193 255 132 193 255 132 193 255 132 193 255 132 193 255 132 193 255 132 193 255 132 193 255 132 193 255 132 193 255 132 193 255 255 255 255 255 255 255 255 255 255 255 255 255 255 255 255 255 255 255 255 255 255 255 255 255 255 255 255 255 255 255 255 255 255 255 255 255 255 255 255 255 255 255 255 255 255 255 255 255 255 255 255 255 255 255 255 255 255 255 255 255 255 255 255 132 193 255 132 193 255 132 193 255
132 193 255 132 193 255 132 193 255 132 193 255 132 193 255 132 193 255 132 193 255 132 193 255 132 193 255 132 193 255 132 193 255 132 193 255 132 193 255 132 193 255 132 193 255 132 193 255 255 255 255 255 255 255 255 255 255 255 255 255 255 255 255 255 255 255 255 255 255 255 255 255 255 255 255 255 255 255 255 255 255 255 255 255 255 255 255 255 255 255 255 255 255 255 255 255 255 255 255 255 255 255 255 255 255 255 255 255 255 255 255 132 193 255 132 193 255 132 193 255
132 193 255 132 193 255 132 193 255 132 193 255 132 193 255 132 193 255 132 193 255 132 193 255 132 193 255 132 193 255 132 193 255 132 193 255 132 193 255 132 193 255 132 193 255 132 193 255 255 255 255 255 255 255 255 255 255 255 255 255 255 255 255 255 255 255 255 255 255 255 255 255 255 255 255 255 255 255 255 255 255 255 255 255 255 255 255 255 255 255 255 255 255 255 255 255 255 255 255 255 255 255 255 255 255 255 255 255 255 255 255 102 179 255 102 179 255 102 179 255
132 193 255 132 193 255 132 193 255 132 193 255 132 193 255 132 193 255 132 193 255 132 193 255 132 193 255 132 193 255 132 193 255 132 193 255 132 193 255 132 193 255 132 193 255 132 193 255 255 255 255 255 255 255 255 255 255 255 255 255 255 255 255 255 255 255 255 255 255 255 255 255 255 255 255 255 255 255 255 255 255 255 255 255 255 255 255 255 255 255 255 255 255 255 255 255 255 255 255 255 255 255 255 255 255 255 255 255 255 255 255 102 179 255 102 179 255 102 179 255
132 193 255 132 193 255 132 193 255 132 193 255 132 193 255 132 193 255 132 193 255 132 193 255 132 193 255 132 193 255 132 193 255 132 193 255 132 193 255 132 193 255 132 193 255 132 193 255 255 255 255 255 255 255 255 255 255 255 255 255 255 255 255 255 255 255 255 255 255 255 255 255 255 255 255 255 255 255 255 255 255 255 255 255 255 255 255 255 255 255 255 255 255 255 255 255 255 255 255 255 255 255 255 255 255 255 255 255 255 255 255 102 179 255 102 179 255 102 179 255
132 193 255 132 193 255 132 193 255 132 193 255 132 193 255 132 193 255 132 193 255 132 193 255 132 193 255 132 193 255 132 193 255 132 193 255 132 193 255 132 193 255 132 193 255 132 193 255 255 255 255 255 255 255 255 255 255 255 255 255 255 255 255 255 255 255 255 255 255 255 255 255 255 255 255 255 255 255 255 255 255 255 255 255 255 255 255 255 255 255 255 255 255 255 255 255 255 255 255 255 255 255 255 255 255 255 255 255 255 255 255 102 179 255 102 179 255 102 179 255
132 193 255 132 193 255 132 193 255 132 193 255 132 193 255 132 193 255 132 193 255 132 193 255 132 193 255 132 193 255 132 193 255 132 193 255 132 193 255 132 193 255 132 193 255 132 193 255 255 255 255 255 255 255 255 255 255 255 255 255 255 255 255 255 255 255 255 255 255 255 255 255 255 255 255 255 255 255 255 255 255 255 255 255 255 255 255 255 255 255 255 255 255 255 255 255 255 255 255 255 255 255 255 255 255 255 255 255 255 255 255 102 179 255 102 179 255 102 179 255
132 193 255 132 193 255 132 193 255 132 193 255 132 193 255 132 193 255 132 193 255 132 193 255 132 193 255 132 193 255 132 193 255 132 193 255 132 193 255 132 193 255 132 193 255 132 193 255 255 255 255 255 255 255 255 255 255 255 255 255 255 255 255 255 255 255 255 255 255 255 255 255 255 255 255 255 255 255 255 255 255 255 255 255 255 255 255 255 255 255 255 255 255 255 255 255 255 255 255 255 255 255 255 255 255 255 255 255 255 255 255 102 179 255 102 179 255 102 179 255
132 193 255 132 193 255 132 193 255 132 193 255 132 193 255 132 193 255 132 193 255 132 193 255 132 193 255 132 193 255 132 193 255 132 193 255 132 193 255 132 193 255 132 193 255 132 193 255 132 193 255 255 255 255 255 255 255 255 255 255 255 255 255 255 255 255 255 255 255 255 255 255 255 255 255 255 255 255 255 255 255 255 255 255 255 255 255 255 255 255 255 255 255 255 255 255 255 255 255 255 255 255 255 255 255 255 255 255 132 193 255 132 193 255 102 179 255 102 179 255
132 193 255 132 193 255 132 193 255 132 193 255 132 193 255 132 193 255 132 193 255 132 193 255 132 193 255 132 193 255 132 193 255 132 193 255 132 193 255 132 193 255 132 193 255 132 193 255 132 193 255 132 193 255 132 193 255 132 193 255 132 193 255 132 193 255 132 193 255 132 193 255 132 193 255 132 193 255 132 193 255 132 193 255 132 193 255 132 193 255 132 193 255 132 193 255 132 193 255 132 193 255 132 193 255 132 193 255 132 193 255 132 193 255 132 193 255 132 193 255
132 193 255 132 193 255 132 193 255 132 193 255 132 193 255 132 193 255 132 193 255 132 193 255 132 193 255 132 193 255 132 193 255 132 193 255 132 193 255 132 193 255 132 193 255 132 193 255 132 193 255 132 193 255 132 193 255 132 193 255 132 193 255 132 193 255 132 193 255 132 193 255 132 193 255 132 193 255 132 193 255 132 193 255 132 193 255 132 193 255 132 193 255 132 193 255 132 193 255 132 193 255 132 193 255 132 193 255 132 193 255 132 193 255 132 193 255 132 193 255
132 193 255 132 193 255 132 193 255 132 193 255 132 193 255 132 193 255 132 193 255 132 193 255 132 193 255 132 193 255 132 193 255 132 193 255 132 193 255 132 193 255 132 193 255 132 193 255 132 193 255 132 193 255 132 193 255 132 193 255 132 193 255 132 193 255 132 193 255 132 193 255 132 193 255 132 193 255 132 193 255 132 193 255 132 193 255 132 193 255 132 193 255 132 193 255 132 193 255 132 193 255 132 193 255 132 193 255 132 193 255 132 193 255 132 193 255 132 193 255
132 193 255 132 193 255 132 193 255 132 193 255 132 193 255 132 193 255 132 193 255 132 193 255 132 193 255 132 193 255 132 193 255 132 193 255 132 193 255 132 193 255 132 193 255 132 193 255 132 193 255 132 193 255 132 193 255 132 193 255 132 193 255 132 193 255 132 193 255 132 193 255 132 193 255 132 193 255 132 193 255 132 193 255 132 193 255 132 193 255 132 193 255 132 193 255 132 193 255 132 193 255 132 193 255 132 193 255 132 193 255 132 193 255 132 193 255 132 193 255
255 255 255 255 255 255 255 255 255 255 255 255 255 255 255 255 255 255 255 255 255 255 255 255 255 255 255 255 255 255 255 255 255 255 255 255 255 255 255 255 255 255 255 255 255 255 255 255 255 255 255 255 255 255 255 255 255 255 255 255 255 255 255 255 255 255 255 255 255 255 255 255 255 255 255 255 255 255 255 255 255 255 255 255 255 255 255 255 255 255 255 255 255 255 255 255 255 255 255 255 255 255 255 255 255 255 255 255 255 255 255 255 255 255 255 255 255 255 255 255
255 255 255 255 255 255 255 255 255 255 255 255 255 255 255 255 255 255 255 255 255 255 255 255 255 255 255 255 255 255 255 255 255 255 255 255 255 255 255 255 255 255 255 255 255 255 255 255 255 255 255 255 255 255 255 255 255 255 255 255 255 255 255 255 255 255 255 255 255 255 255 255 255 255 255 255 255 255 255 255 255 255 255 255 255 255 255 255 255 255 255 255 255 255 255 255 255 255 255 255 255 255 255 255 255 255 255 255 255 255 255 255 255 255 255 255 255 255 255 255
255 255 255 255 255 255 255 255 255 255 255 255 255 255 255 255 255 255 255 255 255 255 255 255 255 255 255 255 255 255 255 255 255 255 255 255 255 255 255 255 255 255 255 255 255 255 255 255 255 255 255 255 255 255 255 255 255 255 255 255 255 255 255 255 255 255 255 255 255 255 255 255 255 255 255 255 255 255 255 255 255 255 255 255 255 255 255 255 255 255 255 255 255 255 255 255 255 255 255 255 255 255 255 255 255 255 255 255 255 255 255 255 255 255 255 255 255 255 255 255
255 255 255 255 255 255 255 255 255 255 255 255 255 255 255 255 255 255 255 255 255 255 255 255 255 255 255 255 255 255 255 255 255 255 255 255 255 255 255 255 255 255 255 255 255 255 255 255 255 255 255 255 255 255 255 255 255 255 255 255 255 255 255 255 255 255 255 255 255 255 255 255 255 255 255 255 255 255 255 255 255 255 255 255 255 255 255 255 255 255 255 255 255 255 255 255 255 255 255 255 255 255 255 255 255 255 255 255 255 255 255 255 255 255 255 255 255 255 255 255
255 255 255 255 255 255 255 255 255 255 255 255 255 255 255 255 255 255 255 255 255 255 255 255 255 255 255 255 255 255 255 255 255 255 255 255 255 255 255 255 255 255 255 255 255 255 255 255 255 255 255 255 255 255 255 255 255 255 255 255 255 255 255 255 255 255 255 255 255 255 255 255 255 255 255 255 255 255 255 255 255 255 255 255 255 255 255 255 255 255 255 255 255 255 255 255 255 255 255 255 255 255 255 255 255 255 255 255 255 255 255 255 255 255 255 255 255 255 255 255
255 255 255 255 255 255 255 255 255 255 255 255 255 255 255 255 255 255 255 255 255 255 255 255 255 255 255 255 255 255 255 255 255 255 255 255 255 255 255 255 255 255 255 255 255 255 255 255 255 255 255 255 255 255 255 255 255 255 255 255 255 255 255 255 255 255 255 255 255 255 255 255 255 255 255 255 255 255 255 255 255 255 255 255 255 255 255 255 255 255 255 255 255 255 255 255 255 255 255 255 255 255 255 255 255 255 255 255 255 255 255 255 255 255 255 255 255 255 255 255
255 255 255 255 255 255 255 255 255 255 255 255 255 255 255 255 255 255 255 255 255 255 255 255 255 255 255 255 255 255 255 255 255 255 255 255 255 255 255 255 255 255 255 255 255 255 255 255 255 255 255 255 255 255 255 255 255 255 255 255 255 255 255 255 255 255 255 255 255 255 255 255 255 255 255 255 255 255 255 255 255 255 255 255 255 255 255 255 255 255 255 255 255 255 255 255 255 255 255 255 255 255 255 255 255 255 255 255 255 255 255 255 255 255 255 255 255 255 255 255
255 255 255 255 255 255 255 255 255 255 255 255 255 255 255 255 255 255 255 255 255 255 255 255 255 255 255 255 255 255 255 255 255 255 255 255 255 255 255 255 255 255 255 255 255 255 255 255 255 255 255 255 255 255 255 255 255 255 255 255 255 255 255 255 255 255 255 255 255 255 255 255 255 255 255 255 255 255 255 255 255 255 255 255 255 255 255 255 255 255 255 255 255 255 255 255 255 255 255 255 255 255 255 255 255 255 255 255 255 255 255 255 255 255 255 255 255 255 255 255
255 255 255 255 255 255 255 255 255 255 255 255 255 255 255 255 255 255 255 255 255 255 255 255 255 255 255 255 255 255 255 255 255 255 255 255 255 255 255 255 255 255 255 255 255 255 255 255 255 255 255 255 255 255 255 255 255 255 255 255 255 255 255 255 255 255 255 255 255 255 255 255 255 255 255 255 255 255 255 255 255 255 255 255 255 255 255 255 255 255 255 255 255 255 255 255 255 255 255 255 255 255 255 255 255 255 255 255 255 255 255 255 255 255 255 255 255 255 255 255
255 255 255 255 255 255 255 255 255 255 255 255 255 255 255 255 255 255 255 255 255 255 255 255 255 255 255 255 255 255 255 255 255 255 255 255 255 255 255 255 255 255 255 255 255 255 255 255 255 255 255 255 255 255 255 255 255 255 255 255 255 255 255 255 255 255 255 255 255 255 255 255 255 255 255 255 255 255 255 255 255 255 255 255 255 255 255 255 255 255 255 255 255 255 255 255 255 255 255 255 255 255 255 255 255 255 255 255 255 255 255 255 255 255 255 255 255 255 255 255
