P3
10 10
255
255 255 255 173 216 230 173 216 230 173 216 230 173 216 230 173 216 230 173 216 230 173 216 230 173 216 230 173 216 230
173 216 230 173 216 230 173 216 230 173 216 230 173 216 230 173 216 230 173 216 230 173 216 230 173 216 230 173 216 230
173 216 230 173 216 230 173 216 230 173 216 230 173 216 230 173 216 230 173 216 230 173 216 230 173 216 230 173 216 230
173 216 230 173 216 230 173 216 230 173 216 230 173 216 230 173 216 230 173 216 230 173 216 230 173 216 230 173 216 230
173 216 230 255 255 255 255 255 255 255 255 255 255 255 255 255 255 255 255 255 255 173 216 230 173 216 230 173 216 230
173 216 230 255 255 255 255 255 255 255 255 255 255 255 255 255 255 255 255 255 255 255 255 255 173 216 230 173 216 230
173 216 230 255 255 255 255 255 255 255 255 255 255 255 255 255 255 255 255 255 255 255 255 255 135 206 250 135 206 250
173 216 230 173 216 230 173 216 230 173 216 230 173 216 230 135 206 250 135 206 250 135 206 250 135 206 250 135 206 250
173 216 230 173 216 230 173 216 230 173 216 230 173 216 230 135 206 250 135 206 250 135 206 250 135 206 250 135 206 250
173 216 230 173 216 230 173 216 230 173 216 230 173 216 230 135 206 250 135 206 250 135 206 250 135 206 250 135 206 250
