P3
10 10
255
255 255 255 0 191 255 0 191 255 0 191 255 0 191 255 0 191 255 0 191 255 0 191 255 0 191 255 0 191 255
0 191 255 0 191 255 0 191 255 0 191 255 0 191 255 0 191 255 0 191 255 0 191 255 0 191 255 0 191 255
0 191 255 0 191 255 0 191 255 0 191 255 0 191 255 0 191 255 0 191 255 0 191 255 0 191 255 0 191 255
0 191 255 0 191 255 0 191 255 0 191 255 0 191 255 0 191 255 0 191 255 0 191 255 0 191 255 0 191 255
0 191 255 255 255 255 255 255 255 255 255 255 255 255 255 255 255 255 255 255 255 0 191 255 0 191 255 0 191 255
0 191 255 255 255 255 255 255 255 255 255 255 255 255 255 255 255 255 255 255 255 255 255 255 0 191 255 0 191 255
0 191 255 255 255 255 255 255 255 255 255 255 255 255 255 255 255 255 255 255 255 255 255 255 0 191 255 0 191 255
0 191 255 0 191 255 0 191 255 0 191 255 0 191 255 0 191 255 0 191 255 0 191 255 0 191 255 0 191 255
0 191 255 0 191 255 0 191 255 0 191 255 0 191 255 0 191 255 0 191 255 135 206 250 135 206 250 135 206 250
0 191 255 0 191 255 0 191 255 0 191 255 0 191 255 0 191 255 0 191 255 135 206 250 135 206 250 135 206 250
