P3
10 10
255
255 255 255 135 206 250 30 144 255 0 191 255 173 216 230 135 206 250 135 206 250 135 206 250 173 216 230 0 191 255
30 144 255 135 206 250 30 144 255 135 206 250 0 191 255 135 206 250 135 206 250 30 144 255 135 206 250 30 144 255
173 216 230 0 191 255 30 144 255 135 206 250 135 206 250 0 191 255 0 191 255 0 191 255 30 144 255 30 144 255
135 206 250 0 191 255 0 191 255 30 144 255 30 144 255 0 191 255 0 191 255 0 191 255 135 206 250 0 191 255
135 206 250 255 255 255 255 255 255 255 255 255 255 255 255 255 255 255 255 255 255 30 144 255 0 191 255 135 206 250
135 206 250 255 255 255 255 255 255 255 255 255 255 255 255 255 255 255 255 255 255 255 255 255 30 144 255 135 206 250
70 130 180 255 255 255 255 255 255 255 255 255 255 255 255 255 255 255 255 255 255 255 255 255 173 216 230 135 206 250
0 191 255 30 144 255 135 206 250 173 216 230 30 144 255 0 191 255 135 206 250 30 144 255 0 191 255 0 191 255
30 144 255 30 144 255 0 191 255 135 206 250 135 206 250 135 206 250 173 216 230 135 206 250 135 206 250 135 206 250
30 144 255 30 144 255 0 191 255 173 216 230 30 144 255 173 216 230 135 206 250 173 216 230 0 191 255 173 216 230
